<svg xmlns="http://www.w3.org/2000/svg" xmlns:xlink="http://www.w3.org/1999/xlink" viewBox="0 0 79.208 97.938"><defs><linearGradient id="a"><stop/><stop offset="1" stop-opacity=".536"/></linearGradient><linearGradient id="b" x1="181.75" x2="148.84" y1="231.55" y2="781.62" gradientTransform="translate(0 73.469)" gradientUnits="userSpaceOnUse"><stop offset="0" stop-color="#ffdc10"/><stop offset=".362" stop-color="#f4b908"/><stop offset=".75" stop-color="#eea704"/><stop offset="1" stop-color="#da9302"/></linearGradient><linearGradient id="k" x1="-660.836" x2="-657.204" y1="84.093" y2="84.093" gradientTransform="translate(2533.176 -343.225) scale(4.8729)" gradientUnits="userSpaceOnUse" xlink:href="#b"/><linearGradient id="l" x1="-660.836" x2="-655.099" y1="80.585" y2="80.585" gradientTransform="translate(2533.176 -343.225) scale(4.8729)" gradientUnits="userSpaceOnUse" xlink:href="#b"/><linearGradient id="m" x1="-657.336" x2="-655.429" y1="81.754" y2="86.051" gradientTransform="translate(2533.176 -343.225) scale(4.8729)" gradientUnits="userSpaceOnUse" xlink:href="#b"/><linearGradient id="n" x1="-664.765" x2="-662.793" y1="85.262" y2="85.52" gradientTransform="translate(2533.176 -343.225) scale(4.8729)" gradientUnits="userSpaceOnUse" xlink:href="#c"/><linearGradient id="c"><stop offset="0" stop-color="#046c00"/><stop offset="1" stop-color="#10c708"/></linearGradient><linearGradient id="o" x1="-664.718" x2="-658.326" y1="82.971" y2="82.971" gradientTransform="translate(2533.176 -343.225) scale(4.8729)" gradientUnits="userSpaceOnUse" xlink:href="#c"/><linearGradient id="p" x1="-662.808" x2="-658.326" y1="84.28" y2="85.239" gradientTransform="translate(2533.176 -343.225) scale(4.8729)" gradientUnits="userSpaceOnUse" xlink:href="#d"/><linearGradient id="d"><stop offset="0" stop-color="#09e900"/><stop offset="1" stop-color="#10c708"/></linearGradient><linearGradient id="e" x1="-660.836" x2="-657.204" y1="84.093" y2="84.093" gradientTransform="translate(2533.176 -343.225) scale(4.8729)" gradientUnits="userSpaceOnUse" xlink:href="#b"/><linearGradient id="f" x1="-660.836" x2="-655.099" y1="80.585" y2="80.585" gradientTransform="translate(2533.176 -343.225) scale(4.8729)" gradientUnits="userSpaceOnUse" xlink:href="#b"/><linearGradient id="g" x1="-657.336" x2="-655.429" y1="81.754" y2="86.051" gradientTransform="translate(2533.176 -343.225) scale(4.8729)" gradientUnits="userSpaceOnUse" xlink:href="#b"/><linearGradient id="h" x1="-664.765" x2="-662.793" y1="85.262" y2="85.52" gradientTransform="translate(2533.176 -343.225) scale(4.8729)" gradientUnits="userSpaceOnUse" xlink:href="#c"/><linearGradient id="i" x1="-664.718" x2="-658.326" y1="82.971" y2="82.971" gradientTransform="translate(2533.176 -343.225) scale(4.8729)" gradientUnits="userSpaceOnUse" xlink:href="#c"/><linearGradient id="j" x1="-662.808" x2="-658.326" y1="84.28" y2="85.239" gradientTransform="translate(2533.176 -343.225) scale(4.8729)" gradientUnits="userSpaceOnUse" xlink:href="#d"/></defs><g transform="translate(-59.44 -124.545)"><g stroke="#777" stroke-linecap="round" stroke-linejoin="round" stroke-width="1.291"><path fill="url(#e)" d="M-686.369 45.128l16.41 10.029-.228 32.82-16.182-11.852z" transform="translate(797.704 133.86)"/><path fill="url(#f)" d="M-686.369 45.128l10.257-1.367 16.41 8.205-10.257 3.19z" transform="translate(797.704 133.86)"/><path fill="url(#g)" d="M-669.959 55.157l10.257-3.191v33.048l-10.485 2.963z" transform="translate(797.704 133.86)"/><path fill="url(#h)" d="M-705.286 60.399l8.661 7.065v16.638l-8.889-7.977z" transform="translate(797.704 133.86)"/><path fill="url(#i)" d="M-705.286 60.399l22.564-5.698 7.293 5.47-21.196 7.293z" transform="translate(797.704 133.86)"/><path fill="url(#j)" d="M-696.625 67.464l21.196-7.293v16.41l-21.196 7.52z" transform="translate(797.704 133.86)"/></g><g stroke="#777" stroke-linecap="round" stroke-linejoin="round" stroke-width="1.291"><path fill="url(#k)" d="M-686.369 45.128l16.41 10.029-.228 32.82-16.182-11.852z" transform="translate(765.599 101.837)"/><path fill="url(#l)" d="M-686.369 45.128l10.257-1.367 16.41 8.205-10.257 3.19z" transform="translate(765.599 101.837)"/><path fill="url(#m)" d="M-669.959 55.157l10.257-3.191v33.048l-10.485 2.963z" transform="translate(765.599 101.837)"/><path fill="url(#n)" d="M-705.286 60.399l8.661 7.065v16.638l-8.889-7.977z" transform="translate(765.599 101.837)"/><path fill="url(#o)" d="M-705.286 60.399l22.564-5.698 7.293 5.47-21.196 7.293z" transform="translate(765.599 101.837)"/><path fill="url(#p)" d="M-696.625 67.464l21.196-7.293v16.41l-21.196 7.52z" transform="translate(765.599 101.837)"/></g><circle cx="92.926" cy="138.303" r="12.435" fill="#fff" stroke="#1168be" stroke-linecap="round" stroke-linejoin="bevel" stroke-width="2.646" paint-order="markers fill stroke"/><g style="line-height:1.25"><path d="M100.773 145.598h-3.88l-1.006-2.941h-5.394l-1.006 2.941h-3.782l5.374-14.55h4.32zm-5.795-5.61l-1.788-5.218-1.788 5.219z" style="-inkscape-font-specification:'sans-serif Bold'" fill="#1168be" stroke-width=".5" aria-label="A" font-family="sans-serif" font-size="20.013" font-weight="700" letter-spacing="0" word-spacing="0"/></g><circle cx="122.232" cy="168.286" r="12.435" fill="#fff" stroke="#1168be" stroke-linecap="round" stroke-linejoin="bevel" stroke-width="2.646" paint-order="markers fill stroke"/><g style="line-height:1.25"><path d="M129.082 171.125q0 1.055-.43 1.886-.42.83-1.163 1.378-.86.645-1.896.918-1.026.274-2.609.274h-6.352V161.03h5.648q1.76 0 2.57.117.821.118 1.623.518.83.42 1.231 1.134.41.703.41 1.612 0 1.056-.557 1.867-.557.801-1.573 1.25v.079q1.427.283 2.257 1.172.84.89.84 2.346zm-4.808-5.98q0-.362-.186-.724-.176-.362-.635-.538-.41-.156-1.026-.166-.606-.02-1.71-.02h-.352v3.08h.586q.89 0 1.515-.03.626-.03.987-.196.508-.224.665-.576.156-.362.156-.83zm.919 5.921q0-.694-.274-1.065-.264-.381-.909-.567-.44-.127-1.212-.137-.772-.01-1.612-.01h-.82v3.626h.273q1.583 0 2.267-.01.684-.01 1.26-.254.587-.245.802-.645.225-.41.225-.938z" style="-inkscape-font-specification:'sans-serif Bold'" fill="#1168be" stroke-width=".5" aria-label="B" font-family="sans-serif" font-size="20.013" font-weight="700" letter-spacing="0" word-spacing="0"/></g></g></svg>