<svg xmlns="http://www.w3.org/2000/svg" viewBox="0 0 21.642 25.667"><g fill="none" stroke="#686868"><path stroke-width=".269" d="M15.637 16.495l5.748-4.086v8.667l-5.748 4.322zM.31 7.683l6.794-2.668 14.281 7.394-5.748 4.086zM4.579 2.613l5.59-2.465L15.61 2.72 9.413 5.397 4.58 2.613"/><path stroke-width=".269" d="M.31 7.683l4.269 2.458V2.613l4.834 2.784v7.515l6.224 3.583v8.903L.149 14.726z"/><path stroke-width=".269" d="M9.413 5.397l6.198-2.677.225 7.08-6.423 3.112z"/><path stroke-width=".265" d="M.149 14.726l15.488 1.77M15.637 25.398l5.748-12.989M9.413 12.912l11.972-.503M9.413 12.912L15.611 2.72M4.579 2.613l4.834 10.299M9.413 5.397l.756-5.25"/></g></svg>