<svg xmlns="http://www.w3.org/2000/svg" viewBox="0 0 55.379 55.019"><path d="M30.9 43.825H14.008l-1.696 4.24h1.696q2.51 0 3.562.983 1.085.95 1.085 2.51 0 1.526-1.085 2.51-1.052.95-3.562.95H4.647q-2.51 0-3.562-.95Q0 53.084 0 51.524t1.12-2.544q1.119-.983 3.696-.916l10.922-27.202h-4.545q-2.51 0-3.595-.95-1.052-.983-1.052-2.544 0-1.56 1.052-2.51 1.085-.983 3.595-.983l15.026.035 13.839 34.155q2.442 0 3.222.543 1.56 1.12 1.56 2.951 0 1.526-1.051 2.51-1.052.95-3.562.95h-9.361q-2.51 0-3.596-.95-1.051-.984-1.051-2.544 0-1.526 1.051-2.476 1.086-.983 3.596-.983h1.696zm-2.883-6.954l-5.597-13.77-5.63 13.77z" style="line-height:1.25;-inkscape-font-specification:'Courier New Bold'" fill="#0000c9" font-family="Courier New" font-size="11.977" font-weight="700" letter-spacing="0" word-spacing="0"/><path fill="#b21e00" d="M54.094 1.216c-1.715-1.621-4.475-1.621-6.19 0l-10.231 9.678L27.44 1.216c-1.714-1.621-4.475-1.621-6.189 0-1.714 1.621-1.714 4.233 0 5.854l10.232 9.678-10.232 9.678c-1.714 1.621-1.714 4.233 0 5.854 1.714 1.621 4.475 1.621 6.189 0l10.232-9.678 10.232 9.678c1.714 1.621 4.475 1.621 6.189 0 1.714-1.621 1.714-4.233 0-5.854l-10.232-9.678L54.094 7.07c1.714-1.622 1.714-4.233 0-5.854z"/></svg>