<svg xmlns="http://www.w3.org/2000/svg" xmlns:xlink="http://www.w3.org/1999/xlink" viewBox="0 0 47.964 45.967"><defs><linearGradient id="h" x1="92.186" x2="119.104" y1="33.465" y2="26.565" gradientTransform="translate(-13.788 -19.1)" gradientUnits="userSpaceOnUse" xlink:href="#a"/><linearGradient id="a"><stop offset="0" stop-color="#62b01e"/><stop offset="1" stop-color="#44880c"/></linearGradient><linearGradient id="d" x1="64.5" x2="64.5" y1="930.36" y2="1045.36" gradientUnits="userSpaceOnUse" xlink:href="#b"/><linearGradient id="b"><stop offset="0" stop-color="#b5b5ac"/><stop offset="1" stop-color="#f0f0f0"/></linearGradient><linearGradient id="g" x1="141.66" x2="160.896" y1="139.493" y2="139.493" gradientTransform="matrix(.47868 0 0 .54867 38.007 53.841)" gradientUnits="userSpaceOnUse" xlink:href="#c"/><linearGradient id="c"><stop offset="0" stop-color="green"/><stop offset="1" stop-color="#0f0"/></linearGradient><linearGradient id="e" x1="64.5" x2="64.5" y1="930.36" y2="1045.36" gradientUnits="userSpaceOnUse" xlink:href="#b"/><linearGradient id="f" x1="64.5" x2="64.5" y1="930.36" y2="1045.36" gradientUnits="userSpaceOnUse" xlink:href="#b"/></defs><g transform="matrix(.21975 0 0 .21975 -1.003 -7.917)"><rect width="108.4" height="110.2" x="39.006" y="37.558" fill="#5786e7" stroke="#000" stroke-linejoin="round" stroke-width="3.063" rx="2.97" ry="2.887"/><rect width="74.653" height="56.282" x="56.146" y="37.92" fill="#fff" stroke="#000" stroke-linejoin="round" stroke-width="3.063" rx="2.045" ry="1.474"/><rect width="50.282" height="31.224" x="66.522" y="116.237" fill="#fff" stroke="#000" stroke-linejoin="round" stroke-width="3.063" rx="1.816" ry="1.252"/><rect width="38.051" height="31.224" x="66.069" y="116.237" fill="#fff" stroke="#000" stroke-linejoin="round" stroke-width="3.063" rx="1.816" ry="1.252"/><path d="M71.31 121.067h9.959v20.587H71.31z"/></g><g stroke-width="1.323"><g fill="url(#d)" fill-rule="evenodd" stroke="#999997" stroke-linejoin="round" stroke-width="5" transform="matrix(.26458 0 0 .26458 18.992 -231.279)"><path fill="url(#e)" d="M82 930.36H22v115h85v-90z"/><path fill="url(#f)" d="M107 955.36l-25-25c1.863 8.333 2.133 16.667 0 25 9.905-1.935 17.128-.568 25 0z"/></g><path fill="url(#g)" stroke="#3f6e2e" d="M105.856 124.838v11.079l9.086-5.54z" transform="translate(-74.467 -100.285)"/></g><g stroke="#57705d" stroke-width=".452"><path fill="url(#h)" fill-rule="evenodd" stroke-linecap="round" stroke-linejoin="round" d="M107.47-2.367c-7.89 17.304-21.247 13.233-21.374 13.233V5.14l-7.699 9.225 7.762 7.76v-5.788s18.511 4.326 21.311-18.704z" transform="matrix(-.72907 -.27961 -.3153 .89037 78.894 47.587)"/></g></svg>