<svg xmlns="http://www.w3.org/2000/svg" xmlns:xlink="http://www.w3.org/1999/xlink" viewBox="0 0 65.142 63.121"><defs><linearGradient id="a"><stop stop-color="#eee"/><stop offset="1" stop-color="#d2d2d2"/></linearGradient><linearGradient id="b"><stop offset="0" stop-color="#616c82"/><stop offset=".522" stop-color="#7f83a5"/><stop offset="1" stop-color="#667086"/></linearGradient><linearGradient id="c"><stop offset="0" stop-color="#ecc80e"/><stop offset="1" stop-color="#b98915"/></linearGradient><linearGradient id="d"><stop offset="0" stop-color="#e7e7e9"/><stop offset="1" stop-color="#8b8c8d"/></linearGradient><linearGradient id="e" x1="-108.12" x2="-103.612" y1="457.759" y2="457.759" gradientTransform="matrix(15.23463 0 0 16.68114 947.063 -6731.805)" gradientUnits="userSpaceOnUse" xlink:href="#a"/><linearGradient id="f" x1="-104.335" x2="-104.334" y1="458.468" y2="458.78" gradientTransform="matrix(47.2193 0 0 47.64129 4262.067 -20970.865)" gradientUnits="userSpaceOnUse" xlink:href="#b"/><radialGradient id="g" cx="-107.006" cy="457.498" r=".508" fx="-107.006" fy="457.498" gradientTransform="matrix(11.94548 0 0 12.02838 594.782 -4606.392)" gradientUnits="userSpaceOnUse" xlink:href="#c"/><radialGradient id="h" cx="-107.013" cy="458.733" r=".405" fx="-107.013" fy="458.733" gradientTransform="matrix(15.26365 0 0 15.26365 949.761 -6090.56)" gradientUnits="userSpaceOnUse" xlink:href="#d"/><radialGradient id="i" cx="-107.013" cy="458.733" r=".405" fx="-107.013" fy="458.733" gradientTransform="matrix(15.26365 0 0 15.26365 949.81 -6075.854)" gradientUnits="userSpaceOnUse" xlink:href="#d"/></defs><path fill="url(#e)" stroke="#292e51" stroke-linecap="round" stroke-width="2.95" d="M-698.695 871.295h65.86v65.675h-65.86z" transform="translate(497.507 -618.052) scale(.71055)"/><path fill="url(#f)" stroke="#292e51" stroke-linecap="round" stroke-width="2.825" d="M-698.758 871.233h65.986v14.728h-65.986z" transform="translate(497.507 -618.052) scale(.71055)"/><path fill="url(#g)" stroke="#8e8f8f" stroke-linecap="round" stroke-width=".925" d="M-689.078 890.945h11.248v11.248h-11.248z" transform="translate(497.507 -618.052) scale(.71055)"/><path fill="url(#h)" stroke="#8e8f8f" stroke-linecap="round" stroke-width="1.13" d="M-689.265 905.756h11.248v11.248h-11.248z" transform="translate(497.507 -618.052) scale(.71055)"/><path fill="none" stroke="#8e8f8f" stroke-width="1.8801153" d="M20.859 29.492H38.83"/><path fill="none" stroke="#087676" stroke-width="1.8801153" d="M21.051 19.308h17.972"/><path fill="url(#i)" stroke="#8e8f8f" stroke-linecap="round" stroke-width="1.13" d="M-689.215 920.462h11.248v11.248h-11.248z" transform="translate(497.507 -618.052) scale(.71055)"/><path fill="none" stroke="#8e8f8f" stroke-width="1.8801153" d="M20.894 39.94h17.972"/><g transform="matrix(.63864 0 0 .63864 78.536 566.892)"><rect width="54.897" height="53.064" x="-81.585" y="-843.02" fill="#b0b0ff" fill-rule="evenodd" stroke="#00f" stroke-width="1.421" rx="2.641"/><rect width="54.896" height="53.063" x="-81.588" y="-843.02" fill="none" stroke="#5959a6" stroke-linejoin="round" stroke-width="2.271" rx="2.641"/><rect width="63.537" height="10.694" x="-86.024" y="-851.506" fill="#6b6bff" fill-rule="evenodd" stroke="#00f" stroke-linecap="round" stroke-linejoin="round" stroke-width="3.028" rx="2.469"/><path fill="#333" d="M-44.201-833.315c1.95 0 3.74.332 5.37.995 1.646.664 3.029 1.553 4.148 2.67 1.12 1.1 1.993 2.41 2.622 3.932.627 1.505.94 3.115.94 4.83 0 2.33-.703 4.969-2.111 7.913a46.862 46.862 0 0 1-5.167 8.447c-2.053 2.67-4.038 4.871-5.955 6.603-.374.339-.934.736-1.68 1.19-.374.241-.89.362-1.552.362-.764 0-1.578-.387-2.444-1.165-.848-.792-1.272-1.633-1.272-2.524 0-.307.085-.606.255-.898.17-.308.449-.688.839-1.141.475-.566 1.307-1.48 2.495-2.742a303.159 303.159 0 0 0 2.85-3.059 26.198 26.198 0 0 0 1.857-2.257l-.102-.097c-.915.404-2.01.606-3.283.606-2.019 0-3.86-.51-5.522-1.528a11.297 11.297 0 0 1-3.945-4.152 11.46 11.46 0 0 1-1.425-5.557c0-1.65.313-3.213.942-4.686a12.129 12.129 0 0 1 2.722-3.98 13.147 13.147 0 0 1 4.2-2.767c1.612-.663 3.352-.995 5.218-.995zm0 17.646c1.46 0 2.646-.494 3.563-1.48.915-.988 1.374-2.234 1.374-3.738 0-1.441-.45-2.67-1.349-3.69-.883-1.02-2.078-1.529-3.588-1.529-1.46 0-2.656.509-3.589 1.529-.916 1.004-1.374 2.233-1.374 3.69 0 1.423.432 2.653 1.298 3.689.882 1.02 2.104 1.53 3.665 1.53zm-26.342 15.05v-25.196h-3.079c-1.171 0-2.054-.332-2.647-.996-.594-.663-.892-1.472-.892-2.427 0-.938.315-1.756.943-2.45.644-.697 1.51-1.045 2.596-1.045h7.406c.729 0 1.357.162 1.883.486.526.307.924.728 1.197 1.262.27.518.407 1.132.407 1.844v28.521c0 1.262-.357 2.233-1.07 2.913-.712.68-1.654 1.02-2.824 1.02-1.154 0-2.096-.35-2.826-1.044-.729-.697-1.094-1.66-1.094-2.889z"/></g></svg>