<svg xmlns="http://www.w3.org/2000/svg" xmlns:xlink="http://www.w3.org/1999/xlink" viewBox="0 0 60.775 47.653"><defs><filter id="d" color-interpolation-filters="sRGB"><feGaussianBlur stdDeviation="1.512"/></filter><filter id="e" color-interpolation-filters="sRGB"><feGaussianBlur stdDeviation=".966"/></filter><filter id="f" color-interpolation-filters="sRGB"><feGaussianBlur stdDeviation=".492"/></filter><filter id="g" color-interpolation-filters="sRGB"><feGaussianBlur stdDeviation="1.449"/></filter><linearGradient id="h" x1="1813.324" x2="1833.511" y1="-397.491" y2="-397.491" gradientTransform="matrix(.2996 0 0 .29881 -697.973 1188.518)" gradientUnits="userSpaceOnUse" xlink:href="#a"/><linearGradient id="a" x1="301.8" x2="288.56" y1="267.55" y2="839.03" gradientTransform="translate(0 73.469)" gradientUnits="userSpaceOnUse"><stop offset="0" stop-color="#ffdc10"/><stop offset=".395" stop-color="#f4b908"/><stop offset=".75" stop-color="#eea704"/><stop offset="1" stop-color="#c68000"/></linearGradient><linearGradient id="i" x1="1776.666" x2="1815.079" y1="-450.134" y2="-450.134" gradientTransform="matrix(.2996 0 0 .29881 -697.973 1188.518)" gradientUnits="userSpaceOnUse" xlink:href="#a"/><linearGradient id="j" x1="1761.624" x2="1814.324" y1="-413.855" y2="-413.855" gradientTransform="matrix(.2996 0 0 .29881 -697.973 1188.518)" gradientUnits="userSpaceOnUse" xlink:href="#b"/><linearGradient id="b" x1="181.75" x2="148.84" y1="231.55" y2="781.62" gradientTransform="translate(0 73.469)" gradientUnits="userSpaceOnUse"><stop offset="0" stop-color="#ffdc10"/><stop offset=".362" stop-color="#f4b908"/><stop offset=".75" stop-color="#eea704"/><stop offset="1" stop-color="#da9302"/></linearGradient><linearGradient id="k" x1="1792.553" x2="1814.998" y1="-434.589" y2="-434.589" gradientTransform="matrix(.2996 0 0 .29881 -697.973 1188.518)" gradientUnits="userSpaceOnUse" xlink:href="#a"/><filter id="l" color-interpolation-filters="sRGB"><feGaussianBlur stdDeviation="1.512"/></filter><filter id="m" color-interpolation-filters="sRGB"><feGaussianBlur stdDeviation=".966"/></filter><filter id="n" color-interpolation-filters="sRGB"><feGaussianBlur stdDeviation=".492"/></filter><filter id="o" color-interpolation-filters="sRGB"><feGaussianBlur stdDeviation="1.449"/></filter><filter id="p" color-interpolation-filters="sRGB"><feGaussianBlur stdDeviation="1.512"/></filter><filter id="q" color-interpolation-filters="sRGB"><feGaussianBlur stdDeviation=".966"/></filter><filter id="r" color-interpolation-filters="sRGB"><feGaussianBlur stdDeviation=".492"/></filter><filter id="s" color-interpolation-filters="sRGB"><feGaussianBlur stdDeviation="1.449"/></filter><linearGradient id="t" x1="1441.622" x2="1561.714" y1="4554.757" y2="4695.872" gradientTransform="matrix(.1713 0 0 .1713 1276.907 4557.148)" gradientUnits="userSpaceOnUse" xlink:href="#c"/><linearGradient id="c"><stop offset="0" stop-color="#ca3131"/><stop offset="1" stop-color="#603030"/></linearGradient></defs><path style="text-indent:0;text-transform:none" d="M58.875 598.03c-5.727-.297-11.627 1.181-16.344 4.781-4.717 3.6-8.125 9.355-8.906 16.97l-.031.155v159.6l.03.157c2.092 18.443 15.14 28.406 28.313 28.406 13.172 0 26.28-9.967 28.562-28.406l.031-.157v-.187l-1.063-103.59-5.5.062 1.063 103.38c-2.057 16.087-12.642 23.406-23.094 23.406-10.488 0-21.007-7.331-22.844-23.53v-158.72c.648-6.316 3.25-10.463 6.781-13.157 3.531-2.694 8.133-3.894 12.72-3.656 4.585.238 9.086 1.95 12.374 4.781 3.275 2.82 5.406 6.66 5.5 11.75v.063l-.375 114.53c-3.201 11.056-9.506 15.119-15.25 14.906-5.77-.214-11.726-4.91-13.875-14.219l-.717-63.17-5.5.062.719 63.562v.313l.062.281c2.53 11.285 10.436 18.336 19.094 18.656 8.658.32 17.256-6.297 20.875-19.25l.094-.344v-.375l.375-115v-.062c-.1-6.662-3.072-12.175-7.406-15.906s-9.96-5.796-15.688-6.094z" color="#000" filter="url(#d)" opacity=".32" transform="rotate(53.874 98.684 68.203) scale(.14291)"/><path style="text-indent:0;text-transform:none" fill="#babdb6" d="M31.247 4.607c-.448-.687-1.116-1.243-1.929-1.484-.813-.241-1.764-.15-2.709.401l-.02.01L8.166 16.981l-.015.017c-1.953 1.795-2.004 4.14-.894 5.661 1.11 1.52 3.365 2.194 5.685.904l.021-.01.022-.016 11.868-8.85-.471-.63-11.844 8.833c-2.03 1.118-3.766.513-4.647-.694-.884-1.21-.924-3.042.791-4.62L27.003 4.205c.784-.457 1.482-.506 2.09-.326.609.18 1.135.611 1.494 1.16.359.55.54 1.214.49 1.832a2.186 2.186 0 0 1-.892 1.625l-.007.005-13.252 9.606c-1.546.562-2.546.177-3.006-.504-.461-.684-.42-1.767.473-2.8l7.23-5.405-.47-.63-7.276 5.439-.036.026-.027.031c-1.09 1.243-1.238 2.75-.545 3.776.692 1.026 2.18 1.461 3.98.788l.048-.019.044-.031L30.647 9.13l.007-.005a3.026 3.026 0 0 0 1.213-2.197c.066-.814-.17-1.637-.618-2.323z" color="#000"/><path fill="none" stroke="#000" d="M38.57 669.79l.714 63.571c4.643 20.714 27.857 23.571 34.643-.714l.357-115c-.357-23.571-40-27.857-42.857 0v159.29c3.929 34.643 47.143 34.643 51.43 0l-1.072-103.57" filter="url(#e)" transform="rotate(53.874 98.684 68.203) scale(.14291)"/><path style="text-indent:0;text-transform:none" fill="#555753" d="M51.458 599.65c-4.001.107-7.91 1.298-11 3.656-3.53 2.695-6.134 6.841-6.781 13.156v2c.648-6.315 3.25-10.462 6.781-13.156 3.53-2.695 8.133-3.894 12.719-3.656s9.086 1.95 12.375 4.781a16.326 16.326 0 0 1 3.125 3.594c-.941-2.557-2.519-4.674-4.531-6.406-.656-.565-1.382-1.059-2.125-1.531a21.562 21.562 0 0 0-8.844-2.438 21.843 21.843 0 0 0-1.719 0zm22.125 7.906a21.53 21.53 0 0 1 1.563 7.688v-1.907c-.018-1.166-.156-2.282-.344-3.375-.004-.009.004-.022 0-.03a21.252 21.252 0 0 0-1.22-2.376zm-34.125 62.75l.688 60.344c.631 2.736 1.593 5.058 2.78 7a25.505 25.505 0 0 1-1.374-4.187v-.532a25.33 25.33 0 0 1-1.407-4.28l-.656-58.345h-.03zm43.219 3.594l1 99.031.031-.094v-.187l-1-98.75h-.031zm-6.5 57.688l-.094.344c-3.619 12.953-12.217 19.57-20.875 19.25-3.164-.117-6.235-1.113-8.969-2.906-.019-.013-.043-.02-.062-.032-3.312-1.807-6.21-4.712-8.375-8.5 3.487 8.206 10.174 13.17 17.406 13.438 8.658.321 17.256-6.297 20.875-19.25l.094-.343v-2zm-43.906 40.781v2c.562 4.955 1.938 9.066 3.875 12.406-.76-1.765-1.382-3.722-1.844-5.844-.97-2.51-1.67-5.37-2.031-8.562zm52.812 3.437c-2.281 18.44-15.39 28.406-28.562 28.406-4.97 0-9.93-1.4-14.281-4.156-4.422-2.448-8.316-6.219-11.125-11.219 4.999 11.354 15.162 17.375 25.406 17.375 13.172 0 26.281-9.967 28.562-28.406l.031-.156v-.187l-.031-1.657z" color="#000" filter="url(#f)" transform="rotate(53.874 98.684 68.203) scale(.14291)"/><path style="text-indent:0;text-transform:none" fill="#fff" d="M31.032 4.493c-.44-.57-1.036-1.024-1.748-1.235-.813-.241-1.764-.15-2.709.402l-.02.01L8.132 17.115l-.015.017c-.959.881-1.462 1.897-1.591 2.88.168-.92.666-1.859 1.56-2.68l.015-.017L26.523 3.869l.021-.01c.945-.55 1.896-.642 2.71-.401.812.241 1.48.797 1.928 1.484.448.686.684 1.51.619 2.324a3.316 3.316 0 0 1-.01.107c.018-.101.033-.205.04-.307.066-.815-.17-1.638-.618-2.324a3.942 3.942 0 0 0-.181-.249zm-.03 2.808c-.101.502-.363.96-.85 1.328l-.007.005-13.251 9.606c-1.546.562-2.546.177-3.006-.504-.223-.33-.327-.753-.276-1.22-.11.546-.01 1.042.245 1.42.46.68 1.46 1.066 3.006.504l13.251-9.606.007-.005c.55-.417.813-.95.881-1.528zM21.12 8.903l-7.276 5.438-.036.027-.027.03c-.558.637-.87 1.345-.949 2.02.112-.614.414-1.246.917-1.82l.028-.03.036-.027 7.276-5.438zm3.23 5.289l-11.843 8.833c-2.03 1.118-3.767.512-4.648-.694a3.06 3.06 0 0 1-.578-2.171c-.16.88.069 1.716.547 2.37.88 1.207 2.617 1.812 4.648.694l11.843-8.833z" color="#000"/><path fill="none" stroke="#000" d="M38.509 669.79l.714 63.571c4.643 20.714 27.857 23.571 34.643-.714l.357-115c-.357-23.571-40-27.857-42.857 0v159.29c3.929 34.643 47.143 34.643 51.43 0l-1.072-103.57" filter="url(#g)" transform="rotate(53.874 98.684 68.203) scale(.14291)"/><path fill="#eaeaea" fill-rule="evenodd" d="M21.546 9.449c-.12.088-.321.02-.447-.153s-.13-.385-.01-.473c.121-.088.321-.02.447.153s.13.385.01.473z" color="#000"/><path fill="#efefef" fill-rule="evenodd" d="M24.813 14.724c-.12.088-.32.02-.447-.154-.126-.172-.13-.384-.01-.472.122-.088.322-.02.448.153s.13.384.01.473z" color="#000"/><g stroke="#696666" stroke-width=".269"><path fill="url(#h)" d="M-154.54 1067.33l5.748-4.086v8.666l-5.748 4.322z" transform="translate(259.654 -1401.723) scale(1.33894)"/><path fill="#ffd100" stroke-width=".36017486000000004" d="M32.212 15.57l9.097-3.573 19.122 9.901-7.697 5.471z"/><path fill="url(#i)" d="M-165.598 1053.448l5.59-2.466 5.442 2.572-6.197 2.678-4.835-2.784" transform="translate(259.654 -1401.723) scale(1.33894)"/><path fill="url(#j)" d="M-169.867 1058.517l4.27 2.458v-7.527l4.834 2.784v7.514l6.223 3.583v8.903l-15.488-10.672z" transform="translate(259.654 -1401.723) scale(1.33894)"/><path fill="url(#k)" d="M-160.763 1056.232l6.197-2.678.225 7.081-6.422 3.111z" transform="translate(259.654 -1401.723) scale(1.33894)"/></g><g><path style="text-indent:0;text-transform:none" d="M58.875 598.03c-5.727-.297-11.627 1.181-16.344 4.781-4.717 3.6-8.125 9.355-8.906 16.97l-.031.155v159.6l.03.157c2.092 18.443 15.14 28.406 28.313 28.406 13.172 0 26.28-9.967 28.562-28.406l.031-.157v-.187l-1.063-103.59-5.5.062 1.063 103.38c-2.057 16.087-12.642 23.406-23.094 23.406-10.488 0-21.007-7.331-22.844-23.53v-158.72c.648-6.316 3.25-10.463 6.781-13.157 3.531-2.694 8.133-3.894 12.72-3.656 4.585.238 9.086 1.95 12.374 4.781 3.275 2.82 5.406 6.66 5.5 11.75v.063l-.375 114.53c-3.201 11.056-9.506 15.119-15.25 14.906-5.77-.214-11.726-4.91-13.875-14.219l-.717-63.17-5.5.062.719 63.562v.313l.062.281c2.53 11.285 10.436 18.336 19.094 18.656 8.658.32 17.256-6.297 20.875-19.25l.094-.344v-.375l.375-115v-.062c-.1-6.662-3.072-12.175-7.406-15.906s-9.96-5.796-15.688-6.094z" color="#000" filter="url(#l)" opacity=".32" transform="rotate(108.672 39.526 68.054) scale(.14291)"/><path style="text-indent:0;text-transform:none" fill="#babdb6" d="M33.539 32.285c.302-.761.372-1.628.1-2.431-.271-.804-.894-1.528-1.89-1.982l-.02-.012-21.607-7.302-.022-.003c-2.593-.56-4.539.75-5.141 2.533-.603 1.784.147 4.014 2.539 5.167l.02.011.025.009 14.073 4.596.243-.748-14.045-4.586c-2.084-1.014-2.59-2.782-2.112-4.197.48-1.42 1.954-2.51 4.231-2.017l21.488 7.262c.826.377 1.268.92 1.471 1.52.204.602.155 1.28-.087 1.89-.242.61-.68 1.14-1.213 1.456a2.186 2.186 0 0 1-1.843.207l-.008-.002-15.489-5.291c-1.35-.94-1.612-1.98-1.32-2.747.293-.771 1.201-1.363 2.56-1.228l8.585 2.793.243-.747-8.638-2.811-.042-.014-.041-.005c-1.644-.174-2.96.574-3.4 1.732-.44 1.157.063 2.624 1.651 3.707l.043.028.05.017 15.553 5.313.008.002c.908.292 1.79.142 2.494-.274.704-.416 1.24-1.083 1.543-1.845z" color="#000"/><path fill="none" stroke="#000" d="M38.57 669.79l.714 63.571c4.643 20.714 27.857 23.571 34.643-.714l.357-115c-.357-23.571-40-27.857-42.857 0v159.29c3.929 34.643 47.143 34.643 51.43 0l-1.072-103.57" filter="url(#m)" transform="rotate(108.672 39.526 68.054) scale(.14291)"/><path style="text-indent:0;text-transform:none" fill="#555753" d="M51.458 599.65c-4.001.107-7.91 1.298-11 3.656-3.53 2.695-6.134 6.841-6.781 13.156v2c.648-6.315 3.25-10.462 6.781-13.156 3.53-2.695 8.133-3.894 12.719-3.656s9.086 1.95 12.375 4.781a16.326 16.326 0 0 1 3.125 3.594c-.941-2.557-2.519-4.674-4.531-6.406-.656-.565-1.382-1.059-2.125-1.531a21.562 21.562 0 0 0-8.844-2.438 21.843 21.843 0 0 0-1.719 0zm22.125 7.906a21.53 21.53 0 0 1 1.563 7.688v-1.907c-.018-1.166-.156-2.282-.344-3.375-.004-.009.004-.022 0-.03a21.252 21.252 0 0 0-1.22-2.376zm-34.125 62.75l.688 60.344c.631 2.736 1.593 5.058 2.78 7a25.505 25.505 0 0 1-1.374-4.187v-.532a25.33 25.33 0 0 1-1.407-4.28l-.656-58.345h-.03zm43.219 3.594l1 99.031.031-.094v-.187l-1-98.75h-.031zm-6.5 57.688l-.094.344c-3.619 12.953-12.217 19.57-20.875 19.25-3.164-.117-6.235-1.113-8.969-2.906-.019-.013-.043-.02-.062-.032-3.312-1.807-6.21-4.712-8.375-8.5 3.487 8.206 10.174 13.17 17.406 13.438 8.658.321 17.256-6.297 20.875-19.25l.094-.343v-2zm-43.906 40.781v2c.562 4.955 1.938 9.066 3.875 12.406-.76-1.765-1.382-3.722-1.844-5.844-.97-2.51-1.67-5.37-2.031-8.562zm52.812 3.437c-2.281 18.44-15.39 28.406-28.562 28.406-4.97 0-9.93-1.4-14.281-4.156-4.422-2.448-8.316-6.219-11.125-11.219 4.999 11.354 15.162 17.375 25.406 17.375 13.172 0 26.281-9.967 28.562-28.406l.031-.156v-.187l-.031-1.657z" color="#000" filter="url(#n)" transform="rotate(108.672 39.526 68.054) scale(.14291)"/><path style="text-indent:0;text-transform:none" fill="#fff" d="M33.507 32.044c.213-.687.24-1.437.002-2.14-.271-.803-.895-1.528-1.89-1.982l-.02-.011-21.607-7.303-.022-.003c-1.273-.275-2.393-.1-3.271.361.849-.393 1.903-.528 3.09-.271l.022.003L31.419 28l.02.012c.994.454 1.618 1.178 1.89 1.982.27.803.201 1.67-.101 2.431-.303.762-.84 1.43-1.543 1.845l-.094.054c.094-.044.187-.091.275-.143.703-.416 1.24-1.084 1.543-1.845.038-.096.068-.194.098-.292zm-2.311 1.594a2.165 2.165 0 0 1-1.575.072l-.008-.003-15.489-5.291c-1.35-.94-1.612-1.979-1.32-2.747.141-.373.426-.701.837-.928-.509.224-.857.592-1.018 1.018-.292.768-.03 1.807 1.32 2.746l15.489 5.291.008.003a2.174 2.174 0 0 0 1.756-.16zm-7.006-7.152l-8.638-2.811-.043-.014-.04-.005c-.842-.089-1.6.064-2.197.39.565-.263 1.256-.38 2.015-.3l.041.004.042.015 8.639 2.81zm-2.46 5.688L7.685 27.588c-2.083-1.015-2.59-2.782-2.112-4.198a3.06 3.06 0 0 1 1.44-1.724 3.059 3.059 0 0 0-1.62 1.814c-.48 1.415.027 3.183 2.111 4.198l14.045 4.586z" color="#000"/><path fill="none" stroke="#000" d="M38.509 669.79l.714 63.571c4.643 20.714 27.857 23.571 34.643-.714l.357-115c-.357-23.571-40-27.857-42.857 0v159.29c3.929 34.643 47.143 34.643 51.43 0l-1.072-103.57" filter="url(#o)" transform="rotate(108.672 39.526 68.054) scale(.14291)"/><path fill="#eaeaea" fill-rule="evenodd" d="M23.99 27.15c-.142-.049-.201-.252-.133-.454.069-.203.24-.328.38-.28.142.047.202.25.133.453-.068.203-.238.328-.38.28z" color="#000"/><path fill="#efefef" fill-rule="evenodd" d="M21.563 32.86c-.142-.048-.2-.251-.132-.454.068-.202.238-.328.38-.28.142.048.201.251.133.454-.069.202-.24.328-.38.28z" color="#000"/></g><g><path style="text-indent:0;text-transform:none" d="M58.875 598.03c-5.727-.297-11.627 1.181-16.344 4.781-4.717 3.6-8.125 9.355-8.906 16.97l-.031.155v159.6l.03.157c2.092 18.443 15.14 28.406 28.313 28.406 13.172 0 26.28-9.967 28.562-28.406l.031-.157v-.187l-1.063-103.59-5.5.062 1.063 103.38c-2.057 16.087-12.642 23.406-23.094 23.406-10.488 0-21.007-7.331-22.844-23.53v-158.72c.648-6.316 3.25-10.463 6.781-13.157 3.531-2.694 8.133-3.894 12.72-3.656 4.585.238 9.086 1.95 12.374 4.781 3.275 2.82 5.406 6.66 5.5 11.75v.063l-.375 114.53c-3.201 11.056-9.506 15.119-15.25 14.906-5.77-.214-11.726-4.91-13.875-14.219l-.717-63.17-5.5.062.719 63.562v.313l.062.281c2.53 11.285 10.436 18.336 19.094 18.656 8.658.32 17.256-6.297 20.875-19.25l.094-.344v-.375l.375-115v-.062c-.1-6.662-3.072-12.175-7.406-15.906s-9.96-5.796-15.688-6.094z" color="#000" filter="url(#p)" opacity=".32" transform="rotate(98.767 45.75 79.698) scale(.14291)"/><path style="text-indent:0;text-transform:none" fill="#babdb6" d="M46.156 41.116c.166-.803.086-1.668-.32-2.413-.405-.744-1.144-1.351-2.202-1.627l-.022-.008-22.541-3.477-.023.001c-2.65-.106-4.342 1.52-4.629 3.38-.287 1.86.835 3.93 3.39 4.653l.021.008.027.004 14.654 2.106.11-.778-14.623-2.101c-2.228-.641-3.031-2.296-2.803-3.772.228-1.481 1.493-2.807 3.82-2.714l22.418 3.457c.878.23 1.407.687 1.71 1.245.304.557.373 1.233.24 1.876-.134.642-.473 1.24-.945 1.643a2.186 2.186 0 0 1-1.78.521l-.008-.001-16.168-2.548c-1.492-.693-1.928-1.672-1.773-2.478.156-.81.949-1.55 2.31-1.65l8.938 1.274.111-.778-8.993-1.283-.044-.007-.041.003c-1.65.112-2.817 1.075-3.051 2.29-.234 1.216.513 2.575 2.264 3.368l.047.02.052.01 16.235 2.557.009.001a3.026 3.026 0 0 0 2.41-.7c.62-.53 1.034-1.28 1.201-2.082z" color="#000"/><path fill="none" stroke="#000" d="M38.57 669.79l.714 63.571c4.643 20.714 27.857 23.571 34.643-.714l.357-115c-.357-23.571-40-27.857-42.857 0v159.29c3.929 34.643 47.143 34.643 51.43 0l-1.072-103.57" filter="url(#q)" transform="rotate(98.767 45.75 79.698) scale(.14291)"/><path style="text-indent:0;text-transform:none" fill="#555753" d="M51.458 599.65c-4.001.107-7.91 1.298-11 3.656-3.53 2.695-6.134 6.841-6.781 13.156v2c.648-6.315 3.25-10.462 6.781-13.156 3.53-2.695 8.133-3.894 12.719-3.656s9.086 1.95 12.375 4.781a16.326 16.326 0 0 1 3.125 3.594c-.941-2.557-2.519-4.674-4.531-6.406-.656-.565-1.382-1.059-2.125-1.531a21.562 21.562 0 0 0-8.844-2.438 21.843 21.843 0 0 0-1.719 0zm22.125 7.906a21.53 21.53 0 0 1 1.563 7.688v-1.907c-.018-1.166-.156-2.282-.344-3.375-.004-.009.004-.022 0-.03a21.252 21.252 0 0 0-1.22-2.376zm-34.125 62.75l.688 60.344c.631 2.736 1.593 5.058 2.78 7a25.505 25.505 0 0 1-1.374-4.187v-.532a25.33 25.33 0 0 1-1.407-4.28l-.656-58.345h-.03zm43.219 3.594l1 99.031.031-.094v-.187l-1-98.75h-.031zm-6.5 57.688l-.094.344c-3.619 12.953-12.217 19.57-20.875 19.25-3.164-.117-6.235-1.113-8.969-2.906-.019-.013-.043-.02-.062-.032-3.312-1.807-6.21-4.712-8.375-8.5 3.487 8.206 10.174 13.17 17.406 13.438 8.658.321 17.256-6.297 20.875-19.25l.094-.343v-2zm-43.906 40.781v2c.562 4.955 1.938 9.066 3.875 12.406-.76-1.765-1.382-3.722-1.844-5.844-.97-2.51-1.67-5.37-2.031-8.562zm52.812 3.437c-2.281 18.44-15.39 28.406-28.562 28.406-4.97 0-9.93-1.4-14.281-4.156-4.422-2.448-8.316-6.219-11.125-11.219 4.999 11.354 15.162 17.375 25.406 17.375 13.172 0 26.281-9.967 28.562-28.406l.031-.156v-.187l-.031-1.657z" color="#000" filter="url(#r)" transform="rotate(98.767 45.75 79.698) scale(.14291)"/><path style="text-indent:0;text-transform:none" fill="#fff" d="M46.083 40.883c.09-.713-.011-1.456-.366-2.108-.406-.745-1.145-1.351-2.203-1.627l-.021-.008-22.542-3.477-.023.001c-1.301-.052-2.374.313-3.16.918.769-.533 1.784-.847 2.997-.798l.023-.001 22.542 3.476.021.008c1.058.276 1.797.883 2.203 1.628.405.744.486 1.61.319 2.412-.167.802-.581 1.552-1.202 2.083a3.315 3.315 0 0 1-.083.069c.084-.06.168-.122.246-.188.621-.531 1.035-1.281 1.202-2.083.02-.1.034-.203.047-.305zm-2.003 1.969a2.165 2.165 0 0 1-1.539.34h-.009l-16.168-2.548c-1.491-.693-1.928-1.672-1.773-2.479.076-.392.3-.764.665-1.059-.462.309-.742.731-.828 1.179-.155.806.282 1.785 1.773 2.478l16.168 2.548.01.001a2.174 2.174 0 0 0 1.701-.46zm-8.132-5.84l-8.993-1.284-.044-.007-.041.003c-.844.057-1.565.338-2.097.761.512-.355 1.172-.59 1.934-.642l.041-.002.044.007 8.993 1.283zm-1.444 6.026l-14.625-2.102c-2.227-.641-3.03-2.295-2.802-3.772a3.06 3.06 0 0 1 1.122-1.946 3.059 3.059 0 0 0-1.285 2.066c-.228 1.476.575 3.13 2.802 3.771l14.625 2.102z" color="#000"/><path fill="none" stroke="#000" d="M38.509 669.79l.714 63.571c4.643 20.714 27.857 23.571 34.643-.714l.357-115c-.357-23.571-40-27.857-42.857 0v159.29c3.929 34.643 47.143 34.643 51.43 0l-1.072-103.57" filter="url(#s)" transform="rotate(98.767 45.75 79.698) scale(.14291)"/><path fill="#eaeaea" fill-rule="evenodd" d="M35.865 37.699c-.148-.023-.241-.213-.208-.424.032-.211.178-.364.326-.342.148.023.242.213.209.424-.033.212-.179.365-.327.342z" color="#000"/><path fill="#efefef" fill-rule="evenodd" d="M34.457 43.742c-.148-.023-.241-.213-.209-.424.033-.212.18-.364.327-.342.148.023.241.213.209.424-.033.212-.179.365-.327.342z" color="#000"/></g><g><path fill="url(#t)" d="M1550.293 5333.775a4.348 4.348 0 0 0-6.161 0l-10.187 10.187-10.187-10.187a4.348 4.348 0 0 0-6.162 0 4.348 4.348 0 0 0 0 6.161l10.187 10.187-10.186 10.187a4.348 4.348 0 0 0 0 6.161 4.348 4.348 0 0 0 6.161 0l10.187-10.187 10.187 10.187a4.348 4.348 0 0 0 6.16 0 4.348 4.348 0 0 0 0-6.161l-10.186-10.187 10.187-10.187a4.348 4.348 0 0 0 0-6.161z" opacity=".889" transform="matrix(.43435 0 0 .41084 -655.777 -2170.52)"/></g></svg>