<svg xmlns="http://www.w3.org/2000/svg" xmlns:xlink="http://www.w3.org/1999/xlink" viewBox="0 0 78.061 68.443"><defs><marker id="f" orient="auto" overflow="visible" refX="0" refY="0"><path fill-rule="evenodd" stroke="#000" stroke-width="1.0664" d="M10 0l4-4L0 0l14 4z"/></marker><marker id="g" orient="auto" overflow="visible" refX="0" refY="0"><path fill-rule="evenodd" stroke="#000" stroke-width="1.0664" d="M-10 0l-4 4L0 0l-14-4z"/></marker><marker id="h" orient="auto" overflow="visible" refX="0" refY="0"><path fill-rule="evenodd" stroke="#000" stroke-width="1.0664" d="M-10 0l-4 4L0 0l-14-4z"/></marker><linearGradient id="e" x1="736.931" x2="750.758" y1="346.725" y2="346.725" gradientTransform="translate(-2027.224 -852.91) scale(2.83334)" gradientUnits="userSpaceOnUse" xlink:href="#a"/><linearGradient id="a"><stop stop-color="#fff" stop-opacity=".679"/><stop offset="1" stop-opacity=".333"/></linearGradient><linearGradient id="d" x1="349.012" x2="497.838" y1="945.376" y2="945.376" gradientTransform="matrix(.26458 0 0 .26458 -31.376 -101.035)" gradientUnits="userSpaceOnUse" xlink:href="#b"/><linearGradient id="b"><stop stop-color="#fff"/><stop offset="1" stop-color="#7c7c7c"/></linearGradient><filter id="c" width="1.205" height="1.551" x="-.103" y="-.276" color-interpolation-filters="sRGB"><feGaussianBlur stdDeviation=".49"/></filter></defs><g transform="translate(-60.755 -101.76)"><path fill-opacity=".956" d="M751.414 338.502h11.473v4.269h-11.473z" filter="url(#c)" opacity=".626" transform="matrix(3.00506 0 0 3.16202 -2157.24 -964.87)"/><path fill="#fffd3d" stroke="#000" stroke-linecap="round" stroke-width="1.065" d="M101.79 106.183h32.506v12.095H101.79z"/><path fill="url(#d)" stroke="#030303" stroke-linecap="round" stroke-width="1.757" d="M98.957 130.005a18.709 8.553 0 0 1-18.614 7.696 18.709 8.553 0 0 1-18.498-7.329v30.827c.5 4.58 9.045 8.163 19.074 8.126 10.27-.041 18.546-3.858 18.546-8.553z"/><path fill="none" stroke="#030303" stroke-dasharray="7.028 7.028" stroke-linecap="round" stroke-width="1.757" d="M61.861 160.827a18.709 8.553 0 0 1 18.758-8.508 18.709 8.553 0 0 1 18.66 8.552"/><ellipse cx="80.343" cy="129.482" fill="url(#e)" stroke="#030303" stroke-linecap="round" stroke-width="1.757" rx="18.709" ry="8.553"/><path fill="none" stroke="#000" stroke-width=".661" d="M94.49 123.583l7.3-5.305"/><path fill="none" stroke="#000" stroke-width=".661" marker-end="url(#h)" marker-mid="url(#g)" marker-start="url(#f)" d="M68.393 135.45l26.097-11.867"/></g></svg>