<svg xmlns="http://www.w3.org/2000/svg" xmlns:xlink="http://www.w3.org/1999/xlink" viewBox="0 0 84.874 70.057"><defs><linearGradient id="g" x1="48.906" x2="50.988" y1="17.376" y2="22.251" gradientTransform="scale(1 -1) rotate(-89.699 22.753 -20.363)" gradientUnits="userSpaceOnUse"><stop offset="0" stop-color="#ffd1d1"/><stop offset=".5" stop-color="#ff1d1d"/><stop offset="1" stop-color="#6f0000"/></linearGradient><linearGradient id="h" x1="46" x2="47.688" y1="19.812" y2="22.625" gradientTransform="scale(1 -1) rotate(-89.699 22.753 -20.363)" gradientUnits="userSpaceOnUse"><stop offset="0" stop-color="#c1c1c1"/><stop offset="1" stop-color="#acacac"/></linearGradient><radialGradient id="i" cx="29.053" cy="27.641" r="3.241" gradientTransform="matrix(.01538 2.9235 2.0297 -.01068 20.391 -69.727)" gradientUnits="userSpaceOnUse"><stop offset="0" stop-color="#e7e2b8"/><stop offset="1" stop-color="#e7e2b8" stop-opacity="0"/></radialGradient><linearGradient id="j" x1="25.719" x2="25.515" y1="31.047" y2="30.703" gradientTransform="scale(1 -1) rotate(-89.699 31.456 -17.402)" gradientUnits="userSpaceOnUse"><stop offset="0"/><stop offset="1" stop-color="#c9c9c9"/></linearGradient><filter id="c" color-interpolation-filters="sRGB"><feGaussianBlur result="fbSourceGraphic" stdDeviation="5"/><feGaussianBlur in="SourceGraphic" result="result1" stdDeviation=".01"/><feComposite in="fbSourceGraphic" in2="result1" k2=".5" k3=".5" operator="arithmetic" result="result2"/><feBlend in2="fbSourceGraphic" result="result3"/></filter><radialGradient id="d" cx="89.51" cy="22.254" r="18.279" gradientTransform="matrix(1 0 0 .97468 0 .44)" gradientUnits="userSpaceOnUse" xlink:href="#a"/><linearGradient id="a"><stop/><stop offset="1" stop-opacity=".536"/></linearGradient><filter id="e" width="1.294" height="1.29" x="-.147" y="-.145"><feGaussianBlur stdDeviation="1.819"/></filter><linearGradient id="f" x1="98.33" x2="86.82" y1="14.793" y2="25.1" gradientTransform="matrix(.96715 0 0 .96715 115.415 -2.733)" gradientUnits="userSpaceOnUse" xlink:href="#b"/><linearGradient id="b"><stop/><stop offset="1" stop-color="#ddd" stop-opacity="0"/></linearGradient></defs><path d="M20.98-.137v165.606h200.63V30.659L191.69-.137h-56.004z" filter="url(#c)" transform="matrix(.35253 0 0 .35253 -.324 5.886)"/><path fill="#fff" d="M7.073 5.838V64.22H77.8V16.694L67.253 5.839H47.51z"/><path fill="url(#d)" d="M81.698 28.31l.135-8.351c.068-6.6-.877-11.548-4.047-16.012l2.576-.031 27.5 25.615c-4.067-2.646-9.62-.791-16.861-1.026z" filter="url(#e)" opacity=".505" transform="matrix(.3582 0 0 .3921 38.467 4.832)"/><path fill="#eee" d="M68.975 14.053l.046-2.847c.023-2.25-.949-3.82-2.03-5.342l10.53 10.783c-1.388-.902-2.906-2.447-5.374-2.527z"/><path fill="url(#f)" d="M196.575 23.165l.13-8.076c.066-6.383-2.69-10.837-5.757-15.153l29.867 30.588c-3.935-2.559-8.24-6.943-15.243-7.17z" transform="matrix(.35253 0 0 .35253 -.324 5.886)"/><g><g fill="none" stroke="#9f9f9f" stroke-dasharray="8 2 1 2"><path stroke-width=".43" d="M18.57 13.776v45.508M25.225 13.776v45.508M31.88 13.776v45.508M38.536 13.776v45.508M45.192 13.776v45.508M51.847 13.776v45.508M58.503 13.776v45.508"/></g><g fill="none" stroke="#9f9f9f" stroke-dasharray="8 2 1 2"><path stroke-width=".43" d="M60.664 16.963H15.156M60.664 23.619H15.156M60.664 30.275H15.156M60.664 36.93H15.156M60.664 43.586H15.156M60.664 50.241H15.156M60.664 56.897H15.156"/></g><path fill="none" stroke="#0b56b6" stroke-width="3.44" d="M48.813 22.122H21.735v21.547c-.06 7.38 2.588 7.41 9.175 7.35h26.777"/><g fill-rule="evenodd"><path fill="#cb9022" stroke="#5c410c" stroke-width=".99561" d="M33.955 50.86l3.43-7.139 24.56-24.91c2.64-2.245 5.986 1.46 3.821 3.935L41.14 47.283z"/><path fill="url(#g)" d="M63.227 41.398s.101 1.437 1.354 1.993c1.291.573 2.656-.014 2.656-.014l-2.442 5.044s-.874 1.457-2.84.671c-1.94-.774-1.171-2.681-1.171-2.681z" transform="scale(.99561 -.99561) rotate(-70.354 15.128 12.285)"/><path fill="url(#h)" d="M63.227 41.398s.101 1.437 1.354 1.993c1.291.573 2.656-.014 2.656-.014l-.989 2.005s-1.315.834-2.687.233c-1.409-.618-1.324-2.212-1.324-2.212z" transform="scale(.99561 -.99561) rotate(-70.354 15.128 12.285)"/><path fill="url(#i)" d="M80.478 10.282l-4.476 4.524c.82 1.495 2.168 2.27 3.728 1.855z" transform="scale(.99561 -.99561) rotate(-70.354 15.128 12.285)"/><path fill="url(#j)" d="M79.079 11.633L80.664 10l-.3 2.345c-.718.223-1.064-.182-1.285-.712z" transform="scale(.99561 -.99561) rotate(-70.354 15.128 12.285)"/><path fill="#fff" fill-opacity=".364" d="M37.792 43.974l1.88.66 20.992-21.015c-.7-.657-1.524-.61-2.17-.464z"/><path fill-opacity=".364" d="M40.81 46.937l-.071-.766 20.899-20.728s.099.614.044.776z"/><path fill="#fff" d="M34.901 50.037l2.962-6.1 13.42-13.576-12.83 13.789-3.552 5.887z" opacity=".725"/><path fill="#fff" d="M34.858 49.916l6.004-3.074 11.242-11.17-11.36 10.969-.095-.527-5.791 3.801z" opacity=".418"/></g></g></svg>