<svg xmlns="http://www.w3.org/2000/svg" xmlns:xlink="http://www.w3.org/1999/xlink" viewBox="0 0 84.348 70.044"><defs><linearGradient id="a" x1="291.58" x2="277.7" y1="331.83" y2="313.13" gradientTransform="matrix(.26458 0 0 .26458 -397.877 510.466)" gradientUnits="userSpaceOnUse"><stop offset="0" stop-color="#666"/><stop offset="1" stop-color="#505050"/></linearGradient><linearGradient id="b" x1="211.6" x2="217.35" y1="656.93" y2="660.68" gradientTransform="matrix(.26458 0 0 .26458 -397.877 510.466)" gradientUnits="userSpaceOnUse"><stop offset="0" stop-color="#b3b3b3"/><stop offset="1" stop-color="#c3c3c3"/></linearGradient><linearGradient id="c" x1="354.89" x2="342.98" y1="538.12" y2="530.94" gradientTransform="matrix(.26458 0 0 .26458 -397.877 510.466)" gradientUnits="userSpaceOnUse"><stop offset="0" stop-color="#b3b3b3"/><stop offset="1" stop-color="#666"/></linearGradient><linearGradient id="d" x1="401.11" x2="404.38" y1="258.05" y2="261.59" gradientTransform="matrix(.26458 0 0 .26458 -397.877 510.466)" gradientUnits="userSpaceOnUse"><stop offset="0" stop-color="#ccc"/><stop offset="1" stop-color="#4d4d4d"/></linearGradient><linearGradient id="e" x1="398.43" x2="402.87" y1="683.65" y2="685.39" gradientTransform="matrix(.26458 0 0 .26458 -397.877 510.466)" gradientUnits="userSpaceOnUse"><stop offset="0" stop-color="#b3b3b3"/><stop offset="1" stop-color="#4d4d4d"/></linearGradient><filter id="k" width="1.229" height="1.176" x="-.114" y="-.088" color-interpolation-filters="sRGB"><feGaussianBlur stdDeviation="5.441"/></filter><filter id="q" width="1.077" height="1.312" x="-.038" y="-.156" color-interpolation-filters="sRGB"><feGaussianBlur stdDeviation=".684"/></filter><linearGradient id="r" x1="291.58" x2="277.7" y1="331.83" y2="313.13" gradientTransform="matrix(.26458 0 0 .26458 -397.877 510.466)" gradientUnits="userSpaceOnUse" xlink:href="#a"/><linearGradient id="s" x1="211.6" x2="217.35" y1="656.93" y2="660.68" gradientTransform="matrix(.26458 0 0 .26458 -397.877 510.466)" gradientUnits="userSpaceOnUse" xlink:href="#b"/><linearGradient id="t" x1="354.89" x2="342.98" y1="538.12" y2="530.94" gradientTransform="matrix(.26458 0 0 .26458 -397.877 510.466)" gradientUnits="userSpaceOnUse" xlink:href="#c"/><linearGradient id="u" x1="401.11" x2="404.38" y1="258.05" y2="261.59" gradientTransform="matrix(.26458 0 0 .26458 -397.877 510.466)" gradientUnits="userSpaceOnUse" xlink:href="#d"/><linearGradient id="v" x1="398.43" x2="402.87" y1="683.65" y2="685.39" gradientTransform="matrix(.26458 0 0 .26458 -397.877 510.466)" gradientUnits="userSpaceOnUse" xlink:href="#e"/><linearGradient id="f" x1="291.58" x2="277.7" y1="331.83" y2="313.13" gradientTransform="matrix(.26458 0 0 .26458 -397.877 510.466)" gradientUnits="userSpaceOnUse" xlink:href="#a"/><linearGradient id="g" x1="211.6" x2="217.35" y1="656.93" y2="660.68" gradientTransform="matrix(.26458 0 0 .26458 -397.877 510.466)" gradientUnits="userSpaceOnUse" xlink:href="#b"/><linearGradient id="h" x1="354.89" x2="342.98" y1="538.12" y2="530.94" gradientTransform="matrix(.26458 0 0 .26458 -397.877 510.466)" gradientUnits="userSpaceOnUse" xlink:href="#c"/><linearGradient id="i" x1="401.11" x2="404.38" y1="258.05" y2="261.59" gradientTransform="matrix(.26458 0 0 .26458 -397.877 510.466)" gradientUnits="userSpaceOnUse" xlink:href="#d"/><linearGradient id="j" x1="398.43" x2="402.87" y1="683.65" y2="685.39" gradientTransform="matrix(.26458 0 0 .26458 -397.877 510.466)" gradientUnits="userSpaceOnUse" xlink:href="#e"/><linearGradient id="l" x1="291.58" x2="277.7" y1="331.83" y2="313.13" gradientTransform="matrix(.26458 0 0 .26458 -397.877 510.466)" gradientUnits="userSpaceOnUse" xlink:href="#a"/><linearGradient id="m" x1="211.6" x2="217.35" y1="656.93" y2="660.68" gradientTransform="matrix(.26458 0 0 .26458 -397.877 510.466)" gradientUnits="userSpaceOnUse" xlink:href="#b"/><linearGradient id="n" x1="354.89" x2="342.98" y1="538.12" y2="530.94" gradientTransform="matrix(.26458 0 0 .26458 -397.877 510.466)" gradientUnits="userSpaceOnUse" xlink:href="#c"/><linearGradient id="o" x1="401.11" x2="404.38" y1="258.05" y2="261.59" gradientTransform="matrix(.26458 0 0 .26458 -397.877 510.466)" gradientUnits="userSpaceOnUse" xlink:href="#d"/><linearGradient id="p" x1="398.43" x2="402.87" y1="683.65" y2="685.39" gradientTransform="matrix(.26458 0 0 .26458 -397.877 510.466)" gradientUnits="userSpaceOnUse" xlink:href="#e"/></defs><path fill="#c7ccff" fill-opacity=".626" stroke="#00030c" stroke-linecap="round" stroke-linejoin="bevel" stroke-width=".609" d="M6.289 46.595h71.564V69.74H6.289z" opacity=".748" paint-order="markers fill stroke"/><path fill="#cdcdcd" fill-opacity=".557" stroke="#00030c" stroke-linecap="round" stroke-linejoin="bevel" stroke-width=".609" d="M6.289 23.45h71.564v23.145H6.289z" opacity=".748" paint-order="markers fill stroke"/><path fill="#c8ccff" fill-opacity=".471" stroke="#00030c" stroke-linecap="round" stroke-linejoin="bevel" stroke-width=".609" d="M6.289.305h71.564V23.45H6.289z" opacity=".849" paint-order="markers fill stroke"/><path fill="url(#f)" stroke="#666" stroke-linejoin="bevel" stroke-width=".265" d="M-309.49 591.328l-14.304 3.112c-2.437.53-5.291 2.797-5.291 5.291v6.93l19.595-15.33z" transform="matrix(.12577 0 0 .12577 55.704 -67.006)"/><path fill="url(#g)" d="M-339.669 680.882l-5.291 7.485c2.457-.428 5.291-2.797 5.291-5.292v-2.191z" transform="matrix(.12577 0 0 .12577 55.704 -67.006)"/><path fill="#b3b3b3" stroke="#b3b3b3" stroke-linejoin="bevel" stroke-width=".03332905" d="M8.405 20.272l8.367-9.677 2.16-.376-6.613 9.348z"/><path fill="#b3b3b3" d="M16.772 2.52l-.094.093v.376l.094.094 2.16.47c.172.037.375.198.375.375v5.916c0 .177-.201.345-.376.376l-2.16.375-.093.094v.376l.094.094h5.822l.094-.094v-.376l-.094-.094-2.16-.375c-.174-.03-.376-.199-.376-.376V3.928c0-.177.203-.338.376-.375l2.16-.47.094-.094v-.375l-.094-.094z"/><path fill="#666" stroke="#666" stroke-linejoin="bevel" stroke-width=".03332905" d="M14.316 19.774l5.742-9.059V4.8l-5.742 4.492z"/><path fill="url(#h)" d="M-283.429 611.04l-6.63 10.461-39.026 61.574c0 2.495 2.834 4.864 5.291 5.292l.472.082 38.586-66.947 4.3-7.466a3.676 3.676 0 0 1-1.058-.372 4.382 4.382 0 0 1-.96-.687 3.487 3.487 0 0 1-.702-.9 2.478 2.478 0 0 1-.199-.505 2.054 2.054 0 0 1-.074-.53z" transform="matrix(.12577 0 0 .12577 55.704 -67.006)"/><path fill="#ccc" stroke="#ccc" stroke-linejoin="bevel" stroke-width=".03332905" d="M18.808 5.924l3.786-3.405h-5.822l-8.28 3.405z"/><path fill="url(#i)" d="M-293.367 579.882l1.323 1.323 29.525-27.651c.01-.445-.31-.74-.747-.747z" transform="matrix(.12577 0 0 .12577 55.704 -67.006)"/><path fill="#4d4d4d" stroke="#4d4d4d" stroke-linejoin="bevel" stroke-width=".03332905" d="M18.928 6.855l3.744-3.85c.01-.015.013-.02.015-.037v-.355l-3.713 3.478z"/><path fill="#b3b3b3" stroke="#b3b3b3" stroke-linejoin="bevel" stroke-width=".03332905" d="M18.808 20.234l3.786-9.639-2.16-.376-5.453 9.348z"/><path fill="url(#j)" d="M-263.27 617.02l-30.097 76.638c.615.107 1.323.7 1.323 1.323l29.525-77.218c.06-.333-.391-.69-.752-.744z" transform="matrix(.12577 0 0 .12577 55.704 -67.006)"/><path fill="#4d4d4d" stroke="#4d4d4d" stroke-linejoin="bevel" stroke-width=".03332905" d="M18.964 21.115l3.723-10.05v-.376L18.974 20.4z"/><path fill="#999" stroke="#999" stroke-linejoin="bevel" stroke-width=".03332905" d="M8.492 5.924c-.078 0-.165.088-.166.167-.003.227.005.457 0 .666-.002.078.09.15.166.166l3.827.832c.307.066.666.351.666.665v10.482c0 .314-.357.612-.666.665l-3.827.667c-.077.013-.166.088-.166.166v.665c0 .079.088.167.166.167h10.316c.078 0 .166-.088.166-.167V20.4c0-.078-.089-.153-.166-.166l-3.827-.667c-.309-.053-.665-.351-.665-.665V8.42c0-.314.359-.599.665-.665l3.827-.832c.076-.016.166-.088.166-.166V6.09c0-.078-.088-.166-.166-.166z"/><g style="line-height:1.25" stroke-width=".354" aria-label="ITEM1" font-family="sans-serif" font-size="14.164" font-weight="400" letter-spacing="0" word-spacing="0"><path d="M33.852 16.439h-4.066v-1.051h1.348V7.192h-1.348V6.141h4.066v1.051h-1.348v8.196h1.348zM43.542 7.358h-3.68v9.08h-1.37v-9.08h-3.678V6.141h8.728zM51.723 16.439H44.94V6.14h6.784v1.217h-5.415v2.822h5.415v1.217h-5.415v3.825h5.415zM63.073 16.439h-1.37V7.565l-2.863 6.038h-.816l-2.842-6.038v8.874h-1.28V6.14h1.867l2.746 5.733 2.656-5.733h1.902zM71.967 16.439h-5.574v-1.051h2.144V8.485h-2.144v-.94q.435 0 .933-.07.498-.076.754-.214.318-.173.498-.436.187-.27.215-.719h1.072v9.282h2.102z"/></g><g filter="url(#k)" opacity=".482" transform="matrix(.12577 0 0 .12577 55.704 -43.861)"><path fill="url(#l)" stroke="#666" stroke-linejoin="bevel" stroke-width=".265" d="M-309.49 591.328l-14.304 3.112c-2.437.53-5.291 2.797-5.291 5.291v6.93l19.595-15.33z"/><path fill="url(#m)" d="M-339.669 680.882l-5.291 7.485c2.457-.428 5.291-2.797 5.291-5.292v-2.191z"/><path fill="#b3b3b3" stroke="#b3b3b3" stroke-linejoin="bevel" stroke-width=".265" d="M-376.078 693.96l66.521-76.94 17.172-2.988-52.575 74.33z"/><path fill="#b3b3b3" d="M-309.557 552.807l-.746.747v2.989l.746.746 17.173 3.731c1.376.302 2.987 1.583 2.987 2.99v47.038c0 1.408-1.6 2.745-2.986 2.986l-17.173 2.989-.746.746v2.985l.746.746h46.292l.746-.746v-2.985l-.746-.746-17.172-2.989c-1.387-.241-2.987-1.579-2.987-2.986V564.01c0-1.408 1.61-2.687 2.987-2.986l17.172-3.731.746-.747v-2.988l-.746-.747z"/><path fill="#666" stroke="#666" stroke-linejoin="bevel" stroke-width=".265" d="M-329.085 690.002l45.659-72.025v-47.038l-45.66 35.72z"/><path fill="url(#n)" d="M-283.429 611.04l-6.63 10.461-39.026 61.574c0 2.495 2.834 4.864 5.291 5.292l.472.082 38.586-66.947 4.3-7.466a3.676 3.676 0 0 1-1.058-.372 4.382 4.382 0 0 1-.96-.687 3.487 3.487 0 0 1-.702-.9 2.478 2.478 0 0 1-.199-.505 2.054 2.054 0 0 1-.074-.53z"/><path fill="#ccc" stroke="#ccc" stroke-linejoin="bevel" stroke-width=".265" d="M-293.367 579.882l30.102-27.075h-46.292l-65.83 27.075z"/><path fill="url(#o)" d="M-293.367 579.882l1.323 1.323 29.525-27.651c.01-.445-.31-.74-.747-.747z"/><path fill="#4d4d4d" stroke="#4d4d4d" stroke-linejoin="bevel" stroke-width=".265" d="M-292.414 587.285l29.776-30.62c.07-.118.1-.147.119-.293v-2.818l-29.525 27.652z"/><path fill="#b3b3b3" stroke="#b3b3b3" stroke-linejoin="bevel" stroke-width=".265" d="M-293.367 693.658l30.102-76.639-17.174-2.987-43.355 74.33z"/><path fill="url(#p)" d="M-263.27 617.02l-30.097 76.638c.615.107 1.323.7 1.323 1.323l29.525-77.218c.06-.333-.391-.69-.752-.744z"/><path fill="#4d4d4d" stroke="#4d4d4d" stroke-linejoin="bevel" stroke-width=".265" d="M-292.128 700.665l29.61-79.913v-2.984l-29.526 77.213z"/><path fill="#999" stroke="#999" stroke-linejoin="bevel" stroke-width=".265" d="M-375.387 579.882c-.624 0-1.317.7-1.323 1.323-.02 1.804.038 3.638 0 5.295-.015.624.713 1.19 1.323 1.323l30.427 6.611c2.437.53 5.291 2.798 5.291 5.292v83.344c0 2.494-2.834 4.864-5.291 5.291l-30.427 5.297c-.615.107-1.323.7-1.323 1.323v5.289c0 .623.699 1.322 1.323 1.322h82.02c.624 0 1.323-.699 1.323-1.322v-5.289c0-.623-.708-1.216-1.323-1.323l-30.427-5.297c-2.457-.427-5.291-2.797-5.291-5.291v-83.344c0-2.494 2.854-4.762 5.291-5.292l30.427-6.609c.61-.132 1.323-.7 1.323-1.323v-5.295c0-.624-.699-1.323-1.323-1.323z"/></g><g style="line-height:1.25" stroke-width=".354" aria-label="ITEM2" filter="url(#q)" font-family="sans-serif" font-size="14.164" font-weight="400" letter-spacing="0" opacity=".482" transform="translate(368.83 -519.28)" word-spacing="0"><path d="M-334.978 558.863h-4.067v-1.051h1.349v-8.196h-1.349v-1.051h4.067v1.051h-1.349v8.196h1.349zM-325.289 549.782h-3.68v9.081h-1.369v-9.08h-3.679v-1.218h8.728zM-317.107 558.863h-6.785v-10.298h6.785v1.217h-5.415v2.822h5.415v1.217h-5.415v3.825h5.415zM-305.758 558.863h-1.37v-8.873l-2.862 6.037h-.816l-2.843-6.037v8.873h-1.28v-10.298h1.868l2.746 5.733 2.655-5.733h1.902zM-296.276 558.863h-6.971v-1.445l1.452-1.245q.733-.623 1.363-1.238 1.328-1.287 1.819-2.04.49-.761.49-1.64 0-.802-.532-1.251-.525-.457-1.473-.457-.63 0-1.362.221-.734.222-1.432.678h-.07v-1.452q.492-.242 1.308-.443.823-.2 1.59-.2 1.584 0 2.483.767.9.761.9 2.068 0 .588-.153 1.1-.145.505-.435.961-.27.429-.637.844-.36.415-.878.92-.74.726-1.528 1.41-.789.678-1.474 1.26h5.54z"/></g><g><path fill="url(#r)" stroke="#666" stroke-linejoin="bevel" stroke-width=".265" d="M-309.49 591.328l-14.304 3.112c-2.437.53-5.291 2.797-5.291 5.291v6.93l19.595-15.33z" transform="matrix(.12577 0 0 .12577 55.704 -20.716)"/><path fill="url(#s)" d="M-339.669 680.882l-5.291 7.485c2.457-.428 5.291-2.797 5.291-5.292v-2.191z" transform="matrix(.12577 0 0 .12577 55.704 -20.716)"/><path fill="#b3b3b3" stroke="#b3b3b3" stroke-linejoin="bevel" stroke-width=".03332905" d="M8.405 66.562l8.367-9.677 2.16-.376-6.613 9.348z"/><path fill="#b3b3b3" d="M16.772 48.81l-.094.093v.376l.094.094 2.16.47c.172.037.375.198.375.375v5.916c0 .177-.201.345-.376.375l-2.16.376-.093.094v.376l.094.093h5.822l.094-.093v-.376l-.094-.094-2.16-.376c-.174-.03-.376-.198-.376-.375v-5.916c0-.177.203-.338.376-.375l2.16-.47.094-.094v-.375l-.094-.094z"/><path fill="#666" stroke="#666" stroke-linejoin="bevel" stroke-width=".03332905" d="M14.316 66.064l5.742-9.059V51.09l-5.742 4.492z"/><path fill="url(#t)" d="M-283.429 611.04l-6.63 10.461-39.026 61.574c0 2.495 2.834 4.864 5.291 5.292l.472.082 38.586-66.947 4.3-7.466a3.676 3.676 0 0 1-1.058-.372 4.382 4.382 0 0 1-.96-.687 3.487 3.487 0 0 1-.702-.9 2.478 2.478 0 0 1-.199-.505 2.054 2.054 0 0 1-.074-.53z" transform="matrix(.12577 0 0 .12577 55.704 -20.716)"/><path fill="#ccc" stroke="#ccc" stroke-linejoin="bevel" stroke-width=".03332905" d="M18.808 52.214l3.786-3.405h-5.822l-8.28 3.405z"/><path fill="url(#u)" d="M-293.367 579.882l1.323 1.323 29.525-27.651c.01-.445-.31-.74-.747-.747z" transform="matrix(.12577 0 0 .12577 55.704 -20.716)"/><path fill="#4d4d4d" stroke="#4d4d4d" stroke-linejoin="bevel" stroke-width=".03332905" d="M18.928 53.145l3.744-3.85c.01-.015.013-.02.015-.038v-.354l-3.713 3.478z"/><path fill="#b3b3b3" stroke="#b3b3b3" stroke-linejoin="bevel" stroke-width=".03332905" d="M18.808 66.524l3.786-9.64-2.16-.375-5.453 9.348z"/><path fill="url(#v)" d="M-263.27 617.02l-30.097 76.638c.615.107 1.323.7 1.323 1.323l29.525-77.218c.06-.333-.391-.69-.752-.744z" transform="matrix(.12577 0 0 .12577 55.704 -20.716)"/><path fill="#4d4d4d" stroke="#4d4d4d" stroke-linejoin="bevel" stroke-width=".03332905" d="M18.964 67.405l3.723-10.05v-.376l-3.713 9.711z"/><path fill="#999" stroke="#999" stroke-linejoin="bevel" stroke-width=".03332905" d="M8.492 52.214c-.078 0-.165.088-.166.167-.003.226.005.457 0 .666-.002.078.09.15.166.166l3.827.831c.307.067.666.352.666.666v10.482c0 .314-.357.612-.666.665l-3.827.667c-.077.013-.166.088-.166.166v.665c0 .079.088.166.166.166h10.316c.078 0 .166-.087.166-.166v-.665c0-.078-.089-.153-.166-.166l-3.827-.667c-.309-.053-.665-.351-.665-.665V54.71c0-.314.359-.599.665-.666l3.827-.83c.076-.017.166-.089.166-.167v-.666c0-.079-.088-.166-.166-.166z"/></g><g style="line-height:1.25" stroke-width=".354" aria-label="ITEM3" font-family="sans-serif" font-size="14.164" font-weight="400" letter-spacing="0" word-spacing="0"><path d="M33.852 62.729h-4.066v-1.051h1.348v-8.196h-1.348V52.43h4.066v1.05h-1.348v8.197h1.348zM43.542 53.648h-3.68v9.08h-1.37v-9.08h-3.678V52.43h8.728zM51.723 62.729H44.94V52.43h6.784v1.217h-5.415v2.822h5.415v1.217h-5.415v3.825h5.415zM63.073 62.729h-1.37v-8.874l-2.863 6.038h-.816l-2.842-6.038v8.874h-1.28V52.43h1.867l2.746 5.733 2.656-5.733h1.902zM71.649 57.77q.332.297.546.747.215.45.215 1.162 0 .705-.256 1.293t-.72 1.024q-.518.484-1.224.719-.698.228-1.535.228-.858 0-1.688-.207-.83-.2-1.362-.443v-1.445h.104q.588.387 1.383.643t1.535.256q.436 0 .927-.146.491-.145.795-.428.319-.305.47-.671.16-.367.16-.927 0-.553-.18-.913-.173-.366-.484-.574-.311-.214-.754-.29-.443-.083-.954-.083h-.623v-1.148h.484q1.051 0 1.674-.436.63-.443.63-1.287 0-.373-.16-.65-.159-.283-.442-.463-.298-.18-.637-.25-.339-.068-.767-.068-.657 0-1.397.235t-1.398.664h-.069v-1.446q.491-.242 1.307-.442.823-.208 1.591-.208.754 0 1.328.139.574.138 1.037.442.498.332.754.802.256.47.256 1.1 0 .858-.608 1.5-.602.637-1.425.803v.097q.332.055.76.235.43.173.727.436z"/></g><path fill="none" stroke="#000" stroke-width=".609" d="M25.26.347v69.171"/><path fill="none" stroke="#dc0800" stroke-linecap="round" stroke-width="2" d="M1.014 34.78h82.32"/></svg>