<svg xmlns="http://www.w3.org/2000/svg" xmlns:xlink="http://www.w3.org/1999/xlink" viewBox="0 0 76.137 99.132"><defs><linearGradient id="I" x1="86.13" x2="84.64" y1="105.11" y2="20.895" gradientTransform="matrix(.15846 -.06425 .06425 .15846 45.8 90.878)" gradientUnits="userSpaceOnUse" xlink:href="#a"/><linearGradient id="a"><stop stop-color="#fff" stop-opacity=".679"/><stop offset="1" stop-opacity=".333"/></linearGradient><linearGradient id="H" x2="0" y1="2.39" y2="43.61" gradientTransform="translate(47.341 84.629) scale(.52695)" gradientUnits="userSpaceOnUse" xlink:href="#b"/><linearGradient id="b"><stop stop-color="#fff" stop-opacity=".8"/><stop offset="1" stop-color="#fff" stop-opacity="0"/></linearGradient><radialGradient id="F" cx="25.25" cy="41.18" r="22" gradientTransform="matrix(.34176 -1.00017 .88651 .30292 19.06 118.157)" gradientUnits="userSpaceOnUse" xlink:href="#c"/><linearGradient id="c" x2="0" y1="3.1" y2="122.9" gradientUnits="userSpaceOnUse"><stop stop-color="#888a85"/><stop offset="1" stop-color="#babdb6"/></linearGradient><linearGradient id="G" x1="2.35" x2="45.65" y1="1.35" y2="44.65" gradientTransform="translate(47.341 84.629) scale(.52695)" gradientUnits="userSpaceOnUse" xlink:href="#d"/><linearGradient id="d"><stop stop-color="#888a85"/><stop offset=".78" stop-color="#555753"/><stop offset="1" stop-color="#2e3436"/></linearGradient><radialGradient id="E" cx="26.434" cy="46.14" r="13.818" gradientTransform="matrix(.6882 0 0 .12937 41.874 101.244)" gradientUnits="userSpaceOnUse" xlink:href="#e"/><linearGradient id="e"><stop stop-color="#2e3436"/><stop offset="1" stop-color="#2e3436" stop-opacity="0"/></linearGradient><linearGradient id="C" x1="78.397" x2="107.696" y1="14.365" y2="9.879" gradientUnits="userSpaceOnUse" xlink:href="#f"/><linearGradient id="f"><stop offset="0" stop-color="#ca3131"/><stop offset="1" stop-color="#af3333"/></linearGradient><filter id="x"><feGaussianBlur stdDeviation="2.586"/></filter><radialGradient id="y" cx="81.79" cy="100.32" r="44.42" gradientTransform="matrix(2.0026 -1.59703 1.77733 2.2287 -279.236 23.704)" gradientUnits="userSpaceOnUse" xlink:href="#g"/><linearGradient id="g"><stop stop-color="#eee"/><stop offset="1" stop-color="#d2d2d2"/></linearGradient><radialGradient id="z" cx="89.51" cy="22.254" r="18.279" gradientTransform="matrix(1 0 0 .97468 0 .44)" gradientUnits="userSpaceOnUse" xlink:href="#h"/><linearGradient id="h"><stop/><stop offset="1" stop-opacity=".536"/></linearGradient><filter id="A" width="1.294" height="1.29" x="-.147" y="-.145"><feGaussianBlur stdDeviation="1.819"/></filter><linearGradient id="B" x1="98.33" x2="86.82" y1="14.793" y2="25.1" gradientTransform="matrix(.96715 0 0 .96715 .456 -.087)" gradientUnits="userSpaceOnUse" xlink:href="#i"/><linearGradient id="i"><stop/><stop offset="1" stop-color="#ddd" stop-opacity="0"/></linearGradient><linearGradient id="w" x1="92.186" x2="119.104" y1="33.465" y2="26.565" gradientTransform="translate(-13.788 -19.1)" gradientUnits="userSpaceOnUse" xlink:href="#j"/><linearGradient id="j"><stop offset="0" stop-color="#62b01e"/><stop offset="1" stop-color="#44880c"/></linearGradient><filter id="r"><feGaussianBlur stdDeviation="2.586"/></filter><radialGradient id="s" cx="81.79" cy="100.32" r="44.42" gradientTransform="matrix(2.0026 -1.59703 1.77733 2.2287 -279.236 23.704)" gradientUnits="userSpaceOnUse" xlink:href="#g"/><radialGradient id="t" cx="89.51" cy="22.254" r="18.279" gradientTransform="matrix(1 0 0 .97468 0 .44)" gradientUnits="userSpaceOnUse" xlink:href="#h"/><filter id="u" width="1.294" height="1.29" x="-.147" y="-.145"><feGaussianBlur stdDeviation="1.819"/></filter><linearGradient id="q" x1="342.25" x2="359.239" y1="-112.642" y2="-103.288" gradientTransform="translate(-327.598 194.301)" gradientUnits="userSpaceOnUse" xlink:href="#k"/><linearGradient id="k"><stop offset="0" stop-color="#fff9a6"/><stop offset="1" stop-color="#b9ad1b"/></linearGradient><filter id="l"><feGaussianBlur stdDeviation="2.586"/></filter><radialGradient id="m" cx="81.79" cy="100.32" r="44.42" gradientTransform="matrix(2.0026 -1.59703 1.77733 2.2287 -279.236 23.704)" gradientUnits="userSpaceOnUse" xlink:href="#g"/><radialGradient id="n" cx="89.51" cy="22.254" r="18.279" gradientTransform="matrix(1 0 0 .97468 0 .44)" gradientUnits="userSpaceOnUse" xlink:href="#h"/><filter id="o" width="1.294" height="1.29" x="-.147" y="-.145"><feGaussianBlur stdDeviation="1.819"/></filter><linearGradient id="p" x1="98.33" x2="86.82" y1="14.793" y2="25.1" gradientTransform="matrix(.96715 0 0 .96715 .456 -.087)" gradientUnits="userSpaceOnUse" xlink:href="#i"/><linearGradient id="v" x1="98.33" x2="86.82" y1="14.793" y2="25.1" gradientTransform="matrix(.96715 0 0 .96715 .456 -.087)" gradientUnits="userSpaceOnUse" xlink:href="#i"/><linearGradient id="D" x1="78.397" x2="107.696" y1="14.365" y2="9.879" gradientUnits="userSpaceOnUse" xlink:href="#f"/></defs><path d="M20.094 4.119v118h88.844V35.962l-.594-.625c.21.145.417.302.625.438L78.094 4.15c.056.08.1.17.156.25L78 4.119z" filter="url(#l)" opacity=".809" transform="matrix(.34095 0 0 .3424 -3.82 40.568)"/><path fill="url(#m)" d="M19.89 2.543v114.123h85.925V33.34L75.894 2.543z" transform="matrix(.35253 0 0 .35253 -3.982 40.785)"/><path fill="url(#n)" d="M81.698 28.31l.135-8.351c.068-6.6-.877-11.548-4.047-16.012l2.576-.031 27.5 25.615c-4.067-2.646-9.62-.791-16.861-1.026z" filter="url(#o)" opacity=".505" transform="matrix(.3582 0 0 .3921 -5.718 40.663)"/><path fill="#eee" d="M24.79 49.884l.046-2.847c.024-2.25-.948-3.82-2.03-5.342l10.53 10.783c-1.387-.902-2.905-2.447-5.374-2.527z"/><path fill="url(#p)" d="M81.616 25.812l.13-8.077c.066-6.382-2.691-10.836-5.757-15.153l29.867 30.588c-3.935-2.558-8.24-6.942-15.243-7.169z" transform="matrix(.35253 0 0 .35253 -3.982 40.785)"/><path fill="url(#q)" stroke="#000" stroke-width=".5" d="M14.483 76.288v8.098H6.216v8.524h27.848v-8.524h-8.268v-8.098H20.14z" transform="translate(-2.25 -22.938)"/><path d="M20.094 4.119v118h88.844V35.962l-.594-.625c.21.145.417.302.625.438L78.094 4.15c.056.08.1.17.156.25L78 4.119z" filter="url(#r)" opacity=".809" transform="matrix(.34095 0 0 .3424 23.48 2.63)"/><path fill="url(#s)" d="M19.89 2.543v114.123h85.925V33.34L75.894 2.543z" transform="matrix(.35253 0 0 .35253 23.32 2.847)"/><path fill="url(#t)" d="M81.698 28.31l.135-8.351c.068-6.6-.877-11.548-4.047-16.012l2.576-.031 27.5 25.615c-4.067-2.646-9.62-.791-16.861-1.026z" filter="url(#u)" opacity=".505" transform="matrix(.3582 0 0 .3921 21.584 2.725)"/><path fill="#eee" d="M52.092 11.946l.046-2.847c.023-2.25-.95-3.82-2.03-5.342L60.637 14.54c-1.387-.902-2.905-2.447-5.374-2.527z"/><path fill="url(#v)" d="M81.616 25.812l.13-8.077c.066-6.382-2.691-10.836-5.757-15.153l29.867 30.588c-3.935-2.558-8.24-6.942-15.243-7.169z" transform="matrix(.35253 0 0 .35253 23.32 2.847)"/><path fill="#cfedf4" d="M45.482 12.787l-11.56 5.78 11.56 5.78 11.56-5.78z"/><path fill="#4fc0dd" d="M45.482 24.347v14.45l11.56-5.78v-14.45z"/><path fill="#197c97" d="M45.482 24.347v14.45l-11.56-5.78v-14.45z"/><path fill="none" stroke="#4d4d4d" stroke-width=".57803" d="M45.482 12.794l-11.56 5.78v14.451l11.56 5.78 11.56-5.78v-14.45z"/><g stroke="#57705d" stroke-width=".452"><path fill="url(#w)" fill-rule="evenodd" stroke-linecap="round" stroke-linejoin="round" d="M107.47-2.367c-7.89 17.304-21.247 13.233-21.374 13.233V5.14l-7.699 9.225 7.762 7.76v-5.788s18.511 4.326 21.311-18.704z" transform="matrix(-1.17783 .45994 -.44194 -1.11056 133.12 4.972)"/></g><g><path d="M20.094 4.119v118h88.844V35.962l-.594-.625c.21.145.417.302.625.438L78.094 4.15c.056.08.1.17.156.25L78 4.119z" filter="url(#x)" opacity=".809" transform="matrix(.34095 0 0 .3424 35.954 53.279)"/><path fill="url(#y)" d="M19.89 2.543v114.123h85.925V33.34L75.894 2.543z" transform="matrix(.35253 0 0 .35253 35.793 53.496)"/><path fill="url(#z)" d="M81.698 28.31l.135-8.351c.068-6.6-.877-11.548-4.047-16.012l2.576-.031 27.5 25.615c-4.067-2.646-9.62-.791-16.861-1.026z" filter="url(#A)" opacity=".505" transform="matrix(.3582 0 0 .3921 34.057 53.374)"/><path fill="#eee" d="M64.565 62.595l.046-2.847c.023-2.25-.949-3.82-2.03-5.342l10.53 10.783c-1.388-.902-2.906-2.447-5.374-2.527z"/><path fill="url(#B)" d="M81.616 25.812l.13-8.077c.066-6.382-2.691-10.836-5.757-15.153l29.867 30.588c-3.935-2.558-8.24-6.942-15.243-7.169z" transform="matrix(.35253 0 0 .35253 35.793 53.496)"/></g><g fill="url(#C)" stroke="#57705d" stroke-width=".452" transform="matrix(1.01986 .74748 -.70035 .9686 -46.875 7.033)"><path fill="url(#D)" fill-rule="evenodd" stroke-linecap="round" stroke-linejoin="round" d="M107.47-2.367c-7.89 17.304-21.247 13.233-21.374 13.233V5.14l-7.699 9.225 7.762 7.76v-5.788s18.511 4.326 21.311-18.704z"/></g><path fill="url(#E)" d="M69.576 107.213a9.51 1.788 0 1 1-19.02 0 9.51 1.788 0 1 1 19.02 0z" opacity=".628" transform="translate(-2.25 -22.938)"/><path fill="url(#F)" stroke="url(#G)" stroke-linejoin="round" stroke-width=".527" d="M54.281 86.837a.816.816 0 0 0-.438 1.066l.6 1.48a9.226 9.226 0 0 0-1.738 1.718l-1.48-.626a.791.791 0 0 0-1.059.412l-1.225 2.895c-.173.41.025.87.442 1.047l1.48.626a9.225 9.225 0 0 0-.022 2.443l-1.48.6a.816.816 0 0 0-.46 1.058l1.176 2.9a.816.816 0 0 0 1.066.438l1.48-.6a9.226 9.226 0 0 0 1.718 1.737l-.626 1.48a.796.796 0 0 0 .412 1.06l2.895 1.224a.796.796 0 0 0 1.047-.442l.626-1.48a9.225 9.225 0 0 0 2.443.022l.6 1.48c.17.42.644.628 1.058.46l2.899-1.175a.816.816 0 0 0 .438-1.066l-.6-1.48a9.226 9.226 0 0 0 1.738-1.718l1.48.626a.796.796 0 0 0 1.06-.412l1.224-2.895a.796.796 0 0 0-.442-1.047l-1.48-.626a9.229 9.229 0 0 0 .022-2.444l1.48-.6a.816.816 0 0 0 .46-1.057l-1.175-2.9a.816.816 0 0 0-1.067-.438l-1.48.6a9.227 9.227 0 0 0-1.717-1.738l.626-1.48a.796.796 0 0 0-.412-1.059l-2.896-1.225a.796.796 0 0 0-1.046.443l-.626 1.48a9.225 9.225 0 0 0-2.444-.023l-.6-1.48a.816.816 0 0 0-1.057-.46zm4.42 6.737a3.426 3.426 0 0 1 2.574 6.349 3.426 3.426 0 0 1-4.461-1.887 3.426 3.426 0 0 1 1.887-4.462z" display="block" transform="translate(-2.25 -22.938)"/><path fill="#3fa557" stroke="url(#H)" stroke-linejoin="round" stroke-width=".527" d="M57.386 86.177l-.082.032-2.832 1.137c-.131.053-.185.174-.116.345a.309.309 0 0 1 0 .017.309.309 0 0 1 .017.016v.033a.309.309 0 0 1 .016.033l.56 1.4a.309.309 0 0 1 .017 0c.087.23 0 .497-.198.642a8.472 8.472 0 0 0-1.614 1.598.547.547 0 0 1-.658.18h-.017l-1.465-.625c-.104-.044-.132-.043-.198-.017-.066.027-.098.053-.132.132a.309.309 0 0 1-.033.066.309.309 0 0 1-.049.066l-1.17 2.766c-.03.072-.022.118 0 .165.023.047.07.108.165.148l1.483.626c.237.096.37.34.329.593h.016a8.752 8.752 0 0 0-.016 2.289v.016a.56.56 0 0 1-.362.577c-.008.003-.01.014-.017.016l-1.465.577c-.162.065-.208.183-.149.329a.309.309 0 0 1 0 .016.309.309 0 0 1 .017.017v.016a.309.309 0 0 1 .016.033v.017l1.137 2.832c.053.13.174.185.345.116a.309.309 0 0 1 .017 0 .309.309 0 0 1 .016-.017h.033a.309.309 0 0 1 .033-.016l1.4-.56a.309.309 0 0 1 0-.017c.23-.087.496 0 .642.198a8.472 8.472 0 0 0 1.597 1.614c.21.146.278.422.182.658v.017l-.626 1.465c-.075.178-.041.263.115.33a.309.309 0 0 1 .066.033.309.309 0 0 1 .066.049l2.766 1.17c.072.03.118.022.165 0a.307.307 0 0 0 .148-.166l.626-1.482a.538.538 0 0 1 .593-.329v-.016a8.752 8.752 0 0 0 2.289.016h.016a.56.56 0 0 1 .577.362c.002.004-.002.013 0 .017 0 .003.015-.003.016 0l.576 1.465c.066.162.184.208.33.149a.309.309 0 0 1 .016 0 .309.309 0 0 1 .017-.017h.033a.309.309 0 0 1 .033-.016l2.832-1.137c.13-.053.185-.174.115-.345a.309.309 0 0 1 0-.017l-.016-.016a.309.309 0 0 1-.017-.066l-.56-1.4a.309.309 0 0 1-.016 0 .563.563 0 0 1 .197-.642 8.472 8.472 0 0 0 1.614-1.598.547.547 0 0 1 .659-.18h.016l1.466.625c.178.075.263.041.33-.115a.309.309 0 0 1 .032-.066.309.309 0 0 1 .017-.017l.016-.016a.309.309 0 0 1 .017-.033l1.169-2.767c.03-.072.022-.117 0-.164a.307.307 0 0 0-.165-.149l-1.482-.625a.538.538 0 0 1-.33-.593h-.016a8.752 8.752 0 0 0 .017-2.289v-.017a.56.56 0 0 1 .362-.576h.017v-.016l1.465-.577c.162-.065.207-.184.148-.33a.309.309 0 0 1 0-.016l-.016-.016a.309.309 0 0 1 0-.017v-.016a.309.309 0 0 1-.017-.033l-1.136-2.832c-.053-.131-.174-.185-.346-.116a.309.309 0 0 1-.016 0l-.082.033-1.4.56a.309.309 0 0 1 0 .017.563.563 0 0 1-.642-.198 8.472 8.472 0 0 0-1.598-1.614.547.547 0 0 1-.18-.658v-.017l.625-1.465c.075-.178.041-.264-.115-.33a.309.309 0 0 1-.066-.033.309.309 0 0 1-.017-.016l-.016-.017a.309.309 0 0 1-.033-.016l-2.767-1.17c-.072-.03-.117-.022-.164 0a.307.307 0 0 0-.148.166L61.8 87.84a.538.538 0 0 1-.593.329v.016a8.753 8.753 0 0 0-2.289-.016h-.017a.56.56 0 0 1-.576-.362c-.003-.008-.014-.01-.016-.017l-.577-1.465c-.065-.162-.184-.208-.33-.149a.309.309 0 0 1-.016 0zm2.652 6.586a4 4 0 0 1 3.639 2.487 3.992 3.992 0 0 1-2.19 5.187 3.992 3.992 0 0 1-5.187-2.19 3.992 3.992 0 0 1 3.738-5.484z" display="block" opacity=".8" transform="translate(-2.25 -22.938)"/><path fill="none" stroke="url(#I)" stroke-width=".527" d="M57.315 90.156a7.122 7.122 0 0 0-3.92 9.266 7.122 7.122 0 0 0 9.266 3.919 7.122 7.122 0 0 0 3.92-9.266 7.122 7.122 0 0 0-9.266-3.919z" transform="translate(-2.25 -22.938)"/><path fill="#3ecb5f" d="M55.165 67.463a6.858 6.858 0 0 0-3.775 8.922 6.858 6.858 0 0 0 8.923 3.774 6.858 6.858 0 0 0 3.774-8.922 6.858 6.858 0 0 0-8.922-3.774zm1.188 2.93a3.69 3.69 0 0 1 4.804 2.032 3.69 3.69 0 0 1-2.032 4.804 3.69 3.69 0 0 1-4.805-2.032 3.69 3.69 0 0 1 2.033-4.804z" opacity=".24"/></svg>