<svg xmlns="http://www.w3.org/2000/svg" xmlns:xlink="http://www.w3.org/1999/xlink" viewBox="0 0 36.381 31.367"><defs><linearGradient id="a"><stop/><stop offset="1" stop-opacity=".536"/></linearGradient><linearGradient id="e" x1="664.259" x2="664.271" y1="414.69" y2="414.944" gradientTransform="translate(-3146.344 -2011.407) scale(5.76483)" gradientUnits="userSpaceOnUse" xlink:href="#b"/><linearGradient id="b"><stop offset="0"/><stop offset=".5" stop-color="#fff"/><stop offset="1"/></linearGradient><linearGradient id="f" x1="664.401" x2="664.401" y1="415.575" y2="415.828" gradientTransform="translate(-3146.344 -2011.407) scale(5.76483)" gradientUnits="userSpaceOnUse" xlink:href="#b"/><linearGradient id="g" x1="663.93" x2="664.177" y1="415.274" y2="415.274" gradientTransform="translate(-3146.344 -2011.407) scale(5.76483)" gradientUnits="userSpaceOnUse" xlink:href="#b"/><linearGradient id="h" x1="664.605" x2="665.099" y1="414.772" y2="415.234" gradientTransform="matrix(6.5703 0 0 6.57406 -3682.586 -2348.106)" gradientUnits="userSpaceOnUse" xlink:href="#c"/><linearGradient id="c" x1="138.92" x2="243.93" y1="604.86" y2="715.98" gradientUnits="userSpaceOnUse"><stop offset="0" stop-color="#ffec67"/><stop offset="1" stop-color="#f29100"/></linearGradient><linearGradient id="i" x1="664.605" x2="665.099" y1="414.772" y2="415.234" gradientTransform="translate(-3146.344 -2011.407) scale(5.76483)" gradientUnits="userSpaceOnUse" xlink:href="#d"/><linearGradient id="d" x1="304.59" x2="153.01" y1="625.07" y2="735.65" gradientUnits="userSpaceOnUse"><stop offset="0" stop-color="#fdfcc2"/><stop offset=".515" stop-color="#fef10c"/><stop offset="1" stop-color="#ffa000"/></linearGradient><linearGradient id="j" x1="664.605" x2="665.099" y1="414.772" y2="415.234" gradientTransform="matrix(6.5703 0 0 6.57406 -3681.219 -2343.159)" gradientUnits="userSpaceOnUse" xlink:href="#c"/><linearGradient id="k" x1="664.605" x2="665.099" y1="414.772" y2="415.234" gradientTransform="translate(-3144.977 -2006.46) scale(5.76483)" gradientUnits="userSpaceOnUse" xlink:href="#d"/></defs><g transform="matrix(2.83334 0 0 2.83334 -1929.783 -1066.398)"><path fill="none" stroke="url(#e)" stroke-width="1.424" d="M681.844 380.028h2.175"/><path fill="none" stroke="url(#f)" stroke-width="1.424" d="M681.912 385.058h3.84"/><path fill="none" stroke="url(#g)" stroke-width="1.424" d="M681.81 377.886v9.38"/><rect width="3.248" height="3.037" x="684.073" y="378.628" fill="url(#h)" stroke="#050505" stroke-linecap="round" stroke-width=".305" rx=".353"/><rect width="2.849" height="2.663" x="684.99" y="379.682" fill="url(#i)" stroke="#050505" stroke-linecap="round" stroke-width=".305" rx=".353"/><rect width="3.248" height="3.037" x="685.44" y="383.576" fill="url(#j)" stroke="#050505" stroke-linecap="round" stroke-width=".305" rx=".353"/><rect width="2.849" height="2.663" x="686.357" y="384.629" fill="url(#k)" stroke="#050505" stroke-linecap="round" stroke-width=".305" rx=".353"/></g><g transform="matrix(.0338 -.04806 .049 .03258 -39.061 65.668)"><circle cx="1298.571" cy="200.934" r="161.429" fill="#fff" fill-opacity=".59" stroke="#000" stroke-width="15"/><path d="M1304.657 57.74a135.468 135.468 0 0 0-112.11 59.473 134.147 134.147 0 0 1 105.502-51.541 134.147 134.147 0 0 1 134.147 134.146 134.147 134.147 0 0 1-49.165 103.68 135.468 135.468 0 0 0 57.095-110.29A135.468 135.468 0 0 0 1304.657 57.74z"/><rect width="42.857" height="290" x="1266.846" y="356.094" ry="21.429"/></g></svg>