<svg xmlns="http://www.w3.org/2000/svg" xmlns:xlink="http://www.w3.org/1999/xlink" viewBox="0 0 49.288 53.476"><defs><linearGradient id="k" x1="529.386" x2="529.517" y1="-2964.875" y2="-2958.402" gradientTransform="matrix(10.07345 0 0 10.07345 -4563.67 27949.033)" gradientUnits="userSpaceOnUse" xlink:href="#a"/><linearGradient id="a"><stop offset="0" stop-color="#2d70c9"/><stop offset=".418" stop-color="#c8defb"/><stop offset="1" stop-color="#183968"/></linearGradient><radialGradient id="l" cx="505.426" cy="-2956.924" r="4.182" fx="505.426" fy="-2956.924" gradientTransform="matrix(9.31698 0 0 8.51825 -3941.473 23432.286)" gradientUnits="userSpaceOnUse" xlink:href="#b"/><linearGradient id="b"><stop offset="0" stop-color="#e1ecf2"/><stop offset="1" stop-color="#b6c7e0"/></linearGradient><radialGradient id="m" cx="505.426" cy="-2956.924" r="4.182" fx="505.426" fy="-2956.924" gradientTransform="matrix(9.37124 0 0 8.51825 -3896.191 23367.671)" gradientUnits="userSpaceOnUse" xlink:href="#b"/><radialGradient id="n" cx="505.426" cy="-2956.924" r="4.182" fx="505.426" fy="-2956.924" gradientTransform="matrix(9.18674 0 0 8.51825 -3802.23 23431.249)" gradientUnits="userSpaceOnUse" xlink:href="#b"/><radialGradient id="o" cx="505.426" cy="-2956.924" r="4.182" fx="505.426" fy="-2956.924" gradientTransform="matrix(9.11144 0 0 8.4992 -3911.246 23312.38)" gradientUnits="userSpaceOnUse" xlink:href="#b"/><radialGradient id="p" cx="505.426" cy="-2956.924" r="4.182" fx="505.426" fy="-2956.924" gradientTransform="matrix(8.9668 0 0 8.5063 -3838.72 23396.933)" gradientUnits="userSpaceOnUse" xlink:href="#b"/><radialGradient id="q" cx="505.426" cy="-2956.924" r="4.182" fx="505.426" fy="-2956.924" gradientTransform="matrix(9.54984 0 0 8.51825 -4060.066 23368.709)" gradientUnits="userSpaceOnUse" xlink:href="#b"/><filter id="f"><feGaussianBlur stdDeviation="2.586"/></filter><radialGradient id="g" cx="81.79" cy="100.32" r="44.42" gradientTransform="matrix(2.0026 -1.59703 1.77733 2.2287 -279.236 23.704)" gradientUnits="userSpaceOnUse" xlink:href="#c"/><linearGradient id="c"><stop stop-color="#eee"/><stop offset="1" stop-color="#d2d2d2"/></linearGradient><radialGradient id="h" cx="89.51" cy="22.254" r="18.279" gradientTransform="matrix(1 0 0 .97468 0 .44)" gradientUnits="userSpaceOnUse" xlink:href="#d"/><linearGradient id="d"><stop/><stop offset="1" stop-opacity=".536"/></linearGradient><filter id="i" width="1.294" height="1.29" x="-.147" y="-.145"><feGaussianBlur stdDeviation="1.819"/></filter><linearGradient id="j" x1="98.33" x2="86.82" y1="14.793" y2="25.1" gradientTransform="matrix(.96715 0 0 .96715 .456 -.087)" gradientUnits="userSpaceOnUse" xlink:href="#e"/><linearGradient id="e"><stop/><stop offset="1" stop-color="#ddd" stop-opacity="0"/></linearGradient></defs><path d="M20.094 4.119v118h88.844V35.962l-.594-.625c.21.145.417.302.625.438L78.094 4.15c.056.08.1.17.156.25L78 4.119z" filter="url(#f)" opacity=".809" transform="matrix(.2165 0 0 .21743 23.772 1.67)"/><path fill="url(#g)" d="M19.89 2.543v114.123h85.925V33.34L75.894 2.543z" transform="matrix(.22386 0 0 .22386 23.67 1.808)"/><path fill="url(#h)" d="M81.698 28.31l.135-8.351c.068-6.6-.877-11.548-4.047-16.012l2.576-.031 27.5 25.615c-4.067-2.646-9.62-.791-16.861-1.026z" filter="url(#i)" opacity=".505" transform="matrix(.22746 0 0 .24899 22.567 1.73)"/><path fill="#eee" d="M41.94 7.586l.03-1.808c.014-1.429-.603-2.426-1.29-3.392l6.686 6.847c-.88-.573-1.844-1.554-3.412-1.605z"/><path fill="url(#j)" d="M81.616 25.812l.13-8.077c.066-6.382-2.691-10.836-5.757-15.153l29.867 30.588c-3.935-2.558-8.24-6.942-15.243-7.169z" transform="matrix(.22386 0 0 .22386 23.67 1.808)"/><path fill="#24a644" stroke="#9a9a9a" stroke-linecap="round" stroke-width="2.534" d="M-20.614 20.959H57.12v29.67h-77.734z" transform="matrix(.22386 0 0 .22386 23.67 1.808)"/><text style="line-height:1.25" x="-14.149" y="46.079" fill="#fdfdfd" stroke-width=".706" font-family="sans-serif" font-size="28.256" font-weight="400" letter-spacing="0" transform="matrix(.22386 0 0 .22386 23.67 1.808)" word-spacing="0"><tspan x="-14.149" y="46.079" style="-inkscape-font-specification:'sans-serif Bold'" font-weight="700">CSV</tspan></text><g fill="#24a644"><path d="M29.385 16.632h8.075v2.079h-8.075zM29.385 19.71h8.075v2.079h-8.075zM29.385 22.828h8.075v2.079h-8.075z"/></g><g fill="#24a644"><path d="M38.38 16.632h8.075v2.079H38.38zM38.38 19.71h8.075v2.079H38.38zM38.38 22.828h8.075v2.079H38.38z"/></g><g stroke="#7b8691" stroke-linecap="round" transform="matrix(.12087 0 0 .11773 -78.492 255.376)"><rect width="223.55" height="198.213" x="652.764" y="-1916.546" fill="#7b8691" stroke-width="6.766" ry="12.027"/><rect width="223.55" height="64.618" x="652.764" y="-1916.546" fill="url(#k)" stroke-width="6.766" rx="11.714"/><rect width="71.665" height="63.577" x="731.739" y="-1787.311" fill="url(#l)" stroke-width="6.837" rx="10.834"/><rect width="72.082" height="63.577" x="804.237" y="-1851.927" fill="url(#m)" stroke-width="7.011" rx="10.897"/><rect width="70.663" height="63.577" x="805.657" y="-1788.348" fill="url(#n)" stroke-width="6.942" rx="10.683"/><rect width="70.084" height="63.434" x="658.873" y="-1850.816" fill="url(#o)" stroke-width="6.906" rx="10.595"/><rect width="68.971" height="63.487" x="658.846" y="-1787.263" fill="url(#p)" stroke-width="6.853" rx="10.427"/><rect width="73.456" height="63.577" x="729.947" y="-1850.887" fill="url(#q)" stroke-width="6.922" rx="11.105"/></g><g fill="#147a0a"><path d="M15.834 18.005c.288-.204 1.127-.23 2.753-.198 7.112.14 7.283.43 7.533.732l.09.172c.078.402-.011.66-.892 3.452-.246.78-.74 2.398-1.1 3.6-.894 2.986-1.005 3.057-2.185 1.428-.698-.963-.758-1.027-1.074-1.078-.287-.046-.462.032-1.192.481-1.996 1.23-3.696 3.145-4.764 5.366-.446.927-.569 1.232-.893 2.406-.156.562-.243.736-.545.955-.273.199-.413.22-.566.146-.79-.384-.961-2.42-.46-5.482.506-3.082 1.747-5.778 3.83-8.27.892-1.067.899-1.083.004-2.318-.567-.783-.827-1.187-.54-1.392z"/></g></svg>