<svg xmlns="http://www.w3.org/2000/svg" xmlns:xlink="http://www.w3.org/1999/xlink" viewBox="0 0 152.904 126.211"><defs><filter id="d" color-interpolation-filters="sRGB"><feGaussianBlur result="fbSourceGraphic" stdDeviation="5"/><feGaussianBlur in="SourceGraphic" result="result1" stdDeviation=".01"/><feComposite in="fbSourceGraphic" in2="result1" k2=".5" k3=".5" operator="arithmetic" result="result2"/><feBlend in2="fbSourceGraphic" result="result3"/></filter><radialGradient id="e" cx="89.51" cy="22.254" r="18.279" gradientTransform="matrix(1 0 0 .97468 0 .44)" gradientUnits="userSpaceOnUse" xlink:href="#a"/><linearGradient id="a"><stop/><stop offset="1" stop-opacity=".536"/></linearGradient><filter id="f" width="1.294" height="1.29" x="-.147" y="-.145"><feGaussianBlur stdDeviation="1.819"/></filter><linearGradient id="g" x1="98.33" x2="86.82" y1="14.793" y2="25.1" gradientTransform="matrix(.96715 0 0 .96715 115.415 -2.733)" gradientUnits="userSpaceOnUse" xlink:href="#b"/><linearGradient id="b"><stop/><stop offset="1" stop-color="#ddd" stop-opacity="0"/></linearGradient><linearGradient id="h" x1="152.847" x2="317.393" y1="145.552" y2="145.552" gradientUnits="userSpaceOnUse" xlink:href="#c"/><linearGradient id="c"><stop offset="0" stop-color="#dddd98"/><stop offset=".557" stop-color="#f2f654" stop-opacity=".498"/><stop offset="1" stop-color="#faff7d" stop-opacity=".184"/></linearGradient><linearGradient id="k" x1="-305.474" x2="-231.968" y1="106.741" y2="106.741" gradientTransform="translate(42.205 -361.188) scale(1.24854)" gradientUnits="userSpaceOnUse" xlink:href="#c"/><linearGradient id="l" x1="-221.792" x2="-177.358" y1="54.832" y2="54.832" gradientTransform="translate(42.205 -361.188) scale(1.24854)" gradientUnits="userSpaceOnUse" xlink:href="#c"/><linearGradient id="j" x1="152.847" x2="317.393" y1="145.552" y2="145.552" gradientUnits="userSpaceOnUse" xlink:href="#c"/><linearGradient id="i" x1="152.847" x2="317.393" y1="145.552" y2="145.552" gradientUnits="userSpaceOnUse" xlink:href="#c"/></defs><path d="M20.98-.137v165.606h200.63V30.659L191.69-.137h-56.004z" filter="url(#d)" transform="matrix(.6351 0 0 .6351 -.583 10.605)"/><path fill="#fff" d="M12.742 10.518v105.176H140.162V30.077l-19.003-19.56H85.59z"/><path fill="url(#e)" d="M81.698 28.31l.135-8.351c.068-6.6-.877-11.548-4.047-16.012l2.576-.031 27.5 25.615c-4.067-2.646-9.62-.791-16.861-1.026z" filter="url(#f)" opacity=".505" transform="matrix(.64531 0 0 .70638 69.3 8.705)"/><path fill="#eee" d="M124.262 25.317l.083-5.13c.041-4.053-1.71-6.881-3.657-9.623l18.968 19.426c-2.498-1.625-5.233-4.409-9.68-4.553z"/><path fill="url(#g)" d="M196.575 23.165l.13-8.076c.066-6.383-2.69-10.837-5.757-15.153l29.867 30.588c-3.935-2.559-8.24-6.943-15.243-7.17z" transform="matrix(.6351 0 0 .6351 -.583 10.605)"/><path fill="url(#j)" stroke="#000" stroke-width=".794" d="M84.153 308.87v8.097h-8.267v8.524h27.848v-8.524h-8.268v-8.098H89.81z" transform="matrix(2.00526 0 0 2.00526 -127.628 -585.47)"/><path fill="url(#k)" stroke="#000" stroke-width="2.497" d="M-337.943-242.587h89.278v29.338h-89.278z" transform="matrix(.6351 0 0 .6351 239.046 235.718)"/><path fill="url(#l)" stroke="#000" stroke-width="2.479" d="M-233.472-318.756h53v52.055h-53z" transform="matrix(.6351 0 0 .6351 239.046 235.718)"/><path fill="none" stroke="#625454" stroke-dasharray="9.077 2.269" stroke-width="1.4410419" d="M91.189 50.132h32.982M41.121 82.066v18.779M63.807 81.826v18.297"/></svg>