<svg xmlns="http://www.w3.org/2000/svg" xmlns:xlink="http://www.w3.org/1999/xlink" viewBox="0 0 62.789 45.508"><defs><linearGradient id="a"><stop/><stop offset="1" stop-opacity=".536"/></linearGradient><linearGradient id="e" x1="48.906" x2="50.988" y1="17.376" y2="22.251" gradientTransform="scale(1 -1) rotate(-89.699 22.753 -20.363)" gradientUnits="userSpaceOnUse" xlink:href="#b"/><linearGradient id="b" x1="48.906" x2="50.988" y1="17.376" y2="22.251" gradientTransform="scale(1 -1) rotate(-89.699 22.753 -20.363)" gradientUnits="userSpaceOnUse"><stop offset="0" stop-color="#ffd1d1"/><stop offset=".5" stop-color="#ff1d1d"/><stop offset="1" stop-color="#6f0000"/></linearGradient><linearGradient id="f" x1="46" x2="47.688" y1="19.812" y2="22.625" gradientTransform="scale(1 -1) rotate(-89.699 22.753 -20.363)" gradientUnits="userSpaceOnUse" xlink:href="#c"/><linearGradient id="c" x1="46" x2="47.688" y1="19.812" y2="22.625" gradientTransform="scale(1 -1) rotate(-89.699 22.753 -20.363)" gradientUnits="userSpaceOnUse"><stop offset="0" stop-color="#c1c1c1"/><stop offset="1" stop-color="#acacac"/></linearGradient><radialGradient id="g" cx="29.053" cy="27.641" r="3.241" gradientTransform="matrix(.01538 2.9235 2.0297 -.01068 20.391 -69.727)" gradientUnits="userSpaceOnUse"><stop offset="0" stop-color="#e7e2b8"/><stop offset="1" stop-color="#e7e2b8" stop-opacity="0"/></radialGradient><linearGradient id="h" x1="25.719" x2="25.515" y1="31.047" y2="30.703" gradientTransform="scale(1 -1) rotate(-89.699 31.456 -17.402)" gradientUnits="userSpaceOnUse" xlink:href="#d"/><linearGradient id="d" x1="25.719" x2="25.515" y1="31.047" y2="30.703" gradientTransform="scale(1 -1) rotate(-89.699 31.456 -17.402)" gradientUnits="userSpaceOnUse"><stop offset="0"/><stop offset="1" stop-color="#c9c9c9"/></linearGradient></defs><g fill="none" stroke="#9f9f9f" stroke-dasharray="8 2 1 2"><path stroke-width=".43" d="M3.413 0v45.508M10.069 0v45.508M16.724 0v45.508M23.38 0v45.508M30.035 0v45.508M36.691 0v45.508M43.347 0v45.508"/></g><g fill="none" stroke="#9f9f9f" stroke-dasharray="8 2 1 2"><path stroke-width=".43" d="M45.508 3.188H0M45.508 9.843H0M45.508 16.499H0M45.508 23.155H0M45.508 29.81H0M45.508 36.466H0M45.508 43.121H0"/></g><path fill="none" stroke="#0b56b6" stroke-width="2.824" d="M27.044 4.599H4.816v17.688c-.05 6.057 2.124 6.083 7.531 6.034H34.33"/><path fill="none" stroke="#0dae3c" stroke-width="2.824" d="M33.677 11.016H11.449v17.688c-.05 6.057 2.124 6.083 7.531 6.034h21.982"/><path fill="none" stroke="#d0512e" stroke-width="2.824" d="M40.34 17.811H18.112V35.5c-.05 6.057 2.124 6.083 7.532 6.034h21.981"/><g fill-rule="evenodd"><path fill="#cb9022" stroke="#5c410c" stroke-width=".99561" d="M29.797 40.524l3.429-7.139 24.56-24.91c2.641-2.246 5.987 1.46 3.822 3.935L36.982 36.947z"/><path fill="url(#e)" d="M63.227 41.398s.101 1.437 1.354 1.993c1.291.573 2.656-.014 2.656-.014l-2.442 5.044s-.874 1.457-2.84.671c-1.94-.774-1.171-2.681-1.171-2.681z" transform="matrix(.33474 .93766 .93766 -.33474 -5.68 -32.64)"/><path fill="url(#f)" d="M63.227 41.398s.101 1.437 1.354 1.993c1.291.573 2.656-.014 2.656-.014l-.989 2.005s-1.315.834-2.687.233c-1.409-.618-1.324-2.212-1.324-2.212z" transform="matrix(.33474 .93766 .93766 -.33474 -5.68 -32.64)"/><path fill="url(#g)" d="M80.478 10.282l-4.476 4.524c.82 1.495 2.168 2.27 3.728 1.855z" transform="matrix(.33474 .93766 .93766 -.33474 -5.68 -32.64)"/><path fill="url(#h)" d="M79.079 11.633L80.664 10l-.3 2.345c-.718.223-1.064-.182-1.285-.712z" transform="matrix(.33474 .93766 .93766 -.33474 -5.68 -32.64)"/><path fill="#fff" fill-opacity=".364" d="M33.634 33.638l1.88.659 20.992-21.014c-.7-.657-1.524-.61-2.17-.464z"/><path fill-opacity=".364" d="M36.652 36.601l-.071-.766L57.48 15.107s.098.614.044.776z"/><path fill="#fff" d="M30.743 39.701l2.961-6.1 13.421-13.576-12.831 13.789-3.551 5.887z" opacity=".725"/><path fill="#fff" d="M30.7 39.58l6.003-3.074 11.243-11.17-11.36 10.969-.095-.527-5.792 3.801z" opacity=".418"/></g></svg>