<svg xmlns="http://www.w3.org/2000/svg" viewBox="0 0 73.639 35.962"><g style="line-height:1.25" stroke="#e6e6e6" stroke-width=".372" font-family="sans-serif" font-size="10.583" font-weight="400" letter-spacing="0" word-spacing="0"><path d="M17.916 0C13.303 0 8.689 1.75 5.187 5.252 2.065 8.374.34 12.379 0 16.48h5.996a11.97 11.97 0 0 1 3.435-6.984 11.955 11.955 0 0 1 16.971 0 3 3 0 0 0 4.242-4.244C27.142 1.75 22.53 0 17.916 0zm13.716 11.212a7.018 7.018 0 0 0-5.931 3.036 2 2 0 0 0-.039.063l-1.633 2.17h5.005l.193-.258a2.98 2.98 0 0 1 3.003-.916 2.994 2.994 0 0 1 1.697 1.173h4.326a7.016 7.016 0 0 0-5.011-5.042 6.973 6.973 0 0 0-1.61-.226zm-13.03 1.36a2 2 0 0 0-.91.2 6.012 6.012 0 0 0-3.208 3.708h4.75c.05-.028.096-.06.149-.084a2 2 0 0 0-.782-3.824zM0 19.48c.339 4.101 2.065 8.107 5.187 11.229 7.005 7.004 18.453 7.004 25.457 0a3 3 0 1 0-4.242-4.242 11.955 11.955 0 0 1-16.97 0 11.97 11.97 0 0 1-3.436-6.987zm14.368 0a6.014 6.014 0 0 0 4.307 4.524 6.01 6.01 0 0 0 6.426-2.3l.002.001 1.674-2.224h-5.013a1.981 1.981 0 0 1-2.053.66 1.995 1.995 0 0 1-1.028-.66zm19.824 0a2.992 2.992 0 0 1-1.452 1.447 2 2 0 1 0 1.691 3.626 7.008 7.008 0 0 0 3.919-5.073z" style="line-height:normal;font-variant-ligatures:normal;font-variant-position:normal;font-variant-caps:normal;font-variant-numeric:normal;font-variant-alternates:normal;font-feature-settings:normal;text-indent:0;text-align:start;text-decoration-line:none;text-decoration-style:solid;text-decoration-color:#000;text-transform:none;text-orientation:mixed;white-space:normal;shape-padding:0;isolation:auto;mix-blend-mode:normal;solid-color:#000;solid-opacity:1" color="#000" font-size="medium" letter-spacing="normal" overflow="visible" transform="matrix(.98365 0 0 .97958 .603 .467)" word-spacing="normal"/><path style="line-height:0;-inkscape-font-specification:'Arial Bold';text-align:start" d="M43.584 12.366l1.484.47q-.342 1.24-1.137 1.845-.791.6-2.01.6-1.51 0-2.481-1.028-.972-1.034-.972-2.822 0-1.891.977-2.935.977-1.05 2.568-1.05 1.39 0 2.259.822.516.486.775 1.396l-1.514.361q-.135-.589-.564-.93-.423-.34-1.033-.34-.842 0-1.37.604-.521.604-.521 1.958 0 1.437.516 2.047.517.61 1.344.61.61 0 1.049-.388.44-.388.63-1.22zm2.491-.956q0-1.157.346-1.943.259-.578.703-1.038.45-.46.982-.683.708-.3 1.633-.3 1.674 0 2.677 1.04 1.008 1.038 1.008 2.888 0 1.835-.998 2.873-.997 1.034-2.666 1.034-1.69 0-2.687-1.028-.998-1.034-.998-2.843zm1.576-.051q0 1.286.595 1.953.594.661 1.509.661.914 0 1.498-.656.59-.661.59-1.979 0-1.302-.574-1.943-.569-.64-1.514-.64-.946 0-1.525.65-.579.646-.579 1.954zm6.956-3.783h2.796q.945 0 1.441.145.667.196 1.143.697.475.502.723 1.23.248.724.248 1.788 0 .935-.233 1.612-.284.827-.81 1.339-.399.387-1.076.604-.506.16-1.354.16h-2.878zm1.53 1.281v5.018h1.142q.64 0 .925-.072.372-.093.615-.315.248-.223.403-.729.155-.512.155-1.39 0-.879-.155-1.349t-.434-.734q-.28-.263-.708-.356-.32-.073-1.256-.073zm6.123 6.295V7.576h5.618v1.281H63.79v1.68h3.803v1.276H63.79v2.062h4.232v1.277zM38.35 25.916l1.488-.145q.134.75.542 1.1.414.352 1.112.352.739 0 1.11-.31.378-.315.378-.734 0-.268-.16-.454-.155-.192-.548-.331-.269-.093-1.225-.33-1.23-.306-1.726-.75-.698-.625-.698-1.525 0-.578.326-1.08.33-.506.946-.77.62-.263 1.493-.263 1.426 0 2.145.625.723.625.76 1.67l-1.53.067q-.098-.584-.424-.838-.32-.258-.966-.258-.667 0-1.044.274-.243.176-.243.47 0 .269.227.46.29.243 1.406.506 1.116.264 1.648.548.538.28.838.77.304.486.304 1.204 0 .651-.361 1.22-.362.568-1.023.847-.662.274-1.649.274-1.437 0-2.207-.661-.77-.667-.92-1.938zm9.162 2.464v-6.293h-2.248v-1.282h6.02v1.282h-2.243v6.294zm10.811 0h-1.664l-.662-1.72H52.97l-.625 1.72H50.72l2.95-7.575h1.618zm-2.817-2.996l-1.044-2.812-1.023 2.812zm8.48.211l1.483.47q-.34 1.241-1.136 1.846-.791.599-2.01.599-1.51 0-2.481-1.028-.972-1.034-.972-2.822 0-1.891.977-2.935.977-1.05 2.568-1.05 1.39 0 2.259.823.516.485.775 1.395l-1.514.362q-.135-.59-.564-.93-.423-.342-1.033-.342-.843 0-1.37.605-.522.605-.522 1.958 0 1.437.517 2.047.517.61 1.344.61.61 0 1.049-.388.44-.388.63-1.22zm2.822 2.785v-7.575h1.53v3.364l3.09-3.364h2.056l-2.852 2.95 3.007 4.626H71.66l-2.082-3.555-1.24 1.266v2.289z" font-family="Arial" font-weight="700" transform="matrix(.98365 0 0 .97958 .603 .467)"/></g></svg>