<svg xmlns="http://www.w3.org/2000/svg" xmlns:xlink="http://www.w3.org/1999/xlink" viewBox="0 0 44.807 43.367"><defs><filter id="d" width="1.065" height="3.286" x="-.032" y="-1.143" color-interpolation-filters="sRGB"><feGaussianBlur stdDeviation="1.01"/></filter><linearGradient id="e" x1="50" x2="49.5" y1="42" y2="21.5" gradientTransform="matrix(.26136 0 0 .60036 140.52 125.558)" gradientUnits="userSpaceOnUse" xlink:href="#a"/><linearGradient id="a"><stop offset="0" stop-color="#ccc"/><stop offset="1" stop-color="#ccc" stop-opacity="0"/></linearGradient><filter id="b" width="1.204" height="1.569" x="-.102" y="-.285" color-interpolation-filters="sRGB"><feGaussianBlur stdDeviation="2.848"/></filter><linearGradient id="c" x1="50" x2="49.5" y1="42" y2="21.5" gradientTransform="matrix(.26136 0 0 .60036 159.641 149.265)" gradientUnits="userSpaceOnUse" xlink:href="#a"/></defs><g transform="translate(-140.944 -128.316)"><rect width="44.33" height="19.42" x="140.944" y="152.262" fill="#666" fill-rule="evenodd" rx="3.122" ry="3.237"/><rect width="44.33" height="18.731" x="140.944" y="152.262" fill="#b3b3b3" fill-rule="evenodd" rx="3.122" ry="3.122"/><rect width="43.082" height="17.482" x="141.569" y="152.887" fill="#112b00" fill-rule="evenodd" rx="2.497" ry="2.497"/><rect width="67" height="24" x="101" y="1020.4" fill="green" fill-rule="evenodd" filter="url(#b)" opacity=".555" rx="3.884" ry="3.429" transform="matrix(.54792 0 0 .5089 89.8 -363.768)"/><rect width="25.053" height="18.731" x="159.519" y="152.262" fill="#112c00" fill-rule="evenodd" rx="3.132" ry="3.122"/><rect width="24.975" height="18.731" x="160.222" y="152.262" fill="#b3b3b3" fill-rule="evenodd" rx="3.122" ry="3.122"/><rect width="23.726" height="17.482" x="160.846" y="152.887" fill="#fff" fill-rule="evenodd" rx="2.497" ry="2.497"/><rect width="22.477" height="15.609" x="161.471" y="153.511" fill="url(#c)" fill-rule="evenodd" rx="1.873" ry="2.401"/><rect width="74.953" height="2.121" x="12.374" y="68.333" fill="#666" fill-rule="evenodd" filter="url(#d)" opacity=".156" rx="2.595" ry=".264" transform="matrix(.2626 0 0 .21719 159.767 153.886)"/><rect width="74.953" height="2.121" x="12.374" y="68.333" fill="#666" fill-rule="evenodd" filter="url(#d)" opacity=".156" rx="2.595" ry=".264" transform="matrix(.25426 0 0 .21719 159.87 139.088)"/><path fill="#00d400" d="M147.385 161.877c0-.5.075-.92.225-1.26a2.3 2.3 0 0 1 .458-.674c.193-.2.405-.347.635-.443.306-.13.659-.195 1.06-.195.724 0 1.304.225 1.738.674.435.45.653 1.075.653 1.875 0 .794-.216 1.415-.647 1.863-.432.448-1.009.672-1.73.672-.732 0-1.313-.222-1.745-.669-.43-.446-.647-1.06-.647-1.843zm1.023-.033c0 .557.128.979.386 1.266.257.288.583.431.979.431s.72-.142.974-.428c.254-.284.38-.712.38-1.282 0-.564-.123-.984-.37-1.261-.247-.278-.575-.416-.984-.416-.41 0-.74.14-.99.42-.25.281-.375.704-.375 1.27zM152.935 164.313v-4.917h.966l2.012 3.283v-3.283h.922v4.917h-.996l-1.982-3.206v3.206z" opacity=".8"/><rect width="44.33" height="19.42" x="141.101" y="128.511" fill="#666" fill-rule="evenodd" rx="3.122" ry="3.237"/><rect width="44.33" height="18.731" x="141.101" y="128.511" fill="#b3b3b3" fill-rule="evenodd" rx="3.122" ry="3.122"/><rect width="43.082" height="17.482" x="141.725" y="129.136" fill="#2b0000" fill-rule="evenodd" rx="2.497" ry="2.497"/><rect width="67" height="24" x="101" y="1020.4" fill="red" fill-rule="evenodd" filter="url(#b)" opacity=".555" rx="3.884" ry="3.429" transform="matrix(.51696 0 0 .5089 95.37 -387.494)"/><rect width="25.599" height="18.731" x="141.101" y="128.511" fill="#2b0000" fill-rule="evenodd" rx="3.2" ry="3.122"/><rect width="24.975" height="18.731" x="141.101" y="128.511" fill="#b3b3b3" fill-rule="evenodd" rx="3.122" ry="3.122"/><rect width="23.726" height="17.482" x="141.725" y="129.136" fill="#fff" fill-rule="evenodd" rx="2.497" ry="2.497"/><rect width="22.477" height="15.609" x="142.349" y="129.76" fill="url(#e)" fill-rule="evenodd" rx="1.873" ry="2.401"/><rect width="74.953" height="2.121" x="12.374" y="68.333" fill="#666" fill-rule="evenodd" filter="url(#d)" opacity=".156" rx="2.595" ry=".264" transform="matrix(.2626 0 0 .21719 140.646 130.135)"/><rect width="74.953" height="2.121" x="12.374" y="68.333" fill="#666" fill-rule="evenodd" filter="url(#d)" opacity=".156" rx="2.595" ry=".264" transform="matrix(.25426 0 0 .21719 140.75 115.362)"/><g fill="#ff8080" opacity=".8"><path d="M167.677 138.151c0-.5.075-.92.225-1.26.112-.25.264-.476.457-.675.194-.199.406-.346.636-.442a2.7 2.7 0 0 1 1.06-.195c.724 0 1.304.225 1.739.674.434.45.652 1.075.652 1.875 0 .794-.216 1.415-.647 1.863-.432.448-1.009.672-1.73.672-.732 0-1.313-.223-1.745-.669-.431-.446-.647-1.06-.647-1.843zm1.023-.033c0 .556.128.978.386 1.266.257.287.583.43.979.43s.72-.142.974-.427c.254-.285.38-.713.38-1.283 0-.563-.123-.983-.37-1.26-.247-.278-.575-.416-.984-.416-.41 0-.74.14-.99.42-.25.281-.375.704-.375 1.27zM173.224 140.586v-4.916h3.37v.832h-2.377v1.163h2.052v.832h-2.052v2.09zM177.422 140.586v-4.916h3.37v.832h-2.377v1.163h2.052v.832h-2.052v2.09z"/></g><path fill="#8e8c6d" fill-rule="evenodd" stroke="#000" stroke-linejoin="round" stroke-width=".449" d="M146.06 139.076c.02.545.203 1.157.594 1.484 1.011.474.544-.679 1.245-.814.7-.136.739.678.739.678v3.508l3.478-.003s.814-.04.678-.74c-.136-.7-1.288-.232-.814-1.244.327-.391.938-.574 1.484-.594a2.188 2.188 0 0 1 .579.048c.47.06.948.242 1.223.573.475 1.011-.678.544-.814 1.244-.099.51.305.668.532.717h3.692v-3.646c.044-.222.197-.654.722-.552.7.135.233 1.287 1.245.813.33-.276.512-.753.573-1.224 0-.008.002-.017.003-.022.034-.166.052-.355.044-.557-.02-.545-.203-1.157-.594-1.483-1.011-.475-.544.679-1.245.814-.7.136-.738-.678-.738-.678l-.008-3.488h-3.664c-.228-.05-.626-.207-.528-.715.136-.7 1.289-.233.814-1.244-.275-.33-.754-.513-1.224-.573a2.324 2.324 0 0 0-.576-.048c-.545.02-1.157.202-1.484.594-.474 1.011.679.544.814 1.245.136.7-.678.738-.678.738l-3.51.003v3.666c-.054.23-.216.609-.713.512-.7-.135-.233-1.287-1.244-.813-.33.276-.513.753-.573 1.224l-.003.023a2.298 2.298 0 0 0-.045.556z" opacity=".5"/><path fill="#d1cb59" fill-rule="evenodd" stroke="#000" stroke-linejoin="round" stroke-width=".449" d="M165.528 163.038c.02.545.203 1.157.594 1.483 1.012.475.545-.678 1.245-.814.7-.135.739.678.739.678v3.508l3.478-.003s.814-.039.678-.739c-.135-.7-1.288-.233-.814-1.244.327-.392.938-.574 1.484-.595a2.188 2.188 0 0 1 .579.048c.47.06.948.243 1.223.573.475 1.012-.678.545-.814 1.245-.099.51.305.668.533.717h3.691v-3.646c.044-.222.197-.654.722-.553.7.136.233 1.288 1.245.813.33-.275.512-.753.573-1.223 0-.008.002-.017.003-.023.035-.165.052-.355.045-.556-.02-.545-.203-1.157-.595-1.483-1.011-.475-.544.678-1.244.814-.7.136-.74-.679-.74-.679l-.007-3.487h-3.664c-.227-.05-.626-.208-.527-.715.135-.7 1.288-.233.813-1.245-.275-.33-.754-.512-1.224-.573-.009 0-.014-.002-.02-.003a2.324 2.324 0 0 0-.556-.045c-.545.02-1.157.203-1.484.595-.474 1.011.679.544.815 1.244.135.7-.679.739-.679.739l-3.51.003v3.666c-.054.23-.216.608-.713.512-.7-.136-.233-1.288-1.244-.813-.33.276-.512.753-.573 1.224l-.003.022a2.298 2.298 0 0 0-.045.556z" opacity=".5"/></g></svg>