<svg xmlns="http://www.w3.org/2000/svg" xmlns:xlink="http://www.w3.org/1999/xlink" viewBox="0 0 98.888 70.148"><defs><linearGradient id="t" x1="291.58" x2="277.7" y1="331.83" y2="313.13" gradientTransform="matrix(.26458 0 0 .26458 -397.877 510.466)" gradientUnits="userSpaceOnUse" xlink:href="#a"/><linearGradient id="a" x1="291.58" x2="277.7" y1="331.83" y2="313.13" gradientTransform="matrix(.26458 0 0 .26458 -397.877 510.466)" gradientUnits="userSpaceOnUse"><stop offset="0" stop-color="#666"/><stop offset="1" stop-color="#505050"/></linearGradient><linearGradient id="u" x1="211.6" x2="217.35" y1="656.93" y2="660.68" gradientTransform="matrix(.26458 0 0 .26458 -397.877 510.466)" gradientUnits="userSpaceOnUse" xlink:href="#b"/><linearGradient id="b" x1="211.6" x2="217.35" y1="656.93" y2="660.68" gradientTransform="matrix(.26458 0 0 .26458 -397.877 510.466)" gradientUnits="userSpaceOnUse"><stop offset="0" stop-color="#b3b3b3"/><stop offset="1" stop-color="#c3c3c3"/></linearGradient><linearGradient id="v" x1="354.89" x2="342.98" y1="538.12" y2="530.94" gradientTransform="matrix(.26458 0 0 .26458 -397.877 510.466)" gradientUnits="userSpaceOnUse" xlink:href="#c"/><linearGradient id="c" x1="354.89" x2="342.98" y1="538.12" y2="530.94" gradientTransform="matrix(.26458 0 0 .26458 -397.877 510.466)" gradientUnits="userSpaceOnUse"><stop offset="0" stop-color="#b3b3b3"/><stop offset="1" stop-color="#666"/></linearGradient><linearGradient id="w" x1="401.11" x2="404.38" y1="258.05" y2="261.59" gradientTransform="matrix(.26458 0 0 .26458 -397.877 510.466)" gradientUnits="userSpaceOnUse" xlink:href="#d"/><linearGradient id="d" x1="401.11" x2="404.38" y1="258.05" y2="261.59" gradientTransform="matrix(.26458 0 0 .26458 -397.877 510.466)" gradientUnits="userSpaceOnUse"><stop offset="0" stop-color="#ccc"/><stop offset="1" stop-color="#4d4d4d"/></linearGradient><linearGradient id="x" x1="398.43" x2="402.87" y1="683.65" y2="685.39" gradientTransform="matrix(.26458 0 0 .26458 -397.877 510.466)" gradientUnits="userSpaceOnUse" xlink:href="#e"/><linearGradient id="e" x1="398.43" x2="402.87" y1="683.65" y2="685.39" gradientTransform="matrix(.26458 0 0 .26458 -397.877 510.466)" gradientUnits="userSpaceOnUse"><stop offset="0" stop-color="#b3b3b3"/><stop offset="1" stop-color="#4d4d4d"/></linearGradient><linearGradient id="I" x1="-108.12" x2="-103.612" y1="457.759" y2="457.759" gradientTransform="matrix(15.23463 0 0 16.68114 947.063 -6731.805)" gradientUnits="userSpaceOnUse" xlink:href="#f"/><linearGradient id="f"><stop stop-color="#eee"/><stop offset="1" stop-color="#d2d2d2"/></linearGradient><linearGradient id="J" x1="-104.335" x2="-104.334" y1="458.468" y2="458.78" gradientTransform="matrix(47.2193 0 0 47.64129 4262.067 -20970.865)" gradientUnits="userSpaceOnUse" xlink:href="#g"/><linearGradient id="g"><stop offset="0" stop-color="#616c82"/><stop offset=".522" stop-color="#7f83a5"/><stop offset="1" stop-color="#667086"/></linearGradient><radialGradient id="A" cx="-107.006" cy="457.498" r=".508" fx="-107.006" fy="457.498" gradientTransform="matrix(11.94548 0 0 12.02838 594.782 -4606.392)" gradientUnits="userSpaceOnUse" xlink:href="#h"/><linearGradient id="h"><stop offset="0" stop-color="#ecc80e"/><stop offset="1" stop-color="#b98915"/></linearGradient><radialGradient id="B" cx="-107.013" cy="458.733" r=".405" fx="-107.013" fy="458.733" gradientTransform="matrix(15.26365 0 0 15.26365 949.761 -6090.56)" gradientUnits="userSpaceOnUse" xlink:href="#i"/><linearGradient id="i"><stop offset="0" stop-color="#e7e7e9"/><stop offset="1" stop-color="#8b8c8d"/></linearGradient><radialGradient id="C" cx="-107.013" cy="458.733" r=".405" fx="-107.013" fy="458.733" gradientTransform="matrix(15.26365 0 0 15.26365 949.81 -6075.854)" gradientUnits="userSpaceOnUse" xlink:href="#i"/><radialGradient id="F" cx="-107.006" cy="457.498" r=".508" fx="-107.006" fy="457.498" gradientTransform="matrix(11.94548 0 0 12.02838 594.782 -4606.392)" gradientUnits="userSpaceOnUse" xlink:href="#h"/><radialGradient id="G" cx="-107.013" cy="458.733" r=".405" fx="-107.013" fy="458.733" gradientTransform="matrix(15.26365 0 0 15.26365 949.761 -6090.56)" gradientUnits="userSpaceOnUse" xlink:href="#i"/><radialGradient id="H" cx="-107.013" cy="458.733" r=".405" fx="-107.013" fy="458.733" gradientTransform="matrix(15.26365 0 0 15.26365 949.81 -6075.854)" gradientUnits="userSpaceOnUse" xlink:href="#i"/><radialGradient id="K" cx="-107.006" cy="457.498" r=".508" fx="-107.006" fy="457.498" gradientTransform="matrix(11.94548 0 0 12.02838 594.782 -4606.392)" gradientUnits="userSpaceOnUse" xlink:href="#h"/><radialGradient id="L" cx="-107.013" cy="458.733" r=".405" fx="-107.013" fy="458.733" gradientTransform="matrix(15.26365 0 0 15.26365 949.761 -6090.56)" gradientUnits="userSpaceOnUse" xlink:href="#i"/><radialGradient id="M" cx="-107.013" cy="458.733" r=".405" fx="-107.013" fy="458.733" gradientTransform="matrix(15.26365 0 0 15.26365 949.81 -6075.854)" gradientUnits="userSpaceOnUse" xlink:href="#i"/><linearGradient id="j" x1="291.58" x2="277.7" y1="331.83" y2="313.13" gradientTransform="matrix(.26458 0 0 .26458 -397.877 510.466)" gradientUnits="userSpaceOnUse" xlink:href="#a"/><linearGradient id="k" x1="211.6" x2="217.35" y1="656.93" y2="660.68" gradientTransform="matrix(.26458 0 0 .26458 -397.877 510.466)" gradientUnits="userSpaceOnUse" xlink:href="#b"/><linearGradient id="l" x1="354.89" x2="342.98" y1="538.12" y2="530.94" gradientTransform="matrix(.26458 0 0 .26458 -397.877 510.466)" gradientUnits="userSpaceOnUse" xlink:href="#c"/><linearGradient id="m" x1="401.11" x2="404.38" y1="258.05" y2="261.59" gradientTransform="matrix(.26458 0 0 .26458 -397.877 510.466)" gradientUnits="userSpaceOnUse" xlink:href="#d"/><linearGradient id="n" x1="398.43" x2="402.87" y1="683.65" y2="685.39" gradientTransform="matrix(.26458 0 0 .26458 -397.877 510.466)" gradientUnits="userSpaceOnUse" xlink:href="#e"/><linearGradient id="o" x1="291.58" x2="277.7" y1="331.83" y2="313.13" gradientTransform="matrix(.26458 0 0 .26458 -397.877 510.466)" gradientUnits="userSpaceOnUse" xlink:href="#a"/><linearGradient id="p" x1="211.6" x2="217.35" y1="656.93" y2="660.68" gradientTransform="matrix(.26458 0 0 .26458 -397.877 510.466)" gradientUnits="userSpaceOnUse" xlink:href="#b"/><linearGradient id="q" x1="354.89" x2="342.98" y1="538.12" y2="530.94" gradientTransform="matrix(.26458 0 0 .26458 -397.877 510.466)" gradientUnits="userSpaceOnUse" xlink:href="#c"/><linearGradient id="r" x1="401.11" x2="404.38" y1="258.05" y2="261.59" gradientTransform="matrix(.26458 0 0 .26458 -397.877 510.466)" gradientUnits="userSpaceOnUse" xlink:href="#d"/><linearGradient id="s" x1="398.43" x2="402.87" y1="683.65" y2="685.39" gradientTransform="matrix(.26458 0 0 .26458 -397.877 510.466)" gradientUnits="userSpaceOnUse" xlink:href="#e"/><linearGradient id="y" x1="-108.12" x2="-103.612" y1="457.759" y2="457.759" gradientTransform="matrix(15.23463 0 0 16.68114 947.063 -6731.805)" gradientUnits="userSpaceOnUse" xlink:href="#f"/><linearGradient id="z" x1="-104.335" x2="-104.334" y1="458.468" y2="458.78" gradientTransform="matrix(47.2193 0 0 47.64129 4262.067 -20970.865)" gradientUnits="userSpaceOnUse" xlink:href="#g"/><linearGradient id="D" x1="-108.12" x2="-103.612" y1="457.759" y2="457.759" gradientTransform="matrix(15.23463 0 0 16.68114 947.063 -6731.805)" gradientUnits="userSpaceOnUse" xlink:href="#f"/><linearGradient id="E" x1="-104.335" x2="-104.334" y1="458.468" y2="458.78" gradientTransform="matrix(47.2193 0 0 47.64129 4262.067 -20970.865)" gradientUnits="userSpaceOnUse" xlink:href="#g"/></defs><path fill="#c7ccff" fill-opacity=".626" stroke="#00030c" stroke-linecap="round" stroke-linejoin="bevel" stroke-width=".714" d="M.357 46.647h98.174v23.145H.357z" opacity=".748" paint-order="markers fill stroke"/><path fill="#cdcdcd" fill-opacity=".557" stroke="#00030c" stroke-linecap="round" stroke-linejoin="bevel" stroke-width=".714" d="M.357 23.502h98.174v23.145H.357z" opacity=".748" paint-order="markers fill stroke"/><path fill="#c8ccff" fill-opacity=".471" stroke="#00030c" stroke-linecap="round" stroke-linejoin="bevel" stroke-width=".713" d="M.357.357h98.174v23.145H.357z" opacity=".849" paint-order="markers fill stroke"/><path fill="url(#j)" stroke="#666" stroke-linejoin="bevel" stroke-width=".265" d="M-309.49 591.328l-14.304 3.112c-2.437.53-5.291 2.797-5.291 5.291v6.93l19.595-15.33z" transform="matrix(.12577 0 0 .12577 76.383 -66.954)"/><path fill="url(#k)" d="M-339.669 680.882l-5.291 7.485c2.457-.428 5.291-2.797 5.291-5.292v-2.191z" transform="matrix(.12577 0 0 .12577 76.383 -66.954)"/><path fill="#b3b3b3" stroke="#b3b3b3" stroke-linejoin="bevel" stroke-width=".03332905" d="M29.084 20.324l8.366-9.677 2.16-.376-6.612 9.349z"/><path fill="#b3b3b3" d="M37.45 2.571l-.093.094v.376l.093.094 2.16.47c.173.037.376.198.376.375v5.916c0 .177-.201.345-.376.376l-2.16.376-.093.093v.376l.094.094h5.822l.093-.094v-.376l-.093-.093-2.16-.376c-.175-.03-.376-.199-.376-.376V3.98c0-.177.203-.338.376-.375l2.16-.47.093-.093v-.376l-.093-.094z"/><path fill="#666" stroke="#666" stroke-linejoin="bevel" stroke-width=".03332905" d="M34.994 19.826l5.743-9.058V4.852l-5.743 4.492z"/><path fill="url(#l)" d="M-283.429 611.04l-6.63 10.461-39.026 61.574c0 2.495 2.834 4.864 5.291 5.292l.472.082 38.586-66.947 4.3-7.466a3.676 3.676 0 0 1-1.058-.372 4.382 4.382 0 0 1-.96-.687 3.487 3.487 0 0 1-.702-.9 2.478 2.478 0 0 1-.199-.505 2.054 2.054 0 0 1-.074-.53z" transform="matrix(.12577 0 0 .12577 76.383 -66.954)"/><path fill="#ccc" stroke="#ccc" stroke-linejoin="bevel" stroke-width=".03332905" d="M39.487 5.976l3.785-3.405H37.45l-8.279 3.405z"/><path fill="url(#m)" d="M-293.367 579.882l1.323 1.323 29.525-27.651c.01-.445-.31-.74-.747-.747z" transform="matrix(.12577 0 0 .12577 76.383 -66.954)"/><path fill="#4d4d4d" stroke="#4d4d4d" stroke-linejoin="bevel" stroke-width=".03332905" d="M39.606 6.908l3.745-3.851c.009-.015.013-.019.015-.037v-.355l-3.713 3.478z"/><path fill="#b3b3b3" stroke="#b3b3b3" stroke-linejoin="bevel" stroke-width=".03332905" d="M39.487 20.286l3.785-9.639-2.16-.376-5.452 9.349z"/><path fill="url(#n)" d="M-263.27 617.02l-30.097 76.638c.615.107 1.323.7 1.323 1.323l29.525-77.218c.06-.333-.391-.69-.752-.744z" transform="matrix(.12577 0 0 .12577 76.383 -66.954)"/><path fill="#4d4d4d" stroke="#4d4d4d" stroke-linejoin="bevel" stroke-width=".03332905" d="M39.642 21.167l3.724-10.05v-.376l-3.713 9.711z"/><path fill="#999" stroke="#999" stroke-linejoin="bevel" stroke-width=".03332905" d="M29.171 5.976c-.078 0-.165.088-.166.167-.003.227.005.457 0 .666-.002.078.09.15.166.166l3.827.832c.306.066.665.351.665.665v10.482c0 .314-.356.612-.665.666l-3.827.666c-.077.013-.166.088-.166.166v.665c0 .079.088.167.166.167h10.316c.078 0 .166-.088.166-.167v-.665c0-.078-.09-.153-.166-.166l-3.827-.666c-.31-.054-.666-.352-.666-.666V8.472c0-.314.36-.599.666-.665l3.827-.832c.076-.016.166-.088.166-.166v-.666c0-.078-.088-.166-.166-.166z"/><g fill="#047bff" font-family="sans-serif" font-size="14.164" font-weight="400" letter-spacing="0" word-spacing="0"><path style="line-height:1.25" d="M54.531 16.491h-4.067V15.44h1.349V7.244h-1.349V6.193h4.067v1.051h-1.349v8.196h1.349zM64.22 7.41h-3.679v9.081h-1.37v-9.08h-3.679V6.192h8.729zM72.402 16.491h-6.784V6.193h6.784V7.41h-5.415v2.822h5.415v1.217h-5.415v3.825h5.415zM83.752 16.491h-1.37V7.618l-2.863 6.037h-.816L75.86 7.618v8.873h-1.28V6.193h1.868l2.746 5.733 2.656-5.733h1.902zM92.646 16.491H87.07V15.44h2.144V8.537h-2.144v-.94q.436 0 .934-.07.498-.075.754-.214.318-.173.498-.435.187-.27.214-.72h1.072v9.282h2.103z"/></g><g><path fill="url(#o)" stroke="#666" stroke-linejoin="bevel" stroke-width=".265" d="M-309.49 591.328l-14.304 3.112c-2.437.53-5.291 2.797-5.291 5.291v6.93l19.595-15.33z" transform="matrix(.12577 0 0 .12577 76.383 -43.809)"/><path fill="url(#p)" d="M-339.669 680.882l-5.291 7.485c2.457-.428 5.291-2.797 5.291-5.292v-2.191z" transform="matrix(.12577 0 0 .12577 76.383 -43.809)"/><path fill="#b3b3b3" stroke="#b3b3b3" stroke-linejoin="bevel" stroke-width=".03332905" d="M29.084 43.469l8.366-9.677 2.16-.376-6.612 9.349z"/><path fill="#b3b3b3" d="M37.45 25.716l-.093.094v.376l.093.094 2.16.47c.173.037.376.198.376.375v5.916c0 .177-.201.345-.376.376l-2.16.375-.093.094v.376l.094.094h5.822l.093-.094v-.376l-.093-.094-2.16-.375c-.175-.03-.376-.199-.376-.376v-5.916c0-.177.203-.338.376-.375l2.16-.47.093-.094v-.375l-.093-.094z"/><path fill="#666" stroke="#666" stroke-linejoin="bevel" stroke-width=".03332905" d="M34.994 42.97l5.743-9.058v-5.915l-5.743 4.492z"/><path fill="url(#q)" d="M-283.429 611.04l-6.63 10.461-39.026 61.574c0 2.495 2.834 4.864 5.291 5.292l.472.082 38.586-66.947 4.3-7.466a3.676 3.676 0 0 1-1.058-.372 4.382 4.382 0 0 1-.96-.687 3.487 3.487 0 0 1-.702-.9 2.478 2.478 0 0 1-.199-.505 2.054 2.054 0 0 1-.074-.53z" transform="matrix(.12577 0 0 .12577 76.383 -43.809)"/><path fill="#ccc" stroke="#ccc" stroke-linejoin="bevel" stroke-width=".03332905" d="M39.487 29.121l3.785-3.405H37.45l-8.279 3.405z"/><path fill="url(#r)" d="M-293.367 579.882l1.323 1.323 29.525-27.651c.01-.445-.31-.74-.747-.747z" transform="matrix(.12577 0 0 .12577 76.383 -43.809)"/><path fill="#4d4d4d" stroke="#4d4d4d" stroke-linejoin="bevel" stroke-width=".03332905" d="M39.606 30.052l3.745-3.85c.009-.015.013-.019.015-.037v-.355l-3.713 3.478z"/><path fill="#b3b3b3" stroke="#b3b3b3" stroke-linejoin="bevel" stroke-width=".03332905" d="M39.487 43.43l3.785-9.638-2.16-.376-5.452 9.349z"/><path fill="url(#s)" d="M-263.27 617.02l-30.097 76.638c.615.107 1.323.7 1.323 1.323l29.525-77.218c.06-.333-.391-.69-.752-.744z" transform="matrix(.12577 0 0 .12577 76.383 -43.809)"/><path fill="#4d4d4d" stroke="#4d4d4d" stroke-linejoin="bevel" stroke-width=".03332905" d="M39.642 44.312l3.724-10.05v-.376l-3.713 9.711z"/><path fill="#999" stroke="#999" stroke-linejoin="bevel" stroke-width=".03332905" d="M29.171 29.121c-.078 0-.165.088-.166.167-.003.227.005.457 0 .666-.002.078.09.15.166.166l3.827.832c.306.066.665.351.665.665V42.1c0 .314-.356.612-.665.666l-3.827.666c-.077.013-.166.088-.166.166v.665c0 .079.088.167.166.167h10.316c.078 0 .166-.088.166-.167v-.665c0-.078-.09-.153-.166-.166l-3.827-.666c-.31-.054-.666-.352-.666-.666V31.617c0-.314.36-.599.666-.665l3.827-.832c.076-.016.166-.088.166-.166v-.666c0-.078-.088-.166-.166-.166z"/></g><g fill="#066700"><g aria-label="ITEM2" style="line-height:1.25" stroke-width=".354" font-family="sans-serif" font-size="14.164" font-weight="400" letter-spacing="0" word-spacing="0"><path d="M54.531 39.636h-4.067v-1.051h1.349v-8.196h-1.349v-1.051h4.067v1.051h-1.349v8.196h1.349zM64.22 30.555h-3.679v9.081h-1.37v-9.08h-3.679v-1.218h8.729zM72.402 39.636h-6.784V29.338h6.784v1.217h-5.415v2.822h5.415v1.217h-5.415v3.825h5.415zM83.752 39.636h-1.37v-8.873L79.52 36.8h-.816l-2.843-6.037v8.873h-1.28V29.338h1.868l2.746 5.733 2.656-5.733h1.902zM93.234 39.636h-6.972v-1.445l1.453-1.245q.733-.623 1.362-1.238 1.328-1.287 1.82-2.04.49-.761.49-1.64 0-.802-.532-1.252-.526-.456-1.474-.456-.629 0-1.362.221-.733.222-1.432.678h-.069v-1.452q.491-.242 1.307-.443.823-.2 1.591-.2 1.584 0 2.483.767.899.76.899 2.068 0 .588-.152 1.1-.145.505-.436.961-.27.429-.636.844-.36.415-.879.92-.74.726-1.528 1.41-.788.678-1.473 1.26h5.54z"/></g></g><g><path fill="url(#t)" stroke="#666" stroke-linejoin="bevel" stroke-width=".265" d="M-309.49 591.328l-14.304 3.112c-2.437.53-5.291 2.797-5.291 5.291v6.93l19.595-15.33z" transform="matrix(.12577 0 0 .12577 76.383 -20.664)"/><path fill="url(#u)" d="M-339.669 680.882l-5.291 7.485c2.457-.428 5.291-2.797 5.291-5.292v-2.191z" transform="matrix(.12577 0 0 .12577 76.383 -20.664)"/><path fill="#b3b3b3" stroke="#b3b3b3" stroke-linejoin="bevel" stroke-width=".03332905" d="M29.084 66.614l8.366-9.677 2.16-.376-6.612 9.349z"/><path fill="#b3b3b3" d="M37.45 48.861l-.093.094v.376l.093.094 2.16.47c.173.037.376.198.376.375v5.916c0 .177-.201.345-.376.376l-2.16.375-.093.094v.376l.094.094h5.822l.093-.094v-.376l-.093-.094-2.16-.375c-.175-.03-.376-.199-.376-.376V50.27c0-.177.203-.338.376-.375l2.16-.47.093-.094v-.375l-.093-.094z"/><path fill="#666" stroke="#666" stroke-linejoin="bevel" stroke-width=".03332905" d="M34.994 66.116l5.743-9.058v-5.916l-5.743 4.492z"/><path fill="url(#v)" d="M-283.429 611.04l-6.63 10.461-39.026 61.574c0 2.495 2.834 4.864 5.291 5.292l.472.082 38.586-66.947 4.3-7.466a3.676 3.676 0 0 1-1.058-.372 4.382 4.382 0 0 1-.96-.687 3.487 3.487 0 0 1-.702-.9 2.478 2.478 0 0 1-.199-.505 2.054 2.054 0 0 1-.074-.53z" transform="matrix(.12577 0 0 .12577 76.383 -20.664)"/><path fill="#ccc" stroke="#ccc" stroke-linejoin="bevel" stroke-width=".03332905" d="M39.487 52.266l3.785-3.405H37.45l-8.279 3.405z"/><path fill="url(#w)" d="M-293.367 579.882l1.323 1.323 29.525-27.651c.01-.445-.31-.74-.747-.747z" transform="matrix(.12577 0 0 .12577 76.383 -20.664)"/><path fill="#4d4d4d" stroke="#4d4d4d" stroke-linejoin="bevel" stroke-width=".03332905" d="M39.606 53.197l3.745-3.85c.009-.015.013-.019.015-.037v-.355l-3.713 3.478z"/><path fill="#b3b3b3" stroke="#b3b3b3" stroke-linejoin="bevel" stroke-width=".03332905" d="M39.487 66.576l3.785-9.639-2.16-.376-5.452 9.349z"/><path fill="url(#x)" d="M-263.27 617.02l-30.097 76.638c.615.107 1.323.7 1.323 1.323l29.525-77.218c.06-.333-.391-.69-.752-.744z" transform="matrix(.12577 0 0 .12577 76.383 -20.664)"/><path fill="#4d4d4d" stroke="#4d4d4d" stroke-linejoin="bevel" stroke-width=".03332905" d="M39.642 67.457l3.724-10.05v-.376l-3.713 9.711z"/><path fill="#999" stroke="#999" stroke-linejoin="bevel" stroke-width=".03332905" d="M29.171 52.266c-.078 0-.165.088-.166.167-.003.227.005.457 0 .666-.002.078.09.15.166.166l3.827.832c.306.066.665.351.665.665v10.482c0 .314-.356.612-.665.666l-3.827.666c-.077.013-.166.088-.166.166v.665c0 .079.088.167.166.167h10.316c.078 0 .166-.088.166-.167v-.665c0-.078-.09-.153-.166-.166l-3.827-.666c-.31-.054-.666-.352-.666-.666V54.762c0-.314.36-.599.666-.665l3.827-.832c.076-.016.166-.088.166-.166v-.666c0-.078-.088-.166-.166-.166z"/></g><g fill="#67000a" font-family="sans-serif" font-size="14.164" font-weight="400" letter-spacing="0" word-spacing="0"><path style="line-height:1.25" d="M54.531 62.781h-4.067V61.73h1.349v-8.196h-1.349v-1.051h4.067v1.051h-1.349v8.196h1.349zM64.22 53.7h-3.679v9.081h-1.37v-9.08h-3.679v-1.218h8.729zM72.402 62.781h-6.784V52.483h6.784V53.7h-5.415v2.822h5.415v1.217h-5.415v3.825h5.415zM83.752 62.781h-1.37v-8.873l-2.863 6.037h-.816l-2.843-6.037v8.873h-1.28V52.483h1.868l2.746 5.733 2.656-5.733h1.902zM92.328 57.822q.332.297.546.747.214.45.214 1.162 0 .705-.255 1.293-.256.588-.72 1.024-.518.484-1.224.72-.698.227-1.535.227-.858 0-1.688-.207-.83-.2-1.362-.443V60.9h.103q.588.387 1.384.643.795.256 1.535.256.436 0 .927-.145.49-.146.795-.43.318-.303.47-.67.16-.367.16-.927 0-.553-.18-.913-.173-.366-.484-.574-.312-.214-.754-.29-.443-.083-.955-.083h-.622v-1.148h.484q1.051 0 1.674-.436.63-.443.63-1.286 0-.374-.16-.65-.159-.284-.443-.464-.297-.18-.636-.249-.339-.07-.768-.07-.657 0-1.397.236-.74.235-1.397.664h-.069v-1.446q.491-.242 1.307-.442.823-.208 1.591-.208.754 0 1.328.139.574.138 1.037.442.498.332.754.803.256.47.256 1.1 0 .857-.609 1.5-.601.636-1.424.802v.097q.332.055.76.235.43.173.727.436z"/></g><path fill="none" stroke="#000" stroke-width=".609" d="M45.939.399V69.57"/><g><path fill="url(#y)" stroke="#292e51" stroke-linecap="round" stroke-width="2.95" d="M-698.695 871.295h65.86v65.675h-65.86z" transform="translate(188.249 -227.198) scale(.2636)"/><path fill="url(#z)" stroke="#292e51" stroke-linecap="round" stroke-width="2.825" d="M-698.758 871.233h65.986v14.728h-65.986z" transform="translate(188.249 -227.198) scale(.2636)"/><path fill="url(#A)" stroke="#8e8f8f" stroke-linecap="round" stroke-width=".925" d="M-689.078 890.945h11.248v11.248h-11.248z" transform="translate(188.249 -227.198) scale(.2636)"/><path fill="url(#B)" stroke="#8e8f8f" stroke-linecap="round" stroke-width="1.13" d="M-689.265 905.756h11.248v11.248h-11.248z" transform="translate(188.249 -227.198) scale(.2636)"/><path fill="none" stroke="#8e8f8f" stroke-width=".6974855999999999" d="M11.42 13.03h6.668"/><path fill="none" stroke="#087676" stroke-width=".6974855999999999" d="M11.492 9.251h6.668"/><path fill="url(#C)" stroke="#8e8f8f" stroke-linecap="round" stroke-width="1.13" d="M-689.215 920.462h11.248v11.248h-11.248z" transform="translate(188.249 -227.198) scale(.2636)"/><path fill="none" stroke="#8e8f8f" stroke-width=".6974855999999999" d="M11.434 16.906H18.1"/></g><g><path fill="url(#D)" stroke="#292e51" stroke-linecap="round" stroke-width="2.95" d="M-698.695 871.295h65.86v65.675h-65.86z" transform="translate(188.492 -202.986) scale(.2636)"/><path fill="url(#E)" stroke="#292e51" stroke-linecap="round" stroke-width="2.825" d="M-698.758 871.233h65.986v14.728h-65.986z" transform="translate(188.492 -202.986) scale(.2636)"/><path fill="url(#F)" stroke="#8e8f8f" stroke-linecap="round" stroke-width=".925" d="M-689.078 890.945h11.248v11.248h-11.248z" transform="translate(188.492 -202.986) scale(.2636)"/><path fill="url(#G)" stroke="#8e8f8f" stroke-linecap="round" stroke-width="1.13" d="M-689.265 905.756h11.248v11.248h-11.248z" transform="translate(188.492 -202.986) scale(.2636)"/><path fill="none" stroke="#8e8f8f" stroke-width=".6974855999999999" d="M11.664 37.24h6.667"/><path fill="none" stroke="#087676" stroke-width=".6974855999999999" d="M11.735 33.463h6.668"/><path fill="url(#H)" stroke="#8e8f8f" stroke-linecap="round" stroke-width="1.13" d="M-689.215 920.462h11.248v11.248h-11.248z" transform="translate(188.492 -202.986) scale(.2636)"/><path fill="none" stroke="#8e8f8f" stroke-width=".6974855999999999" d="M11.677 41.117h6.667"/></g><g><path fill="url(#I)" stroke="#292e51" stroke-linecap="round" stroke-width="2.95" d="M-698.695 871.295h65.86v65.675h-65.86z" transform="translate(188.343 -178.915) scale(.2636)"/><path fill="url(#J)" stroke="#292e51" stroke-linecap="round" stroke-width="2.825" d="M-698.758 871.233h65.986v14.728h-65.986z" transform="translate(188.343 -178.915) scale(.2636)"/><path fill="url(#K)" stroke="#8e8f8f" stroke-linecap="round" stroke-width=".925" d="M-689.078 890.945h11.248v11.248h-11.248z" transform="translate(188.343 -178.915) scale(.2636)"/><path fill="url(#L)" stroke="#8e8f8f" stroke-linecap="round" stroke-width="1.13" d="M-689.265 905.756h11.248v11.248h-11.248z" transform="translate(188.343 -178.915) scale(.2636)"/><path fill="none" stroke="#8e8f8f" stroke-width=".6974855999999999" d="M11.515 61.312h6.668"/><path fill="none" stroke="#087676" stroke-width=".6974855999999999" d="M11.587 57.534h6.667"/><path fill="url(#M)" stroke="#8e8f8f" stroke-linecap="round" stroke-width="1.13" d="M-689.215 920.462h11.248v11.248h-11.248z" transform="translate(188.343 -178.915) scale(.2636)"/><path fill="none" stroke="#8e8f8f" stroke-width=".6974855999999999" d="M11.528 65.188h6.668"/></g><path fill="none" stroke="#000" stroke-width=".609" d="M25.546.224v69.171"/></svg>