<svg xmlns="http://www.w3.org/2000/svg" xmlns:xlink="http://www.w3.org/1999/xlink" viewBox="0 0 56.127 49.612"><defs><linearGradient id="c" x1="-160.605" x2="-237.695" y1="295.235" y2="365.188" gradientTransform="matrix(.40052 0 0 .40052 -114.774 -281.964)" gradientUnits="userSpaceOnUse" xlink:href="#a"/><linearGradient id="a" x1="250.19" x2="218.88" y1="125.05" y2="208" gradientUnits="userSpaceOnUse"><stop offset="0%" stop-color="#f6da28"/><stop offset=".262" stop-color="#f4e38f"/><stop offset=".493" stop-color="#d3aa07"/><stop offset=".741" stop-color="#f5de84"/><stop offset="100%" stop-color="#f7cb20"/></linearGradient><linearGradient id="d" x1="-160.605" x2="-237.695" y1="295.235" y2="365.188" gradientTransform="matrix(.40052 0 0 .40052 -121.191 -284.545)" gradientUnits="userSpaceOnUse" xlink:href="#b"/><linearGradient id="b"><stop offset="0" stop-color="#58a2c1"/><stop offset=".272" stop-color="#86d0ef"/><stop offset=".481" stop-color="#56a0bf"/><stop offset=".747" stop-color="#86d0ef"/><stop offset="1" stop-color="#58a2c1"/></linearGradient></defs><g stroke-width=".401"><path fill="url(#c)" stroke="#888848" d="M-206.919-132.416c-3.843-3.98-8.117-8.404-9.499-9.831l-2.512-2.594.456-2.41c.592-3.122 1.378-4.912 2.652-6.03 1.904-1.672 5.44-2.916 10.468-3.681 3.656-.557 4.498-1.268 6.725-5.68 2.996-5.933 5.273-7.845 10.267-8.617l2.115-.328 1.074 1.244c.59.684 4.283 4.846 8.204 9.248l7.13 8.005-2.488.312c-4.96.621-7.435 2.459-10.944 8.122-3.315 5.351-5.244 7.016-8.92 7.695-3.853.712-5.936 3.452-7.257 9.548l-.484 2.233z" transform="translate(225.563 174.383)"/><path fill="url(#d)" stroke="#125e93" d="M-213.336-134.998c-3.843-3.98-8.117-8.404-9.499-9.83l-2.512-2.595.456-2.409c.591-3.123 1.378-4.912 2.652-6.03 1.904-1.672 5.44-2.916 10.467-3.682 3.656-.556 4.499-1.268 6.726-5.68 2.996-5.933 5.273-7.844 10.267-8.617l2.114-.327 1.075 1.243c.59.684 4.283 4.846 8.204 9.249l7.13 8.005-2.488.312c-4.96.62-7.435 2.458-10.944 8.122-3.315 5.35-5.245 7.015-8.92 7.695-3.853.712-5.936 3.452-7.257 9.547l-.484 2.233z" transform="translate(225.563 174.383)"/></g></svg>