<svg xmlns="http://www.w3.org/2000/svg" xmlns:xlink="http://www.w3.org/1999/xlink" viewBox="0 0 30.556 40.497"><defs><radialGradient id="f" cx="81.79" cy="100.32" r="44.42" gradientTransform="matrix(.70598 -.563 .62656 .78568 -91.261 58.8)" gradientUnits="userSpaceOnUse" xlink:href="#a"/><linearGradient id="a"><stop offset="0" stop-color="#fff"/><stop offset="1" stop-color="#dbdbdb"/></linearGradient><linearGradient id="g" x1="33.824" x2="44.556" y1="56.741" y2="56.741" gradientUnits="userSpaceOnUse" xlink:href="#b"/><linearGradient id="b"><stop offset="0" stop-color="#aca4a4"/><stop offset="1" stop-color="#eee" stop-opacity="0"/></linearGradient><radialGradient id="h" cx="219.608" cy="198.613" r="82.274" fx="219.608" fy="198.613" gradientTransform="matrix(1 0 0 .60806 0 57.048)" gradientUnits="userSpaceOnUse" xlink:href="#c"/><linearGradient id="c"><stop offset="0" stop-color="#eeee57"/><stop offset=".649" stop-color="#f2f654" stop-opacity=".498"/><stop offset="1" stop-color="#5db550" stop-opacity=".914"/></linearGradient><radialGradient id="i" cx="219.608" cy="198.613" r="82.274" fx="219.608" fy="198.613" gradientTransform="matrix(1 0 0 .60806 0 57.048)" gradientUnits="userSpaceOnUse" xlink:href="#c"/><linearGradient id="j" x1="84.153" x2="103.734" y1="316.967" y2="325.491" gradientUnits="userSpaceOnUse" xlink:href="#d"/><linearGradient id="d"><stop offset="0" stop-color="#eeee57"/><stop offset=".262" stop-color="#eef264" stop-opacity=".498"/><stop offset="1" stop-color="#b5b050" stop-opacity=".914"/></linearGradient><linearGradient id="k" x1="-862.916" x2="-821.878" y1="70.773" y2="30.577" gradientUnits="userSpaceOnUse" xlink:href="#e"/><linearGradient id="e"><stop offset="0" stop-color="#29993a"/><stop offset=".519" stop-color="#2ccb00" stop-opacity=".478"/><stop offset="1" stop-color="#009a18" stop-opacity=".961"/></linearGradient></defs><path fill="url(#f)" stroke="#030303" stroke-opacity=".82" stroke-width=".265" d="M14.189 51.34v40.232H44.48V62.197L33.932 51.34z" transform="translate(-14.056 -51.207)"/><path fill="url(#g)" stroke="#030303" stroke-opacity=".82" stroke-width=".265" d="M35.916 59.529l.046-2.847c.023-2.25-.95-3.82-2.03-5.342l10.529 10.783c-1.387-.902-2.905-2.447-5.374-2.527z" transform="translate(-14.056 -51.207)"/><path fill="none" stroke="#515151" stroke-opacity=".868" stroke-width=".431" d="M2.058 5.496h16.121M2.058 10.54h16.121"/><path fill="none" stroke="#515151" stroke-opacity=".868" stroke-width=".54" d="M2.058 15.637H27.4M2.058 36.247H27.4"/><g stroke-width="1.83"><path fill="url(#j)" stroke="#000" stroke-width=".369" d="M84.153 308.87v8.097h-8.267v8.524h27.848v-8.524h-8.268v-8.098H89.81z" transform="matrix(.8711 0 0 .8711 -63.703 -250.764)"/><path fill="url(#k)" stroke="#000" d="M-862.916 70.773h41.038V30.577h-40.65z" transform="matrix(.1755 0 0 .1755 153.836 12.927)"/></g></svg>