<svg xmlns="http://www.w3.org/2000/svg" xmlns:xlink="http://www.w3.org/1999/xlink" viewBox="0 0 78.332 41.131"><defs><radialGradient id="c" cx="95.911" cy="88.641" r="33.946" fx="95.911" fy="88.641" gradientTransform="matrix(1.1325 .73267 -.54318 .83961 35.44 -56.054)" gradientUnits="userSpaceOnUse" xlink:href="#a"/><linearGradient id="a"><stop offset="0" stop-color="#f3fbff"/><stop offset=".238" stop-color="#4eaff3"/><stop offset=".677" stop-color="#3370e2"/><stop offset=".903" stop-color="#254cd6"/><stop offset="1" stop-color="#259ff2"/></linearGradient><linearGradient id="d" x1="87.128" x2="121.613" y1="69.045" y2="93.901" gradientUnits="userSpaceOnUse" xlink:href="#b"/><linearGradient id="b"><stop offset="0" stop-color="#fff"/><stop offset="1" stop-color="#dbdbdb"/></linearGradient><linearGradient id="e" x1="87.128" x2="121.613" y1="69.045" y2="93.901" gradientTransform="rotate(180 105.143 101.079)" gradientUnits="userSpaceOnUse" xlink:href="#b"/></defs><g transform="matrix(.51913 0 0 .51913 -35.838 -31.907)"><circle cx="105.172" cy="100.018" r="33.946" fill="url(#c)"/><path fill="url(#d)" stroke="#717171" stroke-opacity=".82" d="M69.92 94.834c-.097-.156-.248-1.57-.338-3.144-.43-7.587 1.988-14.241 7.052-19.406 3.584-3.655 7.626-6.01 12.336-7.187 3.085-.772 8.858-.837 11.477-.13 3.356.905 6.692 2.795 9.962 5.643.896.78 1.748 1.418 1.893 1.418.146 0 2.3-2.1 4.788-4.666l4.523-4.665V93.9l-2.712-.09c-3.76-.127-24.143-.618-25.594-.617h-1.186l2.908-2.976c1.6-1.637 3.675-3.778 4.612-4.756l1.704-1.78-.642-.683c-2.63-2.799-7.753-4.205-13.022-3.573-5.62.673-8.09 1.833-11.835 5.558-2.113 2.102-3.287 4.024-4.904 8.031-.466 1.156-.926 1.974-1.022 1.819z"/><path fill="url(#e)" stroke="#717171" stroke-opacity=".82" d="M140.367 107.323c.096.156.248 1.57.337 3.144.43 7.587-1.988 14.241-7.052 19.406-3.583 3.655-7.625 6.01-12.335 7.187-3.085.772-8.858.837-11.477.13-3.356-.905-6.692-2.795-9.963-5.643-.895-.78-1.747-1.418-1.892-1.418-.146 0-2.3 2.1-4.788 4.666l-4.524 4.665v-31.204l2.712.09c3.761.127 24.143.618 25.594.617h1.187l-2.908 2.976a845.985 845.985 0 0 0-4.612 4.756l-1.704 1.78.641.683c2.63 2.799 7.754 4.205 13.023 3.573 5.62-.673 8.089-1.833 11.834-5.558 2.114-2.102 3.288-4.024 4.905-8.031.466-1.156.926-1.974 1.022-1.819z"/></g><path style="line-height:normal;font-variant-ligatures:normal;font-variant-position:normal;font-variant-caps:normal;font-variant-numeric:normal;font-variant-alternates:normal;font-feature-settings:normal;text-indent:0;text-align:start;text-decoration-line:none;text-decoration-style:solid;text-decoration-color:#000;text-transform:none;text-orientation:mixed;white-space:normal;shape-padding:0;isolation:auto;mix-blend-mode:normal;solid-color:#000;solid-opacity:1" fill="#2957da" d="M46.426 6.387a3.814 3.814 0 0 0-3.799 3.799v19.742c0 2.087 1.713 3.801 3.8 3.801h28.106c2.087 0 3.8-1.714 3.8-3.8V10.185c0-.714-.201-1.385-.55-1.957v-.121h-.076a3.806 3.806 0 0 0-3.174-1.721zm23.634 2.47h5.798v4.49H70.06zm-9.367.969h7.638v2.554h-7.638zm-15.91 6.861h31.395v13.241c0 .93-.715 1.645-1.645 1.645H46.426c-.93 0-1.643-.715-1.643-1.645z" color="#000" font-family="sans-serif" font-weight="400" overflow="visible"/><path stroke-width="1.177" d="M69.895 18.733c-.28 0-.56.035-.83.076-.042.689-.15 1.36-.721 1.597-.572.237-1.11-.171-1.627-.63-.453.331-.867.73-1.198 1.183.46.52.883 1.053.645 1.627-.237.573-.92.68-1.612.722a5.392 5.392 0 0 0-.061.829c0 .287.018.57.06.844.692.043 1.376.118 1.613.691.238.574-.185 1.139-.645 1.658.33.45.748.838 1.198 1.167.516-.456 1.057-.85 1.627-.614.573.237.68.905.722 1.597a5.518 5.518 0 0 0 1.642 0c.043-.692.149-1.36.722-1.597.57-.236 1.111.158 1.627.614.45-.329.868-.718 1.198-1.167-.46-.52-.883-1.084-.645-1.658.237-.573.936-.648 1.627-.69a5.46 5.46 0 0 0 .062-.845c0-.283-.02-.558-.062-.83-.691-.042-1.39-.148-1.627-.72-.238-.575.185-1.109.645-1.628a5.503 5.503 0 0 0-1.198-1.182c-.518.458-1.055.866-1.627.63-.57-.237-.679-.91-.722-1.598a5.313 5.313 0 0 0-.813-.076zm0 3.638c.976 0 1.765.79 1.765 1.766s-.789 1.765-1.765 1.765c-.977 0-1.781-.789-1.781-1.765 0-.977.804-1.766 1.78-1.766z" color="#000"/><g aria-label="API" style="line-height:1.25" fill="#c9241c" stroke-width="1.468" font-family="sans-serif" font-size="17.639" font-weight="700" letter-spacing="0" word-spacing="0"><path d="M50.248 26.545h-2.823l-.445 1.276h-1.815l2.593-7h2.152l2.593 7H50.69zm-2.373-1.298h1.918l-.957-2.786zM53.427 20.82h2.996q1.337 0 2.05.596.717.59.717 1.688 0 1.102-.718 1.697-.712.59-2.049.59h-1.19v2.43h-1.806zm1.805 1.308v1.956h.999q.525 0 .811-.254.286-.257.286-.726 0-.47-.286-.722-.286-.254-.811-.254zM60.46 20.82h1.806v7H60.46z" style="-inkscape-font-specification:'sans-serif Bold'"/></g></svg>