<svg xmlns="http://www.w3.org/2000/svg" xmlns:xlink="http://www.w3.org/1999/xlink" viewBox="0 0 42.507 43.096"><defs><linearGradient id="a"><stop/><stop offset="1" stop-opacity=".536"/></linearGradient><linearGradient id="d" x1="529.386" x2="529.517" y1="-2964.875" y2="-2958.402" gradientTransform="matrix(10.07345 0 0 10.07345 -4563.67 27949.033)" gradientUnits="userSpaceOnUse" xlink:href="#b"/><linearGradient id="b"><stop offset="0" stop-color="#2d70c9"/><stop offset=".418" stop-color="#c8defb"/><stop offset="1" stop-color="#183968"/></linearGradient><radialGradient id="e" cx="505.426" cy="-2956.924" r="4.182" fx="505.426" fy="-2956.924" gradientTransform="matrix(9.31698 0 0 8.51825 -3941.473 23432.286)" gradientUnits="userSpaceOnUse" xlink:href="#c"/><linearGradient id="c"><stop offset="0" stop-color="#e1ecf2"/><stop offset="1" stop-color="#b6c7e0"/></linearGradient><radialGradient id="f" cx="505.426" cy="-2956.924" r="4.182" fx="505.426" fy="-2956.924" gradientTransform="matrix(9.37124 0 0 8.51825 -3896.191 23367.671)" gradientUnits="userSpaceOnUse" xlink:href="#c"/><radialGradient id="g" cx="505.426" cy="-2956.924" r="4.182" fx="505.426" fy="-2956.924" gradientTransform="matrix(9.18674 0 0 8.51825 -3802.23 23431.249)" gradientUnits="userSpaceOnUse" xlink:href="#c"/><radialGradient id="h" cx="505.426" cy="-2956.924" r="4.182" fx="505.426" fy="-2956.924" gradientTransform="matrix(9.11144 0 0 8.4992 -3911.246 23312.38)" gradientUnits="userSpaceOnUse" xlink:href="#c"/><radialGradient id="i" cx="505.426" cy="-2956.924" r="4.182" fx="505.426" fy="-2956.924" gradientTransform="matrix(8.9668 0 0 8.5063 -3838.72 23396.933)" gradientUnits="userSpaceOnUse" xlink:href="#c"/><radialGradient id="j" cx="505.426" cy="-2956.924" r="4.182" fx="505.426" fy="-2956.924" gradientTransform="matrix(9.54984 0 0 8.51825 -4060.066 23368.709)" gradientUnits="userSpaceOnUse" xlink:href="#c"/></defs><g stroke="#7b8691" stroke-linecap="round" transform="matrix(.09759 0 0 .09505 -63.372 206.104)"><rect width="223.55" height="198.213" x="652.764" y="-1916.546" fill="#7b8691" stroke-width="6.766" ry="12.027"/><rect width="223.55" height="64.618" x="652.764" y="-1916.546" fill="url(#d)" stroke-width="6.766" rx="11.714"/><rect width="71.665" height="63.577" x="731.739" y="-1787.311" fill="url(#e)" stroke-width="6.837" rx="10.834"/><rect width="72.082" height="63.577" x="804.237" y="-1851.927" fill="url(#f)" stroke-width="7.011" rx="10.897"/><rect width="70.663" height="63.577" x="805.657" y="-1788.348" fill="url(#g)" stroke-width="6.942" rx="10.683"/><rect width="70.084" height="63.434" x="658.873" y="-1850.816" fill="url(#h)" stroke-width="6.906" rx="10.595"/><rect width="68.971" height="63.487" x="658.846" y="-1787.263" fill="url(#i)" stroke-width="6.853" rx="10.427"/><rect width="73.456" height="63.577" x="729.947" y="-1850.887" fill="url(#j)" stroke-width="6.922" rx="11.105"/></g><path fill="#35a93a" d="M32.695 3.623v3.193h1.963V8.73h-1.963v1.277h1.963v1.915h-1.963v1.278h1.963v1.915h-1.963v1.277h1.963v1.915h-1.963v3.193h9.158a.654.638 0 0 0 .654-.639v-16.6a.654.638 0 0 0-.654-.639zm3.27 3.193h4.58V8.73h-4.58zm0 3.192h4.58v1.915h-4.58zm0 3.193h4.58v1.915h-4.58zm0 3.192h4.58v1.915h-4.58z"/><path fill="#0f6d13" d="M32.695 25.124l-14.11-3.156V3.155L32.696 0z"/><text style="line-height:1.25" x="-44.862" y="165.972" stroke-width=".318" font-family="sans-serif" font-size="12.714" font-weight="400" letter-spacing="0" transform="translate(65.552 -148.732)" word-spacing="0"><tspan x="-44.862" y="165.972" style="-inkscape-font-specification:'sans-serif Bold'" fill="#fff" font-weight="700">X</tspan></text><g fill="#b10000"><path d="M5.512 16.982c-.156.318-.05 1.15.238 2.75 1.26 7.002 1.573 7.125 1.91 7.325l.184.061c.41.013.65-.115 3.27-1.425.73-.366 2.25-1.108 3.38-1.653 2.808-1.354 2.86-1.475 1.067-2.383-1.062-.538-1.135-.587-1.234-.891-.091-.277-.042-.461.287-1.254.9-2.164 2.523-4.145 4.548-5.55.845-.586 1.127-.755 2.235-1.26.53-.243.689-.356.857-.69.153-.3.153-.442.055-.58-.504-.72-2.542-.569-5.485.41-2.965.984-5.431 2.635-7.564 5.085-.913 1.049-.928 1.058-2.288.369-.863-.437-1.303-.63-1.46-.313z"/></g></svg>