<svg xmlns="http://www.w3.org/2000/svg" xmlns:xlink="http://www.w3.org/1999/xlink" viewBox="0 0 70.503 28.639"><defs><linearGradient id="d" x1="1384.037" x2="1383.563" y1="-271.725" y2="-261.539" gradientUnits="userSpaceOnUse" xlink:href="#a"/><linearGradient id="a"><stop offset="0" stop-color="#a5a5a5"/><stop offset=".501" stop-color="#e4e4e4" stop-opacity=".569"/><stop offset="1" stop-color="#e4e4e4"/></linearGradient><radialGradient id="e" cx="1356.666" cy="-265.373" r="8.103" fx="1356.666" fy="-265.373" gradientTransform="matrix(1 0 0 .9143 0 -22.655)" gradientUnits="userSpaceOnUse" xlink:href="#b"/><linearGradient id="b"><stop offset="0" stop-color="#ccc"/><stop offset="1" stop-color="#7b7b7b"/></linearGradient><linearGradient id="i" x1="259.116" x2="272.724" y1="1367.69" y2="1367.877" gradientUnits="userSpaceOnUse" xlink:href="#c"/><linearGradient id="c"><stop offset="0" stop-color="#565252"/><stop offset=".509" stop-color="#ccc"/><stop offset="1" stop-color="#666"/></linearGradient><linearGradient id="j" x1="259.116" x2="272.724" y1="1367.69" y2="1367.877" gradientTransform="translate(1090.988 -1622.967)" gradientUnits="userSpaceOnUse" xlink:href="#c"/><radialGradient id="h" cx="1356.666" cy="-265.373" r="8.103" fx="1356.666" fy="-265.373" gradientTransform="matrix(1 0 0 .9143 0 -22.655)" gradientUnits="userSpaceOnUse" xlink:href="#b"/><linearGradient id="f" x1="259.116" x2="272.724" y1="1367.69" y2="1367.877" gradientUnits="userSpaceOnUse" xlink:href="#c"/><linearGradient id="g" x1="259.116" x2="272.724" y1="1367.69" y2="1367.877" gradientTransform="translate(1090.988 -1622.967)" gradientUnits="userSpaceOnUse" xlink:href="#c"/></defs><g stroke="#696969" stroke-linecap="round" stroke-linejoin="round" stroke-width=".529" paint-order="markers fill stroke"><path fill="url(#d)" d="M1366.046-271.682h37.493v11.025h-37.493z" transform="translate(-1350.159 280.44)"/><path fill="url(#e)" d="M1366.091-271.636a14.75 13.858 0 0 0-14.75 13.857 14.75 13.858 0 0 0 .037.695h10.182a5.29 5.456 0 0 1 5.126-4.133 5.29 5.456 0 0 1 .596.038v-10.405a14.75 13.858 0 0 0-1.19-.052z" transform="translate(-1350.159 280.44)"/><path fill="url(#f)" d="M259.435 1364.854h13.157v6.047h-13.157z" transform="rotate(-90 -534.86 815.3)"/><path fill="url(#g)" d="M1350.424-258.113h13.157v6.047h-13.157z" transform="translate(-1350.159 280.44)"/><g><path fill="url(#h)" d="M1366.091-271.636a14.75 13.858 0 0 0-14.75 13.857 14.75 13.858 0 0 0 .037.695h10.182a5.29 5.456 0 0 1 5.126-4.133 5.29 5.456 0 0 1 .596.038v-10.405a14.75 13.858 0 0 0-1.19-.052z" transform="rotate(-180 710.33 -125.9)"/><path fill="url(#i)" d="M259.435 1364.854h13.157v6.047h-13.157z" transform="rotate(90 836.231 584.43)"/><path fill="url(#j)" d="M1350.424-258.113h13.157v6.047h-13.157z" transform="rotate(-180 710.33 -125.9)"/></g></g></svg>