<svg xmlns="http://www.w3.org/2000/svg" xmlns:xlink="http://www.w3.org/1999/xlink" viewBox="0 0 37.282 31.785"><defs><linearGradient id="e" x1="664.259" x2="664.271" y1="414.69" y2="414.944" gradientTransform="translate(-3146.344 -2011.407) scale(5.76483)" gradientUnits="userSpaceOnUse" xlink:href="#a"/><linearGradient id="a"><stop offset="0"/><stop offset=".5" stop-color="#fff"/><stop offset="1"/></linearGradient><linearGradient id="f" x1="664.401" x2="664.401" y1="415.575" y2="415.828" gradientTransform="translate(-3146.344 -2011.407) scale(5.76483)" gradientUnits="userSpaceOnUse" xlink:href="#a"/><linearGradient id="g" x1="663.93" x2="664.177" y1="415.274" y2="415.274" gradientTransform="translate(-3146.344 -2011.407) scale(5.76483)" gradientUnits="userSpaceOnUse" xlink:href="#a"/><linearGradient id="h" x1="664.605" x2="665.099" y1="414.772" y2="415.234" gradientTransform="matrix(6.5703 0 0 6.57406 -3682.586 -2348.106)" gradientUnits="userSpaceOnUse" xlink:href="#b"/><linearGradient id="b" x1="138.92" x2="243.93" y1="604.86" y2="715.98" gradientUnits="userSpaceOnUse"><stop offset="0" stop-color="#ffec67"/><stop offset="1" stop-color="#f29100"/></linearGradient><linearGradient id="i" x1="664.605" x2="665.099" y1="414.772" y2="415.234" gradientTransform="translate(-3146.344 -2011.407) scale(5.76483)" gradientUnits="userSpaceOnUse" xlink:href="#c"/><linearGradient id="c" x1="304.59" x2="153.01" y1="625.07" y2="735.65" gradientUnits="userSpaceOnUse"><stop offset="0" stop-color="#fdfcc2"/><stop offset=".515" stop-color="#fef10c"/><stop offset="1" stop-color="#ffa000"/></linearGradient><linearGradient id="j" x1="664.605" x2="665.099" y1="414.772" y2="415.234" gradientTransform="matrix(6.5703 0 0 6.57406 -3681.219 -2343.159)" gradientUnits="userSpaceOnUse" xlink:href="#b"/><linearGradient id="k" x1="664.605" x2="665.099" y1="414.772" y2="415.234" gradientTransform="translate(-3144.977 -2006.46) scale(5.76483)" gradientUnits="userSpaceOnUse" xlink:href="#c"/><linearGradient id="l" x1="152.847" x2="317.393" y1="145.552" y2="145.552" gradientUnits="userSpaceOnUse" xlink:href="#d"/><linearGradient id="d"><stop offset="0" stop-color="#dddd98"/><stop offset=".557" stop-color="#f2f654" stop-opacity=".498"/><stop offset="1" stop-color="#faff7d" stop-opacity=".184"/></linearGradient><linearGradient id="o" x1="-305.474" x2="-231.968" y1="106.741" y2="106.741" gradientTransform="matrix(.1668 0 0 .1668 -130.013 412.81)" gradientUnits="userSpaceOnUse" xlink:href="#d"/><linearGradient id="p" x1="-221.792" x2="-177.358" y1="54.832" y2="54.832" gradientTransform="matrix(.1668 0 0 .1668 -130.013 412.81)" gradientUnits="userSpaceOnUse" xlink:href="#d"/><linearGradient id="n" x1="152.847" x2="317.393" y1="145.552" y2="145.552" gradientUnits="userSpaceOnUse" xlink:href="#d"/><linearGradient id="m" x1="152.847" x2="317.393" y1="145.552" y2="145.552" gradientUnits="userSpaceOnUse" xlink:href="#d"/></defs><g transform="matrix(2.0967 0 0 2.0967 -1428.062 -788.884)"><path fill="none" stroke="url(#e)" stroke-width="1.424" d="M681.844 380.028h2.175"/><path fill="none" stroke="url(#f)" stroke-width="1.424" d="M681.912 385.058h3.84"/><path fill="none" stroke="url(#g)" stroke-width="1.424" d="M681.81 377.886v9.38"/><rect width="3.248" height="3.037" x="684.073" y="378.628" fill="url(#h)" stroke="#050505" stroke-linecap="round" stroke-width=".305" rx=".353"/><rect width="2.849" height="2.663" x="684.99" y="379.682" fill="url(#i)" stroke="#050505" stroke-linecap="round" stroke-width=".305" rx=".353"/><rect width="3.248" height="3.037" x="685.44" y="383.576" fill="url(#j)" stroke="#050505" stroke-linecap="round" stroke-width=".305" rx=".353"/><rect width="2.849" height="2.663" x="686.357" y="384.629" fill="url(#k)" stroke="#050505" stroke-linecap="round" stroke-width=".305" rx=".353"/></g><path fill="#fff" stroke="#000" stroke-width=".51195532" d="M19.744 17.264v14.265h17.283V19.917l-2.578-2.653h-4.824z"/><path fill="url(#n)" stroke="#000" stroke-width="1.882" d="M84.153 308.87v8.097h-8.267v8.524h27.848v-8.524h-8.268v-8.098H89.81z" transform="matrix(.27199 0 0 .27199 .857 -63.906)"/><path fill="url(#o)" stroke="#000" stroke-width=".794" d="M-180.801 428.655h11.928v3.92h-11.928z" transform="matrix(.64478 0 0 .64478 138.057 -249.808)"/><path fill="url(#p)" stroke="#000" stroke-width=".794" d="M-166.844 418.48h7.081v6.954h-7.08z" transform="matrix(.64478 0 0 .64478 138.057 -249.808)"/><g fill="#147a0a"><path d="M30.802 3.577c.204.289.23 1.128.199 2.754-.14 7.112-.43 7.283-.732 7.533l-.173.09c-.402.078-.66-.011-3.452-.892-.78-.246-2.398-.74-3.6-1.1-2.986-.894-3.057-1.005-1.428-2.185.963-.698 1.028-.758 1.078-1.074.046-.288-.031-.462-.481-1.193-1.23-1.995-3.145-3.695-5.366-4.763-.927-.446-1.232-.569-2.406-.893-.562-.156-.736-.243-.955-.545-.199-.273-.22-.413-.146-.566.384-.79 2.42-.961 5.482-.46 3.082.506 5.778 1.747 8.27 3.83 1.067.892 1.083.899 2.318.004.783-.567 1.187-.828 1.392-.54z"/></g></svg>