<svg xmlns="http://www.w3.org/2000/svg" xmlns:xlink="http://www.w3.org/1999/xlink" viewBox="0 0 62.935 64.81"><defs><filter id="d" color-interpolation-filters="sRGB"><feGaussianBlur result="fbSourceGraphic" stdDeviation="5"/><feGaussianBlur in="SourceGraphic" result="result1" stdDeviation=".01"/><feComposite in="fbSourceGraphic" in2="result1" k2=".5" k3=".5" operator="arithmetic" result="result2"/><feBlend in2="fbSourceGraphic" result="result3"/></filter><radialGradient id="e" cx="89.51" cy="22.254" r="18.279" gradientTransform="matrix(1 0 0 .97468 0 .44)" gradientUnits="userSpaceOnUse" xlink:href="#a"/><linearGradient id="a"><stop/><stop offset="1" stop-opacity=".536"/></linearGradient><filter id="f" width="1.294" height="1.29" x="-.147" y="-.145"><feGaussianBlur stdDeviation="1.819"/></filter><linearGradient id="g" x1="98.33" x2="86.82" y1="14.793" y2="25.1" gradientTransform="translate(862.62 752.489) scale(.18514)" gradientUnits="userSpaceOnUse" xlink:href="#b"/><linearGradient id="b"><stop/><stop offset="1" stop-color="#ddd" stop-opacity="0"/></linearGradient><marker id="h" orient="auto" overflow="visible" refX="0" refY="0"><path fill="#0617b0" fill-rule="evenodd" stroke="#0617b0" stroke-width="1.0664" d="M10 0l4-4L0 0l14 4z"/></marker><marker id="i" orient="auto" overflow="visible" refX="0" refY="0"><path fill="#0617b0" fill-rule="evenodd" stroke="#0617b0" stroke-width="1.0664" d="M-10 0l-4 4L0 0l-14-4z"/></marker><filter id="j"><feGaussianBlur stdDeviation="2.586"/></filter><radialGradient id="k" cx="81.79" cy="100.32" r="44.42" gradientTransform="matrix(2.0026 -1.59703 1.77733 2.2287 -279.236 23.704)" gradientUnits="userSpaceOnUse" xlink:href="#c"/><linearGradient id="c"><stop stop-color="#eee"/><stop offset="1" stop-color="#d2d2d2"/></linearGradient><radialGradient id="l" cx="89.51" cy="22.254" r="18.279" gradientTransform="matrix(1 0 0 .97468 0 .44)" gradientUnits="userSpaceOnUse" xlink:href="#a"/><filter id="m" width="1.294" height="1.29" x="-.147" y="-.145"><feGaussianBlur stdDeviation="1.819"/></filter><linearGradient id="n" x1="98.33" x2="86.82" y1="14.793" y2="25.1" gradientTransform="matrix(.96715 0 0 .96715 .456 -.087)" gradientUnits="userSpaceOnUse" xlink:href="#b"/></defs><path d="M20.98-.137v165.606h200.63V30.659L191.69-.137h-56.004z" filter="url(#d)" transform="translate(-.176 29.964) scale(.19143)"/><path fill="#fffce2" d="M3.84 29.938V61.64h38.408V35.833l-5.728-5.895H25.799z"/><path fill="url(#e)" d="M81.698 28.31l.135-8.351c.068-6.6-.877-11.548-4.047-16.012l2.576-.031 27.5 25.615c-4.067-2.646-9.62-.791-16.861-1.026z" filter="url(#f)" opacity=".505" transform="matrix(.19451 0 0 .21292 20.888 29.392)"/><path fill="#eee" d="M37.455 34.399l.025-1.546c.012-1.222-.515-2.075-1.102-2.901l5.717 5.855c-.753-.49-1.577-1.329-2.918-1.372z"/><path fill="url(#g)" d="M878.157 757.447l.025-1.546c.013-1.222-.515-2.075-1.102-2.901l5.717 5.855c-.753-.49-1.577-1.329-2.918-1.372z" transform="translate(-840.702 -723.048)"/><g fill="none"><path stroke="#757575" stroke-width="1.2490065000000001" d="M19.536 32.512L9.53 41.646M34.58 48.99l-10.005 9.134"/><path stroke="#0617b0" stroke-miterlimit=".9" stroke-width=".692" marker-end="url(#i)" marker-start="url(#h)" d="M325.464-65.816l20.907 22.899" transform="translate(-197.624 79.135) scale(.66085)"/><path stroke="#0617b0" stroke-width="1.2490065000000001" d="M20.35 38.738l7.786 8.773"/></g><g><path d="M20.094 4.119v118h88.844V35.962l-.594-.625c.21.145.417.302.625.438L78.094 4.15c.056.08.1.17.156.25L78 4.119z" filter="url(#j)" opacity=".809" transform="matrix(.2165 0 0 .21743 37.419 1.67)"/><path fill="url(#k)" d="M19.89 2.543v114.123h85.925V33.34L75.894 2.543z" transform="matrix(.22386 0 0 .22386 37.317 1.808)"/><path fill="url(#l)" d="M81.698 28.31l.135-8.351c.068-6.6-.877-11.548-4.047-16.012l2.576-.031 27.5 25.615c-4.067-2.646-9.62-.791-16.861-1.026z" filter="url(#m)" opacity=".505" transform="matrix(.22746 0 0 .24899 36.214 1.73)"/><path fill="#eee" d="M55.587 7.586l.03-1.808c.014-1.429-.603-2.426-1.29-3.392l6.686 6.847c-.88-.573-1.844-1.554-3.412-1.605z"/><path fill="url(#n)" d="M81.616 25.812l.13-8.077c.066-6.382-2.691-10.836-5.757-15.153l29.867 30.588c-3.935-2.558-8.24-6.942-15.243-7.169z" transform="matrix(.22386 0 0 .22386 37.317 1.808)"/><path fill="#24a644" stroke="#9a9a9a" stroke-linecap="round" stroke-width="2.534" d="M-20.614 20.959H57.12v29.67h-77.734z" transform="matrix(.22386 0 0 .22386 37.317 1.808)"/><text x="-14.149" y="46.079" style="line-height:1.25" fill="#fdfdfd" stroke-width=".706" font-family="sans-serif" font-size="28.256" font-weight="400" letter-spacing="0" transform="matrix(.22386 0 0 .22386 37.317 1.808)" word-spacing="0"><tspan style="-inkscape-font-specification:'sans-serif Bold'" x="-14.149" y="46.079" font-weight="700">CSV</tspan></text><g fill="#24a644"><path d="M43.033 16.632h8.074v2.079h-8.074zM43.033 19.71h8.074v2.079h-8.074zM43.033 22.828h8.074v2.079h-8.074z"/></g><g fill="#24a644"><path d="M52.027 16.632h8.075v2.079h-8.075zM52.027 19.71h8.075v2.079h-8.075zM52.027 22.828h8.075v2.079h-8.075z"/></g></g><g fill="#147a0a"><path d="M29.48 18.005c.29-.204 1.128-.23 2.754-.198 7.112.14 7.283.43 7.533.732l.09.172c.078.402-.01.66-.892 3.452-.246.78-.74 2.398-1.1 3.6-.894 2.986-1.005 3.057-2.185 1.428-.697-.963-.758-1.027-1.074-1.078-.287-.046-.462.032-1.192.481-1.996 1.23-3.696 3.145-4.764 5.366-.446.927-.569 1.232-.893 2.406-.155.562-.243.736-.545.955-.273.199-.413.22-.566.146-.79-.384-.961-2.42-.46-5.482.506-3.082 1.747-5.778 3.831-8.27.891-1.067.898-1.083.003-2.318-.567-.783-.827-1.187-.539-1.392z"/></g></svg>