<svg xmlns="http://www.w3.org/2000/svg" xmlns:xlink="http://www.w3.org/1999/xlink" viewBox="0 0 92.966 91.859"><defs><filter id="f"><feGaussianBlur stdDeviation="2.586"/></filter><radialGradient id="g" cx="81.79" cy="100.32" r="44.42" gradientTransform="matrix(2.0026 -1.59703 1.77733 2.2287 -279.236 23.704)" gradientUnits="userSpaceOnUse" xlink:href="#a"/><linearGradient id="a"><stop stop-color="#eee"/><stop offset="1" stop-color="#d2d2d2"/></linearGradient><radialGradient id="h" cx="89.51" cy="22.254" r="18.279" gradientTransform="matrix(1 0 0 .97468 0 .44)" gradientUnits="userSpaceOnUse" xlink:href="#b"/><linearGradient id="b"><stop/><stop offset="1" stop-opacity=".536"/></linearGradient><filter id="i" width="1.294" height="1.29" x="-.147" y="-.145"><feGaussianBlur stdDeviation="1.819"/></filter><linearGradient id="p" x1="98.33" x2="86.82" y1="14.793" y2="25.1" gradientTransform="matrix(.96715 0 0 .96715 .456 -.087)" gradientUnits="userSpaceOnUse" xlink:href="#c"/><linearGradient id="c"><stop/><stop offset="1" stop-color="#ddd" stop-opacity="0"/></linearGradient><linearGradient id="q" x1="342.25" x2="359.239" y1="-112.642" y2="-103.288" gradientTransform="translate(392.842 146.398)" gradientUnits="userSpaceOnUse" xlink:href="#d"/><linearGradient id="d"><stop offset="0" stop-color="#fff9a6"/><stop offset="1" stop-color="#b9ad1b"/></linearGradient><filter id="l"><feGaussianBlur stdDeviation="2.586"/></filter><radialGradient id="m" cx="81.79" cy="100.32" r="44.42" gradientTransform="matrix(2.0026 -1.59703 1.77733 2.2287 -279.236 23.704)" gradientUnits="userSpaceOnUse" xlink:href="#a"/><radialGradient id="n" cx="89.51" cy="22.254" r="18.279" gradientTransform="matrix(1 0 0 .97468 0 .44)" gradientUnits="userSpaceOnUse" xlink:href="#b"/><filter id="o" width="1.294" height="1.29" x="-.147" y="-.145"><feGaussianBlur stdDeviation="1.819"/></filter><linearGradient id="r" x1="92.186" x2="119.104" y1="33.465" y2="26.565" gradientTransform="translate(-13.788 -19.1)" gradientUnits="userSpaceOnUse" xlink:href="#e"/><linearGradient id="e"><stop offset="0" stop-color="#62b01e"/><stop offset="1" stop-color="#44880c"/></linearGradient><linearGradient id="j" x1="98.33" x2="86.82" y1="14.793" y2="25.1" gradientTransform="matrix(.96715 0 0 .96715 .456 -.087)" gradientUnits="userSpaceOnUse" xlink:href="#c"/><linearGradient id="k" x1="342.25" x2="359.239" y1="-112.642" y2="-103.288" gradientTransform="translate(392.842 146.398)" gradientUnits="userSpaceOnUse" xlink:href="#d"/></defs><g opacity=".5"><path d="M20.094 4.119v118h88.844V35.962l-.594-.625c.21.145.417.302.625.438L78.094 4.15c.056.08.1.17.156.25L78 4.119z" filter="url(#f)" opacity=".809" transform="matrix(.34095 0 0 .3424 -3.82 35.894)"/><path fill="url(#g)" d="M19.89 2.543v114.123h85.925V33.34L75.894 2.543z" transform="matrix(.35253 0 0 .35253 -3.982 36.11)"/><path fill="url(#h)" d="M81.698 28.31l.135-8.351c.068-6.6-.877-11.548-4.047-16.012l2.576-.031 27.5 25.615c-4.067-2.646-9.62-.791-16.861-1.026z" filter="url(#i)" opacity=".505" transform="matrix(.3582 0 0 .3921 -5.718 35.989)"/><path fill="#eee" d="M24.79 45.21l.046-2.848c.024-2.25-.948-3.82-2.03-5.342l10.53 10.784c-1.387-.902-2.905-2.448-5.374-2.528z"/><path fill="url(#j)" d="M81.616 25.812l.13-8.077c.066-6.382-2.691-10.836-5.757-15.153l29.867 30.588c-3.935-2.558-8.24-6.942-15.243-7.169z" transform="matrix(.35253 0 0 .35253 -3.982 36.11)"/><path fill="url(#k)" stroke="#000" stroke-width=".5" d="M734.924 28.385v8.098h-8.268v8.524h27.848v-8.524h-8.267v-8.098h-5.657z" transform="translate(-722.69 20.291)"/></g><path d="M20.094 4.119v118h88.844V35.962l-.594-.625c.21.145.417.302.625.438L78.094 4.15c.056.08.1.17.156.25L78 4.119z" filter="url(#l)" opacity=".809" transform="matrix(.34095 0 0 .3424 3.918 46.005)"/><path fill="url(#m)" d="M19.89 2.543v114.123h85.925V33.34L75.894 2.543z" transform="matrix(.35253 0 0 .35253 3.757 46.222)"/><path fill="url(#n)" d="M81.698 28.31l.135-8.351c.068-6.6-.877-11.548-4.047-16.012l2.576-.031 27.5 25.615c-4.067-2.646-9.62-.791-16.861-1.026z" filter="url(#o)" opacity=".505" transform="matrix(.3582 0 0 .3921 2.02 46.1)"/><path fill="#eee" d="M32.529 55.321l.046-2.847c.023-2.25-.95-3.82-2.03-5.342l10.529 10.783c-1.387-.902-2.905-2.447-5.374-2.527z"/><path fill="url(#p)" d="M81.616 25.812l.13-8.077c.066-6.382-2.691-10.836-5.757-15.153l29.867 30.588c-3.935-2.558-8.24-6.942-15.243-7.169z" transform="matrix(.35253 0 0 .35253 3.757 46.222)"/><path fill="url(#q)" stroke="#000" stroke-width=".5" d="M734.924 28.385v8.098h-8.268v8.524h27.848v-8.524h-8.267v-8.098h-5.657z" transform="translate(-714.952 30.403)"/><g><g fill="#e02525"><path d="M58.574 27.105c0-1.176-.816-1.878-2.258-1.878-.588 0-.986.057-1.195.114v3.777c.247.056.55.075.967.075 1.538 0 2.486-.778 2.486-2.088zM67.495 25.265c-.646 0-1.062.057-1.31.114v8.368c.247.058.646.058 1.007.058 2.618.018 4.326-1.423 4.326-4.479.02-2.657-1.537-4.06-4.023-4.06z"/><path d="M84.589 20.348H83.54v-5.06c0-.032-.005-.064-.01-.096a.84.84 0 0 0-.202-.554l-8.422-9.62-.007-.006a.85.85 0 0 0-.226-.177.883.883 0 0 0-.17-.07c-.015-.005-.03-.012-.045-.016a.854.854 0 0 0-.197-.024H53.564c-.945 0-1.713.768-1.713 1.713v13.91h-1.048a2.448 2.448 0 0 0-2.449 2.448v12.732a2.449 2.449 0 0 0 2.449 2.448h1.048v8.715c0 .944.768 1.713 1.713 1.713h28.263c.944 0 1.713-.769 1.713-1.713v-8.715h1.049a2.449 2.449 0 0 0 2.448-2.448V22.797a2.448 2.448 0 0 0-2.448-2.449zM53.564 6.438h19.84v8.764c0 .473.385.856.857.856h7.566v4.291H53.564zm21.028 22.793c0 2.448-.892 4.136-2.127 5.18-1.346 1.12-3.396 1.651-5.9 1.651-1.499 0-2.561-.095-3.283-.19V23.31c1.062-.17 2.448-.265 3.91-.265 2.427 0 4.003.437 5.237 1.366 1.327.987 2.163 2.561 2.163 4.82zM52.256 35.93V23.31c.891-.15 2.144-.265 3.909-.265 1.783 0 3.055.341 3.909 1.025.816.645 1.365 1.708 1.365 2.96 0 1.253-.416 2.316-1.176 3.036-.987.93-2.448 1.348-4.156 1.348-.379 0-.722-.02-.986-.057v4.573h-2.865zm29.571 10.297H53.564v-8.251h28.263v8.251zm2.482-20.715h-4.916v2.922h4.593v2.353h-4.593v5.143h-2.902V23.14h7.818z"/></g><path fill="#fffcfc" d="M53.569 42.048v-4.006h28.04v8.012H53.57zM53.569 13.34V6.53H73.33v4.487c0 3.133.096 4.583.32 4.807.22.22 1.525.32 4.14.32h3.818v4.006H53.57zM52.305 29.698c0-4.416.062-6.263.213-6.357.117-.072 1.414-.14 2.882-.152 2.517-.02 2.73.008 3.742.482 1.304.61 2.005 1.56 2.168 2.937.319 2.69-1.538 4.509-4.785 4.685l-1.48.08-.053 2.276-.053 2.275h-2.634zm5-.656c1.327-.555 1.75-2.328.785-3.293-.444-.445-.65-.503-1.774-.503h-1.271l-.055 1.781c-.03.98-.011 1.894.042 2.032.128.334 1.455.324 2.272-.017zM63.581 35.798c-.229-.229-.147-12.312.084-12.455.115-.07 1.412-.14 2.882-.151 2.053-.018 2.919.053 3.736.306 1.559.48 2.763 1.388 3.445 2.595.504.892.59 1.253.655 2.755.165 3.758-1.339 5.887-4.793 6.786-1.127.294-5.753.42-6.009.164zm5.887-2.444c1.316-.656 1.943-1.7 2.066-3.445.05-.703-.012-1.638-.14-2.112-.425-1.574-2.06-2.645-4.039-2.645-1.315 0-1.254-.217-1.254 4.461v4.232h1.191c.904 0 1.43-.118 2.176-.49zM76.495 29.593v-6.331H84.244v2.067l-2.41.053-2.41.053-.054 1.56-.055 1.558h4.551v2.08H79.33v5.291h-2.835z"/></g><g><g fill="#e02525"><path d="M64.503 22.38c0-1.175-.817-1.877-2.258-1.877-.588 0-.986.056-1.195.113v3.777c.247.056.55.075.967.075 1.538 0 2.486-.778 2.486-2.087zM73.424 20.54c-.646 0-1.062.057-1.31.114v8.368c.247.058.646.058 1.006.058 2.619.019 4.327-1.423 4.327-4.478.019-2.658-1.538-4.061-4.023-4.061z"/><path d="M90.517 15.624H89.47v-5.06c0-.032-.005-.064-.01-.096a.84.84 0 0 0-.203-.555L80.835.293l-.007-.006a.85.85 0 0 0-.227-.176.883.883 0 0 0-.169-.071c-.015-.005-.03-.011-.046-.015A.854.854 0 0 0 80.19 0H59.493c-.945 0-1.713.769-1.713 1.713v13.91H56.73a2.448 2.448 0 0 0-2.448 2.449v12.731a2.449 2.449 0 0 0 2.448 2.448h1.049v8.715c0 .944.768 1.713 1.713 1.713h28.263c.944 0 1.713-.768 1.713-1.713v-8.715h1.049a2.449 2.449 0 0 0 2.448-2.448v-12.73a2.448 2.448 0 0 0-2.449-2.45zM59.493 1.714h19.84v8.763c0 .473.384.857.857.857h7.566v4.29H59.493zM80.52 24.505c0 2.448-.891 4.137-2.127 5.18-1.345 1.12-3.395 1.651-5.9 1.651-1.498 0-2.56-.094-3.282-.189V18.585c1.062-.17 2.448-.265 3.91-.265 2.427 0 4.002.437 5.236 1.366 1.328.987 2.163 2.562 2.163 4.82zm-22.336 6.699v-12.62c.892-.15 2.145-.265 3.91-.265 1.783 0 3.055.342 3.908 1.025.817.645 1.366 1.708 1.366 2.96 0 1.253-.417 2.316-1.176 3.036-.987.93-2.448 1.348-4.156 1.348-.38 0-.722-.019-.986-.057v4.573h-2.866zm29.572 10.298H59.493V33.25h28.263v8.252zm2.482-20.716h-4.916v2.922h4.592v2.354h-4.592v5.142H82.42v-12.79h7.818z"/></g><path fill="#fffcfc" d="M59.497 37.324v-4.006h28.04v8.011h-28.04zM59.497 8.616v-6.81H79.26v4.486c0 3.134.097 4.583.32 4.807.22.22 1.526.32 4.14.32h3.819v4.006h-28.04zM58.233 24.974c0-4.416.062-6.264.213-6.357.118-.073 1.415-.141 2.883-.153 2.516-.02 2.73.008 3.741.482 1.305.61 2.006 1.56 2.169 2.937.319 2.69-1.539 4.51-4.785 4.686l-1.48.08-.053 2.275-.053 2.275h-2.635zm5-.657c1.327-.555 1.75-2.328.786-3.293-.444-.444-.65-.503-1.774-.503h-1.271l-.055 1.782c-.03.98-.012 1.894.041 2.031.128.335 1.456.324 2.273-.017zM69.51 31.073c-.229-.228-.148-12.311.083-12.454.116-.071 1.412-.14 2.882-.152 2.054-.017 2.92.054 3.737.306 1.558.481 2.763 1.389 3.445 2.596.503.89.59 1.253.655 2.755.164 3.758-1.339 5.886-4.793 6.786-1.127.293-5.753.42-6.01.163zm5.887-2.443c1.316-.656 1.942-1.7 2.066-3.445.05-.703-.013-1.638-.14-2.112-.426-1.575-2.06-2.646-4.039-2.646-1.315 0-1.255-.217-1.255 4.461v4.232h1.192c.904 0 1.429-.118 2.176-.49zM82.424 24.868v-6.33h7.748v2.067l-2.41.053-2.409.052-.055 1.56-.055 1.559h4.551V25.908H85.26v5.291h-2.835z"/></g><g stroke="#57705d" stroke-width=".452"><path fill="url(#r)" fill-rule="evenodd" stroke-linecap="round" stroke-linejoin="round" d="M107.47-2.367c-7.89 17.304-21.247 13.233-21.374 13.233V5.14l-7.699 9.225 7.762 7.76v-5.788s18.511 4.326 21.311-18.704z" transform="matrix(-.77841 .06165 -.05019 -.94321 106.31 25.502)"/></g></svg>