<svg xmlns="http://www.w3.org/2000/svg" xmlns:xlink="http://www.w3.org/1999/xlink" width="174.726" height="227.568" viewBox="0 0 46.23 60.211"><defs><linearGradient xlink:href="#a" id="c" x1="161.758" x2="160.935" y1="956.02" y2="953.377" gradientTransform="matrix(7.44222 0 0 7.44222 -1046.433 -6137.432)" gradientUnits="userSpaceOnUse"/><linearGradient id="a" x1="181.75" x2="148.84" y1="231.55" y2="781.62" gradientTransform="translate(0 73.469)" gradientUnits="userSpaceOnUse"><stop offset="0" style="stop-color:#ffdc10"/><stop offset=".362" style="stop-color:#f4b908"/><stop offset=".75" style="stop-color:#eea704"/><stop offset="1" style="stop-color:#da9302"/></linearGradient><linearGradient xlink:href="#b" id="d" x1="160.623" x2="164.817" y1="953.178" y2="953.178" gradientTransform="matrix(7.44222 0 0 7.44222 -1046.433 -6137.432)" gradientUnits="userSpaceOnUse"/><linearGradient id="b" x1="301.8" x2="288.56" y1="267.55" y2="839.03" gradientTransform="translate(0 73.469)" gradientUnits="userSpaceOnUse"><stop offset="0" style="stop-color:#ffdc10"/><stop offset=".395" style="stop-color:#f4b908"/><stop offset=".75" style="stop-color:#eea704"/><stop offset="1" style="stop-color:#c68000"/></linearGradient><linearGradient xlink:href="#a" id="e" x1="162.448" x2="164.817" y1="954.418" y2="955.049" gradientTransform="matrix(7.44222 0 0 7.44222 -1046.433 -6137.432)" gradientUnits="userSpaceOnUse"/></defs><path d="m149.949 954.333 10.268 8.354v20.886l-10.877-10.878z" style="fill:url(#c);fill-opacity:1;stroke:#9b6500;stroke-width:1.97219;stroke-linecap:round;stroke-linejoin:round;stroke-miterlimit:4;stroke-dasharray:none;stroke-opacity:1" transform="matrix(1.22605 0 0 1.22605 -181.888 -1146.905)"/><path d="m149.949 954.333 17.926-4.35 11.313 6.961-18.97 5.743z" style="fill:url(#d);fill-opacity:1;stroke:#9b6500;stroke-width:1.97219;stroke-linecap:square;stroke-linejoin:round;stroke-miterlimit:4;stroke-dasharray:none;stroke-opacity:1" transform="matrix(1.22605 0 0 1.22605 -181.888 -1146.905)"/><path d="M179.188 956.944v18.797l-18.97 7.832v-20.886z" style="fill:url(#e);fill-opacity:1;stroke:#9b6500;stroke-width:1.97219;stroke-linecap:round;stroke-linejoin:round;stroke-miterlimit:4;stroke-dasharray:none;stroke-opacity:1" transform="matrix(1.22605 0 0 1.22605 -181.888 -1146.905)"/><path d="M964.625 1189.336c.598-.224 2.075.117 4.9.924 12.359 3.529 12.523 4.115 12.82 4.757l.078.343c-.05.739-.325 1.148-3.153 5.618a598.374 598.374 0 0 0-3.583 5.78c-2.941 4.801-3.168 4.874-4.476 1.485-.774-2.005-.85-2.145-1.379-2.38-.48-.213-.821-.158-2.304.29-4.054 1.226-7.907 3.786-10.799 7.172-1.207 1.414-1.562 1.89-2.67 3.79-.532.91-.764 1.174-1.393 1.417-.57.22-.824.194-1.056-.01-1.203-1.036-.561-4.673 1.729-9.787 2.306-5.151 5.719-9.286 10.51-12.678 2.05-1.45 2.068-1.476 1.075-4.046-.629-1.63-.897-2.456-.299-2.68z" style="fill:green;fill-opacity:1;stroke:none;stroke-width:1.21808" transform="translate(-936.194 -1189.269)"/></svg>