<svg xmlns="http://www.w3.org/2000/svg" xmlns:xlink="http://www.w3.org/1999/xlink" viewBox="0 0 73.665 82.218"><defs><linearGradient id="f" x1="138.92" x2="243.93" y1="604.86" y2="715.98" gradientTransform="matrix(.22502 0 0 .22502 -105.59 550.719)" gradientUnits="userSpaceOnUse" xlink:href="#a"/><linearGradient id="a"><stop stop-color="#6da5da"/><stop offset="1" stop-color="#3382ba"/></linearGradient><linearGradient id="g" x1="304.59" x2="153.01" y1="625.07" y2="735.65" gradientTransform="matrix(.22502 0 0 .22502 -105.59 550.719)" gradientUnits="userSpaceOnUse" xlink:href="#b"/><linearGradient id="b"><stop stop-color="#fff"/><stop offset="1" stop-color="#3382ba"/></linearGradient><linearGradient id="n" x1="-660.836" x2="-657.204" y1="84.093" y2="84.093" gradientTransform="translate(2533.176 -343.225) scale(4.8729)" gradientUnits="userSpaceOnUse" xlink:href="#c"/><linearGradient id="c" x1="181.75" x2="148.84" y1="231.55" y2="781.62" gradientTransform="translate(0 73.469)" gradientUnits="userSpaceOnUse"><stop offset="0" stop-color="#ffdc10"/><stop offset=".362" stop-color="#f4b908"/><stop offset=".75" stop-color="#eea704"/><stop offset="1" stop-color="#da9302"/></linearGradient><linearGradient id="o" x1="-660.836" x2="-655.099" y1="80.585" y2="80.585" gradientTransform="translate(2533.176 -343.225) scale(4.8729)" gradientUnits="userSpaceOnUse" xlink:href="#c"/><linearGradient id="p" x1="-657.336" x2="-655.429" y1="81.754" y2="86.051" gradientTransform="translate(2533.176 -343.225) scale(4.8729)" gradientUnits="userSpaceOnUse" xlink:href="#c"/><linearGradient id="q" x1="-664.765" x2="-662.793" y1="85.262" y2="85.52" gradientTransform="translate(2533.176 -343.225) scale(4.8729)" gradientUnits="userSpaceOnUse" xlink:href="#d"/><linearGradient id="d"><stop offset="0" stop-color="#046c00"/><stop offset="1" stop-color="#10c708"/></linearGradient><linearGradient id="r" x1="-664.718" x2="-658.326" y1="82.971" y2="82.971" gradientTransform="translate(2533.176 -343.225) scale(4.8729)" gradientUnits="userSpaceOnUse" xlink:href="#d"/><linearGradient id="s" x1="-662.808" x2="-658.326" y1="84.28" y2="85.239" gradientTransform="translate(2533.176 -343.225) scale(4.8729)" gradientUnits="userSpaceOnUse" xlink:href="#e"/><linearGradient id="e"><stop offset="0" stop-color="#09e900"/><stop offset="1" stop-color="#10c708"/></linearGradient><linearGradient id="h" x1="-660.836" x2="-657.204" y1="84.093" y2="84.093" gradientTransform="translate(2533.176 -343.225) scale(4.8729)" gradientUnits="userSpaceOnUse" xlink:href="#c"/><linearGradient id="i" x1="-660.836" x2="-655.099" y1="80.585" y2="80.585" gradientTransform="translate(2533.176 -343.225) scale(4.8729)" gradientUnits="userSpaceOnUse" xlink:href="#c"/><linearGradient id="j" x1="-657.336" x2="-655.429" y1="81.754" y2="86.051" gradientTransform="translate(2533.176 -343.225) scale(4.8729)" gradientUnits="userSpaceOnUse" xlink:href="#c"/><linearGradient id="k" x1="-664.765" x2="-662.793" y1="85.262" y2="85.52" gradientTransform="translate(2533.176 -343.225) scale(4.8729)" gradientUnits="userSpaceOnUse" xlink:href="#d"/><linearGradient id="l" x1="-664.718" x2="-658.326" y1="82.971" y2="82.971" gradientTransform="translate(2533.176 -343.225) scale(4.8729)" gradientUnits="userSpaceOnUse" xlink:href="#d"/><linearGradient id="m" x1="-662.808" x2="-658.326" y1="84.28" y2="85.239" gradientTransform="translate(2533.176 -343.225) scale(4.8729)" gradientUnits="userSpaceOnUse" xlink:href="#e"/></defs><g fill-rule="evenodd" stroke-width="1.125" opacity=".5"><path fill="url(#f)" stroke="#080e9a" d="M-72.16 715.668l-3.88-31.114 12.958-.227.909 1.59h12.275l7.727 24.096" transform="translate(81.07 -683.758)"/><path fill="url(#g)" stroke="#082a9a" d="M-71.84 715.036l29.896-5.023 8.412-22.048-28.187 1.364z" opacity=".711" transform="translate(81.07 -683.758)"/></g><path fill="none" stroke="#888" stroke-dasharray="3 3" d="M25.435 44.547H38.4m-13.097-12.17v37.57H38.4"/><g stroke="#777" stroke-linecap="round" stroke-linejoin="round" stroke-width="1.291" opacity=".5"><path fill="url(#h)" d="M-686.369 45.128l16.41 10.029-.228 32.82-16.182-11.852z" transform="matrix(.58138 0 0 .58138 452.194 3.307)"/><path fill="url(#i)" d="M-686.369 45.128l10.257-1.367 16.41 8.205-10.257 3.19z" transform="matrix(.58138 0 0 .58138 452.194 3.307)"/><path fill="url(#j)" d="M-669.959 55.157l10.257-3.191v33.048l-10.485 2.963z" transform="matrix(.58138 0 0 .58138 452.194 3.307)"/><path fill="url(#k)" d="M-705.286 60.399l8.661 7.065v16.638l-8.889-7.977z" transform="matrix(.58138 0 0 .58138 452.194 3.307)"/><path fill="url(#l)" d="M-705.286 60.399l22.564-5.698 7.293 5.47-21.196 7.293z" transform="matrix(.58138 0 0 .58138 452.194 3.307)"/><path fill="url(#m)" d="M-696.625 67.464l21.196-7.293v16.41l-21.196 7.52z" transform="matrix(.58138 0 0 .58138 452.194 3.307)"/></g><g stroke="#777" stroke-linecap="round" stroke-linejoin="round" stroke-width="1.291" opacity=".5"><path fill="url(#n)" d="M-686.369 45.128l16.41 10.029-.228 32.82-16.182-11.852z" transform="matrix(.58138 0 0 .58138 452.194 30.694)"/><path fill="url(#o)" d="M-686.369 45.128l10.257-1.367 16.41 8.205-10.257 3.19z" transform="matrix(.58138 0 0 .58138 452.194 30.694)"/><path fill="url(#p)" d="M-669.959 55.157l10.257-3.191v33.048l-10.485 2.963z" transform="matrix(.58138 0 0 .58138 452.194 30.694)"/><path fill="url(#q)" d="M-705.286 60.399l8.661 7.065v16.638l-8.889-7.977z" transform="matrix(.58138 0 0 .58138 452.194 30.694)"/><path fill="url(#r)" d="M-705.286 60.399l22.564-5.698 7.293 5.47-21.196 7.293z" transform="matrix(.58138 0 0 .58138 452.194 30.694)"/><path fill="url(#s)" d="M-696.625 67.464l21.196-7.293v16.41l-21.196 7.52z" transform="matrix(.58138 0 0 .58138 452.194 30.694)"/></g><path fill="none" stroke="#ff2125" stroke-linecap="round" stroke-width="2.646" d="M1.339 1.814l42.694 25.941M46.445 33.202l25.88 15.725M44.931 61.127l25.88 15.725"/></svg>