<svg xmlns="http://www.w3.org/2000/svg" viewBox="0 0 78.757 78.76"><g transform="translate(623.467 517.36)"><rect width="39.544" height="39.544" x="-814.467" y="-118.125" fill="#207c9d" stroke="#fff" stroke-linecap="round" stroke-linejoin="round" stroke-width="2.755" paint-order="markers fill stroke" rx=".425" transform="scale(1.17759 .78313) rotate(45)"/><rect width="39.544" height="39.544" x="-803.603" y="-107.574" fill="#196079" stroke="#fff" stroke-linecap="round" stroke-linejoin="round" stroke-width="2.755" paint-order="markers fill stroke" rx=".425" transform="scale(1.17759 .78313) rotate(45)"/><rect width="39.544" height="39.544" x="-792.813" y="-97.42" fill="#0e3543" stroke="#fff" stroke-linecap="round" stroke-linejoin="round" stroke-width="2.755" paint-order="markers fill stroke" rx=".425" transform="scale(1.17759 .78313) rotate(45)"/><path fill="#b21e00" d="M-589.34-470.88c-1.714-1.62-4.475-1.62-6.189 0l-10.232 9.679-10.232-9.679c-1.714-1.62-4.475-1.62-6.189 0-1.714 1.622-1.714 4.233 0 5.854l10.232 9.678-10.231 9.679c-1.714 1.62-1.714 4.232 0 5.853 1.714 1.622 4.474 1.622 6.188 0l10.232-9.678 10.232 9.678c1.714 1.622 4.475 1.622 6.189 0 1.714-1.62 1.714-4.232 0-5.853l-10.232-9.679 10.232-9.678c1.714-1.621 1.714-4.232 0-5.854z"/></g></svg>