<svg xmlns="http://www.w3.org/2000/svg" xmlns:xlink="http://www.w3.org/1999/xlink" viewBox="0 0 78.791 39.483"><defs><radialGradient id="b" cx="1520.251" cy="213.723" r="27.643" fx="1520.251" fy="213.723" gradientTransform="matrix(1 0 0 .93535 0 13.817)" gradientUnits="userSpaceOnUse" xlink:href="#a"/><linearGradient id="a"><stop stop-color="#fff"/><stop offset="1" stop-color="#3382ba"/></linearGradient><radialGradient id="c" cx="1431.848" cy="212.724" r="27.073" fx="1431.848" fy="212.724" gradientTransform="matrix(1 0 0 .93096 0 14.687)" gradientUnits="userSpaceOnUse" xlink:href="#a"/></defs><g fill="#fff9a6" stroke-width=".5"><path stroke="#000" stroke-width=".862995" d="M14.701.431v13.977H.431v14.713h48.066V14.408h-14.27V.431h-9.763z"/><path fill="#57bd4d" stroke="#000" stroke-width=".7369977299999999" d="M34.227.431v13.977h14.27V.431h-7.135z"/></g><path d="M45.339 22.026c1.685-1.187 3.575-1.283 5.713-.065.914.503 1.867.686 2.627-.033 3.423-3.239 6.972-5.097 11.689-4.794 3.257.21 6.079 1.061 8.504 2.66a19.588 19.588 0 0 0 3.274 1.714 2.41 2.41 0 0 1 1.409 1.596c.158.591.228 1.228.236 1.897a1.216 1.216 0 0 1-.88 1.195c-.793.117-1.335 1.49-1.774 3.612-.714 3.45-2.272 6.27-5.056 7.93-3.296 1.963-6.881 2.31-10.327.837-4.99-2.135-7.7-6.666-8.504-8.685-.99-2.486-1.176-4.225-4.005-4.268-2.073-.032-3.033.276-3.514 2.134-1.176 4.542-3.223 7.96-7.519 9.932-5.172 2.374-9.414 1.63-13.659-1.445-2.362-1.71-3.901-4.698-4.662-8.963-.203-1.138-.795-1.875-1.638-2.342a1.088 1.088 0 0 1-.553-.955c.003-1.82.203-3.318 1.32-3.32.959-.142 1.95-.525 2.972-1.116 5.273-3.54 10.606-4.01 16.335-2.2 1.775.56 3.913 2.122 6.173 4.367.593.585 1.205.705 1.839.312zm-13.852-3.965c-5.719 0-10.355 4.328-10.355 9.666s4.636 9.666 10.355 9.666 10.355-4.328 10.355-9.666-4.636-9.666-10.355-9.666zm33.425.394c-5.719 0-10.355 4.328-10.355 9.666s4.636 9.666 10.355 9.666c5.72 0 10.355-4.328 10.355-9.666s-4.636-9.666-10.355-9.666z"/><path fill="url(#b)" d="M1514.322 238.45c-1.389-.261-4.377-1.368-6.642-2.46-15.88-7.654-19.398-27.48-7.03-39.632 10.76-10.572 28.552-10.48 39.223.204 9.904 9.916 9.89 24.61-.033 34.4-6.474 6.388-16.194 9.24-25.517 7.488z" transform="matrix(.37822 0 0 .37822 -510.061 -52.711)"/><path fill="url(#c)" d="M1424.847 237.024c-8.103-2.124-14.167-6.922-17.598-13.925-8.178-16.688 4.912-35.58 24.653-35.58 7.76 0 14.215 2.646 19.572 8.023 3.969 3.983 6.25 8.325 7.133 13.57 2.95 17.556-15.398 32.726-33.76 27.912z" transform="matrix(.37822 0 0 .37822 -510.061 -52.711)"/></svg>