<svg xmlns="http://www.w3.org/2000/svg" xmlns:xlink="http://www.w3.org/1999/xlink" viewBox="0 0 75.427 105.577"><defs><filter id="g"><feGaussianBlur stdDeviation="2.586"/></filter><radialGradient id="h" cx="81.79" cy="100.32" r="44.42" gradientTransform="matrix(2.0026 -1.59703 1.77733 2.2287 -279.236 23.704)" gradientUnits="userSpaceOnUse" xlink:href="#a"/><linearGradient id="a"><stop stop-color="#eee"/><stop offset="1" stop-color="#d2d2d2"/></linearGradient><radialGradient id="i" cx="89.51" cy="22.254" r="18.279" gradientTransform="matrix(1 0 0 .97468 0 .44)" gradientUnits="userSpaceOnUse" xlink:href="#b"/><linearGradient id="b"><stop/><stop offset="1" stop-opacity=".536"/></linearGradient><filter id="j" width="1.294" height="1.29" x="-.147" y="-.145"><feGaussianBlur stdDeviation="1.819"/></filter><linearGradient id="k" x1="98.33" x2="86.82" y1="14.793" y2="25.1" gradientTransform="matrix(.96715 0 0 .96715 .456 -.087)" gradientUnits="userSpaceOnUse" xlink:href="#c"/><linearGradient id="c"><stop/><stop offset="1" stop-color="#ddd" stop-opacity="0"/></linearGradient><linearGradient id="l" x1="92.186" x2="119.104" y1="33.465" y2="26.565" gradientTransform="translate(-13.788 -19.1)" gradientUnits="userSpaceOnUse" xlink:href="#d"/><linearGradient id="d"><stop offset="0" stop-color="#62b01e"/><stop offset="1" stop-color="#44880c"/></linearGradient><linearGradient id="m" x1="161.758" x2="160.935" y1="956.02" y2="953.377" gradientTransform="matrix(7.44222 0 0 7.44222 -1046.433 -6137.432)" gradientUnits="userSpaceOnUse" xlink:href="#e"/><linearGradient id="e" x1="181.75" x2="148.84" y1="231.55" y2="781.62" gradientTransform="translate(0 73.469)" gradientUnits="userSpaceOnUse"><stop offset="0" stop-color="#ffdc10"/><stop offset=".362" stop-color="#f4b908"/><stop offset=".75" stop-color="#eea704"/><stop offset="1" stop-color="#da9302"/></linearGradient><linearGradient id="n" x1="160.623" x2="164.817" y1="953.178" y2="953.178" gradientTransform="matrix(7.44222 0 0 7.44222 -1046.433 -6137.432)" gradientUnits="userSpaceOnUse" xlink:href="#f"/><linearGradient id="f" x1="301.8" x2="288.56" y1="267.55" y2="839.03" gradientTransform="translate(0 73.469)" gradientUnits="userSpaceOnUse"><stop offset="0" stop-color="#ffdc10"/><stop offset=".395" stop-color="#f4b908"/><stop offset=".75" stop-color="#eea704"/><stop offset="1" stop-color="#c68000"/></linearGradient><linearGradient id="o" x1="162.448" x2="164.817" y1="954.418" y2="955.049" gradientTransform="matrix(7.44222 0 0 7.44222 -1046.433 -6137.432)" gradientUnits="userSpaceOnUse" xlink:href="#e"/><linearGradient id="s" x1="161.758" x2="160.935" y1="956.02" y2="953.377" gradientTransform="matrix(7.44222 0 0 7.44222 -1006.703 -6104.74)" gradientUnits="userSpaceOnUse" xlink:href="#d"/><linearGradient id="t" x1="160.623" x2="164.817" y1="953.178" y2="953.178" gradientTransform="matrix(7.44222 0 0 7.44222 -1006.703 -6104.74)" gradientUnits="userSpaceOnUse" xlink:href="#d"/><linearGradient id="u" x1="162.448" x2="164.817" y1="954.418" y2="955.049" gradientTransform="matrix(7.44222 0 0 7.44222 -1006.703 -6104.74)" gradientUnits="userSpaceOnUse" xlink:href="#d"/><linearGradient id="p" x1="161.758" x2="160.935" y1="956.02" y2="953.377" gradientTransform="matrix(7.44222 0 0 7.44222 -1006.703 -6104.74)" gradientUnits="userSpaceOnUse" xlink:href="#d"/><linearGradient id="q" x1="160.623" x2="164.817" y1="953.178" y2="953.178" gradientTransform="matrix(7.44222 0 0 7.44222 -1006.703 -6104.74)" gradientUnits="userSpaceOnUse" xlink:href="#d"/><linearGradient id="r" x1="162.448" x2="164.817" y1="954.418" y2="955.049" gradientTransform="matrix(7.44222 0 0 7.44222 -1006.703 -6104.74)" gradientUnits="userSpaceOnUse" xlink:href="#d"/></defs><path d="M20.094 4.119v118h88.844V35.962l-.594-.625c.21.145.417.302.625.438L78.094 4.15c.056.08.1.17.156.25L78 4.119z" filter="url(#g)" opacity=".809" transform="matrix(.34095 0 0 .3424 35.244 2.63)"/><path fill="url(#h)" d="M19.89 2.543v114.123h85.925V33.34L75.894 2.543z" transform="matrix(.35253 0 0 .35253 35.084 2.847)"/><path fill="url(#i)" d="M81.698 28.31l.135-8.351c.068-6.6-.877-11.548-4.047-16.012l2.576-.031 27.5 25.615c-4.067-2.646-9.62-.791-16.861-1.026z" filter="url(#j)" opacity=".505" transform="matrix(.3582 0 0 .3921 33.348 2.725)"/><path fill="#eee" d="M63.856 11.946l.046-2.847c.023-2.25-.95-3.82-2.03-5.342L72.4 14.54c-1.387-.902-2.905-2.447-5.374-2.527z"/><path fill="url(#k)" d="M81.616 25.812l.13-8.077c.066-6.382-2.691-10.836-5.757-15.153l29.867 30.588c-3.935-2.558-8.24-6.942-15.243-7.169z" transform="matrix(.35253 0 0 .35253 35.084 2.847)"/><path fill="#cfedf4" d="M58.136 13.658l-11.56 5.78 11.56 5.78 11.56-5.78z"/><path fill="#4fc0dd" d="M58.136 25.219v14.45l11.56-5.78v-14.45z"/><path fill="#197c97" d="M58.136 25.219v14.45l-11.56-5.78v-14.45z"/><path fill="none" stroke="#4d4d4d" stroke-width=".57803" d="M58.136 13.665l-11.56 5.78v14.451l11.56 5.78 11.56-5.78v-14.45z"/><g stroke="#57705d" stroke-width=".452"><path fill="url(#l)" fill-rule="evenodd" stroke-linecap="round" stroke-linejoin="round" d="M107.47-2.367c-7.89 17.304-21.247 13.233-21.374 13.233V5.14l-7.699 9.225 7.762 7.76v-5.788s18.511 4.326 21.311-18.704z" transform="matrix(-1.17783 .45994 -.44194 -1.11056 144.884 4.972)"/></g><g stroke="#9b6500" stroke-linejoin="round" stroke-width="1.972"><path fill="url(#m)" stroke-linecap="round" d="M149.949 954.333l10.268 8.354v20.886l-10.877-10.878z" transform="matrix(.781 0 0 .781 -90.073 -692.197)"/><path fill="url(#n)" stroke-linecap="square" d="M149.949 954.333l17.926-4.35 11.313 6.961-18.97 5.743z" transform="matrix(.781 0 0 .781 -90.073 -692.197)"/><path fill="url(#o)" stroke-linecap="round" d="M179.188 956.944v18.797l-18.97 7.832v-20.886z" transform="matrix(.781 0 0 .781 -90.073 -692.197)"/></g><g stroke="#003e0d" stroke-linejoin="round" stroke-width="1.972"><path fill="url(#p)" stroke-linecap="round" d="M189.679 987.025l10.268 8.354v20.885l-10.878-10.878z" transform="matrix(.781 0 0 .781 -117.35 -688.891)"/><path fill="url(#q)" stroke-linecap="square" d="M189.679 987.025l17.926-4.351 11.313 6.961-18.97 5.744z" transform="matrix(.781 0 0 .781 -117.35 -688.891)"/><path fill="url(#r)" stroke-linecap="round" d="M218.918 989.635v18.797l-18.97 7.832v-20.885z" transform="matrix(.781 0 0 .781 -117.35 -688.891)"/></g><g stroke="#003e0d" stroke-linejoin="round" stroke-width="1.972"><path fill="url(#s)" stroke-linecap="round" d="M189.679 987.025l10.268 8.354v20.885l-10.878-10.878z" transform="matrix(.781 0 0 .781 -146.892 -698.617)"/><path fill="url(#t)" stroke-linecap="square" d="M189.679 987.025l17.926-4.351 11.313 6.961-18.97 5.744z" transform="matrix(.781 0 0 .781 -146.892 -698.617)"/><path fill="url(#u)" stroke-linecap="round" d="M218.918 989.635v18.797l-18.97 7.832v-20.885z" transform="matrix(.781 0 0 .781 -146.892 -698.617)"/></g></svg>