<svg xmlns="http://www.w3.org/2000/svg" viewBox="0 0 35.997 42.339"><defs><linearGradient id="a" x1="301.8" x2="288.56" y1="267.55" y2="839.03" gradientTransform="translate(0 73.469)" gradientUnits="userSpaceOnUse"><stop offset="0" stop-color="#ffdc10"/><stop offset=".395" stop-color="#f4b908"/><stop offset=".75" stop-color="#eea704"/><stop offset="1" stop-color="#c68000"/></linearGradient><linearGradient id="b" x1="181.75" x2="148.84" y1="231.55" y2="781.62" gradientTransform="translate(0 73.469)" gradientUnits="userSpaceOnUse"><stop offset="0" stop-color="#ffdc10"/><stop offset=".362" stop-color="#f4b908"/><stop offset=".75" stop-color="#eea704"/><stop offset="1" stop-color="#da9302"/></linearGradient></defs><path fill="none" stroke="#fff" stroke-width="1.5" d="M28.788 34.523l-9.688 3.88-8.554-1.937-6.683-8.015-.802-8.734 5.558-8.833 8.058-3.461 10.118 2.556 5.783 6.595.695 10.412z"/><path fill="none" stroke="#000" stroke-width=".5" d="M28.788 34.523l-9.688 3.88-8.554-1.937-6.683-8.015-.802-8.734 5.558-8.833 8.058-3.461 10.118 2.556 5.783 6.595.695 10.412z"/><path fill="#fffefe" stroke="#000" stroke-width=".2" d="M2.756 3.374h30.7V4.61h-30.7z"/><path fill="#f80805" d="M29.575 3.466h3.786v1.056h-3.786z"/><path fill="#0e0feb" d="M5.089 2.545H6.52v2.863H5.089z"/></svg>