<svg xmlns="http://www.w3.org/2000/svg" xmlns:xlink="http://www.w3.org/1999/xlink" viewBox="0 0 77.036 82.164"><defs><linearGradient id="q" x1="1813.324" x2="1833.511" y1="-397.491" y2="-397.491" gradientTransform="matrix(4.21518 0 0 4.20402 -5666.095 1473.993)" gradientUnits="userSpaceOnUse" xlink:href="#a"/><linearGradient id="a" x1="301.8" x2="288.56" y1="267.55" y2="839.03" gradientTransform="translate(0 73.469)" gradientUnits="userSpaceOnUse"><stop offset="0" stop-color="#ffdc10"/><stop offset=".395" stop-color="#f4b908"/><stop offset=".75" stop-color="#eea704"/><stop offset="1" stop-color="#c68000"/></linearGradient><linearGradient id="r" x1="1776.666" x2="1815.079" y1="-450.134" y2="-450.134" gradientTransform="matrix(4.21518 0 0 4.20402 -5666.095 1473.993)" gradientUnits="userSpaceOnUse" xlink:href="#a"/><linearGradient id="s" x1="1761.624" x2="1814.324" y1="-413.855" y2="-413.855" gradientTransform="matrix(4.21518 0 0 4.20402 -5666.095 1473.993)" gradientUnits="userSpaceOnUse" xlink:href="#b"/><linearGradient id="b" x1="181.75" x2="148.84" y1="231.55" y2="781.62" gradientTransform="translate(0 73.469)" gradientUnits="userSpaceOnUse"><stop offset="0" stop-color="#ffdc10"/><stop offset=".362" stop-color="#f4b908"/><stop offset=".75" stop-color="#eea704"/><stop offset="1" stop-color="#da9302"/></linearGradient><linearGradient id="t" x1="1792.553" x2="1814.998" y1="-434.589" y2="-434.589" gradientTransform="matrix(4.21518 0 0 4.20402 -5666.095 1473.993)" gradientUnits="userSpaceOnUse" xlink:href="#a"/><linearGradient id="j" x1="1776.666" x2="1817.287" y1="-450.134" y2="-460.651" gradientTransform="matrix(4.21518 0 0 4.20402 -5260.66 1647.94)" gradientUnits="userSpaceOnUse" xlink:href="#c"/><linearGradient id="c" x1="301.8" x2="288.56" y1="267.55" y2="839.03" gradientTransform="translate(0 73.469)" gradientUnits="userSpaceOnUse"><stop offset="0" stop-color="#07a92b"/><stop offset="1" stop-color="#00aa3d"/></linearGradient><linearGradient id="k" x1="1761.624" x2="1814.324" y1="-413.855" y2="-413.855" gradientTransform="matrix(4.21518 0 0 4.20402 -5260.66 1647.94)" gradientUnits="userSpaceOnUse" xlink:href="#d"/><linearGradient id="d" x1="301.8" x2="288.56" y1="267.55" y2="839.03" gradientTransform="translate(0 73.469)" gradientUnits="userSpaceOnUse"><stop offset="0" stop-color="#07a92b"/><stop offset=".395" stop-color="#1da12c"/><stop offset=".75" stop-color="#7ae230"/><stop offset="1" stop-color="#0d5226"/></linearGradient><linearGradient id="l" x1="1792.553" x2="1825.303" y1="-434.589" y2="-452.67" gradientTransform="matrix(4.21518 0 0 4.20402 -5260.66 1647.94)" gradientUnits="userSpaceOnUse" xlink:href="#e"/><linearGradient id="e" x1="301.8" x2="288.56" y1="267.55" y2="839.03" gradientTransform="translate(0 73.469)" gradientUnits="userSpaceOnUse"><stop offset="0" stop-color="#07a92b"/><stop offset=".395" stop-color="#1da12c"/><stop offset="1" stop-color="#0d5226"/></linearGradient><linearGradient id="f" x1="1813.324" x2="1833.511" y1="-397.491" y2="-397.491" gradientTransform="matrix(4.21518 0 0 4.20402 -5666.095 1473.993)" gradientUnits="userSpaceOnUse" xlink:href="#a"/><linearGradient id="g" x1="1776.666" x2="1815.079" y1="-450.134" y2="-450.134" gradientTransform="matrix(4.21518 0 0 4.20402 -5666.095 1473.993)" gradientUnits="userSpaceOnUse" xlink:href="#a"/><linearGradient id="h" x1="1761.624" x2="1814.324" y1="-413.855" y2="-413.855" gradientTransform="matrix(4.21518 0 0 4.20402 -5666.095 1473.993)" gradientUnits="userSpaceOnUse" xlink:href="#b"/><linearGradient id="i" x1="1792.553" x2="1814.998" y1="-434.589" y2="-434.589" gradientTransform="matrix(4.21518 0 0 4.20402 -5666.095 1473.993)" gradientUnits="userSpaceOnUse" xlink:href="#a"/><linearGradient id="m" x1="1813.324" x2="1833.511" y1="-397.491" y2="-397.491" gradientTransform="matrix(4.21518 0 0 4.20402 -5666.095 1473.993)" gradientUnits="userSpaceOnUse" xlink:href="#a"/><linearGradient id="n" x1="1776.666" x2="1815.079" y1="-450.134" y2="-450.134" gradientTransform="matrix(4.21518 0 0 4.20402 -5666.095 1473.993)" gradientUnits="userSpaceOnUse" xlink:href="#a"/><linearGradient id="o" x1="1761.624" x2="1814.324" y1="-413.855" y2="-413.855" gradientTransform="matrix(4.21518 0 0 4.20402 -5666.095 1473.993)" gradientUnits="userSpaceOnUse" xlink:href="#b"/><linearGradient id="p" x1="1792.553" x2="1814.998" y1="-434.589" y2="-434.589" gradientTransform="matrix(4.21518 0 0 4.20402 -5666.095 1473.993)" gradientUnits="userSpaceOnUse" xlink:href="#a"/></defs><g style="line-height:1.25" fill="#1168be" stroke-width=".256" font-family="sans-serif" font-size="20.529" font-weight="400" letter-spacing="0" word-spacing="0"><path fill="none" stroke="#888" stroke-dasharray="3 3" stroke-width="1" d="M9.007 42.488H21.97M8.874 30.318v37.57h13.097"/><g stroke="#696666" stroke-linecap="round" stroke-linejoin="round" stroke-width="3.776"><path fill="url(#f)" d="M1979.491-231.018l80.875-57.486v121.93l-80.875 60.808z" transform="translate(-161.21 42.407) scale(.09161)"/><path fill="#ffd100" stroke-width=".34591935999999995" d="M.38 9.885l8.757-3.439 18.407 9.531-7.409 5.266z"/><path fill="url(#g)" d="M1823.918-426.322l78.643-34.692 76.564 36.193-87.188 37.666-68.02-39.167" transform="translate(-161.21 42.407) scale(.09161)"/><path fill="url(#h)" d="M1763.85-355.004l60.068 34.588v-105.906l68.02 39.167v105.721l87.553 50.416v125.252l-217.9-150.143z" transform="translate(-161.21 42.407) scale(.09161)"/><path fill="url(#i)" d="M1891.937-387.155l87.188-37.666 3.165 99.617-90.353 43.77z" transform="translate(-161.21 42.407) scale(.09161)"/><g><path fill="url(#j)" d="M2312.65-285.516l71.91 34.642-87.188 37.666-67.677-37.11z" transform="translate(-191.339 30.185) scale(.09161)"/><path fill="url(#k)" d="M2229.546-153.256l.15-97.063 79.468 32.449-.545 111.547z" transform="translate(-191.339 30.185) scale(.09161)"/><path fill="url(#l)" d="M2309.164-217.87l75.395-33.004 3.36 88.37-79.3 56.18z" transform="translate(-191.339 30.185) scale(.09161)"/></g></g><g stroke="#696666" stroke-linecap="round" stroke-linejoin="round" stroke-width="3.776"><path fill="url(#m)" d="M1979.491-231.018l80.875-57.486v121.93l-80.875 60.808z" transform="matrix(.0747 0 0 .0747 -106.134 63.774)"/><path fill="#ffd100" stroke-width=".2820672" d="M25.63 37.255l7.141-2.804 15.01 7.771-6.042 4.295z"/><path fill="url(#n)" d="M1823.918-426.322l78.643-34.692 76.564 36.193-87.188 37.666-68.02-39.167" transform="matrix(.0747 0 0 .0747 -106.134 63.774)"/><path fill="url(#o)" d="M1763.85-355.004l60.068 34.588v-105.906l68.02 39.167v105.721l87.553 50.416v125.252l-217.9-150.143z" transform="matrix(.0747 0 0 .0747 -106.134 63.774)"/><path fill="url(#p)" d="M1891.937-387.155l87.188-37.666 3.165 99.617-90.353 43.77z" transform="matrix(.0747 0 0 .0747 -106.134 63.774)"/></g><g stroke="#696666" stroke-linecap="round" stroke-linejoin="round" stroke-width="3.776"><path fill="url(#q)" d="M1979.491-231.018l80.875-57.486v121.93l-80.875 60.808z" transform="matrix(.0747 0 0 .0747 -106.636 89.924)"/><path fill="#ffd100" stroke-width=".2820672" d="M25.129 63.404l7.14-2.804 15.01 7.772-6.041 4.294z"/><path fill="url(#r)" d="M1823.918-426.322l78.643-34.692 76.564 36.193-87.188 37.666-68.02-39.167" transform="matrix(.0747 0 0 .0747 -106.636 89.924)"/><path fill="url(#s)" d="M1763.85-355.004l60.068 34.588v-105.906l68.02 39.167v105.721l87.553 50.416v125.252l-217.9-150.143z" transform="matrix(.0747 0 0 .0747 -106.636 89.924)"/><path fill="url(#t)" d="M1891.937-387.155l87.188-37.666 3.165 99.617-90.353 43.77z" transform="matrix(.0747 0 0 .0747 -106.636 89.924)"/></g><g transform="translate(-1124.979 -441.234)"><circle cx="1188.257" cy="499.766" r="12.435" fill="#fff" stroke="#1168be" stroke-linecap="round" stroke-linejoin="bevel" stroke-width="2.646" paint-order="markers fill stroke"/><path d="M1194.632 506.681h-11.718v-2.466q1.343-.972 2.686-2.065 1.354-1.092 2.166-1.884 1.212-1.173 1.724-2.045.51-.872.51-1.724 0-1.023-.66-1.574-.652-.561-1.885-.561-.922 0-1.945.38-1.012.382-1.884.973h-.321v-3.318q.712-.31 2.095-.621 1.393-.311 2.787-.311 2.806 0 4.28 1.183 1.473 1.173 1.473 3.328 0 1.413-.711 2.686-.702 1.273-2.156 2.626-.912.842-1.834 1.554-.922.702-1.313.982h6.706z" style="-inkscape-font-specification:'sans-serif Bold'" font-weight="700"/></g></g></svg>