<svg xmlns="http://www.w3.org/2000/svg" xmlns:xlink="http://www.w3.org/1999/xlink" viewBox="0 0 40.175 46.506"><defs><linearGradient id="c" x1="35.997" x2="33.665" y1="40.458" y2="37.771" gradientTransform="matrix(1.255 0 0 1.255 -879.766 -825.928)" gradientUnits="userSpaceOnUse" xlink:href="#a"/><linearGradient id="a" x1="35.997" x2="33.665" y1="40.458" y2="37.771" gradientTransform="translate(6.162 4.033)" gradientUnits="userSpaceOnUse"><stop offset="0" stop-color="#7c7c7c"/><stop offset="1" stop-color="#b8b8b8"/></linearGradient><linearGradient id="d" x1="33.396" x2="34.17" y1="36.921" y2="38.07" gradientTransform="matrix(1.255 0 0 1.255 -879.766 -826.399)" gradientUnits="userSpaceOnUse" xlink:href="#b"/><linearGradient id="b" x1="33.396" x2="34.17" y1="36.921" y2="38.07" gradientTransform="translate(6.162 3.658)" gradientUnits="userSpaceOnUse"><stop offset="0" stop-color="#fff"/><stop offset="1" stop-color="#fff" stop-opacity="0"/></linearGradient></defs><g style="line-height:1.25" fill="#0000c9" stroke-width=".299" font-family="sans-serif" font-size="11.977" font-weight="400" letter-spacing="0" word-spacing="0"><path fill="#fff" fill-rule="evenodd" stroke="#888a85" stroke-width="1.255" d="M1.343.628h37.47c.396 0 .715.317.715.711v34.096c0 3.108-8.635 10.42-11.632 10.42H1.343a.712.712 0 0 1-.715-.712V1.339c0-.394.318-.711.715-.711z"/><path fill="url(#c)" fill-rule="evenodd" stroke="#868a84" stroke-width="1.255" d="M-842.042-772.586c2.548.414 12.034-5.685 11.652-10.665-1.962 3.04-5.972 1.615-11.129 1.815 0 0 .496 8.222-.523 8.85z" color="#000" transform="translate(869.926 818.439)"/><path fill="none" stroke="url(#d)" stroke-width="1.255" d="M-840.222-775.337c1.72-.857 5.558-2.693 7.189-5.054-2.003.853-3.7.262-7.157.239 0 0 .204 3.842-.032 4.815z" color="#000" opacity=".369" transform="translate(869.926 818.439)"/><path d="M8.902 9.496H5.99l-.293.73h.293q.433 0 .614.17.187.164.187.433 0 .263-.187.433-.181.163-.614.163H4.376q-.433 0-.614-.163-.188-.17-.188-.439t.193-.438q.193-.17.638-.158l1.883-4.69h-.784q-.432 0-.62-.164-.18-.17-.18-.439t.18-.433q.188-.17.62-.17l2.591.007 2.386 5.889q.421 0 .556.093.269.193.269.51 0 .262-.182.432-.18.164-.614.164H8.896q-.432 0-.62-.164-.18-.17-.18-.439 0-.263.18-.427.188-.17.62-.17h.293zm-.497-1.2L7.44 5.923l-.97 2.375zM15.704 11.425v-.28q-.45.24-.995.357-.544.122-.988.122-.965 0-1.567-.508-.603-.515-.603-1.135 0-.754.766-1.398.772-.649 2.13-.649.543 0 1.257.117v-.286q0-.27-.234-.44-.228-.169-.878-.169-.532 0-1.38.21-.316.077-.491.077-.24 0-.41-.17-.163-.175-.163-.444 0-.152.058-.263.059-.111.164-.176.105-.07.439-.164.444-.122.906-.193.462-.076.836-.076 1.117 0 1.731.486.62.48.62 1.316v2.468h.205q.433 0 .614.17.187.163.187.432 0 .263-.187.433-.181.163-.614.163zm0-2.146q-.72-.14-1.328-.14-.731 0-1.257.357-.328.228-.328.462 0 .17.158.274.292.193.801.193.433 0 .977-.17.55-.169.977-.461zM22.89 11.425v-.28q-.45.24-.993.357-.544.122-.989.122-.965 0-1.567-.508-.602-.515-.602-1.135 0-.754.766-1.398.772-.649 2.129-.649.543 0 1.257.117v-.286q0-.27-.234-.44-.228-.169-.877-.169-.532 0-1.38.21-.316.077-.492.077-.24 0-.409-.17-.164-.175-.164-.444 0-.152.059-.263.058-.111.163-.176.106-.07.44-.164.444-.122.906-.193.462-.076.836-.076 1.117 0 1.73.486.62.48.62 1.316v2.468h.205q.433 0 .615.17.187.163.187.432 0 .263-.187.433-.182.163-.615.163zm0-2.146q-.718-.14-1.327-.14-.73 0-1.257.357-.327.228-.327.462 0 .17.157.274.293.193.802.193.432 0 .976-.17.55-.169.977-.461zM30.078 11.425v-.28q-.45.24-.994.357-.544.122-.988.122-.965 0-1.568-.508-.602-.515-.602-1.135 0-.754.766-1.398.772-.649 2.129-.649.544 0 1.257.117v-.286q0-.27-.234-.44-.228-.169-.877-.169-.532 0-1.38.21-.316.077-.491.077-.24 0-.41-.17-.163-.175-.163-.444 0-.152.058-.263.059-.111.164-.176.105-.07.438-.164.445-.122.907-.193.462-.076.836-.076 1.117 0 1.731.486.62.48.62 1.316v2.468h.205q.433 0 .614.17.187.163.187.432 0 .263-.187.433-.181.163-.614.163zm0-2.146q-.72-.14-1.327-.14-.731 0-1.258.357-.327.228-.327.462 0 .17.158.274.292.193.801.193.433 0 .977-.17.55-.169.976-.461zM4.99 25.622v-4.69h-.187q-.433 0-.62-.164Q4 20.598 4 20.33q0-.27.182-.433.187-.17.62-.17h3.006q1.076 0 1.73.603.656.596.656 1.42 0 .393-.152.738-.153.345-.462.637.567.34.847.796.287.45.287 1.023 0 .456-.205.848-.152.298-.374.474-.298.245-.73.403-.434.152-1.083.152h-3.52q-.433 0-.62-.163-.182-.17-.182-.44 0-.262.188-.426.187-.17.614-.17zm1.199-2.947h1.315q.708 0 1.176-.357.316-.24.316-.596 0-.316-.299-.55-.298-.24-.947-.24H6.189zm0 2.947h2.07q.73 0 1.03-.216.227-.164.227-.468 0-.362-.45-.713t-1.293-.351H6.19zM13.113 19.236v2.69q.438-.286.889-.427.456-.146.918-.146 1.246 0 2.111.86.866.86.866 2.076 0 1.164-.825 1.947-.825.778-2.176.778-.48 0-.924-.123-.444-.122-.86-.362v.292H11.71q-.433 0-.62-.163-.181-.17-.181-.44 0-.262.187-.426.187-.17.614-.17h.205v-5.187h-.205q-.433 0-.62-.164-.181-.17-.181-.438 0-.263.181-.427.187-.17.62-.17zm3.585 5.088q0-.743-.52-1.257-.521-.515-1.276-.515-.748 0-1.269.515-.52.514-.52 1.24 0 .66.468 1.087.467.421 1.321.421.854 0 1.322-.42.474-.428.474-1.07zM20.3 19.236v2.69q.439-.286.89-.427.455-.146.917-.146 1.246 0 2.111.86.866.86.866 2.076 0 1.164-.825 1.947-.824.778-2.175.778-.48 0-.924-.123-.445-.122-.86-.362v.292h-1.403q-.433 0-.62-.163-.182-.17-.182-.44 0-.262.188-.426.187-.17.614-.17h.204v-5.187h-.204q-.433 0-.62-.164-.182-.17-.182-.438 0-.263.182-.427.187-.17.62-.17zm3.585 5.088q0-.743-.52-1.257-.52-.515-1.275-.515-.749 0-1.27.515-.52.514-.52 1.24 0 .66.468 1.087.468.421 1.322.421.854 0 1.321-.42.474-.428.474-1.07zM27.488 19.236v2.69q.438-.286.888-.427.457-.146.919-.146 1.245 0 2.11.86.866.86.866 2.076 0 1.164-.824 1.947-.825.778-2.176.778-.48 0-.924-.123-.444-.122-.86-.362v.292h-1.403q-.433 0-.62-.163-.181-.17-.181-.44 0-.262.187-.426.187-.17.614-.17h.205v-5.187h-.205q-.433 0-.62-.164-.181-.17-.181-.438 0-.263.181-.427.187-.17.62-.17zm3.584 5.088q0-.743-.52-1.257-.52-.515-1.275-.515-.749 0-1.269.515-.52.514-.52 1.24 0 .66.467 1.087.468.421 1.322.421.854 0 1.322-.42.473-.428.473-1.07zM9.317 35.433q.111-.152.24-.228.135-.076.287-.076.263 0 .427.181.17.182.17.615v1.017q0 .433-.17.62-.164.181-.427.181-.24 0-.386-.134-.147-.135-.217-.503-.04-.246-.163-.38-.24-.263-.673-.421-.427-.158-.86-.158-.538 0-.988.234-.45.234-.795.76-.345.526-.345 1.251v.778q0 .866.625 1.445.632.579 1.749.579.667 0 1.129-.182.269-.105.573-.415.187-.187.292-.24.105-.058.24-.058.24 0 .421.181t.181.427q0 .246-.245.526-.357.41-.918.644-.755.316-1.667.316-1.065 0-1.918-.44-.69-.35-1.176-1.104-.485-.76-.485-1.655v-.813q0-.936.433-1.743.438-.813 1.21-1.252.772-.438 1.638-.438.52 0 .97.123.457.117.848.362zM16.493 37.123q.216-.204.444-.204.258 0 .422.187.17.181.17.608v.772q0 .433-.17.614-.164.181-.433.181-.246 0-.415-.14-.123-.105-.193-.427-.07-.327-.34-.485-.473-.281-1.21-.281-.848 0-1.363.497-.509.497-.509 1.257 0 .702.492 1.112.49.403 1.631.403.749 0 1.223-.152.28-.094.532-.316.251-.228.456-.228.245 0 .42.181.182.182.182.427 0 .398-.544.755-.807.532-2.362.532-1.398 0-2.176-.58-1.052-.777-1.052-2.128 0-1.28.853-2.117.854-.842 2.229-.842.497 0 .924.094.426.093.789.28zM23.68 37.123q.217-.204.445-.204.257 0 .42.187.17.181.17.608v.772q0 .433-.17.614-.163.181-.432.181-.245 0-.415-.14-.123-.105-.193-.427-.07-.327-.34-.485-.473-.281-1.21-.281-.848 0-1.362.497-.51.497-.51 1.257 0 .702.492 1.112.491.403 1.632.403.748 0 1.222-.152.28-.094.532-.316.252-.228.456-.228.246 0 .421.181.182.182.182.427 0 .398-.544.755-.807.532-2.363.532-1.398 0-2.175-.58-1.053-.777-1.053-2.128 0-1.28.854-2.117.854-.842 2.228-.842.497 0 .924.094.427.093.79.28z" style="-inkscape-font-specification:'Courier New Bold'" font-family="Courier New" font-weight="700"/></g></svg>