<svg xmlns="http://www.w3.org/2000/svg" xmlns:xlink="http://www.w3.org/1999/xlink" viewBox="0 0 27.88 41.656"><defs><linearGradient id="e" x1="120.314" x2="132.737" y1="95.223" y2="95.223" gradientUnits="userSpaceOnUse" xlink:href="#a"/><linearGradient id="a"><stop stop-color="#e8f2f2"/><stop offset=".5" stop-color="#fff"/><stop offset="1" stop-color="#70a3c8"/></linearGradient><radialGradient id="f" cx="219.608" cy="198.613" r="82.274" fx="219.608" fy="198.613" gradientTransform="matrix(1 0 0 .60806 0 57.048)" gradientUnits="userSpaceOnUse" xlink:href="#b"/><linearGradient id="b"><stop offset="0" stop-color="#eeee57"/><stop offset=".649" stop-color="#f2f654" stop-opacity=".498"/><stop offset="1" stop-color="#5db550" stop-opacity=".914"/></linearGradient><radialGradient id="g" cx="219.608" cy="198.613" r="82.274" fx="219.608" fy="198.613" gradientTransform="matrix(1 0 0 .60806 0 57.048)" gradientUnits="userSpaceOnUse" xlink:href="#b"/><linearGradient id="l" x1="84.153" x2="103.734" y1="316.967" y2="325.491" gradientUnits="userSpaceOnUse" xlink:href="#c"/><linearGradient id="c"><stop offset="0" stop-color="#eeee57"/><stop offset=".262" stop-color="#eef264" stop-opacity=".498"/><stop offset="1" stop-color="#b5b050" stop-opacity=".914"/></linearGradient><linearGradient id="i" x1="-862.916" x2="-821.878" y1="70.773" y2="30.577" gradientUnits="userSpaceOnUse" xlink:href="#d"/><linearGradient id="d"><stop offset="0" stop-color="#29993a"/><stop offset=".519" stop-color="#2ccb00" stop-opacity=".478"/><stop offset="1" stop-color="#009a18" stop-opacity=".961"/></linearGradient><radialGradient id="j" cx="219.608" cy="198.613" r="82.274" fx="219.608" fy="198.613" gradientTransform="matrix(1 0 0 .60806 0 57.048)" gradientUnits="userSpaceOnUse" xlink:href="#b"/><radialGradient id="k" cx="219.608" cy="198.613" r="82.274" fx="219.608" fy="198.613" gradientTransform="matrix(1 0 0 .60806 0 57.048)" gradientUnits="userSpaceOnUse" xlink:href="#b"/><linearGradient id="h" x1="84.153" x2="103.734" y1="316.967" y2="325.491" gradientUnits="userSpaceOnUse" xlink:href="#c"/></defs><g transform="matrix(.63186 0 0 .63186 -66.007 -39.227)"><path fill="url(#e)" stroke="#000" d="M120.314 74.637c-2.452 0-2.809 2.449 0 2.898v17.688l-14.425 24.875c-2.349 4.95.049 7.314 3.969 7.408l16.667-.067s0 0 0 0 0 0 0 0l16.667.067c3.92-.094 6.318-2.458 3.97-7.408l-14.425-24.875V77.535c2.808-.45 2.451-2.898 0-2.898h-6.212z"/><path fill="none" stroke="#000" stroke-linecap="round" d="M129.341 77.974v16.404"/><g stroke-width="7.293"><path fill="url(#h)" stroke="#000" stroke-width="1.469" d="M84.153 308.87v8.097h-8.267v8.524h27.848v-8.524h-8.268v-8.098H89.81z" transform="rotate(27.349 321.503 300.955) scale(.68059)"/><path fill="url(#i)" stroke="#000" d="M-862.916 70.773h41.038V30.577h-40.65z" transform="rotate(27.348 -186.88 547.228) scale(.13711)"/></g><path fill="url(#l)" stroke="#000" stroke-width="1.469" d="M84.153 308.87v8.097h-8.267v8.524h27.848v-8.524h-8.268v-8.098H89.81z" transform="rotate(-10.236 -457.705 -155.88) scale(.68059)"/><path fill="none" stroke="#000" d="M113.242 107.161c3.043-.617 6.085-1.234 8.885-1.036 2.8.199 5.358 1.213 8.026 1.147 2.668-.067 5.446-1.213 8.224-2.36"/><circle cx="137.102" cy="121.551" r="2.806" fill="none" stroke="#030303" stroke-linecap="round" stroke-opacity=".82"/><circle cx="141.027" cy="116.871" r="1.675" fill="none" stroke="#030303" stroke-linecap="round" stroke-opacity=".82"/><circle cx="142.577" cy="121.548" r="1.15" fill="none" stroke="#030303" stroke-linecap="round" stroke-opacity=".82"/><path fill="#f77676" d="M108.79 126.853c-1.348-.231-2.48-.923-2.934-1.793-.42-.803-.399-2.217.05-3.493.2-.567 1.83-3.53 4.088-7.433l3.756-6.49.596-.132c2.653-.585 3.954-.733 6.482-.735 2.415-.003 2.714.025 4.696.437 1.164.242 2.623.488 3.241.546 2.449.23 5.003-.34 9.142-2.042.17-.07 1.074 1.399 4.466 7.246 2.34 4.034 4.37 7.6 4.514 7.924.408.922.697 2.345.618 3.036-.148 1.28-.822 2.101-2.168 2.645l-.763.308-17.727.016c-9.75.01-17.876-.009-18.058-.04zm29.944-2.396c1.103-.6 1.673-1.602 1.673-2.938 0-.946-.201-1.488-.81-2.18-1.326-1.511-3.725-1.48-5.047.065-.63.735-.797 1.276-.735 2.374.067 1.188.559 2.016 1.552 2.611.387.232.861.45 1.053.482.669.115 1.673-.065 2.314-.414zm5.075-1.799c.548-.598.598-1.386.132-2.079-.893-1.327-3.005-.701-3.005.89 0 1.167.713 1.831 1.848 1.721.47-.046.68-.155 1.025-.532zm-1.63-3.89c1.749-1.025 1.185-3.82-.825-4.09-2.192-.293-3.401 2.343-1.773 3.864.667.622 1.759.716 2.597.225z" opacity=".5"/><circle cx="107.033" cy="-90.467" r="2.806" fill="none" stroke="#030303" stroke-linecap="round" stroke-opacity=".82" transform="rotate(68.017)"/><circle cx="110.958" cy="-95.147" r="1.675" fill="none" stroke="#030303" stroke-linecap="round" stroke-opacity=".82" transform="rotate(68.017)"/><circle cx="112.508" cy="-90.469" r="1.15" fill="none" stroke="#030303" stroke-linecap="round" stroke-opacity=".82" transform="rotate(68.017)"/></g></svg>