<svg xmlns="http://www.w3.org/2000/svg" viewBox="0 0 319.211 270.986"><path fill="#1b00c8" stroke="#686868" stroke-linecap="round" stroke-linejoin="bevel" stroke-width="7.928" d="M3.964 89.033H207.49v177.99H3.964z" paint-order="markers fill stroke"/><g aria-label="&gt;_" style="line-height:1.25" fill="#fff" stroke="#fff" stroke-width="2.332" font-family="sans-serif" font-size="93.277" font-weight="400" letter-spacing="0" word-spacing="0"><path d="M68.057 128.732l-52.56 23.365v-8.198l41.447-17.99-41.447-17.99v-8.2l52.56 23.366zM139.107 169.268H79.443v-5.466h59.664z"/></g><g fill="#147a0a"><path d="M319.168 84.514c.473-3.32-2.933-10.512-10.245-24.096C276.94 1.004 273.748.82 270.12.015L268.278 0c-3.735 1.09-5.525 2.957-25.272 22.484-5.508 5.447-17.035 16.625-25.614 24.866-21.322 20.48-21.442 21.725-2.592 24.627 11.153 1.718 11.957 1.947 13.753 4.397 1.633 2.227 1.735 4.035 1.102 12.147-1.731 22.166-10.53 44.803-24.649 63.436-5.893 7.778-7.937 10.135-16.436 17.955-4.073 3.748-5.163 5.237-5.702 8.736-.49 3.165-.068 4.441 1.217 5.406 6.665 5.006 24.594-2.37 48.252-19.861 23.827-17.616 41.198-39.762 53.21-68.143 5.14-12.14 5.246-12.264 19.542-10.063 9.065 1.396 13.603 1.842 14.08-1.476z"/></g></svg>