<svg xmlns="http://www.w3.org/2000/svg" xmlns:xlink="http://www.w3.org/1999/xlink" viewBox="0 0 100.159 108.738"><defs><linearGradient id="f" x1="26.076" x2="30.811" y1="26.697" y2="42.007" gradientTransform="matrix(.7618 0 0 .76224 441.387 169.293)" gradientUnits="userSpaceOnUse" xlink:href="#a"/><linearGradient id="a"><stop offset="0" stop-color="#fff"/><stop offset="1" stop-color="#fff" stop-opacity="0"/></linearGradient><linearGradient id="g" x1="35.997" x2="33.665" y1="40.458" y2="37.771" gradientTransform="matrix(.76224 0 0 .76224 441.517 169.293)" gradientUnits="userSpaceOnUse" xlink:href="#b"/><linearGradient id="b" x1="35.997" x2="33.665" y1="40.458" y2="37.771" gradientTransform="translate(6.162 4.033)" gradientUnits="userSpaceOnUse"><stop offset="0" stop-color="#7c7c7c"/><stop offset="1" stop-color="#b8b8b8"/></linearGradient><linearGradient id="h" x1="33.396" x2="34.17" y1="36.921" y2="38.07" gradientTransform="matrix(.76224 0 0 .76224 441.517 169.007)" gradientUnits="userSpaceOnUse" xlink:href="#c"/><linearGradient id="c" x1="33.396" x2="34.17" y1="36.921" y2="38.07" gradientTransform="translate(6.162 3.658)" gradientUnits="userSpaceOnUse"><stop offset="0" stop-color="#fff"/><stop offset="1" stop-color="#fff" stop-opacity="0"/></linearGradient><linearGradient id="i" x1="92.186" x2="119.104" y1="33.465" y2="26.565" gradientTransform="translate(-13.788 -19.1)" gradientUnits="userSpaceOnUse" xlink:href="#d"/><linearGradient id="d"><stop offset="0" stop-color="#62b01e"/><stop offset="1" stop-color="#44880c"/></linearGradient><linearGradient id="j" x1="78.397" x2="107.696" y1="14.365" y2="9.879" gradientUnits="userSpaceOnUse" xlink:href="#e"/><linearGradient id="e"><stop offset="0" stop-color="#ca3131"/><stop offset="1" stop-color="#af3333"/></linearGradient><linearGradient id="k" x1="78.397" x2="107.696" y1="14.365" y2="9.879" gradientUnits="userSpaceOnUse" xlink:href="#e"/></defs><g transform="translate(703.59 717.348)"><rect width="39.544" height="39.544" x="-1012.967" y="-209.224" fill="#207c9d" stroke="#fff" stroke-linecap="round" stroke-linejoin="round" stroke-width="2.755" paint-order="markers fill stroke" rx=".425" transform="scale(1.17759 .78313) rotate(45)"/><rect width="39.544" height="39.544" x="-1002.103" y="-198.673" fill="#196079" stroke="#fff" stroke-linecap="round" stroke-linejoin="round" stroke-width="2.755" paint-order="markers fill stroke" rx=".425" transform="scale(1.17759 .78313) rotate(45)"/><rect width="39.544" height="39.544" x="-991.314" y="-188.519" fill="#0e3543" stroke="#fff" stroke-linecap="round" stroke-linejoin="round" stroke-width="2.755" paint-order="markers fill stroke" rx=".425" transform="scale(1.17759 .78313) rotate(45)"/><g transform="matrix(1.64648 0 0 1.64648 -1389.89 -1003.574)"><path fill="#ffffab" fill-rule="evenodd" stroke="#888a85" stroke-width=".762" d="M448.31 174.223h22.757c.241 0 .435.193.435.432v20.708c0 1.888-5.244 6.33-7.065 6.33H448.31a.432.432 0 0 1-.435-.434v-26.604c0-.24.194-.432.435-.432z"/><rect width="22.103" height="25.947" x="448.638" y="174.984" fill="none" stroke="url(#f)" stroke-width=".762" rx="0" ry="0"/><path fill="url(#g)" fill-rule="evenodd" stroke="#868a84" stroke-width=".762" d="M464.43 201.69c1.547.252 7.309-3.452 7.076-6.477-1.191 1.847-3.626.981-6.758 1.102 0 0 .3 4.995-.318 5.376z" color="#000"/><path fill="none" stroke="url(#h)" stroke-width=".762" d="M465.535 200.02c1.044-.52 3.376-1.636 4.366-3.07-1.217.519-2.247.16-4.346.145 0 0 .123 2.334-.02 2.925z" color="#000" opacity=".369"/><path fill-rule="evenodd" d="M452.065 180.726h16.007v1.524h-16.007zM452.065 183.775h15.239v1.524h-15.239zM452.065 186.824h13.703v1.524h-13.703zM452.065 189.873h16.007v1.524h-16.007z" color="#000" opacity=".17"/></g><path fill="url(#i)" fill-rule="evenodd" stroke="#57705d" stroke-linecap="round" stroke-linejoin="round" stroke-width=".452" d="M107.47-2.367c-7.89 17.304-21.247 13.233-21.374 13.233V5.14l-7.699 9.225 7.762 7.76v-5.788s18.511 4.326 21.311-18.704z" transform="matrix(-1.18057 .45288 -.43529 -1.11319 -560.448 -719.032)"/><path fill="url(#k)" fill-rule="evenodd" stroke="#57705d" stroke-linecap="round" stroke-linejoin="round" stroke-width=".452" d="M107.47-2.367c-7.89 17.304-21.247 13.233-21.374 13.233V5.14l-7.699 9.225 7.762 7.76v-5.788s18.511 4.326 21.311-18.704z" transform="matrix(1.15006 -.52556 .5038 1.0839 -727.922 -621.967)"/></g></svg>