<svg xmlns="http://www.w3.org/2000/svg" xmlns:xlink="http://www.w3.org/1999/xlink" viewBox="0 0 113.853 124.722"><defs><filter id="h" width="1.132" height="1.15" x="-.066" y="-.075" color-interpolation-filters="sRGB"><feGaussianBlur stdDeviation="1.628"/></filter><linearGradient id="u" x1="52.986" x2="5.33" y1="1789.936" y2="1748.648" gradientUnits="userSpaceOnUse" xlink:href="#a"/><linearGradient id="a" x1="211.6" x2="217.35" y1="656.93" y2="660.68" gradientTransform="matrix(.26458 0 0 .26458 -397.877 510.466)" gradientUnits="userSpaceOnUse"><stop offset="0" stop-color="#dbdcdc"/><stop offset="1" stop-color="#f4f4f4"/></linearGradient><linearGradient id="v" x1="22.868" x2="22.868" y1="1764.015" y2="1750.786" gradientUnits="userSpaceOnUse" xlink:href="#b"/><linearGradient id="b"><stop offset="0" stop-color="#f6ca1f"/><stop offset="1" stop-color="#fce33f"/></linearGradient><linearGradient id="w" x1="48.71" x2="48.71" y1="1764.246" y2="1750.749" gradientUnits="userSpaceOnUse" xlink:href="#b"/><linearGradient id="x" x1="86.115" x2="87.125" y1="6779.639" y2="6697.31" gradientUnits="userSpaceOnUse" xlink:href="#b"/><linearGradient id="y" x1="52.986" x2="53.053" y1="1781.084" y2="1772.134" gradientTransform="matrix(.99095 0 0 1.00025 .38 -.444)" gradientUnits="userSpaceOnUse" xlink:href="#c"/><linearGradient id="c"><stop offset="0" stop-color="#7d7d7d"/><stop offset="1" stop-color="#a8a8a8"/></linearGradient><linearGradient id="z" x1="63.878" x2="42.099" y1="1798.789" y2="1781.08" gradientUnits="userSpaceOnUse" xlink:href="#d"/><linearGradient id="d"><stop offset="0" stop-color="#d3d4d4"/><stop offset="1" stop-color="#fff"/></linearGradient><linearGradient id="A" x1="1813.324" x2="1833.511" y1="-397.491" y2="-397.491" gradientTransform="matrix(4.21518 0 0 4.20402 -5666.095 1473.993)" gradientUnits="userSpaceOnUse" xlink:href="#e"/><linearGradient id="e" x1="301.8" x2="288.56" y1="267.55" y2="839.03" gradientTransform="translate(0 73.469)" gradientUnits="userSpaceOnUse"><stop offset="0" stop-color="#ffdc10"/><stop offset=".395" stop-color="#f4b908"/><stop offset=".75" stop-color="#eea704"/><stop offset="1" stop-color="#c68000"/></linearGradient><linearGradient id="B" x1="1776.666" x2="1815.079" y1="-450.134" y2="-450.134" gradientTransform="matrix(4.21518 0 0 4.20402 -5666.095 1473.993)" gradientUnits="userSpaceOnUse" xlink:href="#e"/><linearGradient id="C" x1="1761.624" x2="1814.324" y1="-413.855" y2="-413.855" gradientTransform="matrix(4.21518 0 0 4.20402 -5666.095 1473.993)" gradientUnits="userSpaceOnUse" xlink:href="#f"/><linearGradient id="f" x1="181.75" x2="148.84" y1="231.55" y2="781.62" gradientTransform="translate(0 73.469)" gradientUnits="userSpaceOnUse"><stop offset="0" stop-color="#ffdc10"/><stop offset=".362" stop-color="#f4b908"/><stop offset=".75" stop-color="#eea704"/><stop offset="1" stop-color="#da9302"/></linearGradient><linearGradient id="D" x1="1792.553" x2="1814.998" y1="-434.589" y2="-434.589" gradientTransform="matrix(4.21518 0 0 4.20402 -5666.095 1473.993)" gradientUnits="userSpaceOnUse" xlink:href="#e"/><linearGradient id="s" x1="92.186" x2="119.104" y1="33.465" y2="26.565" gradientTransform="translate(-13.788 -19.1)" gradientUnits="userSpaceOnUse" xlink:href="#g"/><linearGradient id="g"><stop offset="0" stop-color="#62b01e"/><stop offset="1" stop-color="#44880c"/></linearGradient><filter id="t" width="1.132" height="1.15" x="-.066" y="-.075" color-interpolation-filters="sRGB"><feGaussianBlur stdDeviation="1.628"/></filter><linearGradient id="i" x1="52.986" x2="5.33" y1="1789.936" y2="1748.648" gradientUnits="userSpaceOnUse" xlink:href="#a"/><linearGradient id="j" x1="22.868" x2="22.868" y1="1764.015" y2="1750.786" gradientUnits="userSpaceOnUse" xlink:href="#b"/><linearGradient id="k" x1="48.71" x2="48.71" y1="1764.246" y2="1750.749" gradientUnits="userSpaceOnUse" xlink:href="#b"/><linearGradient id="l" x1="86.115" x2="87.125" y1="6779.639" y2="6697.31" gradientUnits="userSpaceOnUse" xlink:href="#b"/><linearGradient id="m" x1="52.986" x2="53.053" y1="1781.084" y2="1772.134" gradientTransform="matrix(.99095 0 0 1.00025 .38 -.444)" gradientUnits="userSpaceOnUse" xlink:href="#c"/><linearGradient id="n" x1="63.878" x2="42.099" y1="1798.789" y2="1781.08" gradientUnits="userSpaceOnUse" xlink:href="#d"/><linearGradient id="o" x1="1813.324" x2="1833.511" y1="-397.491" y2="-397.491" gradientTransform="matrix(4.21518 0 0 4.20402 -5666.095 1473.993)" gradientUnits="userSpaceOnUse" xlink:href="#e"/><linearGradient id="p" x1="1776.666" x2="1815.079" y1="-450.134" y2="-450.134" gradientTransform="matrix(4.21518 0 0 4.20402 -5666.095 1473.993)" gradientUnits="userSpaceOnUse" xlink:href="#e"/><linearGradient id="q" x1="1761.624" x2="1814.324" y1="-413.855" y2="-413.855" gradientTransform="matrix(4.21518 0 0 4.20402 -5666.095 1473.993)" gradientUnits="userSpaceOnUse" xlink:href="#f"/><linearGradient id="r" x1="1792.553" x2="1814.998" y1="-434.589" y2="-434.589" gradientTransform="matrix(4.21518 0 0 4.20402 -5666.095 1473.993)" gradientUnits="userSpaceOnUse" xlink:href="#e"/></defs><g paint-order="markers fill stroke"><path d="M1639.074 240.572h59.019v52.244h-59.019z" filter="url(#h)" opacity=".503" transform="matrix(.8158 0 0 .8158 -1319.65 -131.134)"/><g stroke="#424241" stroke-linecap="square"><path fill="url(#i)" stroke-width="1.058" d="M2.646 1745.116h61.232v53.673H2.646z" transform="matrix(.73805 .0036 -.0036 .73805 24.402 -1221.87)"/><path fill="url(#j)" stroke-width="1.058" d="M9.071 1750.786h27.592v13.229H9.071z" transform="matrix(.73805 .0036 -.0036 .73805 24.402 -1221.87)"/><path fill="url(#k)" stroke-width="1.058" d="M41.56 1750.749h14.299v13.497H41.56z" transform="matrix(.73805 .0036 -.0036 .73805 24.402 -1221.87)"/><path fill="url(#l)" stroke-width="4" d="M66.164 6697.31v40.913H36.365v41.416h99.5v-41.416h-27.78v-40.913z" transform="scale(.19528) rotate(.28 1281844.53 22470.38)"/><path fill="url(#m)" stroke-width="1.058" d="M42.098 1772.133h21.71v8.948h-21.71z" transform="matrix(.73805 .0036 -.0036 .73805 24.402 -1221.87)"/><path fill="url(#n)" stroke-width="1.058" d="M42.095 1781.084h21.783v17.705H42.095z" transform="matrix(.73805 .0036 -.0036 .73805 24.402 -1221.87)"/></g></g><g style="line-height:1.25" fill="#1168be" stroke="#696666" stroke-linecap="round" stroke-linejoin="round" stroke-width="3.776" font-family="sans-serif" font-size="20.529" font-weight="400" letter-spacing="0" word-spacing="0"><path fill="url(#o)" d="M1979.491-231.018l80.875-57.486v121.93l-80.875 60.808z" transform="matrix(.13882 0 0 .13882 -244.281 139.142)"/><path fill="#ffd100" stroke-width=".5241843199999999" d="M.576 89.86l13.27-5.21 27.892 14.442-11.227 7.98z"/><path fill="url(#p)" d="M1823.918-426.322l78.643-34.692 76.564 36.193-87.188 37.666-68.02-39.167" transform="matrix(.13882 0 0 .13882 -244.281 139.142)"/><path fill="url(#q)" d="M1763.85-355.004l60.068 34.588v-105.906l68.02 39.167v105.721l87.553 50.416v125.252l-217.9-150.143z" transform="matrix(.13882 0 0 .13882 -244.281 139.142)"/><path fill="url(#r)" d="M1891.937-387.155l87.188-37.666 3.165 99.617-90.353 43.77z" transform="matrix(.13882 0 0 .13882 -244.281 139.142)"/></g><path fill="url(#s)" fill-rule="evenodd" stroke="#57705d" stroke-linecap="round" stroke-linejoin="round" stroke-width=".452" d="M107.47-2.367c-7.89 17.304-21.247 13.233-21.374 13.233V5.14l-7.699 9.225 7.762 7.76v-5.788s18.511 4.326 21.311-18.704z" transform="matrix(-1.17783 .45994 -.44194 -1.11056 139.403 15.795)"/><g paint-order="markers fill stroke"><path d="M1639.074 240.572h59.019v52.244h-59.019z" filter="url(#t)" opacity=".503" transform="matrix(.8158 0 0 .8158 -1274.648 -193.072)"/><g stroke="#424241" stroke-linecap="square"><path fill="url(#u)" stroke-width="1.058" d="M2.646 1745.116h61.232v53.673H2.646z" transform="matrix(.73805 .0036 -.0036 .73805 69.404 -1283.809)"/><path fill="url(#v)" stroke-width="1.058" d="M9.071 1750.786h27.592v13.229H9.071z" transform="matrix(.73805 .0036 -.0036 .73805 69.404 -1283.809)"/><path fill="url(#w)" stroke-width="1.058" d="M41.56 1750.749h14.299v13.497H41.56z" transform="matrix(.73805 .0036 -.0036 .73805 69.404 -1283.809)"/><path fill="url(#x)" stroke-width="4" d="M66.164 6697.31v40.913H36.365v41.416h99.5v-41.416h-27.78v-40.913z" transform="scale(.19528) rotate(.28 1346935.09 69519.61)"/><path fill="url(#y)" stroke-width="1.058" d="M42.098 1772.133h21.71v8.948h-21.71z" transform="matrix(.73805 .0036 -.0036 .73805 69.404 -1283.809)"/><path fill="url(#z)" stroke-width="1.058" d="M42.095 1781.084h21.783v17.705H42.095z" transform="matrix(.73805 .0036 -.0036 .73805 69.404 -1283.809)"/></g></g><g style="line-height:1.25" fill="#1168be" stroke="#696666" stroke-linecap="round" stroke-linejoin="round" stroke-width="3.776" font-family="sans-serif" font-size="20.529" font-weight="400" letter-spacing="0" word-spacing="0"><path fill="url(#A)" d="M1979.491-231.018l80.875-57.486v121.93l-80.875 60.808z" transform="matrix(.13882 0 0 .13882 -199.28 77.204)"/><path fill="#ffd100" stroke-width=".5241843199999999" d="M45.577 27.923l13.27-5.211 27.892 14.442-11.227 7.98z"/><path fill="url(#B)" d="M1823.918-426.322l78.643-34.692 76.564 36.193-87.188 37.666-68.02-39.167" transform="matrix(.13882 0 0 .13882 -199.28 77.204)"/><path fill="url(#C)" d="M1763.85-355.004l60.068 34.588v-105.906l68.02 39.167v105.721l87.553 50.416v125.252l-217.9-150.143z" transform="matrix(.13882 0 0 .13882 -199.28 77.204)"/><path fill="url(#D)" d="M1891.937-387.155l87.188-37.666 3.165 99.617-90.353 43.77z" transform="matrix(.13882 0 0 .13882 -199.28 77.204)"/></g></svg>