<svg xmlns="http://www.w3.org/2000/svg" xmlns:xlink="http://www.w3.org/1999/xlink" viewBox="0 0 50.753 46.422"><defs><marker id="c" orient="auto" overflow="visible" refX="0" refY="0"><path fill="#0617b0" fill-rule="evenodd" stroke="#0617b0" stroke-width="1.0664" d="M10 0l4-4L0 0l14 4z"/></marker><marker id="d" orient="auto" overflow="visible" refX="0" refY="0"><path fill="#0617b0" fill-rule="evenodd" stroke="#0617b0" stroke-width="1.0664" d="M-10 0l-4 4L0 0l-14-4z"/></marker><linearGradient id="e" x1="1813.324" x2="1833.511" y1="-397.491" y2="-397.491" gradientTransform="matrix(.2996 0 0 .29881 -697.973 1188.518)" gradientUnits="userSpaceOnUse" xlink:href="#a"/><linearGradient id="a" x1="301.8" x2="288.56" y1="267.55" y2="839.03" gradientTransform="translate(0 73.469)" gradientUnits="userSpaceOnUse"><stop offset="0" stop-color="#ffdc10"/><stop offset=".395" stop-color="#f4b908"/><stop offset=".75" stop-color="#eea704"/><stop offset="1" stop-color="#c68000"/></linearGradient><linearGradient id="f" x1="1776.666" x2="1815.079" y1="-450.134" y2="-450.134" gradientTransform="matrix(.2996 0 0 .29881 -697.973 1188.518)" gradientUnits="userSpaceOnUse" xlink:href="#a"/><linearGradient id="g" x1="1761.624" x2="1814.324" y1="-413.855" y2="-413.855" gradientTransform="matrix(.2996 0 0 .29881 -697.973 1188.518)" gradientUnits="userSpaceOnUse" xlink:href="#b"/><linearGradient id="b" x1="181.75" x2="148.84" y1="231.55" y2="781.62" gradientTransform="translate(0 73.469)" gradientUnits="userSpaceOnUse"><stop offset="0" stop-color="#ffdc10"/><stop offset=".362" stop-color="#f4b908"/><stop offset=".75" stop-color="#eea704"/><stop offset="1" stop-color="#da9302"/></linearGradient><linearGradient id="h" x1="1792.553" x2="1814.998" y1="-434.589" y2="-434.589" gradientTransform="matrix(.2996 0 0 .29881 -697.973 1188.518)" gradientUnits="userSpaceOnUse" xlink:href="#a"/></defs><g fill="none"><path stroke="#757575" stroke-width="1.407672" d="M20.284 45.986l9.465-11.98M.552 30.396l9.466-11.98"/><path stroke="#0617b0" stroke-miterlimit=".9" stroke-width=".692" marker-end="url(#d)" marker-start="url(#c)" d="M325.464-65.816l20.907 22.899" transform="scale(-.7448) rotate(-9.291 204.884 2123.357)"/><path stroke="#0617b0" stroke-width="1.407672" d="M18.244 39.209l-10.256-8.34"/></g><g stroke="#696666" stroke-width=".269"><path fill="url(#e)" d="M-154.54 1067.33l5.748-4.086v8.666l-5.748 4.322z" transform="translate(236.669 -1407.006) scale(1.33894)"/><path fill="#ffd100" stroke-width=".36017486000000004" d="M9.227 10.287l9.097-3.573 19.122 9.901-7.697 5.471z"/><path fill="url(#f)" d="M-165.598 1053.448l5.59-2.466 5.442 2.572-6.197 2.678-4.835-2.784" transform="translate(236.669 -1407.006) scale(1.33894)"/><path fill="url(#g)" d="M-169.867 1058.517l4.27 2.458v-7.527l4.834 2.784v7.514l6.223 3.583v8.903l-15.488-10.672z" transform="translate(236.669 -1407.006) scale(1.33894)"/><path fill="url(#h)" d="M-160.763 1056.232l6.197-2.678.225 7.081-6.422 3.111z" transform="translate(236.669 -1407.006) scale(1.33894)"/></g><path fill="#999" stroke="#333" stroke-linecap="square" stroke-linejoin="bevel" stroke-width="1.056" d="M40.72 19.404c-.493 0-.987.063-1.459.136-.075 1.21-.265 2.392-1.27 2.808-1.005.417-1.95-.302-2.862-1.107a9.68 9.68 0 0 0-2.106 2.08c.808.913 1.552 1.852 1.134 2.862-.417 1.008-1.619 1.195-2.835 1.27-.074.477-.108.96-.108 1.457 0 .505.032 1.002.108 1.486 1.216.074 2.418.207 2.835 1.215.418 1.01-.325 2.003-1.134 2.917.58.79 1.315 1.474 2.106 2.052.909-.802 1.86-1.496 2.863-1.08 1.008.417 1.195 1.592 1.27 2.808a9.608 9.608 0 0 0 2.889 0c.074-1.216.26-2.39 1.269-2.808 1.003-.415 1.954.278 2.862 1.08.791-.578 1.528-1.262 2.107-2.052-.809-.914-1.553-1.908-1.134-2.917.417-1.008 1.646-1.14 2.862-1.215.076-.484.108-.98.108-1.486 0-.498-.034-.98-.108-1.458-1.216-.074-2.445-.26-2.862-1.269-.419-1.01.325-1.949 1.134-2.862a9.68 9.68 0 0 0-2.107-2.08c-.91.805-1.856 1.524-2.862 1.107-1.004-.416-1.194-1.597-1.27-2.808-.472-.072-.938-.136-1.43-.136zm0 6.4a3.103 3.103 0 0 1 3.105 3.106 3.102 3.102 0 0 1-3.106 3.105c-1.717 0-3.132-1.388-3.132-3.105 0-1.718 1.415-3.106 3.132-3.106z" color="#000"/></svg>