<svg xmlns="http://www.w3.org/2000/svg" xmlns:xlink="http://www.w3.org/1999/xlink" viewBox="0 0 203.75 139.493"><defs><linearGradient id="f" x1="-108.12" x2="-103.612" y1="457.759" y2="457.759" gradientTransform="matrix(3.61348 0 0 3.61348 282.57 -1190.958)" gradientUnits="userSpaceOnUse" xlink:href="#a"/><linearGradient id="a"><stop stop-color="#eee"/><stop offset="1" stop-color="#d2d2d2"/></linearGradient><linearGradient id="g" x1="-104.335" x2="-104.334" y1="458.468" y2="458.78" gradientTransform="matrix(11.1786 0 0 11.2785 1066.63 -4714.82)" gradientUnits="userSpaceOnUse" xlink:href="#b"/><linearGradient id="b"><stop offset="0" stop-color="#616c82"/><stop offset=".522" stop-color="#7f83a5"/><stop offset="1" stop-color="#667086"/></linearGradient><radialGradient id="h" cx="-107.006" cy="457.498" r=".508" fx="-107.006" fy="457.498" gradientTransform="matrix(3.61348 0 0 3.32217 282.57 -1057.684)" gradientUnits="userSpaceOnUse" xlink:href="#c"/><linearGradient id="c"><stop offset="0" stop-color="#ecc80e"/><stop offset="1" stop-color="#b98915"/></linearGradient><radialGradient id="i" cx="-107.013" cy="458.733" r=".405" fx="-107.013" fy="458.733" gradientTransform="matrix(3.61348 0 0 3.61348 282.57 -1190.958)" gradientUnits="userSpaceOnUse" xlink:href="#d"/><linearGradient id="d"><stop offset="0" stop-color="#e7e7e9"/><stop offset="1" stop-color="#8b8c8d"/></linearGradient><linearGradient id="j" x1="-106.163" x2="-104.451" y1="457.539" y2="457.539" gradientTransform="matrix(3.61348 0 0 3.61348 282.57 -1190.958)" gradientUnits="userSpaceOnUse" xlink:href="#e"/><linearGradient id="e" x1="-20.357" x2="88.143" y1="553.58" y2="823.08" gradientTransform="translate(-173.746 -27.274)" gradientUnits="userSpaceOnUse"><stop offset="0" stop-color="#a6ddfb"/><stop offset="1" stop-color="#72cccf"/></linearGradient><linearGradient id="k" x1="252.8" x2="246" y1="272.54" y2="287.94" gradientTransform="matrix(.60251 0 0 .62069 -115.84 356.63)" gradientUnits="userSpaceOnUse"><stop offset="0" stop-color="#fff"/><stop offset="1" stop-color="#fff" stop-opacity="0"/></linearGradient><radialGradient id="l" cx="399.12" cy="310.91" r="224.76" gradientTransform="matrix(.66047 .72564 -.39418 .38076 -11.887 158.92)" gradientUnits="userSpaceOnUse"><stop offset="0" stop-color="#ffb481"/><stop offset="1" stop-color="#da8044"/></radialGradient><linearGradient id="m" x1="579.9" x2="487.48" y1="418.87" y2="462.37" gradientTransform="matrix(.60251 0 0 .62069 -115.84 356.63)" gradientUnits="userSpaceOnUse"><stop offset="0" stop-color="#b46734"/><stop offset="1" stop-color="#b46734" stop-opacity="0"/></linearGradient><linearGradient id="n" x1="585.34" x2="346.13" y1="233.12" y2="423.4" gradientTransform="matrix(.60251 0 0 .62069 -115.84 356.63)" gradientUnits="userSpaceOnUse"><stop offset="0" stop-color="#fff" stop-opacity=".396"/><stop offset="1" stop-color="#fff" stop-opacity="0"/></linearGradient><linearGradient id="o" x1="545.92" x2="537.77" y1="342.31" y2="362.7" gradientTransform="matrix(.60251 0 0 .62069 -115.84 356.63)" gradientUnits="userSpaceOnUse"><stop offset="0" stop-color="#fff"/><stop offset="1" stop-color="#fff" stop-opacity="0"/></linearGradient><filter id="p" width="1.494" height="1.943" x="-.247" y="-.471" color-interpolation-filters="sRGB"><feGaussianBlur stdDeviation="2.936"/></filter><filter id="q" width="2.113" height="1.78" x="-.556" y="-.39" color-interpolation-filters="sRGB"><feGaussianBlur stdDeviation="2.479"/></filter><linearGradient id="r" x1="425.75" x2="421.26" y1="307.22" y2="327.72" gradientTransform="matrix(.60251 0 0 .62069 -115.84 356.63)" gradientUnits="userSpaceOnUse"><stop offset="0" stop-color="#fff"/><stop offset="1" stop-color="#fff" stop-opacity="0"/></linearGradient></defs><path fill="#35a93a" d="M67.827 17.418v15.346h9.434v9.206h-9.434v6.14h9.434v9.207h-9.434v6.14h9.434v9.206h-9.434v6.14h9.434v9.207h-9.434v15.346h44.02a3.144 3.07 0 0 0 3.144-3.068V20.486a3.144 3.07 0 0 0-3.144-3.068zM83.55 32.764h22.01v9.207H83.55zm0 15.347h22.01v9.206H83.55zm0 15.346h22.01v9.206H83.55zm0 15.346h22.01v9.207H83.55z"/><path fill="#0f6d13" d="M67.828 120.773L0 105.605V15.168L67.828 0z"/><text x="-157.267" y="285.804" style="line-height:1.25" stroke-width=".318" font-family="sans-serif" font-size="12.714" font-weight="400" letter-spacing="0" transform="matrix(4.80714 0 0 4.80714 766.119 -1291.02)" word-spacing="0"><tspan style="-inkscape-font-specification:'sans-serif Bold'" x="-157.267" y="285.804" fill="#fff" font-weight="700">X</tspan></text><g fill="none" stroke-width=".794"><path fill="url(#f)" stroke="#292e51" stroke-linecap="round" stroke-width=".669" d="M-107.786 456.032h15.621v14.227h-15.621z" transform="translate(530.435 -1888.505) scale(4.22408)"/><path fill="url(#g)" stroke="#292e51" stroke-linecap="round" stroke-width=".669" d="M-107.786 456.032h15.621v3.487h-15.621z" transform="translate(530.435 -1888.505) scale(4.22408)"/><path fill="url(#h)" stroke="#8e8f8f" stroke-linecap="round" stroke-width=".268" d="M-105.795 460.65h3.403v3.107h-3.403z" transform="translate(530.435 -1888.505) scale(4.22408)"/><path fill="url(#i)" stroke="#8e8f8f" stroke-linecap="round" stroke-width=".268" d="M-105.45 465.335h2.663v2.663h-2.663z" transform="translate(530.435 -1888.505) scale(4.22408)"/><path fill="url(#j)" stroke="#8e8f8f" stroke-linecap="round" stroke-width=".268" d="M-100.913 461.143h5.917v2.416h-5.917z" transform="translate(530.435 -1888.505) scale(4.22408)"/><path stroke="#8e8f8f" stroke-width="1.49532432" d="M103.457 82.676h25.293"/></g><g><path d="M128.627 83.028c1.29 1.488 2.493 3.119 3.836 4.52 2.704.758 5.406 1.52 8.11 2.274.278-1.036.411-2.231-.14-3.202 1.665.12 3.235-.53 4.733-1.19-5.713-1.001-11.423-2.016-17.122-3.106l.583.703z"/><path fill="#ffb380" d="M129.16 82.885l3.676 4.419 7.792 2.186c.037-.156.072-.318.1-.492.129-.845.082-1.855-.594-2.551l-.169-.174.24.04c1.354.207 2.655-.107 3.72-.525.129-.053.253-.106.374-.152l-8.399-1.484-6.74-1.262z"/><path fill="#ffe8d8" d="M132.757 87.01l-.577-1.935.36-.149v-.52l.99-.604-4.312-.885z"/><path d="M129.874 83.885s1.736-.737.613-.894c-1.124-.157-1.737-.315-1.737-.315z"/><path fill="#b2632e" d="M135.79 86.787l-3.466-.669.506 1.116 2.31.67z"/><path fill="#ffa162" d="M136.369 84.776l-3.395-.521.94-.52 3.321.595z"/><path fill="url(#k)" d="M28.832 528.61l10.1 2.247-4.095 4.782-8.461-2.253 1.91-1.69z" transform="matrix(.26458 0 0 .26458 125.49 -55.455)"/><g><path fill="#482915" d="M149.007 71.534c-2.018-.12-2.997 2.064-4.068 3.42-2.236 2.814-5.196 4.949-7.744 7.46-.383.674-.323 1.602-1.056 2.027-1.229 1.704-2.246 3.607-3.863 4.988-1.721 1.703-4.082 2.55-3.67 5.224.462 2.506 3.336 5.008 5.073 6.483 2.841 2.247 6.972 3.38 9.144 6.384 3.458 5.346 5.142 10.981 10.594 14.506 2.715 1.221 8.641 2.087 12.734 4.514 2.407 2.148 5.763 9.249 8.186 11.358 2.347 1.531 2.558 1.584 5.223 1.595 7.588-.192 15.21-1.367 22.377-3.958 1.264-.562 2.355-2.216 1.52-3.582-1.435-2.617-4.05-4.155-6.171-6.119-2.634-2.14-5.014-4.607-6.962-7.42-3.11-3.632-6.009-7.586-7.775-12.11-1.543-4.514-2.56-9.213-3.73-13.854-1.081-4.477-2.018-9.02-3.394-13.403-1.433-2.676-5.128-3.794-7.682-2.18-5.564-1.72-11.303-2.999-16.769-5.082-.64-.167-1.303-.279-1.967-.251zm2.366 13.533c.84.504 2.115.533 2.362 1.682.527.783.708 1.876.01 2.624-1.289 2.393-4.112 3.416-6.646 2.977-.815-.12-1.88-.352-2.451-.71 2.845-1.428 4.55-4.272 6.57-6.656l.143.08.012.005z"/><path fill="#b46734" d="M148.713 72.468c-1.639.011-2.116 1.95-3.108 2.932-2.178 2.647-4.736 4.9-7.383 7.024-.441.474-.819 1.159-.633 1.822-1.441.813-1.805 2.663-2.979 3.777-1.476 2.013-3.762 3.492-4.678 5.907-.561 1.602 2.365 3.324 3.801 4.166 3.377 2.788 7.551 4.819 10.682 7.88 2.941 4.245 2.616 7.616 6.05 11.452 4.381 5.258 16.327 5.072 18.368 7.134 4.007 4.868 5.926 12.177 10.395 13.033 6.728 1.29 13.291-.267 19.863-2.194 1.256-.415 2.896-.756 3.524-2.067.156-1.353-1.162-2.28-1.92-3.182-3.548-3.403-7.835-6.04-10.527-10.286-2.026-2.522-4.289-4.834-5.786-7.748-1.613-2.447-3.007-5.07-3.667-7.978-2.323-7.967-3.97-16.154-6.072-24.19-1.026-2.64-4.653-3.838-6.895-2.068-5.332-1.731-10.865-2.765-16.074-4.872-.953-.314-1.944-.601-2.96-.541zm2.665 8.996c1.178.701 2.496 1.135 3.781 1.602.756 2.08 1.776 4.494.673 6.64-1.788 3.829-6.622 5.197-10.347 3.937-1.588-.477-3.057-1.304-4.36-2.33 0-1.777-.194-3.576-.816-5.24 1.97.755 4.173.323 5.953-.708 1.9-.956 3.65-2.288 5.007-3.967z"/><path fill="url(#l)" d="M195.79 720s-18.304-48.445-22.896-53.965c-10.118-12.162-57.939 2.842-73.225-17.97-15.284-20.81-17.807-36.578-22.175-41.64-4.367-5.061-38.029-25.893-46.218-32.642-8.189-6.749-11.722-11.711-6.809-16.772 4.914-5.062 14.74-15.747 18.016-21.934 3.276-6.186 8.19-8.436 11.465 1.126 3.276 9.561-6.499 13.103-6.499 13.103 0 3.862 27.244 25.828 47.99 17.267 19.913-8.217 26.205-22.496 22.383-33.744l-3.821-11.248s-15.286-5.062-16.924-7.873c-9.281 12.935-25.66 20.246-32.21 20.246-6.552 0-13.648-3.374-16.378-6.187-2.73-2.81 4.913-7.874 9.826-11.81 4.914-3.937 21.291-20.247 24.021-25.87 2.73-5.625 7.643-5.625 23.475.563 15.832 6.186 51.863 14.06 54.593 16.309 5.46-6.75 20.745-4.5 24.021 8.436 3.276 12.935 21.291 93.92 27.842 105.17 6.552 11.248 13.648 24.746 23.475 35.43 9.827 10.687 6.552 9.562 17.47 21.372 10.92 11.81 33.302 25.87 36.031 34.869-26.752 1.121-81.137 21.369-93.454 7.764z" transform="matrix(.26458 0 0 .26458 125.49 -55.455)"/><path fill="#b46734" d="M140.774 91.547s-2.246.052-3.216-2.321c.938-2.827 1.555-4.375 1.988-3.556.434.818 1.662 4.538 1.228 5.877zM151.246 80.686s-.867-1.265-1.3-2.678c-1.95 3.571-10.183 6.844-10.833 6.919 2.816 1.19 1.733 1.19 3.9.967 1.847-.19 5.2-1.265 8.233-5.208z"/><path fill="#b46734" d="M155.782 97.05c4.807-1.036 8.03-5.789 5.72-10.488-1.32-2.688-5.633-10.714-4.983-7.142.65 3.571-.722 2.306-.722 2.306l-5.345-2.306s.29 1.636 1.3 2.009c1.012.372 3.828 1.19 3.828 1.19s1.589 3.794 1.156 5.134c-.434 1.339-3.178 5.356-4.334 5.729-1.155.372-8.443.195-8.443.195 3.31 1.163 3.677 5.13 11.823 3.374z"/><path fill="url(#m)" d="M160.95 513.7s-7.097-8.999-12.01-2.81c-4.913 6.186.546 10.686.546 10.686s36.031 94.483 40.399 107.98c4.367 13.498 13.102 28.12 20.745 34.869 7.643 6.748 46.404 50.053 50.226 51.74 3.821 1.69 29.658.538 28.934-3.936-1.092-6.749-24.294-24.746-30.299-30.37-6.005-5.624-21.564-21.934-31.391-35.994-9.827-14.06-17.743-28.963-19.926-38.524-2.184-9.56-21.564-83.517-22.656-88.578-1.092-5.062-3.276-11.811-9.827-11.811s-14.74-1.121-14.74 6.749z" transform="matrix(.26458 0 0 .26458 125.49 -55.455)"/><path fill="url(#n)" d="M102.53 581.75s26.751-.563 32.756-19.122c6.005-18.559 13.648-37.119 18.016-12.373 4.367 24.746 25.659 75.362 30.026 87.172 4.367 11.81-26.751-6.748-41.491-20.809-14.74-14.06-64.966-33.181-39.307-34.869z" opacity=".612" transform="matrix(.26458 0 0 .26458 125.49 -55.455)"/><path fill="#6f3f20" d="M139.907 85.893s1.987 2.57 1.416 5.621c-.939-.149-3.777-1.354-3.85-2.098-.072-.744 1.145-3.672 1.434-3.895-.722-.744-.805-.893-.805-.893l.144-.52s1.084 1.116 1.95 1.116c.867 0 4.406-.818 5.561-1.19 1.156-.373 1.517.818 1.517.818s-1.661 1.265-3.828 1.265c-1.372 0-3.539-.224-3.539-.224z"/><path d="M147.56 92.372s6.516 4.587 7.18 5.518c11.412 9.741 25.68 17.02 36.563 22.07-2.541-3.339-7.714-9.64-8.376-12.63-2.925-.133-20.741-11.567-22.07-11.966-1.33-.4-5.319-2.128-5.319-2.128s-4.997-.572-5.584-.664c-1.263-.2-2.393-.2-2.393-.2z" opacity=".453"/></g><g transform="matrix(.26458 0 0 .26458 125.49 -55.455)"><path d="M74.568 533.78c-5.974 3.132-13.256 1.629-19.718.885 3.309 4.555 3.57 10.974 4.199 16.196 62.318 17.483 123.47 34.203 185.79 51.672 16.582-7.87 23.889-18.705 17.308-37.508-62.51-11.2-122.8-20.94-185.33-32z"/><path fill="#ffb380" d="M72.311 535.07c-6.169 1.765-11.578-.593-17.623-.875 1.681 2.398 4.412 11.466 3.96 13.881l184.52 48.156s25.037-7.386 13.456-27.27c-21.96-3.99-139.35-25.95-184.32-33.89z"/><path d="M212.71 557.84c-11.316.704-15.781 7.177-17.24 13.262-1.775 7.405 1.154 12.266 5.233 17.559l43.878 12.157s27.383-14.642 15.802-34.526c-6.808-1.237-24.629-4.364-47.673-8.452z"/><path fill="#d35f5f" d="M245.63 598.35c2.844 1.55 24.755-11.801 14.113-30.703-23.071-.708-15.48 25.67-14.113 30.703z"/><path fill="#de8787" d="M224.64 592.75l18.43 4.826s-7.497-24.779 9.059-30.57c-22.803-2.896-22.491-2.575-22.491-2.575s-12.807 8.367-4.998 28.32z"/><path fill="#b3b3b3" d="M222.14 591.79l-19.992-4.826s-14.369-18.665 5.935-26.71c17.493 2.895 19.68 3.539 19.68 3.539s-14.369 8.044-5.623 27.996z"/><path fill="#b2632e" d="M57.717 542.43l137.38 33.168s.196 5.45 4.564 10.23C174 579.079 58.68 548.356 58.68 548.356c.044-1.68-.57-3.952-.965-5.926z"/><path fill="#ffa162" d="M204.38 559.55L72.85 534.61s-3.857.578-15.628.402c14.194 2.81 140.85 29.015 140.85 29.015s.85-3.082 6.309-4.484z"/><path fill="url(#o)" d="M198.39 574.96l20.074 3.977s-.359-5.78 2.73-8.962c-11.967-2.388-20.873-3.464-20.873-3.464s-3.954 4.143-1.93 8.448z"/><path fill="#fff" d="M433.79 227.84l24.011 4.304s-.453-9.514 3.171-12.232c-14.724-.906-26.05-2.718-26.05-2.718s-4.757 6.342-1.132 10.647z" filter="url(#p)" opacity=".29" transform="matrix(.60251 0 0 .62069 -37.089 439.35)"/><ellipse cx="611.231" cy="358.313" fill="#fff" filter="url(#q)" opacity=".265" rx="4.485" ry="8.169" transform="matrix(.54496 .26473 -.25698 .5614 5.324 218.61)"/><path fill="url(#r)" d="M71.579 538.57l124.88 26.048s-3.088 6.363-3.088 8.352C184.878 571.18 60 541.354 60 541.354s2.123-4.771 11.58-2.785z"/></g></g></svg>