<svg xmlns="http://www.w3.org/2000/svg" xmlns:xlink="http://www.w3.org/1999/xlink" viewBox="0 0 85.421 103.506"><defs><linearGradient id="j" x1="26.076" x2="30.811" y1="26.697" y2="42.007" gradientTransform="matrix(.7618 0 0 .76224 441.387 169.293)" gradientUnits="userSpaceOnUse" xlink:href="#a"/><linearGradient id="a"><stop offset="0" stop-color="#fff"/><stop offset="1" stop-color="#fff" stop-opacity="0"/></linearGradient><linearGradient id="k" x1="35.997" x2="33.665" y1="40.458" y2="37.771" gradientTransform="matrix(.76224 0 0 .76224 441.517 169.293)" gradientUnits="userSpaceOnUse" xlink:href="#b"/><linearGradient id="b" x1="35.997" x2="33.665" y1="40.458" y2="37.771" gradientTransform="translate(6.162 4.033)" gradientUnits="userSpaceOnUse"><stop offset="0" stop-color="#7c7c7c"/><stop offset="1" stop-color="#b8b8b8"/></linearGradient><linearGradient id="l" x1="33.396" x2="34.17" y1="36.921" y2="38.07" gradientTransform="matrix(.76224 0 0 .76224 441.517 169.007)" gradientUnits="userSpaceOnUse" xlink:href="#c"/><linearGradient id="c" x1="33.396" x2="34.17" y1="36.921" y2="38.07" gradientTransform="translate(6.162 3.658)" gradientUnits="userSpaceOnUse"><stop offset="0" stop-color="#fff"/><stop offset="1" stop-color="#fff" stop-opacity="0"/></linearGradient><linearGradient id="m" x1="92.186" x2="119.104" y1="33.465" y2="26.565" gradientTransform="translate(-13.788 -19.1)" gradientUnits="userSpaceOnUse" xlink:href="#d"/><linearGradient id="d"><stop offset="0" stop-color="#62b01e"/><stop offset="1" stop-color="#44880c"/></linearGradient><linearGradient id="n" x1="78.397" x2="107.696" y1="14.365" y2="9.879" gradientUnits="userSpaceOnUse" xlink:href="#e"/><linearGradient id="e"><stop offset="0" stop-color="#ca3131"/><stop offset="1" stop-color="#af3333"/></linearGradient><linearGradient id="p" x1="-108.12" x2="-103.612" y1="457.759" y2="457.759" gradientTransform="matrix(15.23463 0 0 16.68114 947.063 -6731.805)" gradientUnits="userSpaceOnUse" xlink:href="#f"/><linearGradient id="f"><stop stop-color="#eee"/><stop offset="1" stop-color="#d2d2d2"/></linearGradient><linearGradient id="q" x1="-104.335" x2="-104.334" y1="458.468" y2="458.78" gradientTransform="matrix(47.2193 0 0 47.64129 4262.067 -20970.865)" gradientUnits="userSpaceOnUse" xlink:href="#g"/><linearGradient id="g"><stop offset="0" stop-color="#616c82"/><stop offset=".522" stop-color="#7f83a5"/><stop offset="1" stop-color="#667086"/></linearGradient><radialGradient id="r" cx="-107.006" cy="457.498" r=".508" fx="-107.006" fy="457.498" gradientTransform="matrix(11.94548 0 0 12.02838 594.782 -4606.392)" gradientUnits="userSpaceOnUse" xlink:href="#h"/><linearGradient id="h"><stop offset="0" stop-color="#ecc80e"/><stop offset="1" stop-color="#b98915"/></linearGradient><radialGradient id="s" cx="-107.013" cy="458.733" r=".405" fx="-107.013" fy="458.733" gradientTransform="matrix(15.26365 0 0 15.26365 949.761 -6090.56)" gradientUnits="userSpaceOnUse" xlink:href="#i"/><linearGradient id="i"><stop offset="0" stop-color="#e7e7e9"/><stop offset="1" stop-color="#8b8c8d"/></linearGradient><radialGradient id="t" cx="-107.013" cy="458.733" r=".405" fx="-107.013" fy="458.733" gradientTransform="matrix(15.26365 0 0 15.26365 949.81 -6075.854)" gradientUnits="userSpaceOnUse" xlink:href="#i"/><linearGradient id="o" x1="78.397" x2="107.696" y1="14.365" y2="9.879" gradientUnits="userSpaceOnUse" xlink:href="#e"/></defs><g transform="matrix(1.64648 0 0 1.64648 -701.037 -286.227)"><path fill="#ffffab" fill-rule="evenodd" stroke="#888a85" stroke-width=".762" d="M448.31 174.223h22.757c.241 0 .435.193.435.432v20.708c0 1.888-5.244 6.33-7.065 6.33H448.31a.432.432 0 0 1-.435-.434v-26.604c0-.24.194-.432.435-.432z"/><rect width="22.103" height="25.947" x="448.638" y="174.984" fill="none" stroke="url(#j)" stroke-width=".762" rx="0" ry="0"/><path fill="url(#k)" fill-rule="evenodd" stroke="#868a84" stroke-width=".762" d="M464.43 201.69c1.547.252 7.309-3.452 7.076-6.477-1.191 1.847-3.626.981-6.758 1.102 0 0 .3 4.995-.318 5.376z" color="#000"/><path fill="none" stroke="url(#l)" stroke-width=".762" d="M465.535 200.02c1.044-.52 3.376-1.636 4.366-3.07-1.217.519-2.247.16-4.346.145 0 0 .123 2.334-.02 2.925z" color="#000" opacity=".369"/><path fill-rule="evenodd" d="M452.065 180.726h16.007v1.524h-16.007zM452.065 183.775h15.239v1.524h-15.239zM452.065 186.824h13.703v1.524h-13.703zM452.065 189.873h16.007v1.524h-16.007z" color="#000" opacity=".17"/></g><path fill="url(#m)" fill-rule="evenodd" stroke="#57705d" stroke-linecap="round" stroke-linejoin="round" stroke-width=".452" d="M107.47-2.367c-7.89 17.304-21.247 13.233-21.374 13.233V5.14l-7.699 9.225 7.762 7.76v-5.788s18.511 4.326 21.311-18.704z" transform="matrix(-1.18057 .45288 -.43529 -1.11319 128.404 -1.684)"/><path fill="url(#o)" fill-rule="evenodd" stroke="#57705d" stroke-linecap="round" stroke-linejoin="round" stroke-width=".452" d="M107.47-2.367c-7.89 17.304-21.247 13.233-21.374 13.233V5.14l-7.699 9.225 7.762 7.76v-5.788s18.511 4.326 21.311-18.704z" transform="matrix(1.15006 -.52556 .5038 1.0839 -39.07 95.38)"/><path fill="url(#p)" stroke="#292e51" stroke-linecap="round" stroke-width="2.95" d="M-698.695 871.295h65.86v65.675h-65.86z" transform="matrix(.71102 0 0 .71102 497.834 -563.746)"/><path fill="url(#q)" stroke="#292e51" stroke-linecap="round" stroke-width="2.825" d="M-698.758 871.233h65.986v14.728h-65.986z" transform="matrix(.71102 0 0 .71102 497.834 -563.746)"/><path fill="url(#r)" stroke="#8e8f8f" stroke-linecap="round" stroke-width=".925" d="M-689.078 890.945h11.248v11.248h-11.248z" transform="matrix(.71102 0 0 .71102 497.834 -563.746)"/><path fill="url(#s)" stroke="#8e8f8f" stroke-linecap="round" stroke-width="1.13" d="M-689.265 905.756h11.248v11.248h-11.248z" transform="matrix(.71102 0 0 .71102 497.834 -563.746)"/><path fill="none" stroke="#8e8f8f" stroke-width="1.8813589199999998" d="M20.872 84.223h17.984"/><path fill="none" stroke="#087676" stroke-width="1.8813589199999998" d="M21.065 74.033h17.984"/><path fill="url(#t)" stroke="#8e8f8f" stroke-linecap="round" stroke-width="1.13" d="M-689.215 920.462h11.248v11.248h-11.248z" transform="matrix(.71102 0 0 .71102 497.834 -563.746)"/><path fill="none" stroke="#8e8f8f" stroke-width="1.8813589199999998" d="M20.908 94.68h17.984"/></svg>