<svg xmlns="http://www.w3.org/2000/svg" xmlns:xlink="http://www.w3.org/1999/xlink" viewBox="0 0 37.507 37.318"><defs><linearGradient id="a"><stop stop-color="#fff" stop-opacity=".679"/><stop offset="1" stop-opacity=".333"/></linearGradient><linearGradient id="b"><stop stop-color="#fff" stop-opacity=".8"/><stop offset="1" stop-color="#fff" stop-opacity="0"/></linearGradient><linearGradient id="c" x2="0" y1="3.1" y2="122.9" gradientUnits="userSpaceOnUse"><stop stop-color="#888a85"/><stop offset="1" stop-color="#babdb6"/></linearGradient><linearGradient id="d"><stop stop-color="#888a85"/><stop offset=".78" stop-color="#555753"/><stop offset="1" stop-color="#2e3436"/></linearGradient><linearGradient id="e"><stop stop-color="#2e3436"/><stop offset="1" stop-color="#2e3436" stop-opacity="0"/></linearGradient><linearGradient id="f"><stop stop-color="#eee"/><stop offset="1" stop-color="#d2d2d2"/></linearGradient><linearGradient id="g"><stop/><stop offset="1" stop-opacity=".536"/></linearGradient><marker id="p" orient="auto" overflow="visible" refX="0" refY="0"><path fill="#48985d" fill-rule="evenodd" stroke="#48985d" stroke-width=".5332" d="M4 0l2-2-7 2 7 2z"/></marker><marker id="o" orient="auto" overflow="visible" refX="0" refY="0"><path fill="#d32d2d" fill-rule="evenodd" stroke="#d32d2d" stroke-width=".5332" d="M4 0l2-2-7 2 7 2z"/></marker><radialGradient id="n" cx="24.034" cy="24" r="23.857" fx="24.034" fy="24" gradientTransform="matrix(.15037 0 0 .15037 75.513 147.033)" gradientUnits="userSpaceOnUse" xlink:href="#h"/><linearGradient id="h"><stop stop-color="#fff"/><stop offset="1" stop-color="#7c7c7c"/></linearGradient><radialGradient id="m" cx="24.034" cy="24" r="23.857" fx="24.034" fy="24" gradientTransform="matrix(.15037 0 0 .15037 71.817 141.376)" gradientUnits="userSpaceOnUse" xlink:href="#h"/><radialGradient id="l" cx="24.034" cy="24" r="23.857" fx="24.034" fy="24" gradientTransform="matrix(.31738 0 0 .31738 52.905 154.837)" gradientUnits="userSpaceOnUse" xlink:href="#i"/><linearGradient id="i"><stop stop-color="#fff"/><stop offset="1" stop-color="#3382ba"/></linearGradient><radialGradient id="k" cx="24.034" cy="24" r="23.857" fx="24.034" fy="24" gradientTransform="matrix(.31738 0 0 .31738 45.239 143.028)" gradientUnits="userSpaceOnUse" xlink:href="#h"/><radialGradient id="j" cx="24.034" cy="24" r="23.857" fx="24.034" fy="24" gradientTransform="matrix(.31738 0 0 .31738 57.056 135.23)" gradientUnits="userSpaceOnUse" xlink:href="#h"/></defs><path fill="url(#j)" stroke="#0f260f" stroke-width=".12" d="M64.686 135.276c-.437 0-.865.04-1.282.11l-.203 2.154c-.43.12-.838.288-1.22.503l-1.664-1.375a7.607 7.607 0 0 0-1.816 1.812l1.378 1.665a5.48 5.48 0 0 0-.506 1.22l-2.15.203a7.599 7.599 0 0 0 0 2.564l2.15.203c.12.43.292.838.506 1.22l-1.374 1.664a7.615 7.615 0 0 0 1.809 1.812l1.667-1.378c.382.215.789.386 1.22.506l.203 2.154c.417.07.845.107 1.282.107.437 0 .862-.036 1.278-.107l.204-2.154a5.46 5.46 0 0 0 1.22-.506l1.667 1.378a7.617 7.617 0 0 0 1.809-1.812l-1.375-1.665c.215-.38.387-.79.507-1.22l2.15-.203c.071-.417.11-.844.11-1.281 0-.437-.04-.866-.11-1.282l-2.15-.204a5.48 5.48 0 0 0-.507-1.22l1.378-1.664a7.611 7.611 0 0 0-1.816-1.812l-1.664 1.375a5.459 5.459 0 0 0-1.22-.503l-.203-2.154a7.585 7.585 0 0 0-1.278-.11zm0 4.69a2.881 2.881 0 0 1 2.88 2.884 2.881 2.881 0 1 1-5.764 0 2.884 2.884 0 0 1 2.884-2.884z" transform="translate(-45.235 -135.216)"/><path fill="url(#k)" stroke="#0f260f" stroke-width=".12" d="M52.869 143.073c-.437 0-.866.04-1.282.11l-.203 2.154c-.431.12-.839.288-1.22.503l-1.664-1.375a7.608 7.608 0 0 0-1.816 1.813l1.378 1.664a5.48 5.48 0 0 0-.507 1.22l-2.15.203a7.599 7.599 0 0 0 0 2.564l2.15.203c.12.43.292.839.507 1.22l-1.375 1.664a7.615 7.615 0 0 0 1.81 1.812l1.667-1.378c.381.215.789.386 1.22.506l.203 2.154c.416.07.845.107 1.282.107.436 0 .861-.036 1.278-.107l.203-2.154a5.46 5.46 0 0 0 1.22-.506l1.668 1.378a7.617 7.617 0 0 0 1.809-1.812l-1.375-1.665c.215-.38.386-.79.506-1.22l2.15-.203c.072-.417.11-.844.11-1.281 0-.437-.039-.865-.11-1.282l-2.15-.203a5.48 5.48 0 0 0-.506-1.22l1.378-1.664a7.612 7.612 0 0 0-1.816-1.813l-1.664 1.375a5.458 5.458 0 0 0-1.22-.503l-.203-2.153a7.585 7.585 0 0 0-1.279-.11zm0 4.69a2.881 2.881 0 0 1 2.88 2.884 2.881 2.881 0 1 1-5.764 0 2.884 2.884 0 0 1 2.884-2.884z" transform="translate(-45.235 -135.216)"/><path fill="url(#l)" stroke="#0f260f" stroke-width=".12" d="M60.535 154.882c-.437 0-.865.04-1.282.11l-.203 2.154c-.43.12-.838.288-1.22.503l-1.664-1.375a7.607 7.607 0 0 0-1.816 1.812l1.378 1.664a5.48 5.48 0 0 0-.506 1.22l-2.15.203a7.599 7.599 0 0 0 0 2.564l2.15.203c.12.43.292.84.506 1.22l-1.374 1.664a7.615 7.615 0 0 0 1.809 1.813l1.667-1.379c.382.216.789.387 1.22.507l.203 2.153c.417.071.845.107 1.282.107.437 0 .862-.036 1.278-.107l.204-2.153a5.46 5.46 0 0 0 1.22-.507l1.667 1.379a7.617 7.617 0 0 0 1.81-1.813l-1.376-1.664c.215-.38.387-.79.507-1.22l2.15-.203c.071-.417.11-.844.11-1.282 0-.437-.04-.865-.11-1.282l-2.15-.203a5.48 5.48 0 0 0-.507-1.22l1.379-1.664a7.612 7.612 0 0 0-1.816-1.812l-1.665 1.375a5.458 5.458 0 0 0-1.22-.503l-.203-2.154a7.585 7.585 0 0 0-1.278-.11zm0 4.69a2.881 2.881 0 0 1 2.88 2.883 2.881 2.881 0 1 1-5.764 0 2.884 2.884 0 0 1 2.884-2.884z" transform="translate(-45.235 -135.216)"/><path fill="url(#m)" stroke="#0f260f" stroke-width=".057" d="M75.431 141.397c-.206 0-.41.019-.607.052l-.096 1.02a2.587 2.587 0 0 0-.578.239l-.788-.651a3.604 3.604 0 0 0-.86.858l.652.789c-.102.18-.183.374-.24.578l-1.018.096a3.613 3.613 0 0 0 0 1.214l1.018.097c.057.204.138.397.24.578l-.651.788c.235.332.525.623.857.859l.79-.653c.18.102.374.183.578.24l.096 1.02a3.617 3.617 0 0 0 1.213 0l.096-1.02c.205-.057.397-.138.578-.24l.79.653c.333-.236.622-.527.857-.859l-.65-.788c.1-.18.182-.374.24-.578l1.018-.097a3.6 3.6 0 0 0 0-1.214l-1.019-.096a2.597 2.597 0 0 0-.24-.578l.653-.789a3.606 3.606 0 0 0-.86-.858l-.789.65a2.586 2.586 0 0 0-.578-.237l-.096-1.02a3.598 3.598 0 0 0-.606-.053zm0 2.222a1.365 1.365 0 1 1-1.366 1.366c0-.754.612-1.366 1.366-1.366z" transform="translate(-45.235 -135.216)"/><path fill="url(#n)" stroke="#0f260f" stroke-width=".057" d="M79.127 147.054c-.206 0-.41.019-.607.052l-.096 1.02a2.587 2.587 0 0 0-.578.239l-.788-.651a3.604 3.604 0 0 0-.86.858l.652.789c-.102.18-.183.374-.24.578l-1.018.096a3.614 3.614 0 0 0 0 1.214l1.018.097c.057.203.138.397.24.578l-.651.788c.235.332.525.623.857.859l.79-.653c.18.102.374.183.578.24l.096 1.02a3.617 3.617 0 0 0 1.213 0l.096-1.02c.205-.057.398-.138.578-.24l.79.653c.333-.236.622-.527.857-.859l-.65-.788c.1-.18.182-.375.24-.578l1.018-.097a3.6 3.6 0 0 0 0-1.214l-1.019-.096a2.595 2.595 0 0 0-.24-.578l.653-.789a3.606 3.606 0 0 0-.86-.858l-.789.65a2.586 2.586 0 0 0-.578-.237l-.096-1.02a3.598 3.598 0 0 0-.606-.053zm0 2.222a1.365 1.365 0 1 1-1.366 1.366c0-.754.612-1.366 1.366-1.366z" transform="translate(-45.235 -135.216)"/><path fill="none" stroke="#d32d2d" stroke-width=".65" marker-start="url(#o)" d="M66.606 154.172c4.169 4.093 5.937 9.145 1.155 13.989" transform="translate(-45.235 -135.216)"/><path fill="none" stroke="#48985d" stroke-width=".65" marker-start="url(#p)" d="M57.301 171.989c-5.287-2.485-8.626-6.668-5.714-12.82" transform="translate(-45.235 -135.216)"/></svg>