<svg xmlns="http://www.w3.org/2000/svg" xmlns:xlink="http://www.w3.org/1999/xlink" viewBox="0 0 89.157 72.669"><defs><linearGradient id="i" x1="138.92" x2="243.93" y1="604.86" y2="715.98" gradientTransform="translate(16.45 388.505) scale(.19525)" gradientUnits="userSpaceOnUse" xlink:href="#a"/><linearGradient id="a" x1="138.92" x2="243.93" y1="604.86" y2="715.98" gradientUnits="userSpaceOnUse"><stop offset="0" stop-color="#ffec67"/><stop offset="1" stop-color="#f29100"/></linearGradient><linearGradient id="j" x1="304.59" x2="153.01" y1="625.07" y2="735.65" gradientTransform="translate(16.45 388.505) scale(.19525)" gradientUnits="userSpaceOnUse" xlink:href="#b"/><linearGradient id="b" x1="304.59" x2="153.01" y1="625.07" y2="735.65" gradientUnits="userSpaceOnUse"><stop offset="0" stop-color="#ffec67" stop-opacity=".643"/><stop offset="1" stop-color="#f2b300"/></linearGradient><linearGradient id="k" x1="249.48" x2="272.03" y1="262.87" y2="427.54" gradientTransform="matrix(-.30163 .08082 -.08295 -.30957 402.86 730.11)" gradientUnits="userSpaceOnUse" xlink:href="#c"/><linearGradient id="c" x1="249.48" x2="272.03" y1="262.87" y2="427.54" gradientTransform="matrix(-.30163 .08082 -.08295 -.30957 402.86 730.11)" gradientUnits="userSpaceOnUse"><stop offset="0" stop-color="#fff"/><stop offset="1" stop-color="red"/></linearGradient><linearGradient id="l" x1="264.58" x2="380.68" y1="296.37" y2="553.74" gradientTransform="matrix(.31227 0 0 .32049 127.55 434.38)" gradientUnits="userSpaceOnUse" xlink:href="#d"/><linearGradient id="d" x1="264.58" x2="380.68" y1="296.37" y2="553.74" gradientTransform="matrix(.31227 0 0 .32049 127.55 434.38)" gradientUnits="userSpaceOnUse"><stop offset="0" stop-color="#fff"/><stop offset="1" stop-color="red"/></linearGradient><linearGradient id="e" x1="138.92" x2="243.93" y1="604.86" y2="715.98" gradientTransform="translate(16.45 388.505) scale(.19525)" gradientUnits="userSpaceOnUse" xlink:href="#a"/><linearGradient id="f" x1="304.59" x2="153.01" y1="625.07" y2="735.65" gradientTransform="translate(16.45 388.505) scale(.19525)" gradientUnits="userSpaceOnUse" xlink:href="#b"/><linearGradient id="g" x1="249.48" x2="272.03" y1="262.87" y2="427.54" gradientTransform="matrix(-.30163 .08082 -.08295 -.30957 402.86 730.11)" gradientUnits="userSpaceOnUse" xlink:href="#c"/><linearGradient id="h" x1="264.58" x2="380.68" y1="296.37" y2="553.74" gradientTransform="matrix(.31227 0 0 .32049 127.55 434.38)" gradientUnits="userSpaceOnUse" xlink:href="#d"/></defs><g fill-rule="evenodd" stroke="#9a7b08" stroke-width=".976"><path fill="url(#e)" d="M45.456 531.631l-3.366-26.998 11.242-.197.79 1.38h10.65l6.705 20.908" transform="matrix(1.15248 0 0 1.15248 -40.507 -580.783)"/><path fill="url(#f)" d="M45.733 531.082l25.941-4.358 7.299-19.13-24.457 1.183z" transform="matrix(1.15248 0 0 1.15248 -40.507 -580.783)"/></g><path fill="none" stroke="#888" stroke-dasharray="6 6" stroke-width="2" d="M28.272 32.376v16.137H41.37"/><path fill="red" fill-rule="evenodd" stroke="#cb0000" stroke-width=".94219168" d="M23.878 29.03a11.703 11.703 0 1 1-23.407 0 11.703 11.703 0 1 1 23.407 0z"/><path fill="url(#g)" fill-rule="evenodd" d="M264.19 668.93c19.05-5.1 34.17-17.66 43.23-33.82 14.71-34.82-40.17 46.7-85.49 31.89 13.17 4.83 27.81 5.8 42.26 1.93z" transform="matrix(.15256 0 0 .15256 -25.285 -62.608)"/><path fill="url(#h)" fill-rule="evenodd" d="M245.66 529.36c-39.44 0-71.44 32.85-71.44 73.32 0 5.48.6 10.81 1.71 15.94 39.21-75.47 81.45-27.96 135.91-43.55-10.64-26.8-36.26-45.71-66.18-45.71z" transform="matrix(.15256 0 0 .15256 -25.285 -62.608)"/><path fill="#fff" d="M15.512 35.033l-3.308-3.307-3.337 3.338-2.727-2.726 3.338-3.34-3.307-3.307 2.654-2.655 3.308 3.308 3.348-3.349 2.728 2.728-3.35 3.348 3.307 3.308-2.654 2.654" opacity=".735"/><path fill="#fff" d="M15.494 34.571L12.2 31.277l-3.32 3.32-2.273-2.275 3.32-3.318-3.294-3.293 2.214-2.214 3.292 3.294 3.329-3.328 2.273 2.273-3.328 3.328 3.293 3.293-2.212 2.214"/><g fill-rule="evenodd" stroke="#9a7b08" stroke-width=".976"><path fill="url(#i)" d="M45.456 531.631l-3.366-26.998 11.242-.197.79 1.38h10.65l6.705 20.908" transform="matrix(1.15248 0 0 1.15248 -2.69 -549.319)"/><path fill="url(#j)" d="M45.733 531.082l25.941-4.358 7.299-19.13-24.457 1.183z" transform="matrix(1.15248 0 0 1.15248 -2.69 -549.319)"/></g><g><path fill="red" fill-rule="evenodd" stroke="#cb0000" stroke-width=".94219168" d="M61.695 60.495a11.703 11.703 0 1 1-23.407 0 11.703 11.703 0 1 1 23.407 0z"/><path fill="url(#k)" fill-rule="evenodd" d="M264.19 668.93c19.05-5.1 34.17-17.66 43.23-33.82 14.71-34.82-40.17 46.7-85.49 31.89 13.17 4.83 27.81 5.8 42.26 1.93z" transform="matrix(.15256 0 0 .15256 12.533 -31.144)"/><path fill="url(#l)" fill-rule="evenodd" d="M245.66 529.36c-39.44 0-71.44 32.85-71.44 73.32 0 5.48.6 10.81 1.71 15.94 39.21-75.47 81.45-27.96 135.91-43.55-10.64-26.8-36.26-45.71-66.18-45.71z" transform="matrix(.15256 0 0 .15256 12.533 -31.144)"/><path fill="#fff" d="M53.329 66.498l-3.307-3.308-3.338 3.338-2.727-2.726 3.338-3.34-3.307-3.307 2.654-2.654 3.308 3.307 3.348-3.348 2.728 2.727-3.35 3.349 3.307 3.307-2.654 2.655" opacity=".735"/><path fill="#fff" d="M53.31 66.036l-3.293-3.294-3.32 3.32-2.273-2.275 3.32-3.318-3.294-3.294 2.214-2.213 3.292 3.293 3.329-3.327 2.273 2.273-3.327 3.327 3.292 3.294-2.212 2.214"/></g></svg>