<svg xmlns="http://www.w3.org/2000/svg" xmlns:xlink="http://www.w3.org/1999/xlink" viewBox="0 0 63.31 51.139"><defs><linearGradient id="a"><stop/><stop offset="1" stop-opacity=".536"/></linearGradient><radialGradient id="g" cx="-306.825" cy="368.842" r="79.152" fx="-306.825" fy="368.842" gradientTransform="matrix(.2056 0 0 .2056 164.606 92.497)" gradientUnits="userSpaceOnUse" xlink:href="#b"/><linearGradient id="b"><stop offset="0" stop-color="#c9fac7"/><stop offset="1" stop-color="#059200"/></linearGradient><filter id="f" width="1.491" height="2.736" x="-.245" y="-.868" color-interpolation-filters="sRGB"><feGaussianBlur stdDeviation="15.917"/></filter><radialGradient id="e" cx="-306.825" cy="368.842" r="79.152" fx="-306.825" fy="368.842" gradientTransform="matrix(.2056 0 0 .2056 150.912 88.496)" gradientUnits="userSpaceOnUse" xlink:href="#c"/><linearGradient id="c" x1="48.906" x2="50.988" y1="17.376" y2="22.251" gradientTransform="scale(1 -1) rotate(-89.699 22.753 -20.363)" gradientUnits="userSpaceOnUse"><stop offset="0" stop-color="#ffd1d1"/><stop offset=".5" stop-color="#ff1d1d"/><stop offset="1" stop-color="#6f0000"/></linearGradient><filter id="d" width="1.491" height="2.736" x="-.245" y="-.868" color-interpolation-filters="sRGB"><feGaussianBlur stdDeviation="15.917"/></filter></defs><g transform="translate(-72.488 -146.707)"><ellipse cx="-591.608" cy="494.115" fill="#777" filter="url(#d)" paint-order="markers fill stroke" rx="77.829" ry="22.002" transform="matrix(.2132 0 0 .07621 223.357 151.87)"/><circle cx="96.598" cy="173.871" r="16.002" fill="url(#e)" paint-order="markers fill stroke"/><ellipse cx="-591.608" cy="494.115" fill="#777" filter="url(#f)" paint-order="markers fill stroke" rx="77.829" ry="22.002" transform="matrix(.2132 0 0 .07621 237.193 155.6)"/><circle cx="110.292" cy="177.872" r="16.002" fill="url(#g)" paint-order="markers fill stroke"/><path fill="#b21e00" d="M119.948 147.198a1.835 1.835 0 0 0-2.499 0l-4.13 3.908-4.132-3.908a1.835 1.835 0 0 0-2.498 0 1.605 1.605 0 0 0 0 2.364l4.13 3.907-4.13 3.907a1.605 1.605 0 0 0 0 2.364 1.835 1.835 0 0 0 2.498 0l4.131-3.908 4.131 3.908a1.835 1.835 0 0 0 2.5 0 1.605 1.605 0 0 0 0-2.364l-4.132-3.907 4.131-3.907a1.605 1.605 0 0 0 0-2.364z"/></g></svg>