<svg xmlns="http://www.w3.org/2000/svg" xmlns:xlink="http://www.w3.org/1999/xlink" viewBox="0 0 70.334 85.45"><defs><linearGradient id="w" x1="22.308" x2="35.785" y1="18.992" y2="39.498" gradientTransform="matrix(1.0672 0 0 .98928 4.392 4.035)" gradientUnits="userSpaceOnUse" xlink:href="#a"/><linearGradient id="a"><stop offset="0" stop-color="#f0f0ef"/><stop offset=".599" stop-color="#e8e8e8"/><stop offset=".828" stop-color="#fff"/><stop offset="1" stop-color="#d8d8d3"/></linearGradient><linearGradient id="x" x1="26.076" x2="30.811" y1="26.697" y2="42.007" gradientTransform="matrix(.99942 0 0 1 5.991 4.033)" gradientUnits="userSpaceOnUse" xlink:href="#b"/><linearGradient id="b"><stop offset="0" stop-color="#fff"/><stop offset="1" stop-color="#fff" stop-opacity="0"/></linearGradient><linearGradient id="y" x1="35.997" x2="33.665" y1="40.458" y2="37.771" gradientTransform="translate(6.162 4.033)" gradientUnits="userSpaceOnUse" xlink:href="#c"/><linearGradient id="c" x1="35.997" x2="33.665" y1="40.458" y2="37.771" gradientTransform="translate(6.162 4.033)" gradientUnits="userSpaceOnUse"><stop offset="0" stop-color="#7c7c7c"/><stop offset="1" stop-color="#b8b8b8"/></linearGradient><linearGradient id="z" x1="33.396" x2="34.17" y1="36.921" y2="38.07" gradientTransform="translate(6.162 3.658)" gradientUnits="userSpaceOnUse" xlink:href="#d"/><linearGradient id="d" x1="33.396" x2="34.17" y1="36.921" y2="38.07" gradientTransform="translate(6.162 3.658)" gradientUnits="userSpaceOnUse"><stop offset="0" stop-color="#fff"/><stop offset="1" stop-color="#fff" stop-opacity="0"/></linearGradient><linearGradient id="n" x1="92.186" x2="119.104" y1="33.465" y2="26.565" gradientTransform="translate(-13.788 -19.1)" gradientUnits="userSpaceOnUse" xlink:href="#e"/><linearGradient id="e"><stop offset="0" stop-color="#62b01e"/><stop offset="1" stop-color="#44880c"/></linearGradient><filter id="i"><feGaussianBlur stdDeviation="2.586"/></filter><radialGradient id="j" cx="81.79" cy="100.32" r="44.42" gradientTransform="matrix(2.0026 -1.59703 1.77733 2.2287 -279.236 23.704)" gradientUnits="userSpaceOnUse" xlink:href="#f"/><linearGradient id="f"><stop stop-color="#eee"/><stop offset="1" stop-color="#d2d2d2"/></linearGradient><radialGradient id="k" cx="89.51" cy="22.254" r="18.279" gradientTransform="matrix(1 0 0 .97468 0 .44)" gradientUnits="userSpaceOnUse" xlink:href="#g"/><linearGradient id="g"><stop/><stop offset="1" stop-opacity=".536"/></linearGradient><filter id="l" width="1.294" height="1.29" x="-.147" y="-.145"><feGaussianBlur stdDeviation="1.819"/></filter><linearGradient id="m" x1="98.33" x2="86.82" y1="14.793" y2="25.1" gradientTransform="matrix(.96715 0 0 .96715 .456 -.087)" gradientUnits="userSpaceOnUse" xlink:href="#h"/><linearGradient id="h"><stop/><stop offset="1" stop-color="#ddd" stop-opacity="0"/></linearGradient><linearGradient id="o" x1="22.308" x2="35.785" y1="18.992" y2="39.498" gradientTransform="matrix(1.0672 0 0 .98928 4.392 4.035)" gradientUnits="userSpaceOnUse" xlink:href="#a"/><linearGradient id="p" x1="26.076" x2="30.811" y1="26.697" y2="42.007" gradientTransform="matrix(.99942 0 0 1 5.991 4.033)" gradientUnits="userSpaceOnUse" xlink:href="#b"/><linearGradient id="q" x1="35.997" x2="33.665" y1="40.458" y2="37.771" gradientTransform="translate(6.162 4.033)" gradientUnits="userSpaceOnUse" xlink:href="#c"/><linearGradient id="r" x1="33.396" x2="34.17" y1="36.921" y2="38.07" gradientTransform="translate(6.162 3.658)" gradientUnits="userSpaceOnUse" xlink:href="#d"/><linearGradient id="s" x1="22.308" x2="35.785" y1="18.992" y2="39.498" gradientTransform="matrix(1.0672 0 0 .98928 4.392 4.035)" gradientUnits="userSpaceOnUse" xlink:href="#a"/><linearGradient id="t" x1="26.076" x2="30.811" y1="26.697" y2="42.007" gradientTransform="matrix(.99942 0 0 1 5.991 4.033)" gradientUnits="userSpaceOnUse" xlink:href="#b"/><linearGradient id="u" x1="35.997" x2="33.665" y1="40.458" y2="37.771" gradientTransform="translate(6.162 4.033)" gradientUnits="userSpaceOnUse" xlink:href="#c"/><linearGradient id="v" x1="33.396" x2="34.17" y1="36.921" y2="38.07" gradientTransform="translate(6.162 3.658)" gradientUnits="userSpaceOnUse" xlink:href="#d"/></defs><path d="M20.094 4.119v118h88.844V35.962l-.594-.625c.21.145.417.302.625.438L78.094 4.15c.056.08.1.17.156.25L78 4.119z" filter="url(#i)" opacity=".809" transform="matrix(.34095 0 0 .3424 -3.82 39.597)"/><path fill="url(#j)" d="M19.89 2.543v114.123h85.925V33.34L75.894 2.543z" transform="matrix(.35253 0 0 .35253 -3.982 39.813)"/><path fill="url(#k)" d="M81.698 28.31l.135-8.351c.068-6.6-.877-11.548-4.047-16.012l2.576-.031 27.5 25.615c-4.067-2.646-9.62-.791-16.861-1.026z" filter="url(#l)" opacity=".505" transform="matrix(.3582 0 0 .3921 -5.718 39.692)"/><path fill="#eee" d="M24.79 48.913l.046-2.847c.024-2.25-.948-3.82-2.03-5.342l10.53 10.783c-1.387-.902-2.905-2.448-5.374-2.527z"/><path fill="url(#m)" d="M81.616 25.812l.13-8.077c.066-6.382-2.691-10.836-5.757-15.153l29.867 30.588c-3.935-2.558-8.24-6.942-15.243-7.169z" transform="matrix(.35253 0 0 .35253 -3.982 39.813)"/><path fill="url(#n)" fill-rule="evenodd" stroke="#57705d" stroke-linecap="round" stroke-linejoin="round" stroke-width=".452" d="M107.47-2.367c-7.89 17.304-21.247 13.233-21.374 13.233V5.14l-7.699 9.225 7.762 7.76v-5.788s18.511 4.326 21.311-18.704z" transform="matrix(-.77841 .06165 -.05019 -.94321 92.336 24.007)"/><g><g transform="matrix(.76224 0 0 .76224 23.783 -7.623)"><path fill="url(#o)" fill-rule="evenodd" stroke="#888a85" d="M15.073 10.501h29.856c.316 0 .57.253.57.567v27.168c0 2.476-6.88 8.303-9.268 8.303H15.073a.567.567 0 0 1-.57-.568V11.068c0-.314.254-.567.57-.567z"/><rect width="28.997" height="34.041" x="15.503" y="11.5" fill="none" stroke="url(#p)" rx="0" ry="0"/><path fill="url(#q)" fill-rule="evenodd" stroke="#868a84" d="M36.221 46.537c2.03.33 9.589-4.53 9.284-8.498-1.563 2.423-4.758 1.287-8.867 1.446 0 0 .395 6.552-.417 7.052z" color="#000"/><path fill="none" stroke="url(#r)" d="M37.671 44.345c1.37-.683 4.429-2.146 5.728-4.027-1.596.68-2.948.209-5.702.19 0 0 .162 3.062-.026 3.837z" color="#000" opacity=".369"/><path fill-rule="evenodd" d="M20 19.033h21v2H20zM20 23.033h19.992v2H20zM20 27.033h17.977v2H20zM20 31.033h21v2H20z" color="#000" opacity=".17"/></g></g><g><g transform="matrix(.76224 0 0 .76224 29.521 .766)"><path fill="url(#s)" fill-rule="evenodd" stroke="#888a85" d="M15.073 10.501h29.856c.316 0 .57.253.57.567v27.168c0 2.476-6.88 8.303-9.268 8.303H15.073a.567.567 0 0 1-.57-.568V11.068c0-.314.254-.567.57-.567z"/><rect width="28.997" height="34.041" x="15.503" y="11.5" fill="none" stroke="url(#t)" rx="0" ry="0"/><path fill="url(#u)" fill-rule="evenodd" stroke="#868a84" d="M36.221 46.537c2.03.33 9.589-4.53 9.284-8.498-1.563 2.423-4.758 1.287-8.867 1.446 0 0 .395 6.552-.417 7.052z" color="#000"/><path fill="none" stroke="url(#v)" d="M37.671 44.345c1.37-.683 4.429-2.146 5.728-4.027-1.596.68-2.948.209-5.702.19 0 0 .162 3.062-.026 3.837z" color="#000" opacity=".369"/><path fill-rule="evenodd" d="M20 19.033h21v2H20zM20 23.033h19.992v2H20zM20 27.033h17.977v2H20zM20 31.033h21v2H20z" color="#000" opacity=".17"/></g></g><g><g transform="matrix(.76224 0 0 .76224 35.26 9.155)"><path fill="url(#w)" fill-rule="evenodd" stroke="#888a85" d="M15.073 10.501h29.856c.316 0 .57.253.57.567v27.168c0 2.476-6.88 8.303-9.268 8.303H15.073a.567.567 0 0 1-.57-.568V11.068c0-.314.254-.567.57-.567z"/><rect width="28.997" height="34.041" x="15.503" y="11.5" fill="none" stroke="url(#x)" rx="0" ry="0"/><path fill="url(#y)" fill-rule="evenodd" stroke="#868a84" d="M36.221 46.537c2.03.33 9.589-4.53 9.284-8.498-1.563 2.423-4.758 1.287-8.867 1.446 0 0 .395 6.552-.417 7.052z" color="#000"/><path fill="none" stroke="url(#z)" d="M37.671 44.345c1.37-.683 4.429-2.146 5.728-4.027-1.596.68-2.948.209-5.702.19 0 0 .162 3.062-.026 3.837z" color="#000" opacity=".369"/><path fill-rule="evenodd" d="M20 19.033h21v2H20zM20 23.033h19.992v2H20zM20 27.033h17.977v2H20zM20 31.033h21v2H20z" color="#000" opacity=".17"/></g></g><path style="line-height:normal;font-variant-ligatures:normal;font-variant-position:normal;font-variant-caps:normal;font-variant-numeric:normal;font-variant-alternates:normal;font-feature-settings:normal;text-indent:0;text-align:start;text-decoration-line:none;text-decoration-style:solid;text-decoration-color:#000;text-transform:none;text-orientation:mixed;white-space:normal;shape-padding:0;isolation:auto;mix-blend-mode:normal;solid-color:#000;solid-opacity:1" fill="#688826" stroke="#b5b1b9" stroke-opacity=".992" stroke-width=".314" d="M16.877 52.227v9.554l-.625-.3-4.21-2.012-.023 1.648H3.998v1.407h8.003l-.02 1.501 4.896-2.14v10.806h1.032V52.227zm10.095 4.047c-2.757-.038-5.749 2.08-6.136 5.313-.576 4.805 3.58 10.002 11.106 4.912l-1.227-1.754c-3.236 1.692-6.071 2.518-6.534-1.797h7.586c.178-4.7-2.205-6.638-4.795-6.674zm-.242 2.082h.113c.936.035 1.797.79 1.898 2.618l-4.428.088c0-1.549 1.246-2.676 2.417-2.706z" color="#000" enable-background="accumulate" font-family="sans-serif" font-weight="400" overflow="visible"/></svg>