<svg xmlns="http://www.w3.org/2000/svg" viewBox="0 0 75.963 69.303"><defs><linearGradient id="a" x1="80.524" x2="63.635" y1="129.469" y2="50.012" gradientTransform="matrix(.58506 0 0 .58506 -4.936 -11.587)" gradientUnits="userSpaceOnUse"><stop offset="0" stop-color="#ec865b"/><stop offset=".8" stop-color="#f7e937"/><stop offset=".921" stop-color="#fff0a2"/><stop offset="1" stop-color="#f7e937"/></linearGradient><linearGradient id="b" x1="72.009" x2="54.822" y1="130.123" y2="61.191" gradientTransform="matrix(.58506 0 0 .58506 -4.936 -11.587)" gradientUnits="userSpaceOnUse"><stop offset="0" stop-color="#feee74"/><stop offset=".097" stop-color="#fdf4a6"/><stop offset=".376" stop-color="#fded68"/><stop offset=".8" stop-color="#f7e937"/><stop offset=".909" stop-color="#fef28f"/><stop offset="1" stop-color="#f7e937"/></linearGradient></defs><path fill="url(#a)" stroke="#f5a777" stroke-width=".878" d="M64.119 51.757a7.022 7.022 0 0 1-6.259 7.708l-37.639 9.361a7.02 7.02 0 0 1-7.707-6.258l-2.239-33.331a7.021 7.021 0 0 1 6.258-7.709l37.715-8.522a7.021 7.021 0 0 1 7.708 6.259z"/><path stroke="#000" stroke-width="1.745" d="M42.626 20.96l7.767 10.286c46.877-14.698 17.074-54.16-7.767-10.286zM45.457 34.353l-7.888-7.093c-22.105 8.056-3.872 28.247 7.888 7.093z"/><path stroke="#000" stroke-width="1.633" d="M9.944 33.152l11.975 1.6C54.383 2.2 11.467-14.005 9.944 33.153zM18.69 41l-9.528-2.046c-14.819 16.283 8.976 24.69 9.529 2.047z"/><path fill="url(#b)" stroke="#f5a777" stroke-width=".878" d="M63.534 51.757L52.399 26.7c-2.283-4.481-3.85-6.658-7.707-6.258l-4.924 1.16-3.75 1.1c-2.926 2.34-2.197 3.84-3.266 5.186l-16.508 3.354c-1.681.1-2.02-2.104-4.094-2.805l-1.912.123-3.26.768c-3.857.4-7.624 3.417-6.259 7.708l11.21 25.53c1.705 3.904 3.85 6.659 7.707 6.259l37.64-9.361c3.856-.401 7.995-4.291 6.258-7.708z" opacity=".8"/></svg>