<svg xmlns="http://www.w3.org/2000/svg" xmlns:xlink="http://www.w3.org/1999/xlink" viewBox="0 0 70.532 51.197"><defs><linearGradient id="i" x1="1813.324" x2="1833.511" y1="-397.491" y2="-397.491" gradientTransform="matrix(4.21518 0 0 4.20402 -5666.095 1473.993)" gradientUnits="userSpaceOnUse" xlink:href="#a"/><linearGradient id="a" x1="301.8" x2="288.56" y1="267.55" y2="839.03" gradientTransform="translate(0 73.469)" gradientUnits="userSpaceOnUse"><stop offset="0" stop-color="#ffdc10"/><stop offset=".395" stop-color="#f4b908"/><stop offset=".75" stop-color="#eea704"/><stop offset="1" stop-color="#c68000"/></linearGradient><linearGradient id="j" x1="1776.666" x2="1815.079" y1="-450.134" y2="-450.134" gradientTransform="matrix(4.21518 0 0 4.20402 -5666.095 1473.993)" gradientUnits="userSpaceOnUse" xlink:href="#a"/><linearGradient id="k" x1="1761.624" x2="1814.324" y1="-413.855" y2="-413.855" gradientTransform="matrix(4.21518 0 0 4.20402 -5666.095 1473.993)" gradientUnits="userSpaceOnUse" xlink:href="#b"/><linearGradient id="b" x1="181.75" x2="148.84" y1="231.55" y2="781.62" gradientTransform="translate(0 73.469)" gradientUnits="userSpaceOnUse"><stop offset="0" stop-color="#ffdc10"/><stop offset=".362" stop-color="#f4b908"/><stop offset=".75" stop-color="#eea704"/><stop offset="1" stop-color="#da9302"/></linearGradient><linearGradient id="l" x1="1792.553" x2="1814.998" y1="-434.589" y2="-434.589" gradientTransform="matrix(4.21518 0 0 4.20402 -5666.095 1473.993)" gradientUnits="userSpaceOnUse" xlink:href="#a"/><linearGradient id="m" x1="1776.666" x2="1817.287" y1="-450.134" y2="-460.651" gradientTransform="matrix(4.21518 0 0 4.20402 -5260.66 1647.94)" gradientUnits="userSpaceOnUse" xlink:href="#c"/><linearGradient id="c" x1="301.8" x2="288.56" y1="267.55" y2="839.03" gradientTransform="translate(0 73.469)" gradientUnits="userSpaceOnUse"><stop offset="0" stop-color="#07a92b"/><stop offset="1" stop-color="#00aa3d"/></linearGradient><linearGradient id="n" x1="1761.624" x2="1814.324" y1="-413.855" y2="-413.855" gradientTransform="matrix(4.21518 0 0 4.20402 -5260.66 1647.94)" gradientUnits="userSpaceOnUse" xlink:href="#d"/><linearGradient id="d" x1="301.8" x2="288.56" y1="267.55" y2="839.03" gradientTransform="translate(0 73.469)" gradientUnits="userSpaceOnUse"><stop offset="0" stop-color="#07a92b"/><stop offset=".395" stop-color="#1da12c"/><stop offset=".75" stop-color="#7ae230"/><stop offset="1" stop-color="#0d5226"/></linearGradient><linearGradient id="o" x1="1792.553" x2="1825.303" y1="-434.589" y2="-452.67" gradientTransform="matrix(4.21518 0 0 4.20402 -5260.66 1647.94)" gradientUnits="userSpaceOnUse" xlink:href="#e"/><linearGradient id="e" x1="301.8" x2="288.56" y1="267.55" y2="839.03" gradientTransform="translate(0 73.469)" gradientUnits="userSpaceOnUse"><stop offset="0" stop-color="#07a92b"/><stop offset=".395" stop-color="#1da12c"/><stop offset="1" stop-color="#0d5226"/></linearGradient><linearGradient id="p" x1="168.72" x2="266.49" y1="487.48" y2="377.83" gradientTransform="matrix(.66815 0 0 .66815 1325.055 -555.54)" gradientUnits="userSpaceOnUse" xlink:href="#f"/><linearGradient id="f"><stop offset="0"/><stop offset="1" stop-color="#666"/></linearGradient><linearGradient id="q" x1="160.23" x2="259.36" y1="554.36" y2="411.44" gradientTransform="matrix(.66815 0 0 .66815 1325.055 -555.54)" gradientUnits="userSpaceOnUse" xlink:href="#f"/><filter id="r" color-interpolation-filters="sRGB"><feGaussianBlur stdDeviation="2.196"/></filter><filter id="s" color-interpolation-filters="sRGB"><feGaussianBlur stdDeviation="2.196"/></filter><radialGradient id="t" cx="206.92" cy="340.4" r="31.206" gradientTransform="matrix(.66815 0 0 .66815 1323.801 -497.311)" gradientUnits="userSpaceOnUse" xlink:href="#g"/><linearGradient id="g"><stop offset="0" stop-color="#ff0"/><stop offset="1" stop-color="#989800"/></linearGradient><linearGradient id="u" x1="205.06" x2="205.06" y1="398.64" y2="429.83" gradientTransform="matrix(.66815 0 0 .66815 1325.055 -555.54)" gradientUnits="userSpaceOnUse" xlink:href="#h"/><linearGradient id="h"><stop offset="0" stop-color="#fff"/><stop offset="1" stop-color="#fff" stop-opacity="0"/></linearGradient><filter id="v" width="1.78" height="1.78" x="-.39" y="-.39" color-interpolation-filters="sRGB"><feGaussianBlur stdDeviation="2.517"/></filter></defs><g stroke="#696666" stroke-linecap="round" stroke-linejoin="round" stroke-width="3.776"><path fill="url(#i)" d="M1979.491-231.018l80.875-57.486v121.93l-80.875 60.808z" transform="matrix(.12183 0 0 .12183 -214.38 63.852)"/><path fill="#ffd100" stroke-width=".46003007999999995" d="M.505 20.603l11.646-4.573 24.478 12.674-9.853 7.004z"/><path fill="url(#j)" d="M1823.918-426.322l78.643-34.692 76.564 36.193-87.188 37.666-68.02-39.167" transform="matrix(.12183 0 0 .12183 -214.38 63.852)"/><path fill="url(#k)" d="M1763.85-355.004l60.068 34.588v-105.906l68.02 39.167v105.721l87.553 50.416v125.252l-217.9-150.143z" transform="matrix(.12183 0 0 .12183 -214.38 63.852)"/><path fill="url(#l)" d="M1891.937-387.155l87.188-37.666 3.165 99.617-90.353 43.77z" transform="matrix(.12183 0 0 .12183 -214.38 63.852)"/><g><path fill="url(#m)" d="M2312.65-285.516l71.91 34.642-87.188 37.666-67.677-37.11z" transform="matrix(.12183 0 0 .12183 -254.445 47.599)"/><path fill="url(#n)" d="M2229.546-153.256l.15-97.063 79.468 32.449-.545 111.547z" transform="matrix(.12183 0 0 .12183 -254.445 47.599)"/><path fill="url(#o)" d="M2309.164-217.87l75.395-33.004 3.36 88.37-79.3 56.18z" transform="matrix(.12183 0 0 .12183 -254.445 47.599)"/></g></g><g fill-rule="evenodd" transform="matrix(.36927 0 0 .36927 -487.305 117.65)"><rect width="56.251" height="56.251" x="1433.93" y="-298.001" fill="url(#p)" rx="7.828"/><rect width="56.251" height="56.251" x="1433.93" y="-241.876" fill="url(#q)" rx="7.828"/><circle cx="206.917" cy="340.395" r="31.206" fill="#a7a7a7" filter="url(#r)" opacity=".534" transform="matrix(.66815 0 0 .66815 1323.801 -497.311)"/><circle cx="206.917" cy="340.395" r="31.206" fill="#a7a7a7" filter="url(#s)" opacity=".534" transform="matrix(.66815 0 0 .66815 1323.801 -441.186)"/><circle cx="1462.054" cy="-269.874" r="20.85" fill="url(#t)"/><path fill="url(#u)" d="M1461.084-289.368c-11.694.206-21.104 12.552-18.04 23.928 2.23 11.037 15.163 18.133 25.745 13.905 10.89-3.665 16.241-17.736 10.398-27.644-3.426-6.53-10.745-10.61-18.103-10.19z"/><path fill="#dc3500" d="M-1411.506 535.303c-4.631.081-8.357 4.97-7.144 9.475.883 4.37 6.004 7.18 10.195 5.506 4.312-1.451 6.431-7.023 4.117-10.947-1.357-2.585-4.255-4.201-7.169-4.035z" filter="url(#v)" transform="matrix(3.48444 0 0 3.48444 6379.636 -2162.743)"/></g></svg>