<svg xmlns="http://www.w3.org/2000/svg" xmlns:xlink="http://www.w3.org/1999/xlink" viewBox="0 0 85.112 78.976"><defs><filter id="g" color-interpolation-filters="sRGB"><feGaussianBlur result="fbSourceGraphic" stdDeviation="5"/><feGaussianBlur in="SourceGraphic" result="result1" stdDeviation=".01"/><feComposite in="fbSourceGraphic" in2="result1" k2=".5" k3=".5" operator="arithmetic" result="result2"/><feBlend in2="fbSourceGraphic" result="result3"/></filter><radialGradient id="h" cx="89.51" cy="22.254" r="18.279" gradientTransform="matrix(1 0 0 .97468 0 .44)" gradientUnits="userSpaceOnUse" xlink:href="#a"/><linearGradient id="a"><stop/><stop offset="1" stop-opacity=".536"/></linearGradient><filter id="i" width="1.294" height="1.29" x="-.147" y="-.145"><feGaussianBlur stdDeviation="1.819"/></filter><linearGradient id="j" x1="98.33" x2="86.82" y1="14.793" y2="25.1" gradientTransform="matrix(.96715 0 0 .96715 115.415 -2.733)" gradientUnits="userSpaceOnUse" xlink:href="#b"/><linearGradient id="b"><stop/><stop offset="1" stop-color="#ddd" stop-opacity="0"/></linearGradient><linearGradient id="k" x1="-305.474" x2="-231.968" y1="106.741" y2="106.741" gradientTransform="matrix(.40263 0 0 .40263 1166.199 145.167)" gradientUnits="userSpaceOnUse" xlink:href="#c"/><linearGradient id="c"><stop offset="0" stop-color="#dddd98"/><stop offset=".557" stop-color="#f2f654" stop-opacity=".498"/><stop offset="1" stop-color="#faff7d" stop-opacity=".184"/></linearGradient><linearGradient id="l" x1="-221.792" x2="-177.358" y1="54.832" y2="54.832" gradientTransform="matrix(.40263 0 0 .40263 1166.199 145.167)" gradientUnits="userSpaceOnUse" xlink:href="#c"/><linearGradient id="m" x1="1813.324" x2="1833.511" y1="-397.491" y2="-397.491" gradientTransform="matrix(.2996 0 0 .29881 -697.973 1188.518)" gradientUnits="userSpaceOnUse" xlink:href="#d"/><linearGradient id="d" x1="301.8" x2="288.56" y1="267.55" y2="839.03" gradientTransform="translate(0 73.469)" gradientUnits="userSpaceOnUse"><stop offset="0" stop-color="#ffdc10"/><stop offset=".395" stop-color="#f4b908"/><stop offset=".75" stop-color="#eea704"/><stop offset="1" stop-color="#c68000"/></linearGradient><linearGradient id="n" x1="1776.666" x2="1815.079" y1="-450.134" y2="-450.134" gradientTransform="matrix(.2996 0 0 .29881 -697.973 1188.518)" gradientUnits="userSpaceOnUse" xlink:href="#d"/><linearGradient id="o" x1="1761.624" x2="1814.324" y1="-413.855" y2="-413.855" gradientTransform="matrix(.2996 0 0 .29881 -697.973 1188.518)" gradientUnits="userSpaceOnUse" xlink:href="#e"/><linearGradient id="e" x1="181.75" x2="148.84" y1="231.55" y2="781.62" gradientTransform="translate(0 73.469)" gradientUnits="userSpaceOnUse"><stop offset="0" stop-color="#ffdc10"/><stop offset=".362" stop-color="#f4b908"/><stop offset=".75" stop-color="#eea704"/><stop offset="1" stop-color="#da9302"/></linearGradient><linearGradient id="p" x1="1792.553" x2="1814.998" y1="-434.589" y2="-434.589" gradientTransform="matrix(.2996 0 0 .29881 -697.973 1188.518)" gradientUnits="userSpaceOnUse" xlink:href="#d"/><radialGradient id="q" cx="-306.825" cy="368.842" r="79.152" fx="-306.825" fy="368.842" gradientTransform="matrix(.16222 0 0 .16222 1079.214 99.462)" gradientUnits="userSpaceOnUse" xlink:href="#f"/><linearGradient id="f"><stop offset="0" stop-color="#c9fac7"/><stop offset="1" stop-color="#059200"/></linearGradient></defs><g transform="translate(-1023.737 -127.064)"><path d="M20.98-.137v165.606h200.63V30.659L191.69-.137h-56.004z" filter="url(#g)" transform="matrix(.32248 0 0 .32248 1030.915 147.34)"/><path fill="#fff" d="M1037.68 147.295V200.699h64.699v-43.473l-9.649-9.931h-18.06z"/><path fill="url(#h)" d="M81.698 28.31l.135-8.351c.068-6.6-.877-11.548-4.047-16.012l2.576-.031 27.5 25.615c-4.067-2.646-9.62-.791-16.861-1.026z" filter="url(#i)" opacity=".505" transform="matrix(.32766 0 0 .35867 1066.398 146.374)"/><path fill="#eee" d="M1094.306 154.81l.042-2.605c.02-2.058-.868-3.494-1.857-4.887l9.631 9.864c-1.268-.825-2.657-2.238-4.915-2.312z"/><path fill="url(#j)" d="M196.575 23.165l.13-8.076c.066-6.383-2.69-10.837-5.757-15.153l29.867 30.588c-3.935-2.559-8.24-6.943-15.243-7.17z" transform="matrix(.32248 0 0 .32248 1030.915 147.34)"/><path fill="url(#k)" stroke="#000" stroke-width=".805" d="M1043.61 183.414h28.79v9.46h-28.79z"/><path fill="url(#l)" stroke="#000" stroke-width=".799" d="M1077.299 158.85h17.091v16.787H1077.3z"/><path fill="none" stroke="#625454" stroke-dasharray="2.927 .732" stroke-width=".732" d="M1077.512 167.41h16.748M1052.09 183.625v9.535M1063.609 183.502v9.29"/><g stroke="#696666" stroke-width=".269"><path fill="url(#m)" d="M-154.54 1067.33l5.748-4.086v8.666l-5.748 4.322z" transform="matrix(1.99496 0 0 1.99496 1368.041 -1969.307)"/><path fill="#ffd100" stroke-width=".5366442400000001" d="M1029.163 142.39l13.555-5.322 28.49 14.752-11.468 8.151z"/><path fill="url(#n)" d="M-165.598 1053.448l5.59-2.466 5.442 2.572-6.197 2.678-4.835-2.784" transform="matrix(1.99496 0 0 1.99496 1368.041 -1969.307)"/><path fill="url(#o)" d="M-169.867 1058.517l4.27 2.458v-7.527l4.834 2.784v7.514l6.223 3.583v8.903l-15.488-10.672z" transform="matrix(1.99496 0 0 1.99496 1368.041 -1969.307)"/><path fill="url(#p)" d="M-160.763 1056.232l6.197-2.678.225 7.081-6.422 3.111z" transform="matrix(1.99496 0 0 1.99496 1368.041 -1969.307)"/></g><circle cx="1036.362" cy="166.821" r="12.625" fill="url(#q)" paint-order="markers fill stroke"/></g></svg>