<svg xmlns="http://www.w3.org/2000/svg" xmlns:xlink="http://www.w3.org/1999/xlink" viewBox="0 0 114.672 109.346"><defs><radialGradient id="k" cx="63.45" cy="115" r="60.03" gradientTransform="matrix(1 0 0 .05128 0 109.104)" gradientUnits="userSpaceOnUse" xlink:href="#a"/><linearGradient id="a"><stop/><stop offset=".902" stop-opacity=".731"/><stop offset="1" stop-opacity="0"/></linearGradient><filter id="l" width="1.062" height="2.207" x="-.031" y="-.603"><feGaussianBlur stdDeviation="1.548"/></filter><radialGradient id="m" cx="60.692" cy="48.661" r="39.28" gradientTransform="matrix(.99127 .00215 -.00035 .16129 1570.042 273.413)" gradientUnits="userSpaceOnUse" xlink:href="#b"/><linearGradient id="b"><stop stop-color="#eee"/><stop offset="1" stop-color="#eee" stop-opacity="0"/></linearGradient><filter id="n" width="1.132" height="1.15" x="-.066" y="-.075" color-interpolation-filters="sRGB"><feGaussianBlur stdDeviation="1.628"/></filter><linearGradient id="x" x1="52.986" x2="5.33" y1="1789.936" y2="1748.648" gradientUnits="userSpaceOnUse" xlink:href="#c"/><linearGradient id="c" x1="211.6" x2="217.35" y1="656.93" y2="660.68" gradientTransform="matrix(.26458 0 0 .26458 -397.877 510.466)" gradientUnits="userSpaceOnUse"><stop offset="0" stop-color="#dbdcdc"/><stop offset="1" stop-color="#f4f4f4"/></linearGradient><linearGradient id="y" x1="22.868" x2="22.868" y1="1764.015" y2="1750.786" gradientUnits="userSpaceOnUse" xlink:href="#d"/><linearGradient id="d"><stop offset="0" stop-color="#f6ca1f"/><stop offset="1" stop-color="#fce33f"/></linearGradient><linearGradient id="z" x1="48.71" x2="48.71" y1="1764.246" y2="1750.749" gradientUnits="userSpaceOnUse" xlink:href="#d"/><linearGradient id="A" x1="86.115" x2="87.125" y1="6779.639" y2="6697.31" gradientUnits="userSpaceOnUse" xlink:href="#d"/><linearGradient id="B" x1="52.986" x2="53.053" y1="1781.084" y2="1772.134" gradientTransform="matrix(.99095 0 0 1.00025 .38 -.444)" gradientUnits="userSpaceOnUse" xlink:href="#e"/><linearGradient id="e"><stop offset="0" stop-color="#7d7d7d"/><stop offset="1" stop-color="#a8a8a8"/></linearGradient><linearGradient id="C" x1="63.878" x2="42.099" y1="1798.789" y2="1781.08" gradientUnits="userSpaceOnUse" xlink:href="#f"/><linearGradient id="f"><stop offset="0" stop-color="#d3d4d4"/><stop offset="1" stop-color="#fff"/></linearGradient><linearGradient id="u" x2="0" y1="104.84" y2="63.31" gradientTransform="matrix(.65678 0 0 .65678 1589.442 261.942)" gradientUnits="userSpaceOnUse" xlink:href="#g"/><linearGradient id="g"><stop stop-color="#bbb"/><stop offset="1" stop-color="#dcdcdc"/></linearGradient><linearGradient id="v" x2="0" y1="109.8" y2="120.24" gradientTransform="matrix(.65678 0 0 .60738 1589.392 267.365)" gradientUnits="userSpaceOnUse" xlink:href="#h"/><linearGradient id="h"><stop stop-color="#242424"/><stop offset="1" stop-color="#535353"/></linearGradient><filter id="w" width="1.132" height="1.15" x="-.066" y="-.075" color-interpolation-filters="sRGB"><feGaussianBlur stdDeviation="1.628"/></filter><filter id="D"><feGaussianBlur stdDeviation=".529"/></filter><linearGradient id="E" x2="0" y1="97.56" y2="63.31" gradientTransform="matrix(.65678 0 0 .65678 1589.39 261.942)" gradientUnits="userSpaceOnUse" xlink:href="#i"/><linearGradient id="i"><stop stop-color="#323232"/><stop offset="1" stop-color="#484848"/></linearGradient><linearGradient id="F" x2="0" y1="111.88" y2="117" gradientUnits="userSpaceOnUse" xlink:href="#j"/><linearGradient id="j"><stop stop-color="#a2a2a2"/><stop offset="1" stop-color="#f2f2f2"/></linearGradient><radialGradient id="G" cx="60.27" cy="-4.631" r="57.19" gradientTransform="matrix(1.98444 -.01045 .00153 .29013 1508.878 301.023)" gradientUnits="userSpaceOnUse" xlink:href="#b"/><linearGradient id="o" x1="52.986" x2="5.33" y1="1789.936" y2="1748.648" gradientUnits="userSpaceOnUse" xlink:href="#c"/><linearGradient id="p" x1="22.868" x2="22.868" y1="1764.015" y2="1750.786" gradientUnits="userSpaceOnUse" xlink:href="#d"/><linearGradient id="q" x1="48.71" x2="48.71" y1="1764.246" y2="1750.749" gradientUnits="userSpaceOnUse" xlink:href="#d"/><linearGradient id="r" x1="86.115" x2="87.125" y1="6779.639" y2="6697.31" gradientUnits="userSpaceOnUse" xlink:href="#d"/><linearGradient id="s" x1="52.986" x2="53.053" y1="1781.084" y2="1772.134" gradientTransform="matrix(.99095 0 0 1.00025 .38 -.444)" gradientUnits="userSpaceOnUse" xlink:href="#e"/><linearGradient id="t" x1="63.878" x2="42.099" y1="1798.789" y2="1781.08" gradientUnits="userSpaceOnUse" xlink:href="#f"/></defs><g transform="translate(-1590.278 -239.116)"><path fill="url(#k)" d="M123.485 115.002a60.032 3.079 0 1 1-120.064 0 60.032 3.079 0 1 1 120.064 0z" filter="url(#l)" opacity=".729" transform="matrix(.65678 0 0 1.20409 1590.476 201.804)"/><path fill="#323232" d="M1606.334 282.876v2.258h.677v.78h-.677v39.283h51.557V285.914h-.575v-.78h.575v-2.258z"/><path fill="none" stroke="url(#m)" stroke-width="1.314" d="M1606.967 283.51v.985h.04a.638.638 0 0 1 .637.637v.78a.638.638 0 0 1-.636.636h-.041v38.01h50.284V286.549a.638.638 0 0 1-.575-.636v-.78c0-.329.248-.604.575-.637v-.985z"/><g paint-order="markers fill stroke"><path d="M1639.074 240.572h59.019v52.244h-59.019z" filter="url(#n)" opacity=".503" transform="rotate(-33.118 1657.95 25.908) scale(.89991)"/><g stroke="#424241" stroke-linecap="square"><path fill="url(#o)" stroke-width="1.058" d="M2.646 1745.116h61.232v53.673H2.646z" transform="matrix(.68405 -.44149 .44149 .68405 839.566 -907.723)"/><path fill="url(#p)" stroke-width="1.058" d="M9.071 1750.786h27.592v13.229H9.071z" transform="matrix(.68405 -.44149 .44149 .68405 839.566 -907.723)"/><path fill="url(#q)" stroke-width="1.058" d="M41.56 1750.749h14.299v13.497H41.56z" transform="matrix(.68405 -.44149 .44149 .68405 839.566 -907.723)"/><path fill="url(#r)" stroke-width="4" d="M66.164 6697.31v40.913H36.365v41.416h99.5v-41.416h-27.78v-40.913z" transform="rotate(-32.838 -1120.404 -1878.413) scale(.21541)"/><path fill="url(#s)" stroke-width="1.058" d="M42.098 1772.133h21.71v8.948h-21.71z" transform="matrix(.68405 -.44149 .44149 .68405 839.566 -907.723)"/><path fill="url(#t)" stroke-width="1.058" d="M42.095 1781.084h21.783v17.705H42.095z" transform="matrix(.68405 -.44149 .44149 .68405 839.566 -907.723)"/></g></g><path fill="url(#u)" d="M1599.704 303.524a5.124 5.124 0 0 0-5.13 5.13v22.147h75.077v-22.146a5.124 5.124 0 0 0-5.131-5.131z"/><path fill="#555" d="M1594.573 330.8v10.263h75.078V330.8z"/><path fill="#323232" d="M1594.573 330.8v1.473h75.078v-1.472z"/><rect width="56.929" height="6.761" x="1603.648" y="335.43" fill="#bbb" rx="1.117"/><rect width="49.777" height="6.343" x="1607.225" y="334.057" fill="url(#v)" rx="1.761"/><g paint-order="markers fill stroke"><path d="M1639.074 240.572h59.019v52.244h-59.019z" filter="url(#w)" opacity=".503" transform="translate(173.3 26.138) scale(.89991)"/><g stroke="#424241" stroke-linecap="square"><path fill="url(#x)" stroke-width="1.058" d="M2.646 1745.116h61.232v53.673H2.646z" transform="scale(.81415) rotate(.28 297181.278 415932.357)"/><path fill="url(#y)" stroke-width="1.058" d="M9.071 1750.786h27.592v13.229H9.071z" transform="scale(.81415) rotate(.28 297181.278 415932.357)"/><path fill="url(#z)" stroke-width="1.058" d="M41.56 1750.749h14.299v13.497H41.56z" transform="scale(.81415) rotate(.28 297181.278 415932.357)"/><path fill="url(#A)" stroke-width="4" d="M66.164 6697.31v40.913H36.365v41.416h99.5v-41.416h-27.78v-40.913z" transform="rotate(.301 242081.472 338535.696) scale(.21541)"/><path fill="url(#B)" stroke-width="1.058" d="M42.098 1772.133h21.71v8.948h-21.71z" transform="scale(.81415) rotate(.28 297181.278 415932.357)"/><path fill="url(#C)" stroke-width="1.058" d="M42.095 1781.084h21.783v17.705H42.095z" transform="scale(.81415) rotate(.28 297181.278 415932.357)"/></g></g><path d="M30 63.313v34.25h71.281c.066 0 .123-.028.188-.032V63.312z" filter="url(#D)" transform="matrix(.65678 0 0 .59228 1589.442 265.944)"/><path fill="url(#E)" d="M1606.303 303.524a1.979 1.979 0 0 0-.062.451v19.99c0 1.144.93 2.053 2.073 2.053h47.596a2.057 2.057 0 0 0 2.073-2.052v-19.99c0-.16-.028-.304-.062-.452h-51.619z"/><g transform="matrix(.65678 0 0 .65678 1588.53 249.852)"><path fill="url(#F)" d="M17.75 111.875a2.575 2.575 0 0 0-2.563 2.563A2.575 2.575 0 0 0 17.75 117a2.575 2.575 0 0 0 2.563-2.563 2.575 2.575 0 0 0-2.563-2.562z"/><rect width="4" height="4" x="15.761" y="112.43" fill="#00a7b3" rx="2"/><rect width="2.342" height="2.342" x="16.59" y="113.26" fill="#00c4cc" rx="1.171"/><path fill="#a8dde0" d="M17.75 113.813c-.342 0-.594.264-.594.624s.234.594.594.594.625-.251.625-.594a.629.629 0 0 0-.625-.624z"/></g><path fill="none" stroke="url(#G)" stroke-width="1.314" d="M1599.701 304.158a4.483 4.483 0 0 0-4.495 4.494v21.51h73.806v-21.51a4.483 4.483 0 0 0-4.495-4.494z"/></g></svg>