<svg xmlns="http://www.w3.org/2000/svg" xmlns:xlink="http://www.w3.org/1999/xlink" viewBox="0 0 43.342 44.703"><defs><linearGradient id="d" x1="161.758" x2="160.935" y1="956.02" y2="953.377" gradientTransform="matrix(7.44222 0 0 7.44222 -1046.433 -6137.432)" gradientUnits="userSpaceOnUse" xlink:href="#a"/><linearGradient id="a" x1="181.75" x2="148.84" y1="231.55" y2="781.62" gradientTransform="translate(0 73.469)" gradientUnits="userSpaceOnUse"><stop offset="0" stop-color="#ffdc10"/><stop offset=".362" stop-color="#f4b908"/><stop offset=".75" stop-color="#eea704"/><stop offset="1" stop-color="#da9302"/></linearGradient><linearGradient id="e" x1="160.623" x2="164.817" y1="953.178" y2="953.178" gradientTransform="matrix(7.44222 0 0 7.44222 -1046.433 -6137.432)" gradientUnits="userSpaceOnUse" xlink:href="#b"/><linearGradient id="b" x1="301.8" x2="288.56" y1="267.55" y2="839.03" gradientTransform="translate(0 73.469)" gradientUnits="userSpaceOnUse"><stop offset="0" stop-color="#ffdc10"/><stop offset=".395" stop-color="#f4b908"/><stop offset=".75" stop-color="#eea704"/><stop offset="1" stop-color="#c68000"/></linearGradient><linearGradient id="f" x1="162.448" x2="164.817" y1="954.418" y2="955.049" gradientTransform="matrix(7.44222 0 0 7.44222 -1046.433 -6137.432)" gradientUnits="userSpaceOnUse" xlink:href="#a"/><linearGradient id="g" x1="159.847" x2="161.463" y1="955.014" y2="953.478" gradientTransform="matrix(7.44222 0 0 7.44222 -1325.79 -7285.449)" gradientUnits="userSpaceOnUse" xlink:href="#c"/><linearGradient id="c"><stop offset="0" stop-color="#58a2c1"/><stop offset=".272" stop-color="#86d0ef"/><stop offset=".481" stop-color="#56a0bf"/><stop offset=".747" stop-color="#86d0ef"/><stop offset="1" stop-color="#58a2c1"/></linearGradient><linearGradient id="h" x1="160.623" x2="164.817" y1="953.178" y2="953.178" gradientTransform="matrix(7.44222 0 0 7.44222 -1319.176 -7294.18)" gradientUnits="userSpaceOnUse" xlink:href="#c"/><linearGradient id="i" x1="163.796" x2="164.541" y1="952.763" y2="956.306" gradientTransform="matrix(7.44222 0 0 7.44222 -1313.09 -7283.861)" gradientUnits="userSpaceOnUse" xlink:href="#c"/></defs><g stroke-linejoin="round" stroke-width=".794"><g stroke="#9b6500"><path fill="url(#d)" stroke-linecap="round" d="M149.949 954.333l10.268 8.354v20.886l-10.877-10.878z" transform="translate(-142.857 -942.97)"/><path fill="url(#e)" stroke-linecap="square" d="M149.949 954.333l17.926-4.35 11.313 6.961-18.97 5.743z" transform="translate(-142.857 -942.97)"/><path fill="url(#f)" stroke-linecap="round" d="M179.188 956.944v18.797l-18.97 7.832v-20.886z" transform="translate(-142.857 -942.97)"/></g><path fill="url(#g)" stroke="#0088b9" stroke-linecap="round" d="M-129.409-193.684l10.269 8.354v20.886l-10.878-10.878z" transform="translate(130.415 207.163)"/><path fill="url(#h)" stroke="#0088b9" stroke-linecap="square" d="M-122.794-202.415l17.926-4.35 11.313 6.96-18.97 5.744z" transform="translate(130.415 207.163)"/><path fill="url(#i)" stroke="#0088b9" stroke-linecap="round" d="M-87.47-189.485v18.796l-18.97 7.832v-20.885z" transform="translate(130.415 207.163)"/></g></svg>