<svg xmlns="http://www.w3.org/2000/svg" xmlns:xlink="http://www.w3.org/1999/xlink" viewBox="0 0 72.018 54.866"><defs><linearGradient id="e" x1="529.386" x2="529.517" y1="-2964.875" y2="-2958.402" gradientTransform="matrix(6.64548 0 0 6.47266 -80.832 21970.083)" gradientUnits="userSpaceOnUse" xlink:href="#a"/><linearGradient id="a"><stop offset="0" stop-color="#528fad"/><stop offset=".418" stop-color="#c8defb"/><stop offset="1" stop-color="#528fad"/></linearGradient><linearGradient id="f" x1="664.259" x2="664.271" y1="414.69" y2="414.944" gradientTransform="translate(-9629.549 -5734.42) scale(16.33374)" gradientUnits="userSpaceOnUse" xlink:href="#b"/><linearGradient id="b"><stop offset="0"/><stop offset=".5" stop-color="#fff"/><stop offset="1"/></linearGradient><linearGradient id="g" x1="663.93" x2="664.177" y1="415.274" y2="415.274" gradientTransform="translate(-9629.549 -5734.42) scale(16.33374)" gradientUnits="userSpaceOnUse" xlink:href="#b"/><linearGradient id="h" x1="664.605" x2="665.099" y1="414.772" y2="415.234" gradientTransform="matrix(18.61594 0 0 18.62657 -11148.905 -6688.404)" gradientUnits="userSpaceOnUse" xlink:href="#c"/><linearGradient id="c" x1="138.92" x2="243.93" y1="604.86" y2="715.98" gradientUnits="userSpaceOnUse"><stop offset="0" stop-color="#ffec67"/><stop offset="1" stop-color="#f29100"/></linearGradient><linearGradient id="i" x1="664.605" x2="665.099" y1="414.772" y2="415.234" gradientTransform="translate(-9629.549 -5734.42) scale(16.33374)" gradientUnits="userSpaceOnUse" xlink:href="#d"/><linearGradient id="d" x1="304.59" x2="153.01" y1="625.07" y2="735.65" gradientUnits="userSpaceOnUse"><stop offset="0" stop-color="#fdfcc2"/><stop offset=".515" stop-color="#fef10c"/><stop offset="1" stop-color="#ffa000"/></linearGradient></defs><g stroke="#666" transform="matrix(.32402 0 0 .32402 -1088.035 -899.976)"><rect width="147.389" height="133.119" x="3360.509" y="2780.111" fill="#fff" stroke-linecap="round" stroke-width="5" ry="8.077"/><rect width="147.476" height="41.52" x="3360.466" y="2780.067" fill="url(#e)" stroke-linecap="round" stroke-width="5" rx="7.728"/><path fill="none" stroke-width="3" d="M3361.122 2848.994h146.163M3360.83 2880.294h146.163M3459.127 2823.577v91.498M3410.893 2823.285v90.62"/></g><g transform="matrix(2.11073 0 0 2.11073 -2533.546 -2159.315)"><path fill="none" stroke="url(#f)" stroke-width="4.035" d="M1217.02 1041.333h6.162"/><path fill="none" stroke="url(#g)" stroke-width="4.035" d="M1216.923 1035.267v13.745"/><rect width="9.202" height="8.605" x="1223.334" y="1037.368" fill="url(#h)" stroke="#050505" stroke-linecap="round" stroke-width=".865" rx="1"/><rect width="8.073" height="7.546" x="1225.932" y="1040.353" fill="url(#i)" stroke="#050505" stroke-linecap="round" stroke-width=".865" rx="1"/></g></svg>