<svg xmlns="http://www.w3.org/2000/svg" xmlns:xlink="http://www.w3.org/1999/xlink" width="294.674" height="341.111" viewBox="0 0 77.966 90.252"><defs><linearGradient xlink:href="#a" id="e" x1="22.308" x2="35.785" y1="18.992" y2="39.498" gradientTransform="matrix(1.0672 0 0 .98928 -44.339 72.01)" gradientUnits="userSpaceOnUse"/><linearGradient id="a"><stop offset="0" style="stop-color:#f0f0ef"/><stop offset=".599" style="stop-color:#e8e8e8"/><stop offset=".828" style="stop-color:#fff"/><stop offset="1" style="stop-color:#d8d8d3"/></linearGradient><linearGradient xlink:href="#b" id="f" x1="26.076" x2="30.811" y1="26.697" y2="42.007" gradientTransform="matrix(.99942 0 0 1 -42.739 72.007)" gradientUnits="userSpaceOnUse"/><linearGradient id="b"><stop offset="0" style="stop-color:#fff"/><stop offset="1" style="stop-color:#fff;stop-opacity:0"/></linearGradient><linearGradient xlink:href="#c" id="g" x1="35.997" x2="33.665" y1="40.458" y2="37.771" gradientTransform="translate(-42.568 72.007)" gradientUnits="userSpaceOnUse"/><linearGradient id="c" x1="35.997" x2="33.665" y1="40.458" y2="37.771" gradientTransform="translate(6.162 4.033)" gradientUnits="userSpaceOnUse"><stop offset="0" style="stop-color:#7c7c7c"/><stop offset="1" style="stop-color:#b8b8b8"/></linearGradient><linearGradient xlink:href="#d" id="h" x1="33.396" x2="34.17" y1="36.921" y2="38.07" gradientTransform="translate(-42.568 71.632)" gradientUnits="userSpaceOnUse"/><linearGradient id="d" x1="33.396" x2="34.17" y1="36.921" y2="38.07" gradientTransform="translate(6.162 3.658)" gradientUnits="userSpaceOnUse"><stop offset="0" style="stop-color:#fff"/><stop offset="1" style="stop-color:#fff;stop-opacity:0"/></linearGradient></defs><g transform="translate(84.58 -189.911) scale(2.43554)"><path d="M-33.657 78.475h29.856c.316 0 .57.253.57.567v27.168c0 2.476-6.88 8.303-9.268 8.303h-21.158a.567.567 0 0 1-.57-.568V79.042c0-.314.254-.567.57-.567z" style="fill:url(#e);fill-rule:evenodd;stroke:#888a85"/><rect width="28.997" height="34.041" x="-33.227" y="79.474" rx="0" ry="0" style="fill:none;stroke:url(#f)"/><path d="M-12.51 114.511c2.03.33 9.59-4.53 9.285-8.498-1.563 2.423-4.758 1.287-8.867 1.446 0 0 .395 6.552-.417 7.052z" style="color:#000;fill:url(#g);fill-rule:evenodd;stroke:#868a84"/><path d="M-11.06 112.319c1.37-.683 4.43-2.146 5.729-4.027-1.596.68-2.948.209-5.702.19 0 0 .162 3.062-.026 3.837z" style="color:#000;opacity:.36932;fill:none;stroke:url(#h)"/><path d="M-16.034 102.602v9.057h-6.517v-9.057h-7.618V96.34" style="fill:none;stroke:#000;stroke-width:.543171;stroke-linecap:butt;stroke-linejoin:miter;stroke-miterlimit:4;stroke-dasharray:none;stroke-dashoffset:0;stroke-opacity:1"/><path d="M-16.034 108.95h-6.517" style="fill:none;stroke:#868686;stroke-width:.543171;stroke-linecap:butt;stroke-linejoin:miter;stroke-miterlimit:4;stroke-dasharray:3.25903,1.08634;stroke-dashoffset:0;stroke-opacity:1"/><path d="M-16.034 102.602h7.872v-5.925M-16.034 90.075v-9.057h-6.517v9.057h-7.618v6.264" style="fill:none;stroke:#000;stroke-width:.543171;stroke-linecap:butt;stroke-linejoin:miter;stroke-miterlimit:4;stroke-dasharray:none;stroke-dashoffset:0;stroke-opacity:1"/><path d="M-16.034 83.726h-6.517" style="fill:none;stroke:#868686;stroke-width:.543171;stroke-linecap:butt;stroke-linejoin:miter;stroke-miterlimit:4;stroke-dasharray:3.25903,1.08634;stroke-dashoffset:0;stroke-opacity:1"/><path d="M-16.034 90.075h7.872v6.602" style="fill:none;stroke:#000;stroke-width:.543171;stroke-linecap:butt;stroke-linejoin:miter;stroke-miterlimit:4;stroke-dasharray:none;stroke-dashoffset:0;stroke-opacity:1"/><path d="M-16.034 90.075v12.527M-22.551 90.075v12.527" style="fill:none;stroke:#868686;stroke-width:.543171;stroke-linecap:butt;stroke-linejoin:miter;stroke-miterlimit:4;stroke-dasharray:3.25903,1.08634;stroke-dashoffset:0;stroke-opacity:1"/></g></svg>