<svg xmlns="http://www.w3.org/2000/svg" xmlns:xlink="http://www.w3.org/1999/xlink" viewBox="0 0 71.859 50.188"><defs><linearGradient id="l" x1="1813.324" x2="1833.511" y1="-397.491" y2="-397.491" gradientTransform="matrix(4.21518 0 0 4.20402 -5666.095 1473.993)" gradientUnits="userSpaceOnUse" xlink:href="#a"/><linearGradient id="a" x1="301.8" x2="288.56" y1="267.55" y2="839.03" gradientTransform="translate(0 73.469)" gradientUnits="userSpaceOnUse"><stop offset="0" stop-color="#ffdc10"/><stop offset=".395" stop-color="#f4b908"/><stop offset=".75" stop-color="#eea704"/><stop offset="1" stop-color="#c68000"/></linearGradient><linearGradient id="m" x1="1776.666" x2="1815.079" y1="-450.134" y2="-450.134" gradientTransform="matrix(4.21518 0 0 4.20402 -5666.095 1473.993)" gradientUnits="userSpaceOnUse" xlink:href="#a"/><linearGradient id="n" x1="1761.624" x2="1814.324" y1="-413.855" y2="-413.855" gradientTransform="matrix(4.21518 0 0 4.20402 -5666.095 1473.993)" gradientUnits="userSpaceOnUse" xlink:href="#b"/><linearGradient id="b" x1="181.75" x2="148.84" y1="231.55" y2="781.62" gradientTransform="translate(0 73.469)" gradientUnits="userSpaceOnUse"><stop offset="0" stop-color="#ffdc10"/><stop offset=".362" stop-color="#f4b908"/><stop offset=".75" stop-color="#eea704"/><stop offset="1" stop-color="#da9302"/></linearGradient><linearGradient id="o" x1="1792.553" x2="1814.998" y1="-434.589" y2="-434.589" gradientTransform="matrix(4.21518 0 0 4.20402 -5666.095 1473.993)" gradientUnits="userSpaceOnUse" xlink:href="#a"/><linearGradient id="g" x1="-533.81" x2="-533.098" y1="66.358" y2="67.212" gradientTransform="matrix(9.88199 0 0 9.88199 4698.07 -736.14)" gradientUnits="userSpaceOnUse" xlink:href="#c"/><linearGradient id="c"><stop offset="0"/><stop offset=".599" stop-color="#e8e8e8"/><stop offset=".828" stop-color="#fff"/><stop offset="1" stop-color="#d8d8d3"/></linearGradient><linearGradient id="h" x1="-534.817" x2="-533.653" y1="66.776" y2="68.004" gradientTransform="matrix(9.88199 0 0 9.88199 4698.07 -736.14)" gradientUnits="userSpaceOnUse" xlink:href="#d"/><linearGradient id="d"><stop offset="0" stop-color="#0a0a0a"/><stop offset=".599" stop-color="#e8e8e8"/><stop offset=".828" stop-color="#fff"/><stop offset="1" stop-color="#d8d8d3"/></linearGradient><linearGradient id="i" x1="-2025.772" x2="-2020.472" y1="254.271" y2="260.944" gradientTransform="matrix(2.6146 0 0 2.6146 4698.07 -736.14)" gradientUnits="userSpaceOnUse" xlink:href="#e"/><linearGradient id="e"><stop offset="0" stop-color="#383838"/><stop offset=".599" stop-color="#e8e8e8"/><stop offset=".828" stop-color="#fff"/><stop offset="1" stop-color="#d8d8d3"/></linearGradient><radialGradient id="j" cx="-460.731" cy="-282.906" r="1.065" fx="-460.731" fy="-282.906" gradientTransform="matrix(9.88199 0 0 12.9992 4119.842 3256.885)" gradientUnits="userSpaceOnUse" xlink:href="#c"/><radialGradient id="k" cx="-460.765" cy="-282.917" r=".631" fx="-460.765" fy="-282.917" gradientTransform="matrix(9.88199 0 0 12.9722 4119.842 3249.279)" gradientUnits="userSpaceOnUse" xlink:href="#f"/><linearGradient id="f"><stop offset="0" stop-color="#dcdcdc"/><stop offset="1" stop-color="#727272"/></linearGradient></defs><g stroke="#151115" stroke-linecap="round" stroke-miterlimit="3.75" stroke-width=".261" transform="translate(613.134 81.837)"><path fill="url(#g)" d="M-573.518-81.7c-.476.027-.922.149-1.314.358-1.959 1.165-4.296 1.961-5.892 3.154-1.923 1.55-1.824 4.862.219 7.398 1.852 2.295 4.702 3.2 6.676 2.12 1.75-1.542 3.727-3.57 5.23-5.179 1.098-1.455.815-3.845-.674-5.695-1.136-1.41-2.765-2.237-4.247-2.156z"/><path fill="url(#h)" d="M-581.665-78.61a5.075 5.075 0 0 0-2.103.575c-3.134 1.864-6.875 3.138-9.43 5.048-3.076 2.479-2.919 7.78.352 11.84 2.963 3.67 7.526 5.12 10.684 3.391 2.8-2.468 5.965-5.714 8.37-8.288 1.757-2.328 1.304-6.153-1.078-9.114-1.818-2.256-4.424-3.58-6.796-3.451z"/><path fill="url(#i)" d="M-592.282-74.061a7 7 0 0 0-2.9.791c-4.322 2.57-9.48 4.328-13.003 6.96-4.242 3.42-4.025 10.729.485 16.327 4.087 5.063 10.378 7.06 14.733 4.678 3.86-3.404 8.225-7.88 11.54-11.43 2.424-3.21 1.8-8.485-1.486-12.567-2.506-3.11-6.1-4.936-9.37-4.76z"/><ellipse cx="-433.1" cy="-420.673" fill="url(#j)" rx="10.392" ry="13.711" transform="rotate(-38.868)"/><ellipse cx="-433.434" cy="-420.778" fill="url(#k)" rx="6.101" ry="8.049" transform="rotate(-38.868)"/></g><g stroke="#696666" stroke-width="3.78"><path fill="url(#l)" d="M1979.491-231.018l80.875-57.486v121.93l-80.875 60.808z" transform="matrix(.11747 0 0 .11747 -170.594 62.168)"/><path fill="#ffd100" stroke-width=".4440366" d="M36.603 20.466l11.229-4.409 23.602 12.221-9.5 6.753z"/><path fill="url(#m)" d="M1823.918-426.322l78.643-34.692 76.564 36.193-87.188 37.666-68.02-39.167" transform="matrix(.11747 0 0 .11747 -170.594 62.168)"/><path fill="url(#n)" d="M1763.85-355.004l60.068 34.588v-105.906l68.02 39.167v105.721l87.553 50.416v125.252l-217.9-150.143z" transform="matrix(.11747 0 0 .11747 -170.594 62.168)"/><path fill="url(#o)" d="M1891.937-387.155l87.188-37.666 3.165 99.617-90.353 43.77z" transform="matrix(.11747 0 0 .11747 -170.594 62.168)"/></g></svg>