<svg xmlns="http://www.w3.org/2000/svg" xmlns:xlink="http://www.w3.org/1999/xlink" viewBox="0 0 69.45 68.295"><defs><filter id="f" color-interpolation-filters="sRGB"><feGaussianBlur result="fbSourceGraphic" stdDeviation="5"/><feGaussianBlur in="SourceGraphic" result="result1" stdDeviation=".01"/><feComposite in="fbSourceGraphic" in2="result1" k2=".5" k3=".5" operator="arithmetic" result="result2"/><feBlend in2="fbSourceGraphic" result="result3"/></filter><radialGradient id="g" cx="89.51" cy="22.254" r="18.279" gradientTransform="matrix(1 0 0 .97468 0 .44)" gradientUnits="userSpaceOnUse" xlink:href="#a"/><linearGradient id="a"><stop/><stop offset="1" stop-opacity=".536"/></linearGradient><filter id="h" width="1.294" height="1.29" x="-.147" y="-.145"><feGaussianBlur stdDeviation="1.819"/></filter><linearGradient id="i" x1="98.33" x2="86.82" y1="14.793" y2="25.1" gradientTransform="matrix(.96715 0 0 .96715 115.415 -2.733)" gradientUnits="userSpaceOnUse" xlink:href="#b"/><linearGradient id="b"><stop/><stop offset="1" stop-color="#ddd" stop-opacity="0"/></linearGradient><linearGradient id="j" x1="152.847" x2="317.393" y1="145.552" y2="145.552" gradientUnits="userSpaceOnUse" xlink:href="#c"/><linearGradient id="c"><stop offset="0" stop-color="#dddd98"/><stop offset=".557" stop-color="#f2f654" stop-opacity=".498"/><stop offset="1" stop-color="#faff7d" stop-opacity=".184"/></linearGradient><linearGradient id="m" x1="-305.474" x2="-231.968" y1="106.741" y2="106.741" gradientTransform="translate(42.205 -361.188) scale(1.24854)" gradientUnits="userSpaceOnUse" xlink:href="#c"/><linearGradient id="n" x1="-221.792" x2="-177.358" y1="54.832" y2="54.832" gradientTransform="translate(42.205 -361.188) scale(1.24854)" gradientUnits="userSpaceOnUse" xlink:href="#c"/><linearGradient id="o" x1="1813.324" x2="1833.511" y1="-397.491" y2="-397.491" gradientTransform="matrix(4.21518 0 0 4.20402 -5666.095 1473.993)" gradientUnits="userSpaceOnUse" xlink:href="#d"/><linearGradient id="d" x1="301.8" x2="288.56" y1="267.55" y2="839.03" gradientTransform="translate(0 73.469)" gradientUnits="userSpaceOnUse"><stop offset="0" stop-color="#ffdc10"/><stop offset=".395" stop-color="#f4b908"/><stop offset=".75" stop-color="#eea704"/><stop offset="1" stop-color="#c68000"/></linearGradient><linearGradient id="p" x1="1776.666" x2="1815.079" y1="-450.134" y2="-450.134" gradientTransform="matrix(4.21518 0 0 4.20402 -5666.095 1473.993)" gradientUnits="userSpaceOnUse" xlink:href="#d"/><linearGradient id="q" x1="1761.624" x2="1814.324" y1="-413.855" y2="-413.855" gradientTransform="matrix(4.21518 0 0 4.20402 -5666.095 1473.993)" gradientUnits="userSpaceOnUse" xlink:href="#e"/><linearGradient id="e" x1="181.75" x2="148.84" y1="231.55" y2="781.62" gradientTransform="translate(0 73.469)" gradientUnits="userSpaceOnUse"><stop offset="0" stop-color="#ffdc10"/><stop offset=".362" stop-color="#f4b908"/><stop offset=".75" stop-color="#eea704"/><stop offset="1" stop-color="#da9302"/></linearGradient><linearGradient id="r" x1="1792.553" x2="1814.998" y1="-434.589" y2="-434.589" gradientTransform="matrix(4.21518 0 0 4.20402 -5666.095 1473.993)" gradientUnits="userSpaceOnUse" xlink:href="#d"/><linearGradient id="l" x1="152.847" x2="317.393" y1="145.552" y2="145.552" gradientUnits="userSpaceOnUse" xlink:href="#c"/><linearGradient id="k" x1="152.847" x2="317.393" y1="145.552" y2="145.552" gradientUnits="userSpaceOnUse" xlink:href="#c"/></defs><path d="M20.98-.137v165.606h200.63V30.659L191.69-.137h-56.004z" filter="url(#f)" transform="matrix(.16804 0 0 .16804 -.154 37.708)"/><path fill="#fff" d="M3.371 37.685V65.512h33.713V42.86l-5.027-5.175h-9.411z"/><path fill="url(#g)" d="M81.698 28.31l.135-8.351c.068-6.6-.877-11.548-4.047-16.012l2.576-.031 27.5 25.615c-4.067-2.646-9.62-.791-16.861-1.026z" filter="url(#h)" opacity=".505" transform="matrix(.17074 0 0 .1869 18.336 37.205)"/><path fill="#eee" d="M32.878 41.6l.022-1.357c.01-1.072-.453-1.82-.968-2.546l5.019 5.14c-.661-.43-1.385-1.167-2.562-1.205z"/><path fill="url(#i)" d="M196.575 23.165l.13-8.076c.066-6.383-2.69-10.837-5.757-15.153l29.867 30.588c-3.935-2.559-8.24-6.943-15.243-7.17z" transform="matrix(.16804 0 0 .16804 -.154 37.708)"/><path fill="url(#l)" stroke="#000" stroke-width=".794" d="M84.153 308.87v8.097h-8.267v8.524h27.848v-8.524h-8.268v-8.098H89.81z" transform="matrix(.53056 0 0 .53056 -33.768 -120.003)"/><path fill="url(#m)" stroke="#000" stroke-width="2.497" d="M-337.943-242.587h89.278v29.338h-89.278z" transform="matrix(.16804 0 0 .16804 63.248 97.27)"/><path fill="url(#n)" stroke="#000" stroke-width="2.479" d="M-233.472-318.756h53v52.055h-53z" transform="matrix(.16804 0 0 .16804 63.248 97.27)"/><path fill="none" stroke="#625454" stroke-dasharray="9.077 2.269" stroke-width=".38128276" d="M24.127 48.166h8.727M10.88 56.615v4.969M16.882 56.552v4.84"/><g><path fill="none" d="M35.915 5.862C14.125 10.32 14.999 26.95 14.963 27.098l6.481 1.559-12.593 6.436L2.237 23.96l6.552 1.576s.278-22.69 27.126-19.674z"/><path fill="#62b01e" fill-rule="evenodd" d="M35.915 5.862C14.125 10.32 14.999 26.95 14.963 27.098l6.481 1.559-12.593 6.436L2.237 23.96l6.552 1.576s.278-22.69 27.126-19.674z"/></g><g stroke="#696666" stroke-linecap="round" stroke-linejoin="round" stroke-width="3.776"><path fill="url(#o)" d="M1979.491-231.018l80.875-57.486v121.93l-80.875 60.808z" transform="matrix(.12183 0 0 .12183 -181.789 56.394)"/><path fill="#ffd100" stroke-width=".46003007999999995" d="M33.096 13.145l11.646-4.573L69.22 21.246l-9.853 7.004z"/><path fill="url(#p)" d="M1823.918-426.322l78.643-34.692 76.564 36.193-87.188 37.666-68.02-39.167" transform="matrix(.12183 0 0 .12183 -181.789 56.394)"/><path fill="url(#q)" d="M1763.85-355.004l60.068 34.588v-105.906l68.02 39.167v105.721l87.553 50.416v125.252l-217.9-150.143z" transform="matrix(.12183 0 0 .12183 -181.789 56.394)"/><path fill="url(#r)" d="M1891.937-387.155l87.188-37.666 3.165 99.617-90.353 43.77z" transform="matrix(.12183 0 0 .12183 -181.789 56.394)"/></g></svg>