<svg xmlns="http://www.w3.org/2000/svg" xmlns:xlink="http://www.w3.org/1999/xlink" viewBox="0 0 49.119 41.222"><defs><linearGradient id="b" x1="-160.605" x2="-237.695" y1="295.235" y2="365.188" gradientTransform="matrix(.26458 0 0 .26458 133.499 18.913)" gradientUnits="userSpaceOnUse" xlink:href="#a"/><linearGradient id="a"><stop offset="0" stop-color="#58a2c1"/><stop offset=".272" stop-color="#86d0ef"/><stop offset=".481" stop-color="#56a0bf"/><stop offset=".747" stop-color="#86d0ef"/><stop offset="1" stop-color="#58a2c1"/></linearGradient></defs><path fill="url(#b)" stroke="#000" stroke-width=".265" d="M72.628 117.703c-2.538-2.629-5.362-5.551-6.275-6.494l-1.66-1.713.302-1.592c.39-2.063.91-3.245 1.752-3.984 1.258-1.104 3.594-1.926 6.915-2.431 2.415-.368 2.971-.838 4.443-3.753 1.978-3.919 3.483-5.182 6.782-5.692l1.397-.216.71.821c.39.452 2.829 3.201 5.42 6.11l4.71 5.288-3.147 1.04c-.936.31-3.088-3.034-3.986-2.973-2.796.19-3.94 2.598-4.94 3.849-.492.617 3.736 2.788 3.199 3.655-2.19 3.535-3.465 4.634-5.893 5.083-2.545.47-3.92 2.281-4.793 6.307l-.32 1.476z" transform="translate(-56.328 -86.645)"/><path fill="none" stroke="#d34441" stroke-dasharray="2.003 2.003" stroke-width=".26510915999999995" d="M7.684 27.803l.047-.189c.376-1.558.445-3.171.635-4.763.138-1.152.343-2.305.773-3.381.43-1.077 1.101-2.08 2.038-2.762.677-.493 1.47-.805 2.28-1.016.81-.21 1.642-.323 2.469-.45.827-.128 1.656-.272 2.448-.54.793-.268 1.553-.667 2.152-1.252.702-.686 1.146-1.588 1.54-2.486.395-.899.758-1.823 1.34-2.613.739-1.003 1.8-1.739 2.943-2.231 1.145-.493 2.375-.755 3.607-.937a30.017 30.017 0 0 1 6.717-.232M20.254 40.363c.017-.063.032-.126.048-.19.376-1.557.437-3.172.635-4.763.143-1.148.361-2.296.795-3.368.435-1.072 1.098-2.07 2.016-2.775.728-.558 1.589-.913 2.445-1.244.855-.33 1.726-.648 2.497-1.146 1.11-.715 1.958-1.766 2.728-2.839.77-1.073 1.489-2.194 2.422-3.128 1.891-1.892 4.523-2.87 7.151-3.368a24.985 24.985 0 0 1 5.182-.432"/><path fill="none" stroke="#979a17" stroke-dasharray="2.003 2.003" stroke-width=".26510915999999995" d="M25.505.088l20.9 23.637M4.138 18.383l21.84 22.747"/><text style="line-height:1.25" x="96.669" y="101.594" fill="#d34441" stroke-width=".265" font-family="sans-serif" font-size="10.583" font-weight="400" letter-spacing="0" transform="translate(-56.328 -86.645)" word-spacing="0"><tspan x="96.669" y="101.594" font-size="3.528">U<tspan baseline-shift="sub" font-size="2.293">min</tspan></tspan></text><text style="line-height:1.25" x="56.304" y="111.635" fill="#d34441" stroke-width=".265" font-family="sans-serif" font-size="10.583" font-weight="400" letter-spacing="0" transform="translate(-56.328 -86.645)" word-spacing="0"><tspan x="56.304" y="111.635" font-size="3.528">U<tspan baseline-shift="sub" font-size="2.293">max</tspan></tspan></text><text style="line-height:1.25" x="84.671" y="89.438" fill="#979a17" stroke-width=".265" font-family="sans-serif" font-size="10.583" font-weight="400" letter-spacing="0" transform="translate(-56.328 -86.645)" word-spacing="0"><tspan x="84.671" y="89.438" font-size="3.528">V<tspan baseline-shift="sub" font-size="2.293">max</tspan></tspan></text><text style="line-height:1.25" x="79.927" y="124.331" fill="#979a17" stroke-width=".265" font-family="sans-serif" font-size="10.583" font-weight="400" letter-spacing="0" transform="translate(-56.328 -86.645)" word-spacing="0"><tspan x="79.927" y="124.331" font-size="3.528">V<tspan baseline-shift="sub" font-size="2.293">min</tspan></tspan></text></svg>