<svg xmlns="http://www.w3.org/2000/svg" xmlns:xlink="http://www.w3.org/1999/xlink" viewBox="0 0 54.254 56.407"><defs><filter id="d"><feGaussianBlur stdDeviation="2.586"/></filter><radialGradient id="e" cx="81.79" cy="100.32" r="44.42" gradientTransform="matrix(2.0026 -1.59703 1.77733 2.2287 -279.236 23.704)" gradientUnits="userSpaceOnUse" xlink:href="#a"/><linearGradient id="a"><stop stop-color="#eee"/><stop offset="1" stop-color="#d2d2d2"/></linearGradient><radialGradient id="f" cx="89.51" cy="22.254" r="18.279" gradientTransform="matrix(1 0 0 .97468 0 .44)" gradientUnits="userSpaceOnUse" xlink:href="#b"/><linearGradient id="b"><stop/><stop offset="1" stop-opacity=".536"/></linearGradient><filter id="g" width="1.294" height="1.29" x="-.147" y="-.145"><feGaussianBlur stdDeviation="1.819"/></filter><linearGradient id="h" x1="98.33" x2="86.82" y1="14.793" y2="25.1" gradientTransform="matrix(.96715 0 0 .96715 .456 -.087)" gradientUnits="userSpaceOnUse" xlink:href="#c"/><linearGradient id="c"><stop/><stop offset="1" stop-color="#ddd" stop-opacity="0"/></linearGradient></defs><path d="M20.094 4.119v118h88.844V35.962l-.594-.625c.21.145.417.302.625.438L78.094 4.15c.056.08.1.17.156.25L78 4.119z" filter="url(#d)" opacity=".809" transform="matrix(.2165 0 0 .21743 28.737 1.67)"/><path fill="url(#e)" d="M19.89 2.543v114.123h85.925V33.34L75.894 2.543z" transform="matrix(.22386 0 0 .22386 28.635 1.808)"/><path fill="url(#f)" d="M81.698 28.31l.135-8.351c.068-6.6-.877-11.548-4.047-16.012l2.576-.031 27.5 25.615c-4.067-2.646-9.62-.791-16.861-1.026z" filter="url(#g)" opacity=".505" transform="matrix(.22746 0 0 .24899 27.533 1.73)"/><path fill="#eee" d="M46.906 7.586l.029-1.808c.015-1.429-.603-2.426-1.289-3.392l6.686 6.847c-.88-.573-1.845-1.554-3.412-1.605z"/><path fill="url(#h)" d="M81.616 25.812l.13-8.077c.066-6.382-2.691-10.836-5.757-15.153l29.867 30.588c-3.935-2.558-8.24-6.942-15.243-7.169z" transform="matrix(.22386 0 0 .22386 28.635 1.808)"/><path fill="#24a644" stroke="#9a9a9a" stroke-linecap="round" stroke-width="2.534" d="M-20.614 20.959H57.12v29.67h-77.734z" transform="matrix(.22386 0 0 .22386 28.635 1.808)"/><text x="-14.149" y="46.079" style="line-height:1.25" fill="#fdfdfd" stroke-width=".706" font-family="sans-serif" font-size="28.256" font-weight="400" letter-spacing="0" transform="matrix(.22386 0 0 .22386 28.635 1.808)" word-spacing="0"><tspan style="-inkscape-font-specification:'sans-serif Bold'" x="-14.149" y="46.079" font-weight="700">CSV</tspan></text><g fill="#24a644"><path d="M34.351 16.632h8.075v2.079h-8.075zM34.351 19.71h8.075v2.079h-8.075zM34.351 22.828h8.075v2.079h-8.075z"/></g><g fill="#24a644"><path d="M43.345 16.632h8.075v2.079h-8.075zM43.345 19.71h8.075v2.079h-8.075zM43.345 22.828h8.075v2.079h-8.075z"/></g><g fill="#147a0a"><path d="M20.8 18.005c.288-.204 1.127-.23 2.753-.198 7.112.14 7.283.43 7.533.732l.09.172c.078.402-.011.66-.892 3.452-.246.78-.74 2.398-1.1 3.6C28.29 28.749 28.18 28.82 27 27.19c-.698-.963-.758-1.027-1.074-1.078-.288-.046-.462.032-1.193.481-1.995 1.23-3.695 3.145-4.763 5.366-.446.927-.569 1.232-.893 2.406-.156.562-.243.736-.545.955-.273.199-.414.22-.566.146-.79-.384-.961-2.42-.46-5.482.506-3.082 1.747-5.778 3.83-8.27.892-1.067.899-1.083.004-2.318-.567-.783-.828-1.187-.54-1.392z"/></g><g transform="translate(-964.457 -642.133)"><circle cx="974.919" cy="678.708" r="1.964" fill="#0b50bb" paint-order="markers fill stroke"/><path fill="none" stroke="#0b50bb" stroke-linecap="round" stroke-width="2" d="M971.575 678.72h6.735M974.92 682.169v-6.735M977.3 680.949l-4.762-4.763M972.585 681.066l4.762-4.763"/></g><g transform="translate(-949.139 -638.719)"><circle cx="974.919" cy="678.708" r="1.964" fill="#0b50bb" paint-order="markers fill stroke"/><path fill="none" stroke="#0b50bb" stroke-linecap="round" stroke-width="2" d="M971.575 678.72h6.735M974.92 682.169v-6.735M977.3 680.949l-4.762-4.763M972.585 681.066l4.762-4.763"/></g><g transform="translate(-958.961 -631.703)"><circle cx="974.919" cy="678.708" r="1.964" fill="#0b50bb" paint-order="markers fill stroke"/><path fill="none" stroke="#0b50bb" stroke-linecap="round" stroke-width="2" d="M971.575 678.72h6.735M974.92 682.169v-6.735M977.3 680.949l-4.762-4.763M972.585 681.066l4.762-4.763"/></g><g transform="translate(-945.837 -626.776)"><circle cx="974.919" cy="678.708" r="1.964" fill="#0b50bb" paint-order="markers fill stroke"/><path fill="none" stroke="#0b50bb" stroke-linecap="round" stroke-width="2" d="M971.575 678.72h6.735M974.92 682.169v-6.735M977.3 680.949l-4.762-4.763M972.585 681.066l4.762-4.763"/></g><g transform="translate(-970.56 -631.61)"><circle cx="974.919" cy="678.708" r="1.964" fill="#0b50bb" paint-order="markers fill stroke"/><path fill="none" stroke="#0b50bb" stroke-linecap="round" stroke-width="2" d="M971.575 678.72h6.735M974.92 682.169v-6.735M977.3 680.949l-4.762-4.763M972.585 681.066l4.762-4.763"/></g></svg>