<svg xmlns="http://www.w3.org/2000/svg" xmlns:xlink="http://www.w3.org/1999/xlink" viewBox="0 0 47.638 61.797"><defs><filter id="f"><feGaussianBlur stdDeviation="2.586"/></filter><radialGradient id="g" cx="81.79" cy="100.32" r="44.42" gradientTransform="matrix(2.0026 -1.59703 1.77733 2.2287 -279.236 23.704)" gradientUnits="userSpaceOnUse" xlink:href="#a"/><linearGradient id="a"><stop stop-color="#eee"/><stop offset="1" stop-color="#d2d2d2"/></linearGradient><radialGradient id="h" cx="89.51" cy="22.254" r="18.279" gradientTransform="matrix(1 0 0 .97468 0 .44)" gradientUnits="userSpaceOnUse" xlink:href="#b"/><linearGradient id="b"><stop/><stop offset="1" stop-opacity=".536"/></linearGradient><filter id="i" width="1.294" height="1.29" x="-.147" y="-.145"><feGaussianBlur stdDeviation="1.819"/></filter><linearGradient id="q" x1="98.33" x2="86.82" y1="14.793" y2="25.1" gradientTransform="matrix(.96715 0 0 .96715 .456 -.087)" gradientUnits="userSpaceOnUse" xlink:href="#c"/><linearGradient id="c"><stop/><stop offset="1" stop-color="#ddd" stop-opacity="0"/></linearGradient><linearGradient id="r" x1="342.25" x2="359.239" y1="-112.642" y2="-103.288" gradientTransform="translate(392.842 146.398)" gradientUnits="userSpaceOnUse" xlink:href="#d"/><linearGradient id="d"><stop offset="0" stop-color="#fff9a6"/><stop offset="1" stop-color="#b9ad1b"/></linearGradient><linearGradient id="l" x1="1441.622" x2="1561.714" y1="4554.757" y2="4695.872" gradientTransform="matrix(.1713 0 0 .1713 1276.907 4557.148)" gradientUnits="userSpaceOnUse" xlink:href="#e"/><linearGradient id="e"><stop offset="0" stop-color="#ca3131"/><stop offset="1" stop-color="#603030"/></linearGradient><filter id="m"><feGaussianBlur stdDeviation="2.586"/></filter><radialGradient id="n" cx="81.79" cy="100.32" r="44.42" gradientTransform="matrix(2.0026 -1.59703 1.77733 2.2287 -279.236 23.704)" gradientUnits="userSpaceOnUse" xlink:href="#a"/><radialGradient id="o" cx="89.51" cy="22.254" r="18.279" gradientTransform="matrix(1 0 0 .97468 0 .44)" gradientUnits="userSpaceOnUse" xlink:href="#b"/><filter id="p" width="1.294" height="1.29" x="-.147" y="-.145"><feGaussianBlur stdDeviation="1.819"/></filter><linearGradient id="j" x1="98.33" x2="86.82" y1="14.793" y2="25.1" gradientTransform="matrix(.96715 0 0 .96715 .456 -.087)" gradientUnits="userSpaceOnUse" xlink:href="#c"/><linearGradient id="k" x1="342.25" x2="359.239" y1="-112.642" y2="-103.288" gradientTransform="translate(392.842 146.398)" gradientUnits="userSpaceOnUse" xlink:href="#d"/></defs><g opacity=".5"><path d="M20.094 4.119v118h88.844V35.962l-.594-.625c.21.145.417.302.625.438L78.094 4.15c.056.08.1.17.156.25L78 4.119z" filter="url(#f)" opacity=".809" transform="matrix(.34095 0 0 .3424 -.283 5.832)"/><path fill="url(#g)" d="M19.89 2.543v114.123h85.925V33.34L75.894 2.543z" transform="matrix(.35253 0 0 .35253 -.444 6.049)"/><path fill="url(#h)" d="M81.698 28.31l.135-8.351c.068-6.6-.877-11.548-4.047-16.012l2.576-.031 27.5 25.615c-4.067-2.646-9.62-.791-16.861-1.026z" filter="url(#i)" opacity=".505" transform="matrix(.3582 0 0 .3921 -2.18 5.927)"/><path fill="#eee" d="M28.328 15.148l.046-2.847c.024-2.25-.948-3.82-2.03-5.342l10.53 10.783c-1.387-.902-2.905-2.447-5.374-2.527z"/><path fill="url(#j)" d="M81.616 25.812l.13-8.077c.066-6.382-2.691-10.836-5.757-15.153l29.867 30.588c-3.935-2.558-8.24-6.942-15.243-7.169z" transform="matrix(.35253 0 0 .35253 -.444 6.049)"/><path fill="url(#k)" stroke="#000" stroke-width=".5" d="M734.924 28.385v8.098h-8.268v8.524h27.848v-8.524h-8.267v-8.098h-5.657z" transform="translate(-719.152 -9.77)"/></g><path fill="url(#l)" d="M1550.293 5333.775a4.348 4.348 0 0 0-6.161 0l-10.187 10.187-10.187-10.187a4.348 4.348 0 0 0-6.162 0 4.348 4.348 0 0 0 0 6.161l10.187 10.187-10.186 10.187a4.348 4.348 0 0 0 0 6.161 4.348 4.348 0 0 0 6.161 0l10.187-10.187 10.187 10.187a4.348 4.348 0 0 0 6.16 0 4.348 4.348 0 0 0 0-6.161l-10.186-10.187 10.187-10.187a4.348 4.348 0 0 0 0-6.161z" opacity=".889" transform="matrix(.43435 0 0 .41084 -658.61 -2190.815)"/><path d="M20.094 4.119v118h88.844V35.962l-.594-.625c.21.145.417.302.625.438L78.094 4.15c.056.08.1.17.156.25L78 4.119z" filter="url(#m)" opacity=".809" transform="matrix(.34095 0 0 .3424 7.455 15.944)"/><path fill="url(#n)" d="M19.89 2.543v114.123h85.925V33.34L75.894 2.543z" transform="matrix(.35253 0 0 .35253 7.295 16.16)"/><path fill="url(#o)" d="M81.698 28.31l.135-8.351c.068-6.6-.877-11.548-4.047-16.012l2.576-.031 27.5 25.615c-4.067-2.646-9.62-.791-16.861-1.026z" filter="url(#p)" opacity=".505" transform="matrix(.3582 0 0 .3921 5.559 16.039)"/><path fill="#eee" d="M36.067 25.26l.046-2.847c.023-2.25-.95-3.82-2.03-5.342l10.529 10.783c-1.387-.902-2.905-2.447-5.374-2.527z"/><path fill="url(#q)" d="M81.616 25.812l.13-8.077c.066-6.382-2.691-10.836-5.757-15.153l29.867 30.588c-3.935-2.558-8.24-6.942-15.243-7.169z" transform="matrix(.35253 0 0 .35253 7.295 16.16)"/><path fill="url(#r)" stroke="#000" stroke-width=".5" d="M734.924 28.385v8.098h-8.268v8.524h27.848v-8.524h-8.267v-8.098h-5.657z" transform="translate(-711.414 .341)"/></svg>