<svg xmlns="http://www.w3.org/2000/svg" xmlns:xlink="http://www.w3.org/1999/xlink" viewBox="0 0 49.404 45.508"><defs><linearGradient id="d" x1="48.906" x2="50.988" y1="17.376" y2="22.251" gradientTransform="scale(1 -1) rotate(-89.699 22.753 -20.363)" gradientUnits="userSpaceOnUse" xlink:href="#a"/><linearGradient id="a" x1="48.906" x2="50.988" y1="17.376" y2="22.251" gradientTransform="scale(1 -1) rotate(-89.699 22.753 -20.363)" gradientUnits="userSpaceOnUse"><stop offset="0" stop-color="#ffd1d1"/><stop offset=".5" stop-color="#ff1d1d"/><stop offset="1" stop-color="#6f0000"/></linearGradient><linearGradient id="e" x1="46" x2="47.688" y1="19.812" y2="22.625" gradientTransform="scale(1 -1) rotate(-89.699 22.753 -20.363)" gradientUnits="userSpaceOnUse" xlink:href="#b"/><linearGradient id="b" x1="46" x2="47.688" y1="19.812" y2="22.625" gradientTransform="scale(1 -1) rotate(-89.699 22.753 -20.363)" gradientUnits="userSpaceOnUse"><stop offset="0" stop-color="#c1c1c1"/><stop offset="1" stop-color="#acacac"/></linearGradient><radialGradient id="f" cx="29.053" cy="27.641" r="3.241" gradientTransform="matrix(.01538 2.9235 2.0297 -.01068 20.391 -69.727)" gradientUnits="userSpaceOnUse"><stop offset="0" stop-color="#e7e2b8"/><stop offset="1" stop-color="#e7e2b8" stop-opacity="0"/></radialGradient><linearGradient id="g" x1="25.719" x2="25.515" y1="31.047" y2="30.703" gradientTransform="scale(1 -1) rotate(-89.699 31.456 -17.402)" gradientUnits="userSpaceOnUse" xlink:href="#c"/><linearGradient id="c" x1="25.719" x2="25.515" y1="31.047" y2="30.703" gradientTransform="scale(1 -1) rotate(-89.699 31.456 -17.402)" gradientUnits="userSpaceOnUse"><stop offset="0"/><stop offset="1" stop-color="#c9c9c9"/></linearGradient></defs><g fill="none" stroke="#9f9f9f" stroke-dasharray="8 2 1 2"><path stroke-width=".43" d="M3.413 0v45.508M10.069 0v45.508M16.724 0v45.508M23.38 0v45.508M30.035 0v45.508M36.691 0v45.508M43.347 0v45.508"/></g><g fill="none" stroke="#9f9f9f" stroke-dasharray="8 2 1 2"><path stroke-width=".43" d="M45.508 3.188H0M45.508 9.843H0M45.508 16.499H0M45.508 23.155H0M45.508 29.81H0M45.508 36.466H0M45.508 43.121H0"/></g><path fill="none" stroke="#0b56b6" stroke-width="2.5243408" d="M36.097 15.955h-19.87v15.812c-.045 5.415 1.899 5.438 6.733 5.394h19.649"/><path fill="none" stroke="#0b56b6" stroke-width="2.5243408" d="M24.458 4.03H4.588V19.84c-.045 5.415 1.899 5.438 6.733 5.394h19.65" opacity=".3"/><path fill="none" stroke="#0b56b6" stroke-width="2.5243408" d="M29.884 9.455h-19.87v15.812c-.045 5.414 1.898 5.437 6.732 5.393h19.65" opacity=".3"/><g fill-rule="evenodd"><path fill="#cb9022" stroke="#5c410c" stroke-width=".7306" d="M25.194 37.044l2.516-5.239 18.023-18.279c1.938-1.648 4.393 1.071 2.805 2.887L30.466 34.419z"/><path fill="url(#d)" d="M63.227 41.398s.101 1.437 1.354 1.993c1.291.573 2.656-.014 2.656-.014l-2.442 5.044s-.874 1.457-2.84.671c-1.94-.774-1.171-2.681-1.171-2.681z" transform="scale(.7306 -.7306) rotate(-70.354 15.588 12.207)"/><path fill="url(#e)" d="M63.227 41.398s.101 1.437 1.354 1.993c1.291.573 2.656-.014 2.656-.014l-.989 2.005s-1.315.834-2.687.233c-1.409-.618-1.324-2.212-1.324-2.212z" transform="scale(.7306 -.7306) rotate(-70.354 15.588 12.207)"/><path fill="url(#f)" d="M80.478 10.282l-4.476 4.524c.82 1.495 2.168 2.27 3.728 1.855z" transform="scale(.7306 -.7306) rotate(-70.354 15.588 12.207)"/><path fill="url(#g)" d="M79.079 11.633L80.664 10l-.3 2.345c-.718.223-1.064-.182-1.285-.712z" transform="scale(.7306 -.7306) rotate(-70.354 15.588 12.207)"/><path fill="#fff" fill-opacity=".364" d="M28.01 31.991l1.38.483 15.404-15.42c-.514-.483-1.119-.447-1.593-.34z"/><path fill-opacity=".364" d="M30.225 34.165l-.053-.562 15.336-15.21s.073.45.033.569z"/><path fill="#fff" d="M25.888 36.44l2.173-4.476L37.911 22 28.493 32.12l-2.606 4.32z" opacity=".725"/><path fill="#fff" d="M25.856 36.35l4.406-2.255 8.25-8.197-8.337 8.05-.069-.387-4.25 2.79z" opacity=".418"/></g></svg>