<svg xmlns="http://www.w3.org/2000/svg" viewBox="0 0 36 36"><path fill="none" stroke="gray" stroke-width="2.524" d="M21.55 7.388H1.68V23.2c-.044 5.415 1.9 5.438 6.733 5.394h19.65"/><g transform="matrix(.4469 0 0 .4469 -480.658 -13.608)"><path fill="#5a5a5a" d="M1084.563 71.389c26.328-28.57 49.402-24.183 70.615-.96-36.311 37.317-52.139 15.3-70.616.96z"/><circle cx="1119.75" cy="71.269" r="10.622" fill="none" stroke="#fff" stroke-linecap="round" stroke-width="7.353" paint-order="markers fill stroke"/></g><path style="line-height:normal;font-variant-ligatures:normal;font-variant-position:normal;font-variant-caps:normal;font-variant-numeric:normal;font-variant-alternates:normal;font-variant-east-asian:normal;font-feature-settings:normal;font-variation-settings:normal;text-indent:0;text-align:start;text-decoration-line:none;text-decoration-style:solid;text-decoration-color:#000;text-transform:none;text-orientation:mixed;white-space:normal;shape-padding:0;shape-margin:0;inline-size:0;isolation:auto;mix-blend-mode:normal;solid-color:#000;solid-opacity:1" fill="#5a5a5a" d="M7.878 9.153a1.5 1.5 0 0 0-1.26.75 1.5 1.5 0 0 0 .549 2.049L30.45 25.395a1.5 1.5 0 0 0 2.049-.55 1.5 1.5 0 0 0-.55-2.05L8.668 9.354a1.5 1.5 0 0 0-.79-.201z" color="#000" font-family="sans-serif" font-weight="400" overflow="visible"/></svg>