<svg xmlns="http://www.w3.org/2000/svg" xmlns:xlink="http://www.w3.org/1999/xlink" viewBox="0 0 39.605 57.549"><defs><linearGradient id="d" x1="-660.836" x2="-657.204" y1="84.093" y2="84.093" gradientTransform="translate(2533.176 -343.225) scale(4.8729)" gradientUnits="userSpaceOnUse" xlink:href="#a"/><linearGradient id="a" x1="181.75" x2="148.84" y1="231.55" y2="781.62" gradientTransform="translate(0 73.469)" gradientUnits="userSpaceOnUse"><stop offset="0" stop-color="#ffdc10"/><stop offset=".362" stop-color="#f4b908"/><stop offset=".75" stop-color="#eea704"/><stop offset="1" stop-color="#da9302"/></linearGradient><linearGradient id="e" x1="-660.836" x2="-655.099" y1="80.585" y2="80.585" gradientTransform="translate(2533.176 -343.225) scale(4.8729)" gradientUnits="userSpaceOnUse" xlink:href="#a"/><linearGradient id="f" x1="-657.336" x2="-655.429" y1="81.754" y2="86.051" gradientTransform="translate(2533.176 -343.225) scale(4.8729)" gradientUnits="userSpaceOnUse" xlink:href="#a"/><linearGradient id="g" x1="-664.765" x2="-662.793" y1="85.262" y2="85.52" gradientTransform="translate(2533.176 -343.225) scale(4.8729)" gradientUnits="userSpaceOnUse" xlink:href="#b"/><linearGradient id="b"><stop offset="0" stop-color="#046c00"/><stop offset="1" stop-color="#10c708"/></linearGradient><linearGradient id="h" x1="-664.718" x2="-658.326" y1="82.971" y2="82.971" gradientTransform="translate(2533.176 -343.225) scale(4.8729)" gradientUnits="userSpaceOnUse" xlink:href="#b"/><linearGradient id="i" x1="-662.808" x2="-658.326" y1="84.28" y2="85.239" gradientTransform="translate(2533.176 -343.225) scale(4.8729)" gradientUnits="userSpaceOnUse" xlink:href="#c"/><linearGradient id="c"><stop offset="0" stop-color="#09e900"/><stop offset="1" stop-color="#10c708"/></linearGradient></defs><g stroke-linecap="round"><g stroke="#777" stroke-linejoin="round" stroke-width="1.291"><path fill="url(#d)" d="M-686.369 45.128l16.41 10.029-.228 32.82-16.182-11.852z" transform="matrix(.58138 0 0 .58138 415.68 -25.066)"/><path fill="url(#e)" d="M-686.369 45.128l10.257-1.367 16.41 8.205-10.257 3.19z" transform="matrix(.58138 0 0 .58138 415.68 -25.066)"/><path fill="url(#f)" d="M-669.959 55.157l10.257-3.191v33.048l-10.485 2.963z" transform="matrix(.58138 0 0 .58138 415.68 -25.066)"/><path fill="url(#g)" d="M-705.286 60.399l8.661 7.065v16.638l-8.889-7.977z" transform="matrix(.58138 0 0 .58138 415.68 -25.066)"/><path fill="url(#h)" d="M-705.286 60.399l22.564-5.698 7.293 5.47-21.196 7.293z" transform="matrix(.58138 0 0 .58138 415.68 -25.066)"/><path fill="url(#i)" d="M-696.625 67.464l21.196-7.293v16.41l-21.196 7.52z" transform="matrix(.58138 0 0 .58138 415.68 -25.066)"/></g><g fill="#b3b3b3" stroke="#777" stroke-linejoin="round" stroke-width="1.291"><path stroke-width=".75056158" d="M16.636 32.262l9.54 5.83-.132 19.081-9.408-6.89zM16.636 32.262l5.963-.795 9.54 4.77-5.963 1.855z"/><path stroke-width=".75056158" d="M26.176 38.092l5.963-1.855v19.214l-6.095 1.722zM5.638 41.14l5.035 4.108v9.673l-5.168-4.638zM5.638 41.14l13.118-3.313 4.24 3.18-12.323 4.24z"/><path stroke-width=".75056158" d="M10.673 45.248l12.323-4.24v9.54L10.673 54.92z"/></g><path fill="none" stroke="#ff2125" stroke-width="2.646" d="M8.417 36.458l25.88 15.725"/><path fill="none" stroke="#00f" stroke-width="2" d="M1 29.137h37.605"/></g></svg>