<svg xmlns="http://www.w3.org/2000/svg" xmlns:xlink="http://www.w3.org/1999/xlink" viewBox="0 0 82.192 78.185"><defs><filter id="c" color-interpolation-filters="sRGB"><feGaussianBlur result="fbSourceGraphic" stdDeviation="5"/><feGaussianBlur in="SourceGraphic" result="result1" stdDeviation=".01"/><feComposite in="fbSourceGraphic" in2="result1" k2=".5" k3=".5" operator="arithmetic" result="result2"/><feBlend in2="fbSourceGraphic" result="result3"/></filter><radialGradient id="d" cx="89.51" cy="22.254" r="18.279" gradientTransform="matrix(1 0 0 .97468 0 .44)" gradientUnits="userSpaceOnUse" xlink:href="#a"/><linearGradient id="a"><stop/><stop offset="1" stop-opacity=".536"/></linearGradient><filter id="e" width="1.294" height="1.29" x="-.147" y="-.145"><feGaussianBlur stdDeviation="1.819"/></filter><linearGradient id="f" x1="98.33" x2="86.82" y1="14.793" y2="25.1" gradientTransform="translate(1374.907 249.135) scale(.18514)" gradientUnits="userSpaceOnUse" xlink:href="#b"/><linearGradient id="b"><stop/><stop offset="1" stop-color="#ddd" stop-opacity="0"/></linearGradient></defs><g fill="#e02525"><path d="M49.876 25.327c0-.926-.643-1.479-1.778-1.479-.463 0-.777.045-.941.09v2.974c.194.044.433.059.761.059 1.211 0 1.958-.612 1.958-1.644zM56.9 23.878c-.508 0-.836.045-1.031.09v6.589c.195.046.508.046.792.046 2.062.014 3.407-1.121 3.407-3.527.015-2.093-1.21-3.198-3.167-3.198z"/><path d="M70.36 20.007h-.826v-3.985c0-.025-.004-.05-.007-.075a.662.662 0 0 0-.16-.437l-6.631-7.575-.006-.005a.67.67 0 0 0-.178-.139.695.695 0 0 0-.133-.056l-.036-.011a.673.673 0 0 0-.155-.02H45.931a1.35 1.35 0 0 0-1.349 1.35v10.952h-.826a1.928 1.928 0 0 0-1.927 1.928V31.96c0 1.064.863 1.928 1.927 1.928h.826v6.862a1.35 1.35 0 0 0 1.349 1.349h22.255a1.35 1.35 0 0 0 1.348-1.349v-6.862h.826a1.928 1.928 0 0 0 1.928-1.928V21.935a1.928 1.928 0 0 0-1.928-1.928zM45.93 9.053h15.624v6.901c0 .373.302.675.674.675h5.958v3.378H45.93zm16.558 17.948c0 1.928-.702 3.257-1.675 4.08-1.06.88-2.673 1.299-4.645 1.299-1.18 0-2.017-.075-2.585-.15V22.34c.836-.134 1.928-.21 3.078-.21 1.912 0 3.152.345 4.124 1.076 1.046.778 1.703 2.018 1.703 3.796zm-17.587 5.275v-9.937c.701-.12 1.688-.21 3.078-.21 1.404 0 2.405.27 3.078.808.642.508 1.075 1.345 1.075 2.331 0 .987-.328 1.823-.926 2.39-.777.733-1.928 1.062-3.273 1.062-.298 0-.568-.015-.776-.045v3.6H44.9zm23.285 8.108H45.93v-6.497h22.255v6.497zm1.954-16.312h-3.87v2.301h3.615v1.853H66.27v4.05h-2.285V22.205h6.156z"/></g><path fill="#fffcfc" d="M45.934 37.094v-3.155h22.08V40.248h-22.08zM45.934 14.488V9.126h15.561v3.533c0 2.467.076 3.609.253 3.785.172.173 1.2.252 3.259.252h3.007v3.154h-22.08zM44.94 27.37c0-3.478.048-4.933.167-5.007.092-.057 1.113-.11 2.27-.12 1.981-.015 2.15.007 2.946.38 1.027.48 1.579 1.229 1.707 2.312.251 2.119-1.211 3.55-3.768 3.69l-1.165.063-.042 1.792-.042 1.791H44.94zm3.936-.518c1.045-.437 1.379-1.833.619-2.593-.35-.35-.511-.396-1.397-.396h-1.001l-.043 1.403c-.024.771-.01 1.491.032 1.6.101.263 1.146.255 1.79-.014zM53.818 32.172c-.18-.18-.116-9.695.066-9.807.09-.056 1.112-.11 2.27-.12 1.617-.013 2.298.043 2.942.242 1.227.378 2.175 1.093 2.712 2.043.397.702.465.987.516 2.17.13 2.959-1.054 4.635-3.774 5.343-.887.231-4.53.33-4.732.129zm4.636-1.924c1.036-.517 1.53-1.34 1.627-2.713.039-.553-.01-1.29-.11-1.663-.336-1.24-1.623-2.083-3.18-2.083-1.037 0-.989-.17-.989 3.513v3.332h.938c.712 0 1.126-.093 1.714-.386zM63.987 27.286V22.3h6.101v1.628l-1.897.041-1.897.042-.044 1.228-.043 1.227h3.584v1.637h-3.572v4.167h-2.232z"/><g fill="#e02525"><path d="M54.544 21.607c0-.926-.643-1.479-1.778-1.479-.463 0-.776.045-.94.09v2.974c.194.044.433.059.76.059 1.211 0 1.958-.613 1.958-1.644zM61.569 20.158c-.509 0-.837.045-1.032.09v6.589c.195.045.509.045.793.045 2.061.015 3.406-1.12 3.406-3.526.015-2.093-1.21-3.198-3.167-3.198z"/><path d="M75.028 16.287h-.825v-3.985c0-.025-.004-.05-.008-.075a.662.662 0 0 0-.16-.437l-6.63-7.575-.006-.005a.67.67 0 0 0-.179-.139.695.695 0 0 0-.133-.056l-.036-.012a.673.673 0 0 0-.155-.019H50.6a1.35 1.35 0 0 0-1.349 1.349v10.953h-.825a1.928 1.928 0 0 0-1.928 1.928v10.025c0 1.064.863 1.928 1.928 1.928h.825v6.862a1.35 1.35 0 0 0 1.35 1.349h22.254a1.35 1.35 0 0 0 1.349-1.35v-6.861h.826a1.928 1.928 0 0 0 1.927-1.928V18.214a1.928 1.928 0 0 0-1.928-1.927zM50.6 5.333h15.623v6.9c0 .373.302.675.674.675h5.958v3.379H50.599zM67.156 23.28c0 1.928-.702 3.258-1.674 4.08-1.06.881-2.674 1.3-4.646 1.3-1.18 0-2.017-.075-2.585-.15V18.62c.837-.135 1.928-.21 3.079-.21 1.911 0 3.152.345 4.123 1.076 1.046.777 1.703 2.017 1.703 3.795zM49.57 28.555V18.62c.702-.12 1.688-.21 3.078-.21 1.404 0 2.406.27 3.078.808.643.508 1.075 1.344 1.075 2.33 0 .987-.328 1.824-.926 2.391C55.097 24.671 53.947 25 52.6 25c-.298 0-.568-.016-.776-.046v3.602h-2.256zm23.285 8.109H50.599v-6.497h22.255v6.497zm1.954-16.312h-3.87v2.301h3.616v1.853h-3.617v4.05h-2.285V18.483h6.156z"/></g><path fill="#fffcfc" d="M50.603 33.373V30.22h22.08v6.308h-22.08zM50.603 10.768V5.406h15.56v3.533c0 2.467.077 3.608.253 3.785.173.172 1.2.252 3.26.252h3.006v3.154h-22.08zM49.607 23.649c0-3.477.05-4.932.168-5.006.093-.057 1.114-.111 2.27-.12 1.981-.015 2.15.006 2.946.38 1.027.48 1.58 1.228 1.708 2.312.25 2.119-1.212 3.55-3.768 3.69l-1.166.063-.042 1.791-.042 1.792h-2.074zm3.937-.517c1.045-.437 1.379-1.834.62-2.593-.35-.35-.512-.396-1.398-.396h-1l-.044 1.403c-.024.77-.009 1.49.033 1.6.1.262 1.146.255 1.79-.014zM58.487 28.452c-.18-.18-.116-9.695.065-9.807.091-.056 1.112-.11 2.27-.12 1.617-.013 2.298.043 2.942.241 1.227.379 2.176 1.094 2.713 2.044.396.702.464.987.516 2.17.129 2.958-1.055 4.634-3.774 5.343-.888.23-4.53.33-4.732.129zm4.635-1.924c1.037-.517 1.53-1.34 1.627-2.713.04-.554-.01-1.29-.11-1.663-.335-1.24-1.622-2.083-3.18-2.083-1.036 0-.988-.171-.988 3.513v3.332h.938c.711 0 1.125-.093 1.713-.386zM68.655 23.566V18.58h6.101v1.628l-1.897.042-1.897.042-.043 1.227-.044 1.228h3.584v1.637H70.888v4.167h-2.233z"/><path d="M20.98-.137v165.606h200.63V30.659L191.69-.137h-56.004z" filter="url(#c)" transform="translate(-.176 43.339) scale(.19143)"/><path fill="#fffce2" d="M3.84 43.313V75.015h38.408V49.208l-5.728-5.895H25.799z"/><path fill="url(#d)" d="M81.698 28.31l.135-8.351c.068-6.6-.877-11.548-4.047-16.012l2.576-.031 27.5 25.615c-4.067-2.646-9.62-.791-16.861-1.026z" filter="url(#e)" opacity=".505" transform="matrix(.19451 0 0 .21292 20.888 42.766)"/><path fill="#eee" d="M37.455 47.773l.025-1.546c.013-1.222-.515-2.074-1.102-2.9l5.717 5.855c-.753-.49-1.577-1.329-2.918-1.372z"/><path fill="url(#f)" d="M1390.443 254.092l.025-1.546c.013-1.222-.515-2.074-1.102-2.9l5.718 5.855c-.753-.49-1.578-1.329-2.918-1.372z" transform="translate(-1352.989 -206.319)"/><g fill="#147a0a"><path d="M29.48 31.38c.29-.204 1.128-.23 2.754-.199 7.112.14 7.283.43 7.533.732l.09.172c.078.403-.01.66-.892 3.453-.246.779-.74 2.398-1.1 3.6-.894 2.985-1.005 3.056-2.185 1.428-.698-.963-.758-1.028-1.074-1.078-.287-.046-.462.031-1.192.481-1.996 1.23-3.696 3.144-4.764 5.366-.446.927-.569 1.232-.893 2.406-.155.562-.243.736-.545.955-.273.198-.413.22-.566.146-.79-.384-.961-2.421-.46-5.482.506-3.083 1.747-5.778 3.831-8.271.891-1.066.898-1.082.003-2.317-.567-.783-.827-1.188-.54-1.392z"/></g><path fill="#7cc4e2" d="M3.823 66.759h12.808v8.256H3.823z" paint-order="markers fill stroke"/><path fill="#03a639" d="M16.631 66.759H29.44v8.256H16.631z" paint-order="markers fill stroke"/><path fill="#e28e7c" d="M29.44 66.759h12.807v8.256H29.44z" paint-order="markers fill stroke"/><g><g fill="#e02525"><path d="M59.78 17.623c0-.926-.643-1.479-1.778-1.479-.463 0-.776.045-.94.09v2.973c.194.045.433.06.76.06 1.211 0 1.958-.613 1.958-1.644zM66.805 16.174c-.509 0-.837.045-1.032.09v6.589c.195.045.509.045.793.045 2.061.015 3.406-1.12 3.406-3.526.015-2.093-1.21-3.198-3.167-3.198z"/><path d="M80.264 12.302h-.826V8.318c0-.025-.004-.05-.007-.075a.662.662 0 0 0-.16-.437L72.64.23l-.005-.005a.67.67 0 0 0-.179-.139.695.695 0 0 0-.133-.056L72.287.02A.673.673 0 0 0 72.132 0H55.835a1.35 1.35 0 0 0-1.349 1.349v10.953h-.826a1.928 1.928 0 0 0-1.927 1.928v10.025c0 1.064.863 1.928 1.927 1.928h.826v6.862a1.35 1.35 0 0 0 1.349 1.349H78.09a1.35 1.35 0 0 0 1.348-1.35v-6.861h.826a1.928 1.928 0 0 0 1.928-1.928V14.23a1.928 1.928 0 0 0-1.928-1.928zM55.834 1.35h15.624v6.9c0 .373.302.675.674.675h5.958v3.379H55.835zm16.558 17.947c0 1.928-.702 3.258-1.674 4.08-1.06.881-2.674 1.3-4.646 1.3-1.18 0-2.017-.075-2.585-.15v-9.892c.837-.134 1.928-.208 3.079-.208 1.911 0 3.152.343 4.123 1.075 1.046.777 1.703 2.017 1.703 3.795zm-17.587 5.275v-9.937c.702-.118 1.688-.208 3.078-.208 1.404 0 2.406.269 3.078.807.642.508 1.075 1.344 1.075 2.33 0 .987-.328 1.824-.926 2.391-.777.733-1.928 1.062-3.273 1.062-.298 0-.568-.016-.776-.046v3.602h-2.256zM78.09 32.68H55.835v-6.497H78.09v6.497zm1.954-16.312h-3.87v2.301h3.615v1.853h-3.616v4.05h-2.285V14.5h6.156z"/></g><path fill="#fffcfc" d="M55.839 29.39v-3.155h22.08v6.308h-22.08zM55.839 6.784V1.422h15.56v3.533c0 2.467.076 3.608.253 3.785.172.172 1.2.252 3.26.252h3.006v3.154h-22.08zM54.843 19.665c0-3.477.049-4.932.168-5.006.092-.057 1.114-.111 2.27-.12 1.981-.015 2.15.006 2.946.38 1.027.48 1.579 1.228 1.707 2.312.251 2.119-1.211 3.55-3.768 3.69l-1.165.063-.042 1.791-.042 1.792h-2.074zm3.937-.517c1.045-.437 1.379-1.834.619-2.593-.35-.35-.511-.396-1.397-.396h-1.001l-.043 1.402c-.024.772-.009 1.492.033 1.6.1.263 1.146.256 1.79-.013zM63.722 24.468c-.18-.18-.116-9.695.066-9.807.091-.056 1.112-.11 2.27-.12 1.617-.013 2.298.043 2.942.241 1.227.379 2.175 1.094 2.712 2.044.397.702.465.987.516 2.17.13 2.958-1.054 4.634-3.774 5.343-.887.23-4.53.33-4.732.129zm4.636-1.925c1.036-.516 1.53-1.338 1.627-2.712.04-.554-.01-1.29-.11-1.663-.335-1.24-1.623-2.083-3.18-2.083-1.036 0-.988-.171-.988 3.513v3.332h.938c.711 0 1.125-.093 1.713-.387zM73.891 19.582v-4.986h6.102v1.628l-1.898.042-1.897.042-.043 1.227-.044 1.228h3.584V20.4h-3.572v4.167h-2.232z"/></g></svg>