<svg xmlns="http://www.w3.org/2000/svg" xmlns:xlink="http://www.w3.org/1999/xlink" viewBox="0 0 119.294 70.22"><defs><linearGradient id="e" x1="-108.12" x2="-103.612" y1="457.759" y2="457.759" gradientTransform="matrix(15.23463 0 0 16.68114 947.063 -6731.805)" gradientUnits="userSpaceOnUse" xlink:href="#a"/><linearGradient id="a"><stop stop-color="#eee"/><stop offset="1" stop-color="#d2d2d2"/></linearGradient><linearGradient id="f" x1="-104.335" x2="-104.334" y1="458.468" y2="458.78" gradientTransform="matrix(47.2193 0 0 47.64129 4262.067 -20970.865)" gradientUnits="userSpaceOnUse" xlink:href="#b"/><linearGradient id="b"><stop offset="0" stop-color="#616c82"/><stop offset=".522" stop-color="#7f83a5"/><stop offset="1" stop-color="#667086"/></linearGradient><radialGradient id="g" cx="-107.006" cy="457.498" r=".508" fx="-107.006" fy="457.498" gradientTransform="matrix(11.94548 0 0 12.02838 594.782 -4606.392)" gradientUnits="userSpaceOnUse" xlink:href="#c"/><linearGradient id="c"><stop offset="0" stop-color="#ecc80e"/><stop offset="1" stop-color="#b98915"/></linearGradient><radialGradient id="h" cx="-107.013" cy="458.733" r=".405" fx="-107.013" fy="458.733" gradientTransform="matrix(15.26365 0 0 15.26365 949.761 -6090.56)" gradientUnits="userSpaceOnUse" xlink:href="#d"/><linearGradient id="d"><stop offset="0" stop-color="#e7e7e9"/><stop offset="1" stop-color="#8b8c8d"/></linearGradient><radialGradient id="i" cx="-107.013" cy="458.733" r=".405" fx="-107.013" fy="458.733" gradientTransform="matrix(15.26365 0 0 15.26365 949.81 -6075.854)" gradientUnits="userSpaceOnUse" xlink:href="#d"/><marker id="j" orient="auto" overflow="visible" refX="0" refY="0"><path fill="#23ba30" fill-rule="evenodd" stroke="#23ba30" stroke-width="1.0664" d="M-10 0l-4 4L0 0l-14-4z"/></marker><marker id="k" orient="auto" overflow="visible" refX="0" refY="0"><path fill="#d52b3c" fill-rule="evenodd" stroke="#d52b3c" stroke-width="1.0664" d="M-10 0l-4 4L0 0l-14-4z"/></marker></defs><path fill="url(#e)" stroke="#292e51" stroke-linecap="round" stroke-width="2.95" d="M-698.695 871.295h65.86v65.675h-65.86z" transform="translate(750.653 -868.225)"/><path fill="url(#f)" stroke="#292e51" stroke-linecap="round" stroke-width="2.825" d="M-698.758 871.233h65.986v14.728h-65.986z" transform="translate(750.653 -868.225)"/><path fill="url(#g)" stroke="#8e8f8f" stroke-linecap="round" stroke-width=".925" d="M-689.078 890.945h11.248v11.248h-11.248z" transform="translate(750.653 -868.225)"/><path fill="url(#h)" stroke="#8e8f8f" stroke-linecap="round" stroke-width="1.13" d="M-689.265 905.756h11.248v11.248h-11.248z" transform="translate(750.653 -868.225)"/><path fill="none" stroke="#8e8f8f" stroke-width="2.646" d="M79.839 43.1h25.293"/><path fill="none" stroke="#087676" stroke-width="2.646" d="M80.11 28.768h25.293"/><path fill="url(#i)" stroke="#8e8f8f" stroke-linecap="round" stroke-width="1.13" d="M-689.215 920.462h11.248v11.248h-11.248z" transform="translate(750.653 -868.225)"/><path fill="none" stroke="#8e8f8f" stroke-width="2.646" d="M79.888 57.806h25.294"/><g stroke="#23ba30"><path fill="#23ba30" stroke-width="2" marker-end="url(#j)" d="M-715.078 910.472v-38.364" transform="translate(750.653 -868.225)"/><path fill="#49e838" stroke-width="5.923" d="M35.31 68.486V14.643"/></g><g stroke="#d52b3c"><path fill="#d52b3c" stroke-width="2" marker-end="url(#k)" d="M-740.497 894.789v38.364" transform="translate(750.653 -868.225)"/><path fill="#f33e6b" stroke-width="5.923" d="M9.892.325v53.843"/></g></svg>