<svg xmlns="http://www.w3.org/2000/svg" xmlns:xlink="http://www.w3.org/1999/xlink" viewBox="0 0 57.678 52.338"><defs><linearGradient id="f" x1="1813.324" x2="1833.511" y1="-397.491" y2="-397.491" gradientTransform="matrix(4.21518 0 0 4.20402 -5666.095 1473.993)" gradientUnits="userSpaceOnUse" xlink:href="#a"/><linearGradient id="a" x1="301.8" x2="288.56" y1="267.55" y2="839.03" gradientTransform="translate(0 73.469)" gradientUnits="userSpaceOnUse"><stop offset="0" stop-color="#ffdc10"/><stop offset=".395" stop-color="#f4b908"/><stop offset=".75" stop-color="#eea704"/><stop offset="1" stop-color="#c68000"/></linearGradient><linearGradient id="g" x1="1776.666" x2="1815.079" y1="-450.134" y2="-450.134" gradientTransform="matrix(4.21518 0 0 4.20402 -5666.095 1473.993)" gradientUnits="userSpaceOnUse" xlink:href="#a"/><linearGradient id="h" x1="1761.624" x2="1814.324" y1="-413.855" y2="-413.855" gradientTransform="matrix(4.21518 0 0 4.20402 -5666.095 1473.993)" gradientUnits="userSpaceOnUse" xlink:href="#b"/><linearGradient id="b" x1="181.75" x2="148.84" y1="231.55" y2="781.62" gradientTransform="translate(0 73.469)" gradientUnits="userSpaceOnUse"><stop offset="0" stop-color="#ffdc10"/><stop offset=".362" stop-color="#f4b908"/><stop offset=".75" stop-color="#eea704"/><stop offset="1" stop-color="#da9302"/></linearGradient><linearGradient id="i" x1="1792.553" x2="1814.998" y1="-434.589" y2="-434.589" gradientTransform="matrix(4.21518 0 0 4.20402 -5666.095 1473.993)" gradientUnits="userSpaceOnUse" xlink:href="#a"/><linearGradient id="j" x1="1776.666" x2="1817.287" y1="-450.134" y2="-460.651" gradientTransform="matrix(4.21518 0 0 4.20402 -5260.66 1647.94)" gradientUnits="userSpaceOnUse" xlink:href="#c"/><linearGradient id="c" x1="301.8" x2="288.56" y1="267.55" y2="839.03" gradientTransform="translate(0 73.469)" gradientUnits="userSpaceOnUse"><stop offset="0" stop-color="#07a92b"/><stop offset="1" stop-color="#00aa3d"/></linearGradient><linearGradient id="k" x1="1761.624" x2="1814.324" y1="-413.855" y2="-413.855" gradientTransform="matrix(4.21518 0 0 4.20402 -5260.66 1647.94)" gradientUnits="userSpaceOnUse" xlink:href="#d"/><linearGradient id="d" x1="301.8" x2="288.56" y1="267.55" y2="839.03" gradientTransform="translate(0 73.469)" gradientUnits="userSpaceOnUse"><stop offset="0" stop-color="#07a92b"/><stop offset=".395" stop-color="#1da12c"/><stop offset=".75" stop-color="#7ae230"/><stop offset="1" stop-color="#0d5226"/></linearGradient><linearGradient id="l" x1="1792.553" x2="1825.303" y1="-434.589" y2="-452.67" gradientTransform="matrix(4.21518 0 0 4.20402 -5260.66 1647.94)" gradientUnits="userSpaceOnUse" xlink:href="#e"/><linearGradient id="e" x1="301.8" x2="288.56" y1="267.55" y2="839.03" gradientTransform="translate(0 73.469)" gradientUnits="userSpaceOnUse"><stop offset="0" stop-color="#07a92b"/><stop offset=".395" stop-color="#1da12c"/><stop offset="1" stop-color="#0d5226"/></linearGradient></defs><path fill="none" d="M33.678.276c-21.79 4.458-20.916 21.089-20.951 21.236l6.48 1.559-12.593 6.436L0 18.374l6.552 1.576S6.83-2.74 33.678.276z"/><path fill="#62b01e" fill-rule="evenodd" d="M33.678.276c-21.79 4.458-20.916 21.089-20.951 21.236l6.48 1.559-12.593 6.436L0 18.374l6.552 1.576S6.83-2.74 33.678.276z"/><g stroke="#696666" stroke-linecap="round" stroke-linejoin="round" stroke-width="3.776"><path fill="url(#f)" d="M1979.491-231.018l80.875-57.486v121.93l-80.875 60.808z" transform="matrix(.12183 0 0 .12183 -193.56 64.203)"/><path fill="#ffd100" stroke-width=".46003007999999995" d="M21.324 20.954l11.646-4.573 24.478 12.675-9.853 7.003z"/><path fill="url(#g)" d="M1823.918-426.322l78.643-34.692 76.564 36.193-87.188 37.666-68.02-39.167" transform="matrix(.12183 0 0 .12183 -193.56 64.203)"/><path fill="url(#h)" d="M1763.85-355.004l60.068 34.588v-105.906l68.02 39.167v105.721l87.553 50.416v125.252l-217.9-150.143z" transform="matrix(.12183 0 0 .12183 -193.56 64.203)"/><path fill="url(#i)" d="M1891.937-387.155l87.188-37.666 3.165 99.617-90.353 43.77z" transform="matrix(.12183 0 0 .12183 -193.56 64.203)"/><g><path fill="url(#j)" d="M2312.65-285.516l71.91 34.642-87.188 37.666-67.677-37.11z" transform="matrix(.12183 0 0 .12183 -233.626 47.95)"/><path fill="url(#k)" d="M2229.546-153.256l.15-97.063 79.468 32.449-.545 111.547z" transform="matrix(.12183 0 0 .12183 -233.626 47.95)"/><path fill="url(#l)" d="M2309.164-217.87l75.395-33.004 3.36 88.37-79.3 56.18z" transform="matrix(.12183 0 0 .12183 -233.626 47.95)"/></g></g><g transform="matrix(.57198 0 0 .57198 -617.111 .274)"><path fill="#5a5a5a" d="M1084.563 71.389c26.328-28.57 49.402-24.183 70.615-.96-36.311 37.317-52.139 15.3-70.616.96z"/><circle cx="1119.75" cy="71.269" r="10.622" fill="none" stroke="#fff" stroke-linecap="round" stroke-width="7.353" paint-order="markers fill stroke"/></g></svg>