<svg xmlns="http://www.w3.org/2000/svg" xmlns:xlink="http://www.w3.org/1999/xlink" viewBox="0 0 145.292 132.463"><defs><filter id="d"><feGaussianBlur stdDeviation="2.586"/></filter><radialGradient id="e" cx="81.79" cy="100.32" r="44.42" gradientTransform="matrix(1.92882 -1.53819 1.71184 2.14658 926.514 38.538)" gradientUnits="userSpaceOnUse" xlink:href="#a"/><linearGradient id="a"><stop stop-color="#eee"/><stop offset="1" stop-color="#d2d2d2"/></linearGradient><radialGradient id="f" cx="89.51" cy="22.254" r="18.279" gradientTransform="matrix(1 0 0 .97468 0 .44)" gradientUnits="userSpaceOnUse" xlink:href="#b"/><linearGradient id="b"><stop/><stop offset="1" stop-opacity=".536"/></linearGradient><filter id="g" width="1.294" height="1.29" x="-.147" y="-.145"><feGaussianBlur stdDeviation="1.819"/></filter><linearGradient id="h" x1="98.33" x2="86.82" y1="14.793" y2="25.1" gradientTransform="matrix(.93151 0 0 .93151 1195.9 15.624)" gradientUnits="userSpaceOnUse" xlink:href="#c"/><linearGradient id="c"><stop/><stop offset="1" stop-color="#ddd" stop-opacity="0"/></linearGradient></defs><path d="M20.094 4.119v118h88.844V35.962l-.594-.625c.21.145.417.302.625.438L78.094 4.15c.056.08.1.17.156.25L78 4.119z" filter="url(#d)" font-family="sans-serif" font-size="6.107" font-weight="400" opacity=".809" transform="matrix(.93151 0 0 .93547 35.508 7.186)" style="line-height:1.25" letter-spacing="0" word-spacing="0"/><path d="M1214.617 18.157v109.918h82.76V47.82l-28.82-29.663z" style="line-height:1.25" fill="url(#e)" font-family="sans-serif" font-size="6.107" font-weight="400" letter-spacing="0" transform="translate(-1160.392 -7.93)" word-spacing="0"/><path fill="url(#f)" d="M81.698 28.31l.135-8.351c.068-6.6-.877-11.548-4.047-16.012l2.576-.031 27.5 25.615c-4.067-2.646-9.62-.791-16.861-1.026z" filter="url(#g)" font-family="sans-serif" font-size="6.107" font-weight="400" opacity=".505" transform="matrix(.97865 0 0 1.07126 30.325 7.445)" style="line-height:1.25" letter-spacing="0" word-spacing="0"/><path style="line-height:1.25" fill="#eee" d="M113.677 32.638l.126-7.779c.063-6.147-2.593-10.436-5.546-14.594l28.767 29.46c-3.79-2.464-7.937-6.686-14.681-6.904z" font-family="sans-serif" font-size="6.107" font-weight="400" letter-spacing="0" word-spacing="0"/><path style="line-height:1.25" fill="url(#h)" d="M1274.069 40.568l.126-7.779c.063-6.147-2.592-10.436-5.546-14.594l28.767 29.46c-3.79-2.463-7.936-6.686-14.681-6.904z" font-family="sans-serif" font-size="6.107" font-weight="400" letter-spacing="0" transform="translate(-1160.392 -7.93)" word-spacing="0"/><g fill="#fff9a6" stroke-width=".5"><path stroke="#000" stroke-width="1.320325" d="M80.564 60.893v21.383H58.733v22.51h73.536v-22.51h-21.831V60.893H95.5z"/><path fill="#57bd4d" stroke="#000" stroke-width="1.12755755" d="M110.438 60.893v21.383h21.83V60.893h-10.915z"/></g><g transform="matrix(1.408 0 0 1.408 -1527.07 -58.772)"><path fill="#5a5a5a" d="M1084.563 71.389c26.328-28.57 49.402-24.183 70.615-.96-36.311 37.317-52.139 15.3-70.616.96z"/><circle cx="1119.75" cy="71.269" r="10.622" fill="none" stroke="#fff" stroke-linecap="round" stroke-width="7.353" paint-order="markers fill stroke"/></g></svg>