<svg xmlns="http://www.w3.org/2000/svg" xmlns:xlink="http://www.w3.org/1999/xlink" viewBox="0 0 44.443 24.278"><defs><linearGradient id="d" x1="664.259" x2="664.271" y1="414.69" y2="414.944" gradientTransform="translate(-3146.344 -2011.407) scale(5.76483)" gradientUnits="userSpaceOnUse" xlink:href="#a"/><linearGradient id="a"><stop offset="0"/><stop offset=".5" stop-color="#fff"/><stop offset="1"/></linearGradient><linearGradient id="e" x1="664.401" x2="664.401" y1="415.575" y2="415.828" gradientTransform="translate(-3146.344 -2011.407) scale(5.76483)" gradientUnits="userSpaceOnUse" xlink:href="#a"/><linearGradient id="f" x1="663.93" x2="664.177" y1="415.274" y2="415.274" gradientTransform="translate(-3146.344 -2011.407) scale(5.76483)" gradientUnits="userSpaceOnUse" xlink:href="#a"/><linearGradient id="g" x1="664.605" x2="665.099" y1="414.772" y2="415.234" gradientTransform="matrix(6.5703 0 0 6.57406 -3682.586 -2348.106)" gradientUnits="userSpaceOnUse" xlink:href="#b"/><linearGradient id="b" x1="138.92" x2="243.93" y1="604.86" y2="715.98" gradientUnits="userSpaceOnUse"><stop offset="0" stop-color="#ffec67"/><stop offset="1" stop-color="#f29100"/></linearGradient><linearGradient id="h" x1="664.605" x2="665.099" y1="414.772" y2="415.234" gradientTransform="translate(-3146.344 -2011.407) scale(5.76483)" gradientUnits="userSpaceOnUse" xlink:href="#c"/><linearGradient id="c" x1="304.59" x2="153.01" y1="625.07" y2="735.65" gradientUnits="userSpaceOnUse"><stop offset="0" stop-color="#fdfcc2"/><stop offset=".515" stop-color="#fef10c"/><stop offset="1" stop-color="#ffa000"/></linearGradient><linearGradient id="i" x1="664.605" x2="665.099" y1="414.772" y2="415.234" gradientTransform="matrix(6.5703 0 0 6.57406 -3681.219 -2343.159)" gradientUnits="userSpaceOnUse" xlink:href="#b"/><linearGradient id="j" x1="664.605" x2="665.099" y1="414.772" y2="415.234" gradientTransform="translate(-3144.977 -2006.46) scale(5.76483)" gradientUnits="userSpaceOnUse" xlink:href="#c"/></defs><g transform="translate(151.606 101.964)"><g transform="matrix(1.9954 0 0 1.9954 -1482.713 -851.917)"><path fill="none" stroke="url(#d)" stroke-width="1.424" d="M681.844 380.028h2.175"/><path fill="none" stroke="url(#e)" stroke-width="1.424" d="M681.912 385.058h3.84"/><path fill="none" stroke="url(#f)" stroke-width="1.424" d="M681.81 377.886v9.38"/><rect width="3.248" height="3.037" x="684.073" y="378.628" fill="url(#g)" stroke="#050505" stroke-linecap="round" stroke-width=".305" rx=".353"/><rect width="2.849" height="2.663" x="684.99" y="379.682" fill="url(#h)" stroke="#050505" stroke-linecap="round" stroke-width=".305" rx=".353"/><rect width="3.248" height="3.037" x="685.44" y="383.576" fill="url(#i)" stroke="#050505" stroke-linecap="round" stroke-width=".305" rx=".353"/><rect width="2.849" height="2.663" x="686.357" y="384.629" fill="url(#j)" stroke="#050505" stroke-linecap="round" stroke-width=".305" rx=".353"/></g><rect width="17.33" height="10.583" x="-151.606" y="-93.266" fill="#333" paint-order="markers fill stroke" rx="1" ry="1"/><circle cx="-147.609" cy="-96.114" r="2.981" fill="#333" paint-order="markers fill stroke"/><circle cx="-140.361" cy="-97.466" r="4.498" fill="#333" paint-order="markers fill stroke"/><path fill="#333" d="M-134.673-90.223l8.599-2.712v9.062l-8.54-2.288z"/><path fill="#ff0" d="M-126.074-92.935l16.358-7.71.479 22.959-16.837-6.187z" opacity=".142"/></g></svg>