<svg xmlns="http://www.w3.org/2000/svg" xmlns:xlink="http://www.w3.org/1999/xlink" viewBox="0 0 93.986 77.579"><defs><filter id="d" color-interpolation-filters="sRGB"><feGaussianBlur result="fbSourceGraphic" stdDeviation="5"/><feGaussianBlur in="SourceGraphic" result="result1" stdDeviation=".01"/><feComposite in="fbSourceGraphic" in2="result1" k2=".5" k3=".5" operator="arithmetic" result="result2"/><feBlend in2="fbSourceGraphic" result="result3"/></filter><radialGradient id="e" cx="89.51" cy="22.254" r="18.279" gradientTransform="matrix(1 0 0 .97468 0 .44)" gradientUnits="userSpaceOnUse" xlink:href="#a"/><linearGradient id="a"><stop/><stop offset="1" stop-opacity=".536"/></linearGradient><filter id="f" width="1.294" height="1.29" x="-.147" y="-.145"><feGaussianBlur stdDeviation="1.819"/></filter><linearGradient id="g" x1="98.33" x2="86.82" y1="14.793" y2="25.1" gradientTransform="matrix(.96715 0 0 .96715 115.415 -2.733)" gradientUnits="userSpaceOnUse" xlink:href="#b"/><linearGradient id="b"><stop/><stop offset="1" stop-color="#ddd" stop-opacity="0"/></linearGradient><linearGradient id="h" x1="152.847" x2="317.393" y1="145.552" y2="145.552" gradientUnits="userSpaceOnUse" xlink:href="#c"/><linearGradient id="c"><stop offset="0" stop-color="#dddd98"/><stop offset=".557" stop-color="#f2f654" stop-opacity=".498"/><stop offset="1" stop-color="#faff7d" stop-opacity=".184"/></linearGradient><linearGradient id="j" x1="152.847" x2="317.393" y1="145.552" y2="145.552" gradientUnits="userSpaceOnUse" xlink:href="#c"/><linearGradient id="i" x1="152.847" x2="317.393" y1="145.552" y2="145.552" gradientUnits="userSpaceOnUse" xlink:href="#c"/></defs><path d="M20.98-.137v165.606h200.63V30.659L191.69-.137h-56.004z" filter="url(#d)" transform="matrix(.39038 0 0 .39038 -.358 6.519)"/><path fill="#fff" d="M7.832 6.465v64.649h78.322V18.487L74.474 6.465H52.61z"/><path fill="url(#e)" d="M81.698 28.31l.135-8.351c.068-6.6-.877-11.548-4.047-16.012l2.576-.031 27.5 25.615c-4.067-2.646-9.62-.791-16.861-1.026z" filter="url(#f)" opacity=".505" transform="matrix(.39666 0 0 .4342 42.597 5.35)"/><path fill="#eee" d="M76.38 15.562l.051-3.153c.026-2.492-1.05-4.23-2.247-5.916l11.66 11.941c-1.537-.998-3.218-2.71-5.951-2.798z"/><path fill="url(#g)" d="M196.575 23.165l.13-8.076c.066-6.383-2.69-10.837-5.757-15.153l29.867 30.588c-3.935-2.559-8.24-6.943-15.243-7.17z" transform="matrix(.39038 0 0 .39038 -.358 6.519)"/><path fill="#9beaec" stroke="#5b3db5" stroke-dasharray="3.969 3.969" stroke-linecap="round" stroke-width="1.323" d="M13.392 29.542v-11.01h59.642v44.186H59.408"/><path fill="#d8f5f7" stroke="#656880" stroke-dasharray="5.292 5.292" stroke-linecap="round" stroke-linejoin="round" stroke-width="1.323" d="M13.392 31.975H57.55v30.311H13.392z" paint-order="markers fill stroke"/><g fill="url(#h)" transform="matrix(.21455 0 0 .21455 -16.139 16.126)"><path fill="url(#j)" stroke="#000" stroke-width=".794" d="M84.153 308.87v8.097h-8.267v8.524h27.848v-8.524h-8.268v-8.098H89.81z" transform="matrix(5.745 0 0 5.745 -280.836 -1676.646)"/></g></svg>