<svg xmlns="http://www.w3.org/2000/svg" viewBox="0 0 42.085 47.882"><g fill="#fff" stroke="#696666" stroke-linecap="round" stroke-linejoin="round" stroke-width="3.776"><path stroke-width=".46003007999999995" d="M26.776 28.25l9.853-7.004v14.855l-9.853 7.408z"/><path stroke-width=".46003007999999995" d="M.505 13.145l11.646-4.573 24.478 12.674-9.853 7.004zM7.823 4.456L17.403.23l9.328 4.41L16.11 9.227 7.823 4.456"/><path stroke-width=".46003007999999995" d="M.505 13.145l7.318 4.214V4.456l8.287 4.772v12.88l10.666 6.142v15.259L.23 25.217z"/><path stroke-width=".46003007999999995" d="M16.11 9.228L26.73 4.639l.386 12.136-11.007 5.333z"/><g><path stroke-width=".46003007999999995" d="M27.298 5.357l8.761 4.22-10.622 4.59-8.245-4.522z"/><path stroke-width=".46003007999999995" d="M17.174 21.47l.018-11.825 9.682 3.954-.067 13.589z"/><path stroke-width=".46003007999999995" d="M26.874 13.599l9.185-4.021.41 10.766-9.662 6.844z"/></g></g><g transform="translate(-452.542 8.907) scale(.42818)"><path fill="#5a5a5a" d="M1084.563 71.389c26.328-28.57 49.402-24.183 70.615-.96-36.311 37.317-52.139 15.3-70.616.96z"/><circle cx="1119.75" cy="71.269" r="10.622" fill="none" stroke="#fff" stroke-linecap="round" stroke-width="7.353" paint-order="markers fill stroke"/></g></svg>