<svg xmlns="http://www.w3.org/2000/svg" xmlns:xlink="http://www.w3.org/1999/xlink" viewBox="0 0 49.133 43.477"><defs><linearGradient id="j" x1="339.639" x2="491.208" y1="644.864" y2="644.864" gradientTransform="matrix(.26458 0 0 .26458 187.653 257.422)" gradientUnits="userSpaceOnUse" xlink:href="#a"/><linearGradient id="a"><stop offset="0" stop-color="#e3cb4a"/><stop offset="1" stop-color="#ffed8b"/></linearGradient><linearGradient id="k" x1="350.506" x2="385.837" y1="616.284" y2="602.124" gradientTransform="matrix(.26458 0 0 .26458 187.653 257.422)" gradientUnits="userSpaceOnUse" xlink:href="#b"/><linearGradient id="b"><stop offset="0" stop-color="#bfaf58"/><stop offset="1" stop-color="#d7c564"/></linearGradient><linearGradient id="l" x1="419.862" x2="443.111" y1="576.961" y2="603.649" gradientTransform="matrix(.26458 0 0 .26458 187.653 257.422)" gradientUnits="userSpaceOnUse" xlink:href="#c"/><linearGradient id="c"><stop offset="0" stop-color="#e3cb4a"/><stop offset="1" stop-color="#fff3b4"/></linearGradient><linearGradient id="m" x1="389.618" x2="417.186" y1="589.946" y2="596.252" gradientTransform="matrix(.26458 0 0 .26458 187.653 257.422)" gradientUnits="userSpaceOnUse" xlink:href="#d"/><linearGradient id="d"><stop offset="0" stop-color="#e3cb4a"/><stop offset="1" stop-color="#ffe559"/></linearGradient><linearGradient id="n" x1="452.253" x2="473.474" y1="597.313" y2="544.761" gradientTransform="matrix(.26458 0 0 .26458 187.653 257.422)" gradientUnits="userSpaceOnUse" xlink:href="#e"/><linearGradient id="e"><stop offset="0" stop-color="#e3cb4a"/><stop offset="1" stop-color="#a59543"/></linearGradient><linearGradient id="o" x1="454.031" x2="521.263" y1="606.889" y2="606.889" gradientTransform="matrix(.26458 0 0 .26458 187.653 257.422)" gradientUnits="userSpaceOnUse" xlink:href="#f"/><linearGradient id="f"><stop offset="0" stop-color="#218510"/><stop offset="1" stop-color="#19a630"/></linearGradient><linearGradient id="p" x1="451.968" x2="479.614" y1="626.157" y2="619.508" gradientTransform="matrix(.26458 0 0 .26458 187.653 257.422)" gradientUnits="userSpaceOnUse" xlink:href="#g"/><linearGradient id="g"><stop offset="0" stop-color="#218510"/><stop offset="1" stop-color="#5bec73"/></linearGradient><linearGradient id="q" x1="446.63" x2="475.144" y1="618.124" y2="618.124" gradientTransform="matrix(.26458 0 0 .26458 187.653 257.422)" gradientUnits="userSpaceOnUse" xlink:href="#h"/><linearGradient id="h"><stop offset="0" stop-color="#e3cb4a"/><stop offset="1" stop-color="#d7c564"/></linearGradient><linearGradient id="r" x1="452.281" x2="499.653" y1="638.702" y2="633.237" gradientTransform="matrix(.26458 0 0 .26458 187.653 257.422)" gradientUnits="userSpaceOnUse" xlink:href="#i"/><linearGradient id="i"><stop offset="0" stop-color="#218510"/><stop offset="1" stop-color="#5ae671"/></linearGradient><linearGradient id="s" x1="434.504" x2="490.244" y1="653.883" y2="653.883" gradientTransform="matrix(.26458 0 0 .26458 187.653 257.422)" gradientUnits="userSpaceOnUse" xlink:href="#f"/><linearGradient id="t" x1="496.257" x2="524.158" y1="669.506" y2="669.506" gradientTransform="matrix(.26458 0 0 .26458 187.653 257.422)" gradientUnits="userSpaceOnUse" xlink:href="#h"/><linearGradient id="u" x1="496.262" x2="524.206" y1="630.417" y2="630.417" gradientTransform="matrix(.26458 0 0 .26458 187.653 257.422)" gradientUnits="userSpaceOnUse" xlink:href="#f"/></defs><g style="line-height:1.25" fill="#9c9c9c" stroke="#8e8e8e" stroke-dasharray="1.8 .6" stroke-linecap="square" stroke-linejoin="round" stroke-width=".3" font-family="sans-serif" font-size="10.583" font-weight="400" letter-spacing="0" paint-order="markers fill stroke" word-spacing="0"><path fill="url(#j)" d="M297.524 435.214c-10.986-3.2-19.986-5.827-19.998-5.84-.013-.012-.014-1.933-.003-4.267l.02-4.245 5.663 1.644c3.115.905 5.716 1.689 5.781 1.743.065.054.347.16.625.237.28.076.545.152.592.17.059.023.075-1.398.054-4.807-.025-4.064-.013-4.834.077-4.801.18.064 14.46 4.21 14.502 4.21.021 0 .039 1.859.039 4.13 0 2.7-.028 4.13-.08 4.13-.044 0-.078.245-.078.578v.578l-1.295.778-1.295.779-.002.315-.002.314 5.368 1.557c2.952.856 5.416 1.555 5.475 1.553.059-.002.802-.425 1.652-.942l1.544-.938.728.205.728.206v4.273c0 2.35-.027 4.269-.06 4.265-.032-.004-9.048-2.626-20.034-5.825z" opacity=".922" transform="translate(-277.365 -397.71)"/><path fill="url(#k)" d="M289.46 423.295c-.356-.058-11.405-3.28-11.405-3.327 0-.025 1.662-1.059 3.694-2.297l3.693-2.25 2.166.633 2.166.633v3.252c0 1.789.003 3.278.006 3.31.008.073-.076.085-.32.045z" opacity=".922" transform="translate(-277.365 -397.71)"/><path fill="url(#l)" d="M301.868 417.94l-3.127-.915v-6.948l1.475.431 3.284.957 1.809.525.023 3.143c.023 3.138-.018 3.742-.252 3.727-.047-.003-1.493-.417-3.212-.92z" opacity=".922" transform="translate(-277.365 -397.71)"/><path fill="url(#m)" d="M294.376 415.763a726.91 726.91 0 0 1-3.636-1.072c-.084-.03 7.113-4.478 7.244-4.478.027 0 .05 1.487.05 3.304 0 1.817-.027 3.3-.06 3.294a461.16 461.16 0 0 1-3.598-1.048z" opacity=".922" transform="translate(-277.365 -397.71)"/><path fill="url(#n)" d="M305.997 410.236l.02-7.92 3.46-2.113a352.101 352.101 0 0 1 3.677-2.228l.217-.114v15.794l-2.065 1.257-3.697 2.25-1.633.995z" opacity=".922" transform="translate(-277.365 -397.71)"/><path fill="url(#o)" d="M313.08 420.246c-2.863-.837-5.247-1.536-5.298-1.552-.064-.022 6.524-4.102 7.18-4.446.03-.016 2.384.649 5.23 1.478 2.845.83 5.256 1.53 5.357 1.559.15.042-.445.433-3.412 2.241-1.976 1.205-3.651 2.202-3.722 2.216-.07.014-2.471-.66-5.335-1.496z" opacity=".922" transform="translate(-277.365 -397.71)"/><path fill="url(#p)" d="M307.236 423.14c0-3.426.01-3.692.137-3.77.108-.066.908.14 3.658.94l3.52 1.024v1.034l-3.48 2.117c-1.915 1.165-3.56 2.168-3.658 2.23l-.177.113z" opacity=".922" transform="translate(-277.365 -397.71)"/><path fill="url(#q)" d="M305.868 427.471c-.027-.068-.046-2.023-.044-4.345l.004-4.221 3.694-2.242c2.031-1.233 3.729-2.253 3.771-2.268.043-.014.077.11.075.275l-.003.302-2.926 1.77c-1.609.973-3.014 1.862-3.123 1.974-.109.113-.313.27-.453.351l-.255.146-.02 3.997-.02 3.996-.327.195c-.282.168-.332.177-.373.07z" opacity=".922" transform="translate(-277.365 -397.71)"/><path fill="url(#r)" d="M312.604 428.709c-2.909-.85-5.287-1.563-5.285-1.585.006-.068 7.383-4.52 7.567-4.567.103-.026.86.156 1.828.44l1.651.485.02 3.394.021 3.394-.256-.008c-.141-.004-2.637-.703-5.546-1.553z" opacity=".922" transform="translate(-277.365 -397.71)"/><path fill="url(#s)" d="M307.691 431.817c-3.921-1.144-5.145-1.53-5.073-1.598.052-.05 1.06-.675 2.238-1.391l2.143-1.301 5.192 1.508c2.856.83 5.183 1.535 5.172 1.568-.023.07-4.38 2.738-4.454 2.728-.027-.004-2.375-.685-5.218-1.514z" opacity=".922" transform="translate(-277.365 -397.71)"/><path fill="url(#t)" d="M318.974 436.785l.02-4.114 3.648-2.223c2.007-1.222 3.662-2.223 3.678-2.223.017 0 .021 1.848.01 4.106l-.02 4.106-3.382 2.064a472.518 472.518 0 0 1-3.678 2.231l-.296.168z" opacity=".922" transform="translate(-277.365 -397.71)"/><path fill="url(#u)" d="M318.959 426.436l.003-3.835 3.622-2.202a330.788 330.788 0 0 1 3.693-2.228c.042-.016.072 1.542.072 3.782v3.809l-2.498 1.521a7621.98 7621.98 0 0 0-3.696 2.255l-1.2.732z" opacity=".922" transform="translate(-277.365 -397.71)"/><path fill="#19a630" d="M39.414 25.04l-1.543-.45v-.388c0-.341.011-.384.097-.36.053.014.767.22 1.585.46l1.488.434v.38c0 .21-.019.38-.042.377a86.33 86.33 0 0 1-1.585-.454z"/><path fill="#ae9434" d="M40.22 33.83c-.191-.057-.346-.114-.343-.126a1.87 1.87 0 0 1 .278-.191c.312-.192.563-.274.857-.28a.76.76 0 0 0 .278-.048c.046-.024 1.526-.923 3.288-1.997l3.204-1.954.169.048c.092.026.677.593.677.593.016.026-7.51 4.608-7.7 4.551z"/></g></svg>