<svg xmlns="http://www.w3.org/2000/svg" xmlns:xlink="http://www.w3.org/1999/xlink" viewBox="0 0 86.027 73.375"><defs><linearGradient id="j" x1="1813.324" x2="1833.511" y1="-397.491" y2="-397.491" gradientTransform="matrix(4.21518 0 0 4.20402 -5666.095 1473.993)" gradientUnits="userSpaceOnUse" xlink:href="#a"/><linearGradient id="a" x1="301.8" x2="288.56" y1="267.55" y2="839.03" gradientTransform="translate(0 73.469)" gradientUnits="userSpaceOnUse"><stop offset="0" stop-color="#ffdc10"/><stop offset=".395" stop-color="#f4b908"/><stop offset=".75" stop-color="#eea704"/><stop offset="1" stop-color="#c68000"/></linearGradient><linearGradient id="k" x1="1776.666" x2="1815.079" y1="-450.134" y2="-450.134" gradientTransform="matrix(4.21518 0 0 4.20402 -5666.095 1473.993)" gradientUnits="userSpaceOnUse" xlink:href="#a"/><linearGradient id="l" x1="1761.624" x2="1814.324" y1="-413.855" y2="-413.855" gradientTransform="matrix(4.21518 0 0 4.20402 -5666.095 1473.993)" gradientUnits="userSpaceOnUse" xlink:href="#b"/><linearGradient id="b" x1="181.75" x2="148.84" y1="231.55" y2="781.62" gradientTransform="translate(0 73.469)" gradientUnits="userSpaceOnUse"><stop offset="0" stop-color="#ffdc10"/><stop offset=".362" stop-color="#f4b908"/><stop offset=".75" stop-color="#eea704"/><stop offset="1" stop-color="#da9302"/></linearGradient><linearGradient id="m" x1="1792.553" x2="1814.998" y1="-434.589" y2="-434.589" gradientTransform="matrix(4.21518 0 0 4.20402 -5666.095 1473.993)" gradientUnits="userSpaceOnUse" xlink:href="#a"/><linearGradient id="n" x1="1776.666" x2="1817.287" y1="-450.134" y2="-460.651" gradientTransform="matrix(4.21518 0 0 4.20402 -5260.66 1647.94)" gradientUnits="userSpaceOnUse" xlink:href="#c"/><linearGradient id="c" x1="301.8" x2="288.56" y1="267.55" y2="839.03" gradientTransform="translate(0 73.469)" gradientUnits="userSpaceOnUse"><stop offset="0" stop-color="#07a92b"/><stop offset="1" stop-color="#00aa3d"/></linearGradient><linearGradient id="o" x1="1761.624" x2="1814.324" y1="-413.855" y2="-413.855" gradientTransform="matrix(4.21518 0 0 4.20402 -5260.66 1647.94)" gradientUnits="userSpaceOnUse" xlink:href="#d"/><linearGradient id="d" x1="301.8" x2="288.56" y1="267.55" y2="839.03" gradientTransform="translate(0 73.469)" gradientUnits="userSpaceOnUse"><stop offset="0" stop-color="#07a92b"/><stop offset=".395" stop-color="#1da12c"/><stop offset=".75" stop-color="#7ae230"/><stop offset="1" stop-color="#0d5226"/></linearGradient><linearGradient id="p" x1="1792.553" x2="1825.303" y1="-434.589" y2="-452.67" gradientTransform="matrix(4.21518 0 0 4.20402 -5260.66 1647.94)" gradientUnits="userSpaceOnUse" xlink:href="#e"/><linearGradient id="e" x1="301.8" x2="288.56" y1="267.55" y2="839.03" gradientTransform="translate(0 73.469)" gradientUnits="userSpaceOnUse"><stop offset="0" stop-color="#07a92b"/><stop offset=".395" stop-color="#1da12c"/><stop offset="1" stop-color="#0d5226"/></linearGradient><linearGradient id="q" x1="22.308" x2="35.785" y1="18.992" y2="39.498" gradientTransform="matrix(1.0672 0 0 .98928 -44.339 72.01)" gradientUnits="userSpaceOnUse" xlink:href="#f"/><linearGradient id="f"><stop offset="0" stop-color="#f0f0ef"/><stop offset=".599" stop-color="#e8e8e8"/><stop offset=".828" stop-color="#fff"/><stop offset="1" stop-color="#d8d8d3"/></linearGradient><linearGradient id="r" x1="26.076" x2="30.811" y1="26.697" y2="42.007" gradientTransform="matrix(.99942 0 0 1 -42.739 72.007)" gradientUnits="userSpaceOnUse" xlink:href="#g"/><linearGradient id="g"><stop offset="0" stop-color="#fff"/><stop offset="1" stop-color="#fff" stop-opacity="0"/></linearGradient><linearGradient id="s" x1="35.997" x2="33.665" y1="40.458" y2="37.771" gradientTransform="translate(-42.568 72.007)" gradientUnits="userSpaceOnUse" xlink:href="#h"/><linearGradient id="h" x1="35.997" x2="33.665" y1="40.458" y2="37.771" gradientTransform="translate(6.162 4.033)" gradientUnits="userSpaceOnUse"><stop offset="0" stop-color="#7c7c7c"/><stop offset="1" stop-color="#b8b8b8"/></linearGradient><linearGradient id="t" x1="33.396" x2="34.17" y1="36.921" y2="38.07" gradientTransform="translate(-42.568 71.632)" gradientUnits="userSpaceOnUse" xlink:href="#i"/><linearGradient id="i" x1="33.396" x2="34.17" y1="36.921" y2="38.07" gradientTransform="translate(6.162 3.658)" gradientUnits="userSpaceOnUse"><stop offset="0" stop-color="#fff"/><stop offset="1" stop-color="#fff" stop-opacity="0"/></linearGradient><linearGradient id="u" x1="22.308" x2="35.785" y1="18.992" y2="39.498" gradientTransform="matrix(1.0672 0 0 .98928 -44.339 72.01)" gradientUnits="userSpaceOnUse" xlink:href="#f"/><linearGradient id="v" x1="26.076" x2="30.811" y1="26.697" y2="42.007" gradientTransform="matrix(.99942 0 0 1 -42.739 72.007)" gradientUnits="userSpaceOnUse" xlink:href="#g"/><linearGradient id="w" x1="35.997" x2="33.665" y1="40.458" y2="37.771" gradientTransform="translate(-42.568 72.007)" gradientUnits="userSpaceOnUse" xlink:href="#h"/><linearGradient id="x" x1="33.396" x2="34.17" y1="36.921" y2="38.07" gradientTransform="translate(-42.568 71.632)" gradientUnits="userSpaceOnUse" xlink:href="#i"/></defs><g stroke="#696666" stroke-linecap="round" stroke-linejoin="round" stroke-width="3.776"><path fill="url(#j)" d="M1979.491-231.018l80.875-57.486v121.93l-80.875 60.808z" transform="matrix(.12183 0 0 .12183 -170.194 86.03)"/><path fill="#ffd100" stroke-width=".46003007999999995" d="M44.691 42.781l11.646-4.573 24.478 12.675-9.853 7.003z"/><path fill="url(#k)" d="M1823.918-426.322l78.643-34.692 76.564 36.193-87.188 37.666-68.02-39.167" transform="matrix(.12183 0 0 .12183 -170.194 86.03)"/><path fill="url(#l)" d="M1763.85-355.004l60.068 34.588v-105.906l68.02 39.167v105.721l87.553 50.416v125.252l-217.9-150.143z" transform="matrix(.12183 0 0 .12183 -170.194 86.03)"/><path fill="url(#m)" d="M1891.937-387.155l87.188-37.666 3.165 99.617-90.353 43.77z" transform="matrix(.12183 0 0 .12183 -170.194 86.03)"/><g><path fill="url(#n)" d="M2312.65-285.516l71.91 34.642-87.188 37.666-67.677-37.11z" transform="matrix(.12183 0 0 .12183 -210.26 69.777)"/><path fill="url(#o)" d="M2229.546-153.256l.15-97.063 79.468 32.449-.545 111.547z" transform="matrix(.12183 0 0 .12183 -210.26 69.777)"/><path fill="url(#p)" d="M2309.164-217.87l75.395-33.004 3.36 88.37-79.3 56.18z" transform="matrix(.12183 0 0 .12183 -210.26 69.777)"/></g></g><g fill="#e02525"><path d="M21.4 20.374c0-.884-.614-1.411-1.697-1.411-.442 0-.741.042-.898.085v2.839c.185.042.413.056.726.056 1.156 0 1.87-.584 1.87-1.569zM28.106 18.991c-.486 0-.799.043-.985.086v6.29c.186.043.486.043.757.043 1.968.014 3.252-1.07 3.252-3.366.014-1.998-1.156-3.053-3.024-3.053z"/><path d="M40.955 15.295h-.789v-3.804c0-.023-.004-.047-.007-.071a.632.632 0 0 0-.152-.417l-6.33-7.231-.006-.005a.639.639 0 0 0-.17-.132.664.664 0 0 0-.127-.054l-.035-.011a.642.642 0 0 0-.147-.019H17.634c-.71 0-1.287.578-1.287 1.288v10.456h-.789a1.84 1.84 0 0 0-1.84 1.84v9.57a1.84 1.84 0 0 0 1.84 1.84h.789v6.551c0 .71.577 1.288 1.287 1.288H38.88a1.29 1.29 0 0 0 1.287-1.288v-6.55h.789a1.84 1.84 0 0 0 1.84-1.84v-9.57a1.84 1.84 0 0 0-1.84-1.84zM17.635 4.84h14.913v6.588c0 .355.288.643.644.643h5.687v3.226H17.634zM33.44 21.972c0 1.84-.67 3.11-1.599 3.894-1.011.842-2.552 1.24-4.434 1.24-1.127 0-1.926-.07-2.468-.142v-9.443c.798-.128 1.84-.199 2.939-.199 1.824 0 3.009.328 3.936 1.027.998.742 1.626 1.925 1.626 3.623zm-16.79 5.035v-9.486c.67-.113 1.613-.199 2.94-.199 1.34 0 2.296.257 2.937.77.614.485 1.026 1.284 1.026 2.226 0 .941-.313 1.74-.884 2.282-.741.699-1.84 1.013-3.123 1.013-.285 0-.543-.015-.742-.043v3.437h-2.153zm22.229 7.74H17.634v-6.202H38.88v6.203zm1.865-15.57H37.05v2.196h3.452v1.769H37.05v3.865h-2.181v-9.614h5.876z"/></g><path fill="#fffcfc" d="M17.638 31.606v-3.01H38.715v6.021H17.638zM17.638 10.027V4.91h14.854V8.28c0 2.355.073 3.445.241 3.613.165.165 1.146.241 3.111.241h2.87v3.011H17.639zM16.688 22.323c0-3.319.046-4.708.16-4.778.088-.054 1.063-.106 2.166-.115 1.892-.014 2.052.006 2.813.363.98.459 1.507 1.173 1.63 2.207.24 2.023-1.157 3.39-3.597 3.522l-1.113.06-.04 1.71-.04 1.71h-1.98zm3.758-.493c.997-.417 1.316-1.75.59-2.476-.334-.334-.488-.377-1.333-.377h-.956l-.04 1.339c-.023.736-.01 1.423.03 1.527.097.251 1.094.243 1.709-.013zM25.164 26.908c-.172-.171-.111-9.254.062-9.361.087-.054 1.062-.105 2.167-.115 1.543-.013 2.194.04 2.809.23 1.17.362 2.076 1.044 2.589 1.951.378.67.443.942.492 2.072.124 2.824-1.006 4.424-3.602 5.1-.848.22-4.325.316-4.517.123zm4.425-1.837c.99-.493 1.46-1.278 1.553-2.589.037-.528-.01-1.231-.106-1.588-.32-1.183-1.548-1.988-3.035-1.988-.99 0-.943-.163-.943 3.353v3.181h.895c.68 0 1.074-.089 1.636-.369zM34.87 22.244v-4.759H40.696v1.554l-1.811.04-1.811.04-.042 1.172-.04 1.172h3.42v1.562h-3.409V27.003H34.87z"/><g><g transform="matrix(.94333 0 0 .94333 32.76 -53.742)"><path fill="url(#q)" fill-rule="evenodd" stroke="#888a85" d="M-33.657 78.475h29.856c.316 0 .57.253.57.567v27.168c0 2.476-6.88 8.303-9.268 8.303h-21.158a.567.567 0 0 1-.57-.568V79.042c0-.314.254-.567.57-.567z"/><rect width="28.997" height="34.041" x="-33.227" y="79.474" fill="none" stroke="url(#r)" rx="0" ry="0"/><path fill="url(#s)" fill-rule="evenodd" stroke="#868a84" d="M-12.51 114.511c2.03.33 9.59-4.53 9.285-8.498-1.563 2.423-4.758 1.287-8.867 1.446 0 0 .395 6.552-.417 7.052z" color="#000"/><path fill="none" stroke="url(#t)" d="M-11.06 112.319c1.37-.683 4.43-2.146 5.729-4.027-1.596.68-2.948.209-5.702.19 0 0 .162 3.062-.026 3.837z" color="#000" opacity=".369"/><path fill="none" stroke="#000" stroke-width=".543" d="M-16.034 102.602v9.057h-6.517v-9.057h-7.618V96.34"/><path fill="none" stroke="#868686" stroke-dasharray="3.259 1.086" stroke-width=".543" d="M-16.034 108.95h-6.517"/><path fill="none" stroke="#000" stroke-width=".543" d="M-16.034 102.602h7.872v-5.925M-16.034 90.075v-9.057h-6.517v9.057h-7.618v6.264"/><path fill="none" stroke="#868686" stroke-dasharray="3.259 1.086" stroke-width=".543" d="M-16.034 83.726h-6.517"/><path fill="none" stroke="#000" stroke-width=".543" d="M-16.034 90.075h7.872v6.602"/><path fill="none" stroke="#868686" stroke-dasharray="3.259 1.086" stroke-width=".543" d="M-16.034 90.075v12.527M-22.551 90.075v12.527"/></g></g><g><g fill="#e02525"><path d="M25.857 16.823c0-.884-.614-1.412-1.698-1.412-.441 0-.74.043-.898.086v2.839c.186.042.414.056.727.056 1.156 0 1.869-.585 1.869-1.569zM32.562 15.44c-.485 0-.798.042-.984.085v6.29c.185.044.485.044.756.044 1.968.014 3.252-1.07 3.252-3.367.014-1.997-1.156-3.052-3.024-3.052z"/><path d="M45.411 11.744h-.788V7.94c0-.024-.004-.048-.007-.072a.632.632 0 0 0-.153-.417l-6.33-7.23-.005-.005a.639.639 0 0 0-.17-.133.664.664 0 0 0-.128-.053l-.034-.012A.642.642 0 0 0 37.648 0H22.091c-.71 0-1.288.578-1.288 1.288v10.456h-.788a1.84 1.84 0 0 0-1.84 1.84v9.57a1.84 1.84 0 0 0 1.84 1.84h.788v6.55c0 .71.577 1.288 1.288 1.288h21.244a1.29 1.29 0 0 0 1.288-1.287v-6.551h.788a1.84 1.84 0 0 0 1.84-1.84v-9.57a1.84 1.84 0 0 0-1.84-1.84zM22.091 1.288h14.913v6.587c0 .356.289.644.644.644h5.687v3.225H22.091zM37.896 18.42c0 1.84-.67 3.11-1.598 3.895-1.012.841-2.553 1.24-4.435 1.24-1.127 0-1.925-.07-2.468-.142V13.97c.799-.128 1.84-.2 2.94-.2 1.824 0 3.008.329 3.936 1.027.998.742 1.625 1.926 1.625 3.623zm-16.789 5.036V13.97c.67-.113 1.612-.2 2.939-.2 1.34 0 2.296.257 2.938.771.613.485 1.026 1.284 1.026 2.225 0 .942-.313 1.74-.884 2.282-.742.7-1.84 1.014-3.124 1.014-.285 0-.542-.015-.741-.044v3.438h-2.154zm22.228 7.74H22.091v-6.202h21.244v6.202zm1.866-15.571h-3.695v2.197h3.452v1.768h-3.452v3.866h-2.182v-9.614h5.877z"/></g><path fill="#fffcfc" d="M22.094 28.055v-3.011H43.171v6.022H22.094zM22.094 6.476V1.357H36.95V4.73c0 2.355.072 3.445.24 3.613.165.165 1.147.24 3.112.24h2.87v3.012H22.094zM21.144 18.772c0-3.32.046-4.708.16-4.778.088-.055 1.063-.106 2.166-.115 1.892-.015 2.053.006 2.813.362.98.46 1.508 1.173 1.63 2.208.24 2.022-1.156 3.39-3.597 3.522l-1.112.06-.04 1.71-.04 1.71h-1.98zm3.758-.494c.998-.417 1.316-1.75.59-2.475-.333-.334-.487-.378-1.333-.378h-.955l-.041 1.34c-.023.736-.01 1.423.03 1.526.097.252 1.095.244 1.709-.013zM29.62 23.357c-.172-.172-.11-9.254.063-9.362.086-.053 1.061-.105 2.166-.114 1.544-.013 2.194.04 2.809.23 1.171.362 2.077 1.044 2.59 1.951.378.67.442.942.492 2.071.123 2.825-1.007 4.425-3.603 5.1-.847.222-4.325.316-4.517.124zm4.425-1.837c.99-.493 1.46-1.278 1.553-2.59.038-.528-.01-1.23-.105-1.587-.32-1.184-1.549-1.989-3.036-1.989-.989 0-.943-.162-.943 3.354v3.18h.896c.679 0 1.074-.088 1.635-.368zM39.327 18.693v-4.76H45.152V15.489l-1.812.04-1.81.04-.042 1.171-.041 1.172h3.42V19.474h-3.409v3.978H39.327z"/></g><g><g transform="matrix(.94333 0 0 .94333 38.907 -47.753)"><path fill="url(#u)" fill-rule="evenodd" stroke="#888a85" d="M-33.657 78.475h29.856c.316 0 .57.253.57.567v27.168c0 2.476-6.88 8.303-9.268 8.303h-21.158a.567.567 0 0 1-.57-.568V79.042c0-.314.254-.567.57-.567z"/><rect width="28.997" height="34.041" x="-33.227" y="79.474" fill="none" stroke="url(#v)" rx="0" ry="0"/><path fill="url(#w)" fill-rule="evenodd" stroke="#868a84" d="M-12.51 114.511c2.03.33 9.59-4.53 9.285-8.498-1.563 2.423-4.758 1.287-8.867 1.446 0 0 .395 6.552-.417 7.052z" color="#000"/><path fill="none" stroke="url(#x)" d="M-11.06 112.319c1.37-.683 4.43-2.146 5.729-4.027-1.596.68-2.948.209-5.702.19 0 0 .162 3.062-.026 3.837z" color="#000" opacity=".369"/><path fill="none" stroke="#000" stroke-width=".543" d="M-16.034 102.602v9.057h-6.517v-9.057h-7.618V96.34"/><path fill="none" stroke="#868686" stroke-dasharray="3.259 1.086" stroke-width=".543" d="M-16.034 108.95h-6.517"/><path fill="none" stroke="#000" stroke-width=".543" d="M-16.034 102.602h7.872v-5.925M-16.034 90.075v-9.057h-6.517v9.057h-7.618v6.264"/><path fill="none" stroke="#868686" stroke-dasharray="3.259 1.086" stroke-width=".543" d="M-16.034 83.726h-6.517"/><path fill="none" stroke="#000" stroke-width=".543" d="M-16.034 90.075h7.872v6.602"/><path fill="none" stroke="#868686" stroke-dasharray="3.259 1.086" stroke-width=".543" d="M-16.034 90.075v12.527M-22.551 90.075v12.527"/></g></g><g><path fill="none" d="M86.027 36.13c-6.814-21.172-23.249-18.485-23.4-18.504l-.84 6.612-7.774-11.814 10.343-7.792-.85 6.685S86.089 9.113 86.027 36.13z"/><path fill="#62b01e" fill-rule="evenodd" d="M86.027 36.13c-6.814-21.172-23.249-18.485-23.4-18.504l-.84 6.612-7.774-11.814 10.343-7.792-.85 6.685S86.089 9.113 86.027 36.13z"/></g></svg>