<svg xmlns="http://www.w3.org/2000/svg" xmlns:xlink="http://www.w3.org/1999/xlink" viewBox="0 0 72.325 86.161"><defs><linearGradient id="i" x1="92.186" x2="119.104" y1="33.465" y2="26.565" gradientTransform="translate(-13.788 -19.1)" gradientUnits="userSpaceOnUse" xlink:href="#a"/><linearGradient id="a"><stop offset="0" stop-color="#62b01e"/><stop offset="1" stop-color="#44880c"/></linearGradient><linearGradient id="j" x1="26.076" x2="30.811" y1="26.697" y2="42.007" gradientTransform="matrix(.7618 0 0 .76224 441.387 169.293)" gradientUnits="userSpaceOnUse" xlink:href="#b"/><linearGradient id="b"><stop offset="0" stop-color="#fff"/><stop offset="1" stop-color="#fff" stop-opacity="0"/></linearGradient><linearGradient id="k" x1="35.997" x2="33.665" y1="40.458" y2="37.771" gradientTransform="matrix(.76224 0 0 .76224 441.517 169.293)" gradientUnits="userSpaceOnUse" xlink:href="#c"/><linearGradient id="c" x1="35.997" x2="33.665" y1="40.458" y2="37.771" gradientTransform="translate(6.162 4.033)" gradientUnits="userSpaceOnUse"><stop offset="0" stop-color="#7c7c7c"/><stop offset="1" stop-color="#b8b8b8"/></linearGradient><linearGradient id="l" x1="33.396" x2="34.17" y1="36.921" y2="38.07" gradientTransform="matrix(.76224 0 0 .76224 441.517 169.007)" gradientUnits="userSpaceOnUse" xlink:href="#d"/><linearGradient id="d" x1="33.396" x2="34.17" y1="36.921" y2="38.07" gradientTransform="translate(6.162 3.658)" gradientUnits="userSpaceOnUse"><stop offset="0" stop-color="#fff"/><stop offset="1" stop-color="#fff" stop-opacity="0"/></linearGradient><filter id="m"><feGaussianBlur stdDeviation="2.586"/></filter><radialGradient id="n" cx="81.79" cy="100.32" r="44.42" gradientTransform="matrix(2.0026 -1.59703 1.77733 2.2287 -279.236 23.704)" gradientUnits="userSpaceOnUse" xlink:href="#e"/><linearGradient id="e"><stop stop-color="#eee"/><stop offset="1" stop-color="#d2d2d2"/></linearGradient><radialGradient id="o" cx="89.51" cy="22.254" r="18.279" gradientTransform="matrix(1 0 0 .97468 0 .44)" gradientUnits="userSpaceOnUse" xlink:href="#f"/><linearGradient id="f"><stop/><stop offset="1" stop-opacity=".536"/></linearGradient><filter id="p" width="1.294" height="1.29" x="-.147" y="-.145"><feGaussianBlur stdDeviation="1.819"/></filter><linearGradient id="w" x1="98.33" x2="86.82" y1="14.793" y2="25.1" gradientTransform="matrix(.96715 0 0 .96715 .456 -.087)" gradientUnits="userSpaceOnUse" xlink:href="#g"/><linearGradient id="g"><stop/><stop offset="1" stop-color="#ddd" stop-opacity="0"/></linearGradient><linearGradient id="x" x1="342.25" x2="359.239" y1="-112.642" y2="-103.288" gradientTransform="translate(392.842 146.398)" gradientUnits="userSpaceOnUse" xlink:href="#h"/><linearGradient id="h"><stop offset="0" stop-color="#fff9a6"/><stop offset="1" stop-color="#b9ad1b"/></linearGradient><filter id="s"><feGaussianBlur stdDeviation="2.586"/></filter><radialGradient id="t" cx="81.79" cy="100.32" r="44.42" gradientTransform="matrix(2.0026 -1.59703 1.77733 2.2287 -279.236 23.704)" gradientUnits="userSpaceOnUse" xlink:href="#e"/><radialGradient id="u" cx="89.51" cy="22.254" r="18.279" gradientTransform="matrix(1 0 0 .97468 0 .44)" gradientUnits="userSpaceOnUse" xlink:href="#f"/><filter id="v" width="1.294" height="1.29" x="-.147" y="-.145"><feGaussianBlur stdDeviation="1.819"/></filter><linearGradient id="y" x1="26.076" x2="30.811" y1="26.697" y2="42.007" gradientTransform="matrix(.7618 0 0 .76224 471.865 168.414)" gradientUnits="userSpaceOnUse" xlink:href="#b"/><linearGradient id="z" x1="35.997" x2="33.665" y1="40.458" y2="37.771" gradientTransform="matrix(.76224 0 0 .76224 471.995 168.414)" gradientUnits="userSpaceOnUse" xlink:href="#c"/><linearGradient id="A" x1="33.396" x2="34.17" y1="36.921" y2="38.07" gradientTransform="matrix(.76224 0 0 .76224 471.995 168.128)" gradientUnits="userSpaceOnUse" xlink:href="#d"/><linearGradient id="B" x1="26.076" x2="30.811" y1="26.697" y2="42.007" gradientTransform="matrix(.7618 0 0 .76224 498.151 157.843)" gradientUnits="userSpaceOnUse" xlink:href="#b"/><linearGradient id="C" x1="35.997" x2="33.665" y1="40.458" y2="37.771" gradientTransform="matrix(.76224 0 0 .76224 498.281 157.843)" gradientUnits="userSpaceOnUse" xlink:href="#c"/><linearGradient id="D" x1="33.396" x2="34.17" y1="36.921" y2="38.07" gradientTransform="matrix(.76224 0 0 .76224 498.281 157.557)" gradientUnits="userSpaceOnUse" xlink:href="#d"/><linearGradient id="q" x1="98.33" x2="86.82" y1="14.793" y2="25.1" gradientTransform="matrix(.96715 0 0 .96715 .456 -.087)" gradientUnits="userSpaceOnUse" xlink:href="#g"/><linearGradient id="r" x1="342.25" x2="359.239" y1="-112.642" y2="-103.288" gradientTransform="translate(392.842 146.398)" gradientUnits="userSpaceOnUse" xlink:href="#h"/></defs><path fill="url(#i)" fill-rule="evenodd" stroke="#57705d" stroke-linecap="round" stroke-linejoin="round" stroke-width=".452" d="M107.47-2.367c-7.89 17.304-21.247 13.233-21.374 13.233V5.14l-7.699 9.225 7.762 7.76v-5.788s18.511 4.326 21.311-18.704z" transform="matrix(-.77841 .06165 -.05019 -.94321 98.947 24.007)"/><g transform="translate(-406.426 -173.842)"><path fill="#ffffab" fill-rule="evenodd" stroke="#888a85" stroke-width=".762" d="M448.31 174.223h22.757c.241 0 .435.193.435.432v20.708c0 1.888-5.244 6.33-7.065 6.33H448.31a.432.432 0 0 1-.435-.434v-26.604c0-.24.194-.432.435-.432z"/><rect width="22.103" height="25.947" x="448.638" y="174.984" fill="none" stroke="url(#j)" stroke-width=".762" rx="0" ry="0"/><path fill="url(#k)" fill-rule="evenodd" stroke="#868a84" stroke-width=".762" d="M464.43 201.69c1.547.252 7.309-3.452 7.076-6.477-1.191 1.847-3.626.981-6.758 1.102 0 0 .3 4.995-.318 5.376z" color="#000"/><path fill="none" stroke="url(#l)" stroke-width=".762" d="M465.535 200.02c1.044-.52 3.376-1.636 4.366-3.07-1.217.519-2.247.16-4.346.145 0 0 .123 2.334-.02 2.925z" color="#000" opacity=".369"/><path fill-rule="evenodd" d="M452.065 180.726h16.007v1.524h-16.007zM452.065 183.775h15.239v1.524h-15.239zM452.065 186.824h13.703v1.524h-13.703zM452.065 189.873h16.007v1.524h-16.007z" color="#000" opacity=".17"/></g><path d="M20.094 4.119v118h88.844V35.962l-.594-.625c.21.145.417.302.625.438L78.094 4.15c.056.08.1.17.156.25L78 4.119z" filter="url(#m)" opacity=".809" transform="matrix(.34095 0 0 .3424 -3.82 34.59)"/><path fill="url(#n)" d="M19.89 2.543v114.123h85.925V33.34L75.894 2.543z" transform="matrix(.35253 0 0 .35253 -3.982 34.808)"/><path fill="url(#o)" d="M81.698 28.31l.135-8.351c.068-6.6-.877-11.548-4.047-16.012l2.576-.031 27.5 25.615c-4.067-2.646-9.62-.791-16.861-1.026z" filter="url(#p)" opacity=".505" transform="matrix(.3582 0 0 .3921 -5.718 34.686)"/><path fill="#eee" d="M24.79 43.907l.046-2.847c.024-2.25-.948-3.82-2.03-5.342L33.337 46.5c-1.387-.902-2.905-2.447-5.374-2.527z"/><path fill="url(#q)" d="M81.616 25.812l.13-8.077c.066-6.382-2.691-10.836-5.757-15.153l29.867 30.588c-3.935-2.558-8.24-6.942-15.243-7.169z" transform="matrix(.35253 0 0 .35253 -3.982 34.808)"/><path fill="url(#r)" stroke="#000" stroke-width=".5" d="M734.924 28.385v8.098h-8.268v8.524h27.848v-8.524h-8.267v-8.098h-5.657z" transform="translate(-722.69 18.989)"/><g><path d="M20.094 4.119v118h88.844V35.962l-.594-.625c.21.145.417.302.625.438L78.094 4.15c.056.08.1.17.156.25L78 4.119z" filter="url(#s)" opacity=".809" transform="matrix(.34095 0 0 .3424 2.065 40.307)"/><path fill="url(#t)" d="M19.89 2.543v114.123h85.925V33.34L75.894 2.543z" transform="matrix(.35253 0 0 .35253 1.905 40.524)"/><path fill="url(#u)" d="M81.698 28.31l.135-8.351c.068-6.6-.877-11.548-4.047-16.012l2.576-.031 27.5 25.615c-4.067-2.646-9.62-.791-16.861-1.026z" filter="url(#v)" opacity=".505" transform="matrix(.3582 0 0 .3921 .169 40.402)"/><path fill="#eee" d="M30.677 49.623l.046-2.847c.023-2.25-.95-3.82-2.03-5.342l10.529 10.783c-1.387-.901-2.905-2.447-5.374-2.527z"/><path fill="url(#w)" d="M81.616 25.812l.13-8.077c.066-6.382-2.691-10.836-5.757-15.153l29.867 30.588c-3.935-2.558-8.24-6.942-15.243-7.169z" transform="matrix(.35253 0 0 .35253 1.905 40.524)"/><path fill="url(#x)" stroke="#000" stroke-width=".5" d="M734.924 28.385v8.098h-8.268v8.524h27.848v-8.524h-8.267v-8.098h-5.657z" transform="translate(-716.804 24.705)"/></g><g transform="translate(-433.476 -167.22)"><path fill="#abffe1" fill-rule="evenodd" stroke="#888a85" stroke-width=".762" d="M478.788 173.344h22.757c.24 0 .434.193.434.432v20.708c0 1.888-5.244 6.33-7.064 6.33h-16.127a.432.432 0 0 1-.435-.434v-26.604c0-.24.194-.432.435-.432z"/><rect width="22.103" height="25.947" x="479.115" y="174.105" fill="none" stroke="url(#y)" stroke-width=".762" rx="0" ry="0"/><path fill="url(#z)" fill-rule="evenodd" stroke="#868a84" stroke-width=".762" d="M494.907 200.812c1.548.251 7.31-3.453 7.077-6.478-1.191 1.847-3.627.981-6.759 1.102 0 0 .301 4.995-.318 5.376z" color="#000"/><path fill="none" stroke="url(#A)" stroke-width=".762" d="M496.013 199.14c1.044-.52 3.376-1.635 4.366-3.069-1.217.519-2.247.16-4.347.145 0 0 .124 2.334-.02 2.925z" color="#000" opacity=".369"/><path fill-rule="evenodd" d="M482.543 179.847h16.007v1.524h-16.007zM482.543 182.896h15.239v1.524h-15.239zM482.543 185.945h13.703v1.524h-13.703zM482.543 188.994h16.007v1.524h-16.007z" color="#000" opacity=".17"/></g><g transform="translate(-456.334 -150.908)"><path fill="#ddd6fd" fill-rule="evenodd" stroke="#888a85" stroke-width=".762" d="M505.074 162.773h22.757c.24 0 .434.193.434.432v20.709c0 1.887-5.244 6.329-7.064 6.329h-16.127a.432.432 0 0 1-.435-.433v-26.605c0-.239.194-.432.435-.432z"/><rect width="22.103" height="25.947" x="505.401" y="163.535" fill="none" stroke="url(#B)" stroke-width=".762" rx="0" ry="0"/><path fill="url(#C)" fill-rule="evenodd" stroke="#868a84" stroke-width=".762" d="M521.193 190.241c1.548.252 7.31-3.453 7.077-6.477-1.191 1.847-3.627.98-6.759 1.102 0 0 .301 4.994-.318 5.375z" color="#000"/><path fill="none" stroke="url(#D)" stroke-width=".762" d="M522.299 188.57c1.044-.52 3.376-1.635 4.366-3.07-1.217.52-2.247.16-4.347.146 0 0 .124 2.334-.02 2.924z" color="#000" opacity=".369"/><path fill-rule="evenodd" d="M508.829 169.277h16.007v1.524h-16.007zM508.829 172.326h15.239v1.524h-15.239zM508.829 175.374h13.703v1.524h-13.703zM508.829 178.423h16.007v1.524h-16.007z" color="#000" opacity=".17"/></g></svg>