<svg xmlns="http://www.w3.org/2000/svg" xmlns:xlink="http://www.w3.org/1999/xlink" viewBox="0 0 151.172 102.045"><defs><filter id="c" color-interpolation-filters="sRGB"><feGaussianBlur result="fbSourceGraphic" stdDeviation="5"/><feGaussianBlur in="SourceGraphic" result="result1" stdDeviation=".01"/><feComposite in="fbSourceGraphic" in2="result1" k2=".5" k3=".5" operator="arithmetic" result="result2"/><feBlend in2="fbSourceGraphic" result="result3"/></filter><radialGradient id="d" cx="89.51" cy="22.254" r="18.279" gradientTransform="matrix(1 0 0 .97468 0 .44)" gradientUnits="userSpaceOnUse" xlink:href="#a"/><linearGradient id="a"><stop/><stop offset="1" stop-opacity=".536"/></linearGradient><filter id="e" width="1.294" height="1.29" x="-.147" y="-.145"><feGaussianBlur stdDeviation="1.819"/></filter><linearGradient id="f" x1="98.33" x2="86.82" y1="14.793" y2="25.1" gradientTransform="matrix(.96715 0 0 .96715 115.415 -2.733)" gradientUnits="userSpaceOnUse" xlink:href="#b"/><linearGradient id="b"><stop/><stop offset="1" stop-color="#ddd" stop-opacity="0"/></linearGradient><filter id="g" color-interpolation-filters="sRGB"><feGaussianBlur result="fbSourceGraphic" stdDeviation="5"/><feGaussianBlur in="SourceGraphic" result="result1" stdDeviation=".01"/><feComposite in="fbSourceGraphic" in2="result1" k2=".5" k3=".5" operator="arithmetic" result="result2"/><feBlend in2="fbSourceGraphic" result="result3"/></filter><radialGradient id="h" cx="89.51" cy="22.254" r="18.279" gradientTransform="matrix(1 0 0 .97468 0 .44)" gradientUnits="userSpaceOnUse" xlink:href="#a"/><filter id="i" width="1.294" height="1.29" x="-.147" y="-.145"><feGaussianBlur stdDeviation="1.819"/></filter><linearGradient id="j" x1="98.33" x2="86.82" y1="14.793" y2="25.1" gradientTransform="translate(582.184 967.99) scale(.31366)" gradientUnits="userSpaceOnUse" xlink:href="#b"/></defs><path d="M20.98-.137v165.606h200.63V30.659L191.69-.137h-56.004z" filter="url(#c)" transform="matrix(.32431 0 0 .32431 -.298 43.01)"/><path fill="#fff" d="M6.507 42.966v53.708H71.574v-43.72l-9.704-9.988H43.707z"/><path fill="url(#d)" d="M81.698 28.31l.135-8.351c.068-6.6-.877-11.548-4.047-16.012l2.576-.031 27.5 25.615c-4.067-2.646-9.62-.791-16.861-1.026z" filter="url(#e)" opacity=".505" transform="matrix(.32953 0 0 .36072 35.388 42.04)"/><path fill="#eee" d="M63.455 50.523l.042-2.62c.021-2.069-.873-3.513-1.867-4.914l9.686 9.92c-1.276-.83-2.672-2.25-4.944-2.324z"/><path fill="url(#f)" d="M196.575 23.165l.13-8.076c.066-6.383-2.69-10.837-5.757-15.153l29.867 30.588c-3.935-2.559-8.24-6.943-15.243-7.17z" transform="matrix(.32431 0 0 .32431 -.298 43.01)"/><path fill="none" stroke="#9d9d9d" stroke-width="1.623" d="M22.361 96.264V71.42h48.77M21.915 78.48h48.8M22.349 85.854h48.8M32.976 71.539v24.725M39.834 71.48v24.726M60.366 71.483v24.725M67.224 71.424V96.15"/><g><path d="M20.98-.137v165.606h200.63V30.659L191.69-.137h-56.004z" filter="url(#g)" transform="matrix(.32431 0 0 .32431 72.793 5.415)"/><path fill="#334265" d="M79.598 5.37V59.08H144.665V15.36l-9.704-9.988h-18.163z"/><path fill="url(#h)" d="M81.698 28.31l.135-8.351c.068-6.6-.877-11.548-4.047-16.012l2.576-.031 27.5 25.615c-4.067-2.646-9.62-.791-16.861-1.026z" filter="url(#i)" opacity=".505" transform="matrix(.32953 0 0 .36072 108.48 4.445)"/><path fill="#eee" d="M136.545 12.928l.043-2.62c.021-2.07-.873-3.513-1.867-4.914l9.686 9.92c-1.276-.83-2.672-2.25-4.944-2.324z"/><path fill="url(#j)" d="M608.505 976.389l.042-2.62c.022-2.07-.873-3.514-1.867-4.914l9.686 9.92c-1.276-.83-2.672-2.251-4.943-2.325z" transform="translate(-471.96 -963.46)"/><path fill="none" stroke="#fff" stroke-width="1.623" d="M95.452 58.67V33.823h48.77M95.006 40.884h48.8M95.44 48.259h48.8M106.067 33.944v24.725M112.925 33.885v24.726M133.457 33.888v24.725M140.315 33.83v24.724"/></g><g fill="green" fill-opacity=".667"><path d="M41.611 19.737c-.358.503-.41 1.968-.363 4.81.203 12.43.71 12.73 1.235 13.17l.3.157c.704.138 1.155-.016 6.04-1.54a579.423 579.423 0 0 1 6.296-1.9c5.223-1.546 5.348-1.74 2.51-3.81-1.68-1.225-1.793-1.33-1.88-1.884-.078-.502.059-.807.849-2.08 2.16-3.481 5.516-6.44 9.404-8.294 1.623-.774 2.157-.987 4.21-1.547.983-.268 1.288-.42 1.672-.947.349-.476.387-.72.259-.987-.667-1.384-4.225-1.695-9.577-.835-5.39.865-10.108 3.018-14.476 6.645-1.87 1.552-1.897 1.563-4.05-.007-1.365-.996-2.07-1.454-2.43-.95z"/></g><g fill="red" fill-opacity=".667"><path d="M110.965 82.945c.359-.503.41-1.968.364-4.81-.204-12.43-.71-12.73-1.236-13.17l-.3-.157c-.704-.138-1.155.016-6.039 1.54a579.423 579.423 0 0 1-6.297 1.9c-5.222 1.546-5.348 1.74-2.509 3.81 1.68 1.225 1.792 1.33 1.879 1.884.078.502-.058.807-.849 2.08-2.16 3.481-5.516 6.44-9.403 8.294-1.623.774-2.157.987-4.21 1.547-.984.268-1.288.42-1.673.947-.348.476-.387.72-.258.987.667 1.384 4.225 1.695 9.577.835 5.39-.865 10.108-3.018 14.476-6.645 1.869-1.552 1.897-1.563 4.05.007 1.365.996 2.07 1.454 2.429.95z"/></g></svg>