<svg xmlns="http://www.w3.org/2000/svg" xmlns:xlink="http://www.w3.org/1999/xlink" viewBox="0 0 74.732 67.988"><defs><linearGradient id="i" x1="664.259" x2="664.271" y1="414.69" y2="414.944" gradientTransform="translate(-3146.344 -2011.407) scale(5.76483)" gradientUnits="userSpaceOnUse" xlink:href="#a"/><linearGradient id="a"><stop offset="0"/><stop offset=".5" stop-color="#fff"/><stop offset="1"/></linearGradient><linearGradient id="j" x1="664.401" x2="664.401" y1="415.575" y2="415.828" gradientTransform="translate(-3146.344 -2011.407) scale(5.76483)" gradientUnits="userSpaceOnUse" xlink:href="#a"/><linearGradient id="k" x1="663.93" x2="664.177" y1="415.274" y2="415.274" gradientTransform="translate(-3146.344 -2011.407) scale(5.76483)" gradientUnits="userSpaceOnUse" xlink:href="#a"/><linearGradient id="l" x1="664.605" x2="665.099" y1="414.772" y2="415.234" gradientTransform="matrix(6.5703 0 0 6.57406 -3682.586 -2348.106)" gradientUnits="userSpaceOnUse" xlink:href="#b"/><linearGradient id="b" x1="138.92" x2="243.93" y1="604.86" y2="715.98" gradientUnits="userSpaceOnUse"><stop offset="0" stop-color="#ffec67"/><stop offset="1" stop-color="#f29100"/></linearGradient><linearGradient id="m" x1="664.605" x2="665.099" y1="414.772" y2="415.234" gradientTransform="translate(-3146.344 -2011.407) scale(5.76483)" gradientUnits="userSpaceOnUse" xlink:href="#c"/><linearGradient id="c" x1="304.59" x2="153.01" y1="625.07" y2="735.65" gradientUnits="userSpaceOnUse"><stop offset="0" stop-color="#fdfcc2"/><stop offset=".515" stop-color="#fef10c"/><stop offset="1" stop-color="#ffa000"/></linearGradient><linearGradient id="n" x1="664.605" x2="665.099" y1="414.772" y2="415.234" gradientTransform="matrix(6.5703 0 0 6.57406 -3681.219 -2343.159)" gradientUnits="userSpaceOnUse" xlink:href="#b"/><linearGradient id="o" x1="664.605" x2="665.099" y1="414.772" y2="415.234" gradientTransform="translate(-3144.977 -2006.46) scale(5.76483)" gradientUnits="userSpaceOnUse" xlink:href="#c"/><linearGradient id="p" x1="291.58" x2="277.7" y1="331.83" y2="313.13" gradientTransform="matrix(.26458 0 0 .26458 -397.877 510.466)" gradientUnits="userSpaceOnUse" xlink:href="#d"/><linearGradient id="d" x1="291.58" x2="277.7" y1="331.83" y2="313.13" gradientTransform="matrix(.26458 0 0 .26458 -397.877 510.466)" gradientUnits="userSpaceOnUse"><stop offset="0" stop-color="#666"/><stop offset="1" stop-color="#505050"/></linearGradient><linearGradient id="q" x1="211.6" x2="217.35" y1="656.93" y2="660.68" gradientTransform="matrix(.26458 0 0 .26458 -397.877 510.466)" gradientUnits="userSpaceOnUse" xlink:href="#e"/><linearGradient id="e" x1="211.6" x2="217.35" y1="656.93" y2="660.68" gradientTransform="matrix(.26458 0 0 .26458 -397.877 510.466)" gradientUnits="userSpaceOnUse"><stop offset="0" stop-color="#b3b3b3"/><stop offset="1" stop-color="#c3c3c3"/></linearGradient><linearGradient id="r" x1="354.89" x2="342.98" y1="538.12" y2="530.94" gradientTransform="matrix(.26458 0 0 .26458 -397.877 510.466)" gradientUnits="userSpaceOnUse" xlink:href="#f"/><linearGradient id="f" x1="354.89" x2="342.98" y1="538.12" y2="530.94" gradientTransform="matrix(.26458 0 0 .26458 -397.877 510.466)" gradientUnits="userSpaceOnUse"><stop offset="0" stop-color="#b3b3b3"/><stop offset="1" stop-color="#666"/></linearGradient><linearGradient id="s" x1="401.11" x2="404.38" y1="258.05" y2="261.59" gradientTransform="matrix(.26458 0 0 .26458 -397.877 510.466)" gradientUnits="userSpaceOnUse" xlink:href="#g"/><linearGradient id="g" x1="401.11" x2="404.38" y1="258.05" y2="261.59" gradientTransform="matrix(.26458 0 0 .26458 -397.877 510.466)" gradientUnits="userSpaceOnUse"><stop offset="0" stop-color="#ccc"/><stop offset="1" stop-color="#4d4d4d"/></linearGradient><linearGradient id="t" x1="398.43" x2="402.87" y1="683.65" y2="685.39" gradientTransform="matrix(.26458 0 0 .26458 -397.877 510.466)" gradientUnits="userSpaceOnUse" xlink:href="#h"/><linearGradient id="h" x1="398.43" x2="402.87" y1="683.65" y2="685.39" gradientTransform="matrix(.26458 0 0 .26458 -397.877 510.466)" gradientUnits="userSpaceOnUse"><stop offset="0" stop-color="#b3b3b3"/><stop offset="1" stop-color="#4d4d4d"/></linearGradient></defs><g transform="translate(-2870.672 -1614.585) scale(4.27267)"><path fill="none" stroke="url(#i)" stroke-width="1.424" d="M681.844 380.028h2.175"/><path fill="none" stroke="url(#j)" stroke-width="1.424" d="M681.912 385.058h3.84"/><path fill="none" stroke="url(#k)" stroke-width="1.424" d="M681.81 377.886v9.38"/><rect width="3.248" height="3.037" x="684.073" y="378.628" fill="url(#l)" stroke="#050505" stroke-linecap="round" stroke-width=".305" rx=".353"/><rect width="2.849" height="2.663" x="684.99" y="379.682" fill="url(#m)" stroke="#050505" stroke-linecap="round" stroke-width=".305" rx=".353"/><rect width="3.248" height="3.037" x="685.44" y="383.576" fill="url(#n)" stroke="#050505" stroke-linecap="round" stroke-width=".305" rx=".353"/><rect width="2.849" height="2.663" x="686.357" y="384.629" fill="url(#o)" stroke="#050505" stroke-linecap="round" stroke-width=".305" rx=".353"/></g><g style="line-height:1.25" fill="#9c9c9c" stroke-width=".265" font-family="sans-serif" font-size="10.583" font-weight="400" letter-spacing="0" word-spacing="0"><path fill="url(#p)" stroke="#666" stroke-linejoin="bevel" d="M-309.49 591.328l-14.304 3.112c-2.437.53-5.291 2.797-5.291 5.291v6.93l19.595-15.33z" transform="matrix(.26423 0 0 .26423 99.573 -117.427)"/><path fill="url(#q)" d="M-339.669 680.882l-5.291 7.485c2.457-.428 5.291-2.797 5.291-5.292v-2.191z" transform="matrix(.26423 0 0 .26423 99.573 -117.427)"/><path fill="#b3b3b3" stroke="#b3b3b3" stroke-linejoin="bevel" stroke-width=".07002095000000001" d="M.203 65.937l17.577-20.33 4.537-.79-13.892 19.64z"/><path fill="#b3b3b3" d="M17.78 28.64l-.197.198v.79l.197.197 4.537.985c.364.08.79.419.79.79v12.43c0 .371-.423.724-.79.788l-4.537.79-.197.197v.789l.197.197h12.232l.197-.197v-.789l-.197-.197-4.538-.79c-.366-.064-.789-.417-.789-.789V31.6c0-.372.426-.71.79-.789l4.537-.986.197-.197v-.79l-.197-.197z"/><path fill="#666" stroke="#666" stroke-linejoin="bevel" stroke-width=".07002095000000001" d="M12.62 64.891L24.684 45.86V33.431L12.62 42.87z"/><path fill="url(#r)" d="M-283.429 611.04l-6.63 10.461-39.026 61.574c0 2.495 2.834 4.864 5.291 5.292l.472.082 38.586-66.947 4.3-7.466a3.676 3.676 0 0 1-1.058-.372 4.382 4.382 0 0 1-.96-.687 3.487 3.487 0 0 1-.702-.9 2.478 2.478 0 0 1-.199-.505 2.054 2.054 0 0 1-.074-.53z" transform="matrix(.26423 0 0 .26423 99.573 -117.427)"/><path fill="#ccc" stroke="#ccc" stroke-linejoin="bevel" stroke-width=".07002095000000001" d="M22.058 35.794l7.953-7.154H17.78L.386 35.794z"/><path fill="url(#s)" d="M-293.367 579.882l1.323 1.323 29.525-27.651c.01-.445-.31-.74-.747-.747z" transform="matrix(.26423 0 0 .26423 99.573 -117.427)"/><path fill="#4d4d4d" stroke="#4d4d4d" stroke-linejoin="bevel" stroke-width=".07002095000000001" d="M22.31 37.75l7.867-8.09c.018-.031.027-.04.032-.078v-.744l-7.802 7.306z"/><path fill="#b3b3b3" stroke="#b3b3b3" stroke-linejoin="bevel" stroke-width=".07002095000000001" d="M22.058 65.857l7.953-20.25-4.537-.79-11.456 19.64z"/><path fill="url(#t)" d="M-263.27 617.02l-30.097 76.638c.615.107 1.323.7 1.323 1.323l29.525-77.218c.06-.333-.391-.69-.752-.744z" transform="matrix(.26423 0 0 .26423 99.573 -117.427)"/><path fill="#4d4d4d" stroke="#4d4d4d" stroke-linejoin="bevel" stroke-width=".07002095000000001" d="M22.385 67.708l7.824-21.115v-.788l-7.802 20.402z"/><path fill="#999" stroke="#999" stroke-linejoin="bevel" stroke-width=".07002095000000001" d="M.386 35.794c-.165 0-.348.185-.35.35-.005.476.01.961 0 1.399-.004.165.189.315.35.35l8.04 1.746c.643.14 1.397.74 1.397 1.399v22.021c0 .66-.748 1.286-1.398 1.399l-8.04 1.4c-.162.027-.349.184-.349.349v1.397c0 .165.185.35.35.35h21.672c.165 0 .35-.185.35-.35v-1.397c0-.165-.188-.322-.35-.35l-8.04-1.4c-.65-.112-1.398-.739-1.398-1.398V41.038c0-.66.754-1.259 1.398-1.399l8.04-1.746c.16-.035.35-.185.35-.35v-1.399c0-.164-.185-.35-.35-.35z"/></g><g fill="#147a0a"><path d="M19.35 1.618c.436-.31 1.704-.35 4.164-.301 10.756.211 11.014.65 11.393 1.107l.136.26c.117.61-.017 1-1.35 5.222a501.434 501.434 0 0 0-1.663 5.443c-1.353 4.516-1.52 4.623-3.304 2.16-1.056-1.456-1.147-1.554-1.625-1.63-.435-.07-.699.048-1.803.728-3.019 1.86-5.59 4.755-7.205 8.114-.674 1.403-.86 1.864-1.35 3.639-.235.85-.367 1.114-.824 1.445-.413.3-.625.333-.856.22-1.195-.58-1.454-3.66-.695-8.29.764-4.662 2.641-8.738 5.793-12.508 1.348-1.613 1.358-1.637.005-3.505-.858-1.184-1.252-1.796-.816-2.105z"/></g></svg>