<svg xmlns="http://www.w3.org/2000/svg" xmlns:xlink="http://www.w3.org/1999/xlink" viewBox="0 0 84.179 74.112"><defs><linearGradient id="i" x1="529.386" x2="529.517" y1="-2964.875" y2="-2958.402" gradientTransform="matrix(6.64548 0 0 6.47266 -80.832 21970.083)" gradientUnits="userSpaceOnUse" xlink:href="#a"/><linearGradient id="a"><stop offset="0" stop-color="#528fad"/><stop offset=".418" stop-color="#c8defb"/><stop offset="1" stop-color="#528fad"/></linearGradient><linearGradient id="j" x1="-108.12" x2="-103.612" y1="457.759" y2="457.759" gradientTransform="matrix(15.23463 0 0 16.68114 947.063 -6731.805)" gradientUnits="userSpaceOnUse" xlink:href="#b"/><linearGradient id="b"><stop stop-color="#eee"/><stop offset="1" stop-color="#d2d2d2"/></linearGradient><linearGradient id="k" x1="-104.335" x2="-104.334" y1="458.468" y2="458.78" gradientTransform="matrix(47.2193 0 0 47.64129 4262.067 -20970.865)" gradientUnits="userSpaceOnUse" xlink:href="#c"/><linearGradient id="c"><stop offset="0" stop-color="#616c82"/><stop offset=".522" stop-color="#7f83a5"/><stop offset="1" stop-color="#667086"/></linearGradient><radialGradient id="l" cx="-107.006" cy="457.498" r=".508" fx="-107.006" fy="457.498" gradientTransform="matrix(11.94548 0 0 12.02838 594.782 -4606.392)" gradientUnits="userSpaceOnUse" xlink:href="#d"/><linearGradient id="d"><stop offset="0" stop-color="#ecc80e"/><stop offset="1" stop-color="#b98915"/></linearGradient><radialGradient id="m" cx="-107.013" cy="458.733" r=".405" fx="-107.013" fy="458.733" gradientTransform="matrix(15.26365 0 0 15.26365 949.761 -6090.56)" gradientUnits="userSpaceOnUse" xlink:href="#e"/><linearGradient id="e"><stop offset="0" stop-color="#e7e7e9"/><stop offset="1" stop-color="#8b8c8d"/></linearGradient><radialGradient id="n" cx="-107.013" cy="458.733" r=".405" fx="-107.013" fy="458.733" gradientTransform="matrix(15.26365 0 0 15.26365 949.81 -6075.854)" gradientUnits="userSpaceOnUse" xlink:href="#e"/><linearGradient id="o" x1="4438.096" x2="4409.86" y1="2304.769" y2="2265.288" gradientTransform="matrix(1.16305 0 0 1.16305 -1684.088 192.186)" gradientUnits="userSpaceOnUse" xlink:href="#f"/><linearGradient id="f"><stop offset="0" stop-color="#a4a4a4"/><stop offset="1" stop-color="#f7f7f7"/></linearGradient><linearGradient id="p" x1="4447.93" x2="4505.699" y1="2312.793" y2="2287.507" gradientTransform="matrix(1.16305 0 0 1.16305 -1684.088 192.186)" gradientUnits="userSpaceOnUse" xlink:href="#f"/><linearGradient id="q" x1="4443.884" x2="4459.349" y1="2293.297" y2="2242.447" gradientTransform="matrix(1.16305 0 0 1.16305 -1684.088 192.186)" gradientUnits="userSpaceOnUse" xlink:href="#f"/><radialGradient id="r" cx="16879.078" cy="8550.771" r="123.589" fx="16879.078" fy="8550.771" gradientTransform="matrix(.30772 0 0 .28902 -1684.088 352.117)" gradientUnits="userSpaceOnUse" xlink:href="#g"/><linearGradient id="g"><stop offset="0" stop-color="#58859e"/><stop offset="1" stop-color="#78a2b8"/></linearGradient><radialGradient id="s" cx="16898.031" cy="8563.757" r="104.637" fx="16898.031" fy="8563.757" gradientTransform="matrix(.30772 0 0 .30317 -1684.088 231.139)" gradientUnits="userSpaceOnUse" xlink:href="#g"/><radialGradient id="t" cx="16920.271" cy="8578.202" r="82.396" fx="16920.271" fy="8578.202" gradientTransform="matrix(.30772 0 0 .33106 -1684.088 -8.012)" gradientUnits="userSpaceOnUse" xlink:href="#g"/><radialGradient id="u" cx="16978.619" cy="8618.234" r="56.08" fx="16978.619" fy="8618.234" gradientTransform="matrix(.30772 0 0 .3965 -1684.088 -570.854)" gradientUnits="userSpaceOnUse" xlink:href="#h"/><linearGradient id="h"><stop offset="0" stop-color="#4f8dab"/><stop offset="1" stop-color="#65a8c6"/></linearGradient></defs><g stroke="#666" transform="matrix(.32402 0 0 .32402 -1069.042 -899.976)"><rect width="147.389" height="133.119" x="3360.509" y="2780.111" fill="#fff" stroke-linecap="round" stroke-width="5" ry="8.077"/><rect width="147.476" height="41.52" x="3360.466" y="2780.067" fill="url(#i)" stroke-linecap="round" stroke-width="5" rx="7.728"/><path fill="none" stroke-width="3" d="M3361.122 2848.994h146.163M3360.83 2880.294h146.163M3459.127 2823.577v91.498M3410.893 2823.285v90.62"/></g><path fill="url(#j)" stroke="#292e51" stroke-linecap="round" stroke-width="2.95" d="M-698.695 871.295h65.86v65.675h-65.86z" transform="matrix(.68217 0 0 .68217 477.632 -566.063)"/><path fill="url(#k)" stroke="#292e51" stroke-linecap="round" stroke-width="2.825" d="M-698.758 871.233h65.986v14.728h-65.986z" transform="matrix(.68217 0 0 .68217 477.632 -566.063)"/><path fill="url(#l)" stroke="#8e8f8f" stroke-linecap="round" stroke-width=".925" d="M-689.078 890.945h11.248v11.248h-11.248z" transform="matrix(.68217 0 0 .68217 477.632 -566.063)"/><path fill="url(#m)" stroke="#8e8f8f" stroke-linecap="round" stroke-width="1.13" d="M-689.265 905.756h11.248v11.248h-11.248z" transform="matrix(.68217 0 0 .68217 477.632 -566.063)"/><path fill="none" stroke="#8e8f8f" stroke-width="1.80502182" d="M20.025 55.612H37.28"/><path fill="none" stroke="#087676" stroke-width="1.80502182" d="M20.21 45.835h17.254"/><path fill="url(#n)" stroke="#8e8f8f" stroke-linecap="round" stroke-width="1.13" d="M-689.215 920.462h11.248v11.248h-11.248z" transform="matrix(.68217 0 0 .68217 477.632 -566.063)"/><path fill="none" stroke="#8e8f8f" stroke-width="1.80502182" d="M20.06 65.643h17.253"/><g stroke-linejoin="round" stroke-width="3.077"><path fill="url(#o)" stroke="#333" d="M3444.549 2848.942l39.427 39.427v-22.358l-39.187-39.187z" transform="matrix(.3401 0 0 .3401 -1127.692 -920.416)"/><path fill="url(#p)" stroke="#333" d="M3483.976 2866.01l62.51-16.749 14.18 11.22-76.69 27.888z" transform="matrix(.3401 0 0 .3401 -1127.692 -920.416)"/><path fill="#dcdcdc" stroke="#333" stroke-width="1.0464877000000001" d="M78.48 48.628V25.544l5.175-2.988-.352 29.888z"/><path fill="#dcdcdc" stroke="#333" stroke-width="1.0464877000000001" d="M83.655 22.556L70.28 14.834l-6.522 1.748 14.722 8.962z"/><path fill="#dcdcdc" stroke="#333" stroke-width="1.0464877000000001" d="M78.48 25.544l-14.722-8.962v19.837l14.722 12.21z"/><path fill="url(#q)" stroke="#333" d="M3444.79 2826.824l58.409-13.463 43.287 35.9-62.51 16.75z" transform="matrix(.3401 0 0 .3401 -1127.692 -920.416)"/><path fill="url(#r)" stroke="#0f425e" d="M3501.68 2789.274a40.99 40.99 0 0 0-28.18 30.161l.494.658 41.237 37.543 31.255-8.375v-33.937l-43.518-26.004z" paint-order="markers fill stroke" transform="matrix(.3401 0 0 .3401 -1127.692 -920.416)"/><path fill="url(#s)" stroke="#0f425e" d="M3516.266 2797.266a40.99 40.99 0 0 0-31.102 32.996l30.067 27.374 31.255-8.375v-33.937z" paint-order="markers fill stroke" transform="matrix(.3401 0 0 .3401 -1127.692 -920.416)"/><path fill="url(#t)" stroke="#0f425e" d="M3531.144 2806.157a40.99 40.99 0 0 0-32.292 36.568l16.379 14.911 31.255-8.375v-33.937z" paint-order="markers fill stroke" transform="matrix(.3401 0 0 .3401 -1127.692 -920.416)"/><path fill="url(#u)" stroke="#0f425e" d="M3546.486 2816.241a40.99 40.99 0 0 0-31.437 39.86 40.99 40.99 0 0 0 .023 1.39l.159.145 31.254-8.375z" paint-order="markers fill stroke" transform="matrix(.3401 0 0 .3401 -1127.692 -920.416)"/></g><g fill="#147a0a"><path d="M5.948 6.71c.288-.204 1.127-.23 2.753-.199 7.112.14 7.283.43 7.533.732l.09.172c.078.403-.011.66-.892 3.453-.246.779-.74 2.398-1.1 3.6-.894 2.985-1.005 3.056-2.185 1.428-.698-.963-.758-1.028-1.074-1.078-.287-.046-.462.031-1.192.481-1.996 1.23-3.696 3.144-4.764 5.366-.446.927-.569 1.232-.893 2.406-.156.562-.243.736-.545.955-.273.198-.413.22-.566.146-.79-.384-.961-2.421-.46-5.482.506-3.083 1.747-5.778 3.83-8.271.892-1.067.899-1.083.004-2.318-.567-.783-.827-1.187-.54-1.391z"/></g></svg>