<svg xmlns="http://www.w3.org/2000/svg" xmlns:xlink="http://www.w3.org/1999/xlink" viewBox="0 0 61.739 50.675"><defs><filter id="d"><feGaussianBlur stdDeviation="2.586"/></filter><radialGradient id="e" cx="81.79" cy="100.32" r="44.42" gradientTransform="matrix(2.0026 -1.59703 1.77733 2.2287 -279.236 23.704)" gradientUnits="userSpaceOnUse" xlink:href="#a"/><linearGradient id="a"><stop stop-color="#eee"/><stop offset="1" stop-color="#d2d2d2"/></linearGradient><radialGradient id="f" cx="89.51" cy="22.254" r="18.279" gradientTransform="matrix(1 0 0 .97468 0 .44)" gradientUnits="userSpaceOnUse" xlink:href="#b"/><linearGradient id="b"><stop/><stop offset="1" stop-opacity=".536"/></linearGradient><filter id="g" width="1.294" height="1.29" x="-.147" y="-.145"><feGaussianBlur stdDeviation="1.819"/></filter><linearGradient id="h" x1="98.33" x2="86.82" y1="14.793" y2="25.1" gradientTransform="matrix(.96715 0 0 .96715 .456 -.087)" gradientUnits="userSpaceOnUse" xlink:href="#c"/><linearGradient id="c"><stop/><stop offset="1" stop-color="#ddd" stop-opacity="0"/></linearGradient></defs><path d="M20.094 4.119v118h88.844V35.962l-.594-.625c.21.145.417.302.625.438L78.094 4.15c.056.08.1.17.156.25L78 4.119z" filter="url(#d)" opacity=".809" transform="matrix(.2165 0 0 .21743 5 1.67)"/><path fill="url(#e)" d="M19.89 2.543v114.123h85.925V33.34L75.894 2.543z" transform="matrix(.22386 0 0 .22386 4.898 1.808)"/><path fill="url(#f)" d="M81.698 28.31l.135-8.351c.068-6.6-.877-11.548-4.047-16.012l2.576-.031 27.5 25.615c-4.067-2.646-9.62-.791-16.861-1.026z" filter="url(#g)" opacity=".505" transform="matrix(.22746 0 0 .24899 3.796 1.73)"/><path fill="#eee" d="M23.169 7.586l.03-1.808c.014-1.429-.603-2.426-1.29-3.392l6.686 6.847c-.88-.573-1.844-1.554-3.412-1.605z"/><path fill="url(#h)" d="M81.616 25.812l.13-8.077c.066-6.382-2.691-10.836-5.757-15.153l29.867 30.588c-3.935-2.558-8.24-6.942-15.243-7.169z" transform="matrix(.22386 0 0 .22386 4.898 1.808)"/><path fill="#24a644" stroke="#9a9a9a" stroke-linecap="round" stroke-width="2.534" d="M-20.614 20.959H57.12v29.67h-77.734z" transform="matrix(.22386 0 0 .22386 4.898 1.808)"/><text x="-14.149" y="46.079" style="line-height:1.25" fill="#fdfdfd" stroke-width=".706" font-family="sans-serif" font-size="28.256" font-weight="400" letter-spacing="0" transform="matrix(.22386 0 0 .22386 4.898 1.808)" word-spacing="0"><tspan style="-inkscape-font-specification:'sans-serif Bold'" x="-14.149" y="46.079" font-weight="700">CSV</tspan></text><g fill="#24a644"><path d="M10.614 16.632h8.075v2.079h-8.075zM10.614 19.71h8.075v2.079h-8.075zM10.614 22.828h8.075v2.079h-8.075z"/></g><g fill="#24a644"><path d="M19.609 16.632h8.074v2.079H19.61zM19.609 19.71h8.074v2.079H19.61zM19.609 22.828h8.074v2.079H19.61z"/></g><g fill="maroon"><path d="M47.837 22.414c.123.331-.068 1.148-.52 2.71-1.976 6.834-2.3 6.924-2.657 7.088l-.19.042c-.409-.03-.635-.182-3.104-1.755a331.567 331.567 0 0 0-3.192-1.994c-2.652-1.637-2.692-1.763-.814-2.48 1.111-.425 1.189-.467 1.32-.76.118-.265.089-.454-.157-1.276-.67-2.245-2.08-4.383-3.95-5.99-.78-.67-1.043-.868-2.092-1.485-.503-.296-.649-.425-.782-.773-.121-.316-.106-.457.005-.585.576-.664 2.587-.302 5.414.975 2.847 1.286 5.13 3.183 6.998 5.84.8 1.138.813 1.148 2.238.604.903-.346 1.36-.493 1.484-.161z"/></g><g transform="rotate(-10.134 -3127.484 5649.099)"><circle cx="974.919" cy="678.708" r="1.964" fill="#0b50bb" paint-order="markers fill stroke"/><path fill="none" stroke="#0b50bb" stroke-linecap="round" stroke-width="2" d="M971.575 678.72h6.735M974.92 682.169v-6.735M977.3 680.949l-4.762-4.763M972.585 681.066l4.762-4.763"/></g><g transform="rotate(-10.134 -3115.89 5561.013)"><circle cx="974.919" cy="678.708" r="1.964" fill="#0b50bb" paint-order="markers fill stroke"/><path fill="none" stroke="#0b50bb" stroke-linecap="round" stroke-width="2" d="M971.575 678.72h6.735M974.92 682.169v-6.735M977.3 680.949l-4.762-4.763M972.585 681.066l4.762-4.763"/></g><g transform="rotate(-10.134 -3071.416 5612.893)"><circle cx="974.919" cy="678.708" r="1.964" fill="#0b50bb" paint-order="markers fill stroke"/><path fill="none" stroke="#0b50bb" stroke-linecap="round" stroke-width="2" d="M971.575 678.72h6.735M974.92 682.169v-6.735M977.3 680.949l-4.762-4.763M972.585 681.066l4.762-4.763"/></g><g transform="rotate(-10.134 -3050.198 5536.422)"><circle cx="974.919" cy="678.708" r="1.964" fill="#0b50bb" paint-order="markers fill stroke"/><path fill="none" stroke="#0b50bb" stroke-linecap="round" stroke-width="2" d="M971.575 678.72h6.735M974.92 682.169v-6.735M977.3 680.949l-4.762-4.763M972.585 681.066l4.762-4.763"/></g><g transform="rotate(-10.134 -3065.089 5678.256)"><circle cx="974.919" cy="678.708" r="1.964" fill="#0b50bb" paint-order="markers fill stroke"/><path fill="none" stroke="#0b50bb" stroke-linecap="round" stroke-width="2" d="M971.575 678.72h6.735M974.92 682.169v-6.735M977.3 680.949l-4.762-4.763M972.585 681.066l4.762-4.763"/></g></svg>