<svg xmlns="http://www.w3.org/2000/svg" viewBox="0 0 88.268 33.118"><path style="line-height:normal;font-variant-ligatures:normal;font-variant-position:normal;font-variant-caps:normal;font-variant-numeric:normal;font-variant-alternates:normal;font-feature-settings:normal;text-indent:0;text-align:start;text-decoration-line:none;text-decoration-style:solid;text-decoration-color:#000;text-transform:none;text-orientation:mixed;white-space:normal;shape-padding:0;isolation:auto;mix-blend-mode:normal;solid-color:#000;solid-opacity:1" fill="#bde56a" stroke="#b5b1b9" stroke-opacity=".992" stroke-width=".5" d="M20.778.25v15.228l-.997-.476-6.711-3.209-.035 2.628H.25v2.241h12.756l-.03 2.394 7.802-3.411v17.223h1.644V.25zm16.09 6.452c-4.394-.061-9.162 3.313-9.78 8.468-.918 7.658 5.706 15.942 17.703 7.83l-1.957-2.796c-5.157 2.696-9.677 4.012-10.414-2.866H44.51c.283-7.49-3.515-10.58-7.643-10.636zm-.385 3.318h.18c1.492.055 2.863 1.26 3.026 4.173l-7.06.14c0-2.47 1.987-4.266 3.854-4.313z" color="#000" font-family="sans-serif" font-weight="400" overflow="visible"/><path style="line-height:normal;font-variant-ligatures:normal;font-variant-position:normal;font-variant-caps:normal;font-variant-numeric:normal;font-variant-alternates:normal;font-feature-settings:normal;text-indent:0;text-align:start;text-decoration-line:none;text-decoration-style:solid;text-decoration-color:#000;text-transform:none;text-orientation:mixed;white-space:normal;shape-padding:0;isolation:auto;mix-blend-mode:normal;solid-color:#000;solid-opacity:1" fill="#bde56a" d="M56.361 2.14a3.814 3.814 0 0 0-3.799 3.799V25.68c0 2.087 1.713 3.8 3.8 3.8h28.106c2.087 0 3.8-1.713 3.8-3.8V5.939c0-.715-.201-1.385-.549-1.958v-.12h-.077A3.806 3.806 0 0 0 84.47 2.14zm23.634 2.47h5.798V9.1h-5.798zm-9.367.969h7.639v2.553h-7.639zm-15.91 6.861h31.395v13.241c0 .93-.715 1.644-1.645 1.644H56.361c-.93 0-1.643-.714-1.643-1.644z" color="#000" font-family="sans-serif" font-weight="400" overflow="visible"/><path stroke-width="1.177" d="M79.83 14.486c-.28 0-.56.035-.83.076-.042.689-.15 1.36-.72 1.597-.573.237-1.11-.172-1.628-.63-.453.331-.867.73-1.198 1.183.46.52.883 1.053.645 1.627-.237.573-.92.68-1.612.722a5.392 5.392 0 0 0-.061.829c0 .287.018.57.061.844.692.042 1.375.118 1.612.69.238.575-.185 1.14-.645 1.659.33.45.748.838 1.198 1.167.516-.456 1.057-.85 1.627-.614.574.237.68.905.722 1.596a5.518 5.518 0 0 0 1.643 0c.042-.691.148-1.359.721-1.596.57-.236 1.111.158 1.628.614.45-.329.868-.718 1.197-1.167-.46-.52-.883-1.084-.645-1.658.238-.573.936-.649 1.628-.691a5.46 5.46 0 0 0 .061-.844c0-.284-.02-.558-.061-.83-.692-.042-1.39-.148-1.628-.721-.238-.574.185-1.108.645-1.627a5.503 5.503 0 0 0-1.197-1.183c-.518.458-1.056.867-1.628.63-.57-.236-.679-.908-.721-1.597a5.313 5.313 0 0 0-.814-.076zm0 3.638c.976 0 1.765.79 1.765 1.766s-.789 1.765-1.765 1.765c-.976 0-1.781-.789-1.781-1.765 0-.977.805-1.766 1.78-1.766z" color="#000"/><g aria-label="API" style="line-height:1.25" fill="#8a6911" stroke-width="1.468" font-family="sans-serif" font-size="17.639" font-weight="700" letter-spacing="0" word-spacing="0"><path d="M60.183 22.298H57.36l-.445 1.275H55.1l2.593-7h2.153l2.593 7h-1.815zM57.811 21h1.917l-.956-2.785zM63.362 16.573h2.997q1.336 0 2.049.595.717.591.717 1.688 0 1.102-.717 1.698-.713.59-2.05.59h-1.19v2.43h-1.806zm1.806 1.308v1.955h.998q.525 0 .812-.253.286-.258.286-.727t-.286-.722q-.287-.253-.812-.253zM70.396 16.573H72.2v7h-1.805z" style="-inkscape-font-specification:'sans-serif Bold'"/></g></svg>