<svg xmlns="http://www.w3.org/2000/svg" xmlns:xlink="http://www.w3.org/1999/xlink" xml:space="preserve" width="135.184" height="160.324" viewBox="0 0 35.767 42.419"><defs><linearGradient id="a" x1="301.8" x2="288.56" y1="267.55" y2="839.03" gradientTransform="translate(0 73.469)" gradientUnits="userSpaceOnUse"><stop offset="0" style="stop-color:#ffdc10"/><stop offset=".395" style="stop-color:#f4b908"/><stop offset=".75" style="stop-color:#eea704"/><stop offset="1" style="stop-color:#c68000"/></linearGradient><linearGradient id="b" x1="181.75" x2="148.84" y1="231.55" y2="781.62" gradientTransform="translate(0 73.469)" gradientUnits="userSpaceOnUse"><stop offset="0" style="stop-color:#ffdc10"/><stop offset=".362" style="stop-color:#f4b908"/><stop offset=".75" style="stop-color:#eea704"/><stop offset="1" style="stop-color:#da9302"/></linearGradient><linearGradient xlink:href="#a" id="c" x1="1813.324" x2="1833.511" y1="-397.491" y2="-397.491" gradientTransform="matrix(4.21518 0 0 4.20402 -5666.095 1473.993)" gradientUnits="userSpaceOnUse"/><linearGradient xlink:href="#a" id="d" x1="1776.666" x2="1815.079" y1="-450.134" y2="-450.134" gradientTransform="matrix(4.21518 0 0 4.20402 -5666.095 1473.993)" gradientUnits="userSpaceOnUse"/><linearGradient xlink:href="#b" id="e" x1="1761.624" x2="1814.324" y1="-413.855" y2="-413.855" gradientTransform="matrix(4.21518 0 0 4.20402 -5666.095 1473.993)" gradientUnits="userSpaceOnUse"/><linearGradient xlink:href="#a" id="f" x1="1792.553" x2="1814.998" y1="-434.589" y2="-434.589" gradientTransform="matrix(4.21518 0 0 4.20402 -5666.095 1473.993)" gradientUnits="userSpaceOnUse"/></defs><path d="m1979.491-231.018 80.875-57.486v121.93l-80.875 60.808z" style="fill:url(#c);fill-opacity:1;stroke:#696666;stroke-width:3.77953;stroke-linecap:butt;stroke-linejoin:miter;stroke-miterlimit:4;stroke-dasharray:none;stroke-opacity:1" transform="matrix(.11747 0 0 .11747 -206.685 54.399)"/><path d="m1763.85-355.004 95.594-37.536 200.922 104.036-80.875 57.486z" style="fill:#ffd100;fill-opacity:1;stroke:#696666;stroke-width:3.77953;stroke-linecap:butt;stroke-linejoin:miter;stroke-miterlimit:4;stroke-dasharray:none;stroke-opacity:1" transform="matrix(.11747 0 0 .11747 -206.685 54.399)"/><path d="m1823.918-426.322 78.643-34.692 76.564 36.193-87.188 37.666-68.02-39.167" style="fill:url(#d);fill-opacity:1;stroke:#696666;stroke-width:3.77953;stroke-linecap:butt;stroke-linejoin:miter;stroke-miterlimit:4;stroke-dasharray:none;stroke-opacity:1" transform="matrix(.11747 0 0 .11747 -206.685 54.399)"/><path d="m1763.85-355.004 60.068 34.588v-105.906l68.02 39.167v105.721l87.553 50.416v125.252l-217.9-150.143z" style="fill:url(#e);fill-opacity:1;stroke:#696666;stroke-width:3.77953;stroke-linecap:butt;stroke-linejoin:miter;stroke-miterlimit:4;stroke-dasharray:none;stroke-opacity:1" transform="matrix(.11747 0 0 .11747 -206.685 54.399)"/><path d="m1891.937-387.155 87.188-37.666 3.165 99.617-90.353 43.77z" style="fill:url(#f);fill-opacity:1;stroke:#696666;stroke-width:3.77953;stroke-linecap:butt;stroke-linejoin:miter;stroke-miterlimit:4;stroke-dasharray:none;stroke-opacity:1" transform="matrix(.11747 0 0 .11747 -206.685 54.399)"/><path d="M-430.934 65.532c-.156.317-.05 1.149.237 2.75 1.26 7.001 1.573 7.124 1.91 7.324l.185.062c.41.012.65-.116 3.269-1.426.73-.365 2.251-1.108 3.38-1.653 2.808-1.354 2.861-1.475 1.067-2.383-1.061-.537-1.134-.587-1.234-.891-.09-.277-.042-.461.287-1.253.9-2.165 2.523-4.145 4.548-5.55.845-.587 1.127-.756 2.235-1.261.531-.243.69-.356.858-.689.153-.301.152-.443.055-.582-.504-.72-2.542-.568-5.486.41-2.965.985-5.43 2.636-7.564 5.087-.913 1.048-.927 1.057-2.288.368-.863-.437-1.303-.63-1.46-.313z" style="fill:#b10000;fill-opacity:1;stroke:none;stroke-width:.67423" transform="matrix(1.26262 0 0 1.26262 546.044 -65.59)"/><path d="M-406.885 73.375c.144-.323.007-1.15-.342-2.74-1.524-6.948-1.842-7.059-2.187-7.245l-.186-.055c-.41.003-.646.14-3.213 1.549-.716.393-2.208 1.193-3.316 1.78-2.754 1.46-2.802 1.583-.975 2.422 1.082.497 1.156.543 1.268.844.1.273.059.459-.24 1.263-.816 2.197-2.363 4.238-4.333 5.719-.823.618-1.098.798-2.186 1.345-.521.262-.675.381-.83.72-.142.307-.136.449-.034.584.531.7 2.562.47 5.467-.619 2.925-1.096 5.326-2.84 7.365-5.37.872-1.082.886-1.091 2.272-.455.879.404 1.326.58 1.47.258z" style="fill:green;fill-opacity:1;stroke:none;stroke-width:.67423" transform="matrix(1.26262 0 0 1.26262 546.044 -65.59)"/></svg>