<svg xmlns="http://www.w3.org/2000/svg" xmlns:xlink="http://www.w3.org/1999/xlink" viewBox="0 0 72.916 75.266"><defs><linearGradient id="e" x1="138.92" x2="243.93" y1="604.86" y2="715.98" gradientTransform="translate(16.45 388.505) scale(.19525)" gradientUnits="userSpaceOnUse" xlink:href="#a"/><linearGradient id="a" x1="138.92" x2="243.93" y1="604.86" y2="715.98" gradientUnits="userSpaceOnUse"><stop offset="0" stop-color="#ffec67"/><stop offset="1" stop-color="#f29100"/></linearGradient><linearGradient id="f" x1="304.59" x2="153.01" y1="625.07" y2="735.65" gradientTransform="translate(16.45 388.505) scale(.19525)" gradientUnits="userSpaceOnUse" xlink:href="#b"/><linearGradient id="b" x1="304.59" x2="153.01" y1="625.07" y2="735.65" gradientUnits="userSpaceOnUse"><stop offset="0" stop-color="#ffec67" stop-opacity=".643"/><stop offset="1" stop-color="#f2b300"/></linearGradient><linearGradient id="g" x1="342.25" x2="359.239" y1="-112.642" y2="-103.288" gradientTransform="matrix(1.224 0 0 1.224 -415.215 682.624)" gradientUnits="userSpaceOnUse" xlink:href="#c"/><linearGradient id="c"><stop offset="0" stop-color="#fff9a6"/><stop offset="1" stop-color="#b9ad1b"/></linearGradient><linearGradient id="h" x1="342.25" x2="359.239" y1="-112.642" y2="-103.288" gradientTransform="matrix(1.224 0 0 1.224 -413.065 707.633)" gradientUnits="userSpaceOnUse" xlink:href="#d"/><linearGradient id="d"><stop stop-color="#7c87ff" stop-opacity=".748"/><stop offset="1" stop-color="#3382ba"/></linearGradient></defs><g fill-rule="evenodd" stroke="#9a7b08" stroke-width=".976"><path fill="url(#e)" d="M45.456 531.631l-3.366-26.998 11.242-.197.79 1.38h10.65l6.705 20.908" transform="matrix(1.15248 0 0 1.15248 -47.872 -580.783)"/><path fill="url(#f)" d="M45.733 531.082l25.941-4.358 7.299-19.13-24.457 1.183z" transform="matrix(1.15248 0 0 1.15248 -47.872 -580.783)"/></g><path fill="url(#g)" stroke="#000" stroke-width=".612" d="M3.494 538.176v9.911h-10.12v10.434H27.46v-10.434H17.34v-9.911h-6.923z" transform="translate(43 -508.57)"/><path fill="url(#h)" stroke="#000" stroke-width=".612" d="M5.644 563.185v9.911h-10.12v10.434h34.087v-10.434H19.49v-9.911h-6.923z" opacity=".748" transform="translate(43 -508.57)"/><path fill="none" stroke="#888" stroke-dasharray="3 3" d="M21.04 44.547h12.964m-13.097-12.17v37.57h13.097"/></svg>