<svg xmlns="http://www.w3.org/2000/svg" xmlns:xlink="http://www.w3.org/1999/xlink" viewBox="0 0 48.195 63.173"><defs><linearGradient id="j" x1="92.186" x2="119.104" y1="33.465" y2="26.565" gradientTransform="translate(-13.788 -19.1)" gradientUnits="userSpaceOnUse" xlink:href="#a"/><linearGradient id="a"><stop offset="0" stop-color="#62b01e"/><stop offset="1" stop-color="#44880c"/></linearGradient><linearGradient id="f" x1="64.5" x2="64.5" y1="930.36" y2="1045.36" gradientUnits="userSpaceOnUse" xlink:href="#b"/><linearGradient id="b"><stop offset="0" stop-color="#b5b5ac"/><stop offset="1" stop-color="#f0f0f0"/></linearGradient><linearGradient id="i" x1="141.66" x2="160.896" y1="139.493" y2="139.493" gradientTransform="matrix(.47868 0 0 .54867 38.007 53.841)" gradientUnits="userSpaceOnUse" xlink:href="#c"/><linearGradient id="c"><stop offset="0" stop-color="green"/><stop offset="1" stop-color="#0f0"/></linearGradient><linearGradient id="d" x1="138.92" x2="243.93" y1="604.86" y2="715.98" gradientUnits="userSpaceOnUse"><stop offset="0" stop-color="#ffec67"/><stop offset="1" stop-color="#f29100"/></linearGradient><linearGradient id="e" x1="304.59" x2="153.01" y1="625.07" y2="735.65" gradientUnits="userSpaceOnUse"><stop offset="0" stop-color="#ffec67" stop-opacity=".643"/><stop offset="1" stop-color="#f2b300"/></linearGradient><linearGradient id="g" x1="64.5" x2="64.5" y1="930.36" y2="1045.36" gradientUnits="userSpaceOnUse" xlink:href="#b"/><linearGradient id="h" x1="64.5" x2="64.5" y1="930.36" y2="1045.36" gradientUnits="userSpaceOnUse" xlink:href="#b"/></defs><path fill="url(#d)" fill-rule="evenodd" stroke="#9a7b08" stroke-width="5" d="M148.56 733.03l-17.24-138.27 57.58-1.01 4.04 7.07h54.55l34.34 107.08" transform="translate(-25.089 -109.33) scale(.19525)"/><path fill="url(#e)" fill-rule="evenodd" stroke="#9a7b08" stroke-width="5" d="M149.98 730.22l132.86-22.32 37.38-97.98-125.26 6.06z" transform="translate(-25.089 -109.33) scale(.19525)"/><path fill="none" stroke="#000" stroke-opacity=".392" stroke-width=".97618138" d="M19.885 4.205c.362-2.047 1.96-3.765 3.94-3.716 1.35.035 3.706.646 4.018 4.421"/><path fill-opacity=".392" fill-rule="evenodd" d="M25.54 5.111l4.184-.383-1.76 3.814z"/><g stroke-width="1.323"><g fill="url(#f)" fill-rule="evenodd" stroke="#999997" stroke-linejoin="round" stroke-width="5" transform="matrix(.26458 0 0 .26458 19.223 -214.073)"><path fill="url(#g)" d="M82 930.36H22v115h85v-90z"/><path fill="url(#h)" d="M107 955.36l-25-25c1.863 8.333 2.133 16.667 0 25 9.905-1.935 17.128-.568 25 0z"/></g><path fill="url(#i)" stroke="#3f6e2e" d="M105.856 124.838v11.079l9.086-5.54z" transform="translate(-74.235 -83.079)"/></g><g stroke="#57705d" stroke-width=".452"><path fill="url(#j)" fill-rule="evenodd" stroke-linecap="round" stroke-linejoin="round" d="M107.47-2.367c-7.89 17.304-21.247 13.233-21.374 13.233V5.14l-7.699 9.225 7.762 7.76v-5.788s18.511 4.326 21.311-18.704z" transform="matrix(-.72907 -.27961 -.3153 .89037 79.125 64.793)"/></g></svg>