<svg xmlns="http://www.w3.org/2000/svg" xmlns:xlink="http://www.w3.org/1999/xlink" viewBox="0 0 94.087 164.999"><defs><linearGradient id="d" x1="168.04" x2="256.55" y1="404.99" y2="304.86" gradientTransform="matrix(.26458 0 0 .26458 -1465.373 429.9)" gradientUnits="userSpaceOnUse" xlink:href="#a"/><linearGradient id="a"><stop offset="0"/><stop offset="1" stop-color="#666"/></linearGradient><linearGradient id="e" x1="168.72" x2="266.49" y1="487.48" y2="377.83" gradientTransform="matrix(.26458 0 0 .26458 -1465.373 429.9)" gradientUnits="userSpaceOnUse" xlink:href="#a"/><linearGradient id="f" x1="160.23" x2="259.36" y1="554.36" y2="411.44" gradientTransform="matrix(.26458 0 0 .26458 -1465.373 429.9)" gradientUnits="userSpaceOnUse" xlink:href="#a"/><filter id="g" color-interpolation-filters="sRGB"><feGaussianBlur stdDeviation="2.196"/></filter><filter id="h" color-interpolation-filters="sRGB"><feGaussianBlur stdDeviation="2.196"/></filter><filter id="i" color-interpolation-filters="sRGB"><feGaussianBlur stdDeviation="2.196"/></filter><radialGradient id="j" cx="206.92" cy="340.4" r="31.206" gradientTransform="matrix(.26458 0 0 .26458 -1465.87 452.959)" gradientUnits="userSpaceOnUse" xlink:href="#b"/><linearGradient id="b"><stop offset="0" stop-color="#ff0"/><stop offset="1" stop-color="#989800"/></linearGradient><linearGradient id="k" x1="205.06" x2="205.06" y1="398.64" y2="429.83" gradientTransform="matrix(.26458 0 0 .26458 -1465.373 429.9)" gradientUnits="userSpaceOnUse" xlink:href="#c"/><linearGradient id="c"><stop offset="0" stop-color="#fff"/><stop offset="1" stop-color="#fff" stop-opacity="0"/></linearGradient><filter id="l" width="1.78" height="1.78" x="-.39" y="-.39" color-interpolation-filters="sRGB"><feGaussianBlur stdDeviation="2.517"/></filter></defs><g fill-rule="evenodd" transform="matrix(2.47282 0 0 2.47282 3535.943 -1260.295)"><rect width="22.275" height="22.275" x="-1422.259" y="509.659" fill="url(#d)" rx="3.1"/><rect width="22.275" height="22.275" x="-1422.259" y="531.884" fill="url(#e)" rx="3.1"/><rect width="22.275" height="22.275" x="-1422.259" y="554.109" fill="url(#f)" rx="3.1"/><g fill="#a7a7a7" opacity=".534" transform="matrix(.26458 0 0 .26458 -1465.373 429.9)"><circle cx="206.917" cy="340.395" r="31.206" filter="url(#g)" transform="translate(-1.876 3.15)"/><circle cx="206.917" cy="340.395" r="31.206" filter="url(#h)" transform="translate(-1.876 87.15)"/><circle cx="206.917" cy="340.395" r="31.206" filter="url(#i)" transform="translate(-1.876 171.15)"/></g><circle cx="-1411.122" cy="543.022" r="8.256" fill="url(#j)"/><path fill="url(#k)" d="M-1411.506 535.303c-4.631.081-8.357 4.97-7.144 9.475.883 4.37 6.004 7.18 10.195 5.506 4.312-1.451 6.431-7.023 4.117-10.947-1.357-2.585-4.255-4.201-7.169-4.035z"/><path fill="#fffb7e" d="M-1411.506 535.303c-4.631.081-8.357 4.97-7.144 9.475.883 4.37 6.004 7.18 10.195 5.506 4.312-1.451 6.431-7.023 4.117-10.947-1.357-2.585-4.255-4.201-7.169-4.035z" filter="url(#l)" transform="matrix(1.3798 0 0 1.3798 536.197 -206.537)"/></g></svg>