<svg xmlns="http://www.w3.org/2000/svg" xmlns:xlink="http://www.w3.org/1999/xlink" viewBox="0 0 74.071 86.528"><defs><linearGradient id="a"><stop stop-color="#eee"/><stop offset="1" stop-color="#d2d2d2"/></linearGradient><filter id="f"><feGaussianBlur stdDeviation="2.586"/></filter><radialGradient id="g" cx="81.79" cy="100.32" r="44.42" gradientTransform="matrix(2.0026 -1.59703 1.77733 2.2287 -279.236 23.704)" gradientUnits="userSpaceOnUse" xlink:href="#a"/><radialGradient id="h" cx="89.51" cy="22.254" r="18.279" gradientTransform="matrix(1 0 0 .97468 0 .44)" gradientUnits="userSpaceOnUse" xlink:href="#b"/><linearGradient id="b"><stop/><stop offset="1" stop-opacity=".536"/></linearGradient><filter id="i" width="1.294" height="1.29" x="-.147" y="-.145"><feGaussianBlur stdDeviation="1.819"/></filter><linearGradient id="j" x1="98.33" x2="86.82" y1="14.793" y2="25.1" gradientTransform="matrix(.96715 0 0 .96715 .456 -.087)" gradientUnits="userSpaceOnUse" xlink:href="#c"/><linearGradient id="c"><stop/><stop offset="1" stop-color="#ddd" stop-opacity="0"/></linearGradient><linearGradient id="k" x1="342.25" x2="359.239" y1="-112.642" y2="-103.288" gradientTransform="translate(392.842 146.398)" gradientUnits="userSpaceOnUse" xlink:href="#d"/><linearGradient id="d"><stop offset="0" stop-color="#fff9a6"/><stop offset="1" stop-color="#b9ad1b"/></linearGradient><linearGradient id="l" x1="92.186" x2="119.104" y1="33.465" y2="26.565" gradientTransform="translate(-13.788 -19.1)" gradientUnits="userSpaceOnUse" xlink:href="#e"/><linearGradient id="e"><stop offset="0" stop-color="#62b01e"/><stop offset="1" stop-color="#44880c"/></linearGradient></defs><path d="M20.094 4.119v118h88.844V35.962l-.594-.625c.21.145.417.302.625.438L78.094 4.15c.056.08.1.17.156.25L78 4.119z" filter="url(#f)" opacity=".809" transform="matrix(.34095 0 0 .3424 -3.82 40.675)"/><path fill="url(#g)" d="M19.89 2.543v114.123h85.925V33.34L75.894 2.543z" transform="matrix(.35253 0 0 .35253 -3.982 40.891)"/><path fill="url(#h)" d="M81.698 28.31l.135-8.351c.068-6.6-.877-11.548-4.047-16.012l2.576-.031 27.5 25.615c-4.067-2.646-9.62-.791-16.861-1.026z" filter="url(#i)" opacity=".505" transform="matrix(.3582 0 0 .3921 -5.718 40.77)"/><path fill="#eee" d="M24.79 49.99l.046-2.847c.024-2.25-.948-3.82-2.03-5.341l10.53 10.783c-1.387-.902-2.905-2.448-5.374-2.528z"/><path fill="url(#j)" d="M81.616 25.812l.13-8.077c.066-6.382-2.691-10.836-5.757-15.153l29.867 30.588c-3.935-2.558-8.24-6.942-15.243-7.169z" transform="matrix(.35253 0 0 .35253 -3.982 40.891)"/><path fill="url(#k)" stroke="#000" stroke-width=".5" d="M734.924 28.385v8.098h-8.268v8.524h27.848v-8.524h-8.267v-8.098h-5.657z" transform="translate(-722.69 25.072)"/><g stroke="#57705d" stroke-width=".452"><path fill="url(#l)" fill-rule="evenodd" stroke-linecap="round" stroke-linejoin="round" d="M107.47-2.367c-7.89 17.304-21.247 13.233-21.374 13.233V5.14l-7.699 9.225 7.762 7.76v-5.788s18.511 4.326 21.311-18.704z" transform="matrix(-.77841 .06165 -.05019 -.94321 92.336 25.085)"/></g><path fill="#fff" stroke="#8e8f8f" stroke-linecap="round" stroke-width=".571" d="M841.551-117.753h7.288v7.122h-7.288z" transform="matrix(2.43319 1.4517 0 2.83334 -2012.266 -874.114)"/><path fill="#353535" stroke="#8e8f8f" stroke-linecap="round" stroke-width=".571" d="M849.876-759.714h7.288v7.122h-7.288z" transform="matrix(2.43319 -1.4517 0 -2.83334 -2012.266 -874.114)"/><path fill="#fff" stroke="#8e8f8f" stroke-linecap="round" stroke-width=".561" d="M725.562-127.511h7.256v7.152h-7.256z" transform="matrix(2.42397 1.46704 -2.41237 1.48604 -2012.266 -874.114)"/></svg>