<svg xmlns="http://www.w3.org/2000/svg" xmlns:xlink="http://www.w3.org/1999/xlink" viewBox="0 0 35.997 42.339"><defs><linearGradient id="a"><stop/><stop offset="1" stop-opacity=".536"/></linearGradient><linearGradient id="g" x1="1792.553" x2="1814.998" y1="-434.589" y2="-434.589" gradientTransform="matrix(.2996 0 0 .29881 -431.654 294.945)" gradientUnits="userSpaceOnUse" xlink:href="#b"/><linearGradient id="b" x1="301.8" x2="288.56" y1="267.55" y2="839.03" gradientTransform="translate(0 73.469)" gradientUnits="userSpaceOnUse"><stop offset="0" stop-color="#ffdc10"/><stop offset=".395" stop-color="#f4b908"/><stop offset=".75" stop-color="#eea704"/><stop offset="1" stop-color="#c68000"/></linearGradient><linearGradient id="f" x1="1761.624" x2="1814.324" y1="-413.855" y2="-413.855" gradientTransform="matrix(.2996 0 0 .29881 -431.654 294.945)" gradientUnits="userSpaceOnUse" xlink:href="#c"/><linearGradient id="c" x1="181.75" x2="148.84" y1="231.55" y2="781.62" gradientTransform="translate(0 73.469)" gradientUnits="userSpaceOnUse"><stop offset="0" stop-color="#ffdc10"/><stop offset=".362" stop-color="#f4b908"/><stop offset=".75" stop-color="#eea704"/><stop offset="1" stop-color="#da9302"/></linearGradient><linearGradient id="e" x1="1776.666" x2="1815.079" y1="-450.134" y2="-450.134" gradientTransform="matrix(.2996 0 0 .29881 -431.654 294.945)" gradientUnits="userSpaceOnUse" xlink:href="#b"/><linearGradient id="d" x1="1813.324" x2="1833.511" y1="-397.491" y2="-397.491" gradientTransform="matrix(.2996 0 0 .29881 -431.654 294.945)" gradientUnits="userSpaceOnUse" xlink:href="#b"/></defs><path fill="none" stroke="#929292" stroke-dasharray="3.175 1.058" stroke-width=".529" d="M.33 31.06l17.506-10.617 17.896 10.645M17.836 20.443V.265"/><path fill="none" stroke="#000" stroke-linejoin="round" stroke-width=".529" d="M.33 10.88L17.836.265l17.896 10.644-17.734 10.58z"/><path fill="url(#d)" stroke="#696666" stroke-width=".269" d="M111.779 173.756l5.748-4.086v8.667l-5.748 4.322z" transform="translate(-88.734 -145.205)"/><path fill="#ffd100" stroke="#696666" stroke-width=".269" d="M7.718 19.739l6.794-2.668 14.282 7.394-5.749 4.086z"/><path fill="url(#e)" stroke="#696666" stroke-width=".269" d="M100.721 159.874l5.59-2.466 5.442 2.573-6.197 2.677-4.835-2.784" transform="translate(-88.734 -145.205)"/><path fill="url(#f)" stroke="#696666" stroke-width=".269" d="M96.452 164.943l4.27 2.459v-7.528l4.834 2.784v7.515l6.223 3.583v8.903L96.29 171.987z" transform="translate(-88.734 -145.205)"/><path fill="url(#g)" stroke="#696666" stroke-width=".269" d="M105.556 162.658l6.197-2.677.225 7.08-6.422 3.112z" transform="translate(-88.734 -145.205)"/><path fill="none" stroke="#000" stroke-linejoin="round" stroke-width=".529" d="M.265 31.088l17.733 10.58.112-20.155L.265 10.909z"/><path fill="none" stroke="#000" stroke-linejoin="round" stroke-width=".529" d="M18.11 21.513l17.622-10.604v20.179l-17.734 10.58z"/><path fill="none" stroke="#869dff" stroke-linecap="round" stroke-linejoin="bevel" stroke-width="1.323" d="M18.11 21.513l-.112 20.155"/></svg>