<svg xmlns="http://www.w3.org/2000/svg" xmlns:xlink="http://www.w3.org/1999/xlink" viewBox="0 0 133.253 80.177"><defs><linearGradient id="ac" x1="28.598" x2="62.541" y1="2.335" y2="36.279" gradientTransform="translate(-64.468 -37.54)" gradientUnits="userSpaceOnUse" xlink:href="#a"/><linearGradient id="a"><stop offset="0" stop-color="#afb2b2"/><stop offset="1" stop-color="#fafafa"/></linearGradient><filter id="ad" color-interpolation-filters="sRGB"><feGaussianBlur result="blur" stdDeviation="2 2"/></filter><linearGradient id="ae" x1="28.598" x2="62.541" y1="2.335" y2="36.279" gradientTransform="translate(-64.468 -37.54)" gradientUnits="userSpaceOnUse" xlink:href="#a"/><linearGradient id="af" x1="86.951" x2="122.278" y1="350.631" y2="360.421" gradientTransform="translate(-124.205 -361.682)" gradientUnits="userSpaceOnUse" xlink:href="#b"/><linearGradient id="b"><stop offset="0"/><stop offset="1" stop-opacity="0"/></linearGradient><filter id="V" color-interpolation-filters="sRGB"><feGaussianBlur result="blur" stdDeviation="2 2"/></filter><linearGradient id="Y" x1="373.64" x2="190.15" y1="344.84" y2="313.73" gradientUnits="userSpaceOnUse"><stop offset="0" stop-color="#f20000"/><stop offset=".35" stop-color="#f0690c"/><stop offset=".675" stop-color="#f8a21a"/><stop offset="1" stop-color="#f7ff5d"/></linearGradient><filter id="Z" width="1.308" height="1.431" x="-.154" y="-.215"><feGaussianBlur stdDeviation="11.862"/></filter><filter id="aa" width="1.308" height="1.431" x="-.154" y="-.215"><feGaussianBlur stdDeviation="11.862"/></filter><filter id="ab" width="1.169" height="1.237" x="-.085" y="-.118"><feGaussianBlur stdDeviation="6.513"/></filter><filter id="Q" color-interpolation-filters="sRGB"><feGaussianBlur result="blur" stdDeviation="2 2"/></filter><linearGradient id="T" x1="-571.61" x2="-600.58" y1="992.25" y2="1070" gradientTransform="translate(.003 1.429)" gradientUnits="userSpaceOnUse"><stop offset="0" stop-color="#ffb380"/><stop offset="1" stop-color="#ad7a57"/></linearGradient><filter id="M" color-interpolation-filters="sRGB"><feGaussianBlur result="blur" stdDeviation="2 2"/></filter><filter id="I" color-interpolation-filters="sRGB"><feGaussianBlur result="blur" stdDeviation="2 2"/></filter><filter id="h" color-interpolation-filters="sRGB"><feGaussianBlur result="blur" stdDeviation="2 2"/></filter><linearGradient id="k" x1="35.996" x2="35.996" y1="1.625" y2="11.711" gradientTransform="matrix(1.632 0 0 2.4361 -.051 2.01)" gradientUnits="userSpaceOnUse" xlink:href="#c"/><linearGradient id="c"><stop offset="0" stop-color="#fff"/><stop offset="1" stop-color="#fff" stop-opacity="0"/></linearGradient><linearGradient id="l" x1="38.363" x2="39.724" y1="11.17" y2="6.092" gradientTransform="matrix(1.6375 0 0 2.4742 -.051 -.013)" gradientUnits="userSpaceOnUse" xlink:href="#c"/><radialGradient id="m" cx="21.595" cy="8.981" r="6.068" gradientTransform="matrix(2.3666 0 0 1.7265 -.404 -.013)" gradientUnits="userSpaceOnUse" xlink:href="#d"/><linearGradient id="d"><stop offset="0" stop-color="#e59a00"/><stop offset="1" stop-color="#faff7d" stop-opacity=".184"/></linearGradient><radialGradient id="n" cx="21.595" cy="8.981" r="6.068" gradientTransform="matrix(-2.3666 0 0 1.7265 129.12 -.113)" gradientUnits="userSpaceOnUse" xlink:href="#d"/><linearGradient id="o" x1="38.782" x2="38.782" y1="9.575" y2="7.586" gradientTransform="matrix(1.632 0 0 2.4825 -.051 -.013)" gradientUnits="userSpaceOnUse" xlink:href="#c"/><linearGradient id="p" x1="33.184" x2="33.184" y1="24.385" y2="-13.17" gradientTransform="matrix(2.2102 0 0 1.9643 -1.516 -2.171)" gradientUnits="userSpaceOnUse" xlink:href="#c"/><linearGradient id="q" x1="33.184" x2="33.184" y1="24.385" y2="-13.17" gradientTransform="matrix(2.1611 0 0 1.8045 -.051 2.267)" gradientUnits="userSpaceOnUse" xlink:href="#c"/><radialGradient id="r" cx="21.595" cy="8.981" r="6.068" gradientTransform="matrix(3.085 0 0 2.0529 -15.985 -3.15)" gradientUnits="userSpaceOnUse" xlink:href="#d"/><radialGradient id="s" cx="21.595" cy="8.981" r="6.068" gradientTransform="matrix(-2.8463 0 0 2.0879 139.53 -3.586)" gradientUnits="userSpaceOnUse" xlink:href="#d"/><radialGradient id="t" cx="8.018" cy="231.98" r="7.483" gradientTransform="matrix(7.5313 0 0 .53795 3.974 -.013)" gradientUnits="userSpaceOnUse" xlink:href="#e"/><linearGradient id="e"><stop offset="0" stop-color="#282828"/><stop offset="1" stop-color="#282828" stop-opacity="0"/></linearGradient><radialGradient id="u" cx="8.018" cy="231.98" r="7.483" gradientTransform="matrix(7.5313 0 0 .67244 3.974 -34.231)" gradientUnits="userSpaceOnUse" xlink:href="#e"/><radialGradient id="v" cx="8.018" cy="231.98" r="7.483" gradientTransform="matrix(7.5313 0 0 .53795 3.974 -2.026)" gradientUnits="userSpaceOnUse" xlink:href="#e"/><linearGradient id="w" x1="29.614" x2="44.724" y1="52.609" y2="52.609" gradientTransform="matrix(2.1518 0 0 1.7708 -.051 4.352)" gradientUnits="userSpaceOnUse" spreadMethod="reflect"><stop offset="0" stop-color="#db9300"/><stop offset=".75" stop-color="#fac700"/><stop offset="1" stop-color="#fff363"/></linearGradient><linearGradient id="x" x1="29.094" x2="29.094" y1="46.357" y2="47.296" gradientTransform="matrix(2.2188 0 0 1.826 -.051 -1.013)" gradientUnits="userSpaceOnUse" spreadMethod="reflect" xlink:href="#f"/><linearGradient id="f"><stop offset="0"/><stop offset="1" stop-color="#fff"/></linearGradient><linearGradient id="y" x1="24.261" x2="24.606" y1="44.011" y2="45.888" gradientTransform="matrix(2.2188 0 0 1.826 -.051 -1.013)" gradientUnits="userSpaceOnUse" spreadMethod="reflect" xlink:href="#f"/><linearGradient id="z" x1="17.682" x2="17.425" y1="60.434" y2="62.78" gradientTransform="matrix(2.2188 0 0 1.826 -.051 -1.013)" gradientUnits="userSpaceOnUse" spreadMethod="reflect" xlink:href="#f"/><radialGradient id="A" cx="20.361" cy="22.546" r="15.157" gradientTransform="matrix(.43334 0 0 1.435 6.41 -.113)" gradientUnits="userSpaceOnUse" xlink:href="#c"/><radialGradient id="B" cx="20.361" cy="22.546" r="15.157" gradientTransform="matrix(.50007 0 0 1.6752 5.003 -5.108)" gradientUnits="userSpaceOnUse" xlink:href="#c"/><radialGradient id="C" cx="20.361" cy="22.546" r="15.157" gradientTransform="matrix(.6214 0 0 1.8821 2.389 -9.41)" gradientUnits="userSpaceOnUse" xlink:href="#c"/><radialGradient id="D" cx="20.361" cy="22.546" r="15.157" gradientTransform="matrix(.43334 0 0 1.435 6.41 -.113)" gradientUnits="userSpaceOnUse" xlink:href="#c"/><radialGradient id="E" cx="20.361" cy="22.546" r="15.157" gradientTransform="matrix(.50007 0 0 1.6752 5.003 -5.108)" gradientUnits="userSpaceOnUse" xlink:href="#c"/><radialGradient id="F" cx="20.361" cy="22.546" r="15.157" gradientTransform="matrix(.6214 0 0 1.8821 2.389 -9.41)" gradientUnits="userSpaceOnUse" xlink:href="#c"/><linearGradient id="G" x1="26.974" x2="26.974" y1="68.68" y2="44.981" gradientTransform="matrix(2.1361 0 0 1.826 2.349 -1.013)" gradientUnits="userSpaceOnUse" xlink:href="#c"/><linearGradient id="g" x1="28.598" x2="62.541" y1="2.335" y2="36.279" gradientTransform="translate(-64.468 -37.54)" gradientUnits="userSpaceOnUse" xlink:href="#a"/><linearGradient id="i" x1="28.598" x2="62.541" y1="2.335" y2="36.279" gradientTransform="translate(-64.468 -37.54)" gradientUnits="userSpaceOnUse" xlink:href="#a"/><linearGradient id="j" x1="86.951" x2="122.278" y1="350.631" y2="360.421" gradientTransform="translate(-124.205 -361.682)" gradientUnits="userSpaceOnUse" xlink:href="#b"/><linearGradient id="H" x1="28.598" x2="62.541" y1="2.335" y2="36.279" gradientTransform="translate(-64.468 -37.54)" gradientUnits="userSpaceOnUse" xlink:href="#a"/><linearGradient id="J" x1="28.598" x2="62.541" y1="2.335" y2="36.279" gradientTransform="translate(-64.468 -37.54)" gradientUnits="userSpaceOnUse" xlink:href="#a"/><linearGradient id="K" x1="86.951" x2="122.278" y1="350.631" y2="360.421" gradientTransform="translate(-124.205 -361.682)" gradientUnits="userSpaceOnUse" xlink:href="#b"/><linearGradient id="L" x1="28.598" x2="62.541" y1="2.335" y2="36.279" gradientTransform="translate(-64.468 -37.54)" gradientUnits="userSpaceOnUse" xlink:href="#a"/><linearGradient id="N" x1="28.598" x2="62.541" y1="2.335" y2="36.279" gradientTransform="translate(-64.468 -37.54)" gradientUnits="userSpaceOnUse" xlink:href="#a"/><linearGradient id="O" x1="86.951" x2="122.278" y1="350.631" y2="360.421" gradientTransform="translate(-124.205 -361.682)" gradientUnits="userSpaceOnUse" xlink:href="#b"/><linearGradient id="P" x1="28.598" x2="62.541" y1="2.335" y2="36.279" gradientTransform="translate(-64.468 -37.54)" gradientUnits="userSpaceOnUse" xlink:href="#a"/><linearGradient id="R" x1="28.598" x2="62.541" y1="2.335" y2="36.279" gradientTransform="translate(-64.468 -37.54)" gradientUnits="userSpaceOnUse" xlink:href="#a"/><linearGradient id="S" x1="86.951" x2="122.278" y1="350.631" y2="360.421" gradientTransform="translate(-124.205 -361.682)" gradientUnits="userSpaceOnUse" xlink:href="#b"/><linearGradient id="U" x1="28.598" x2="62.541" y1="2.335" y2="36.279" gradientTransform="translate(-64.468 -37.54)" gradientUnits="userSpaceOnUse" xlink:href="#a"/><linearGradient id="W" x1="28.598" x2="62.541" y1="2.335" y2="36.279" gradientTransform="translate(-64.468 -37.54)" gradientUnits="userSpaceOnUse" xlink:href="#a"/><linearGradient id="X" x1="86.951" x2="122.278" y1="350.631" y2="360.421" gradientTransform="translate(-124.205 -361.682)" gradientUnits="userSpaceOnUse" xlink:href="#b"/></defs><g stroke-width=".5" transform="translate(63.581 70.504)"><rect width="33.943" height="33.943" x="-35.87" y="-35.204" fill="url(#g)" stroke="#000" filter="url(#h)" rx="5.8"/><rect width="33.943" height="33.943" x="-35.87" y="-35.204" fill="url(#i)" stroke="url(#j)" rx="5.8"/></g><g fill-rule="evenodd"><path fill="#282828" d="M45.02 37.703a7.733 7.733 0 0 0-7.75 7.75v8.611h2.153v-8.61a5.585 5.585 0 0 1 5.597-5.598c3.101 0 5.598 2.496 5.598 5.597v8.611h2.152v-8.61a7.733 7.733 0 0 0-7.75-7.751z"/><path fill="url(#k)" d="M64.359 4.63c-18.957 0-34.218 16.306-34.218 34.908v37.528c0 14.09 8.776 26.054 21.261 31.044-8.945-4.07-15.222-12.796-15.222-23.143V37.563c0-14.225 11.67-26.62 26.166-26.62h4.026c14.496 0 26.167 12.395 26.167 26.62v47.404c0 10.347-6.277 19.073-15.222 23.143 12.484-4.99 21.26-16.954 21.26-31.044V39.538c0-18.602-15.261-34.909-34.218-34.909z" opacity=".65" transform="translate(31.253 37.275) scale(.21391)"/><path fill="url(#l)" d="M64.359 2.854c-19.51 0-35.217 15.6-35.217 34.98v39.095c0 14.677 9.033 27.14 21.881 32.34-9.206-4.24-15.666-13.331-15.666-24.11V35.777c0-14.82 12.011-29.082 26.931-29.082h4.143c14.919 0 26.93 14.263 26.93 29.082V85.16c0 10.778-6.46 19.87-15.666 24.11 12.848-5.2 21.881-17.664 21.881-32.341V37.834c0-19.38-15.707-34.98-35.217-34.98z" opacity=".5" transform="translate(31.253 37.275) scale(.21391)"/><path fill="url(#m)" d="M49.471 12.003c-5.439 3.405-8.499 9.21-7.9 11.145.646 2.085 4.467-7.233 15.283-10.119 8.341-2.225 0-5.649-7.383-1.026z" opacity=".8" transform="translate(31.253 37.275) scale(.21391)"/><path fill="url(#n)" d="M79.248 11.903c5.438 3.405 8.498 9.21 7.899 11.145-.646 2.085-4.467-7.233-15.283-10.119-8.341-2.225 0-5.649 7.384-1.026z" opacity=".8" transform="translate(31.253 37.275) scale(.21391)"/><path fill="url(#o)" d="M64.359 6.28c-18.957 0-34.218 12.994-34.218 31.951v38.244c0 14.357 8.776 26.545 21.261 31.635-8.945-4.15-15.222-13.04-15.222-23.584V36.218c0-14.496 11.67-26.182 26.166-26.182h4.026c14.496 0 26.167 11.686 26.167 26.182v48.308c0 10.544-6.277 19.434-15.222 23.584 12.484-5.09 21.26-17.278 21.26-31.635V38.231c0-18.957-15.261-31.952-34.218-31.952z" opacity=".5" transform="translate(31.253 37.275) scale(.21391)"/><path fill="url(#p)" d="M64.359 4.039c-26.762 0-32.937 23.315-32.937 33.86 0 31.634 2.058 31.634 2.058 0 0-23.2 16.463-32.355 30.879-32.355s30.879 10.103 30.879 32.355c0 31.634 2.059 31.634 2.059 0 0-10.545-6.176-33.86-32.938-33.86z" opacity=".8" transform="translate(31.253 37.275) scale(.21391)"/><path fill="url(#q)" d="M64.359 7.091c-26.167 0-32.205 22.3-32.205 31.988 0 29.062 2.013 29.062 2.013 0 0-21.312 16.096-30.605 30.192-30.605S94.552 18.636 94.552 39.08c0 29.062 2.012 29.062 2.012 0 0-9.688-6.038-31.988-32.205-31.988z" opacity=".6" transform="translate(31.253 37.275) scale(.21391)"/><path fill="#fff" d="M39.163 40.802c-.615 1.123.648.413.941.058.825-.996 2.218-1.719 3.441-1.954 1.026-.198 1.182-.594.337-.66-1.684-.13-4.129 1.48-4.719 2.556z" opacity=".8"/><path fill="#fff" d="M38.231 42.656c.066.549 1.127-1.24 1.962-2.08 1.02-1.026 2.566-1.743 3.31-1.838 1.326-.17.696-.82-.135-.655-3.02.597-5.303 3.174-5.137 4.573z" opacity=".6"/><path fill="#fff" d="M50.843 40.794c.62 1.12-.646.416-.94.062-.829-.993-2.225-1.71-3.449-1.942-1.026-.194-1.315-.589-.47-.657 1.683-.137 4.266 1.463 4.86 2.537z" opacity=".8"/><path fill="#fff" d="M51.745 42.607c-.063.549-1.13-1.236-1.968-2.073-1.024-1.022-2.573-1.734-3.317-1.826-1.326-.164-.704-.79.132-.655 3.025.492 5.314 3.154 5.153 4.554z" opacity=".6"/><path fill="url(#r)" d="M49.032 11.138C41.943 15.187 37.953 22.09 38.734 24.39c.842 2.479 5.823-8.601 19.923-12.032 10.873-2.646 0-6.717-9.625-1.22z" opacity=".4" transform="translate(31.253 37.275) scale(.21391)"/><path fill="url(#s)" d="M79.54 10.945c6.541 4.118 10.222 11.138 9.501 13.479-.776 2.521-5.372-8.748-18.381-12.238-10.031-2.691.001-6.831 8.88-1.241z" opacity=".4" transform="translate(31.253 37.275) scale(.21391)"/><path fill="url(#t)" d="M120.72 124.78c0 2.23-25.235 4.03-56.361 4.03-31.126 0-56.359-1.8-56.359-4.03 0-2.22 25.233-4.02 56.359-4.02s56.361 1.8 56.361 4.02z" opacity=".4" transform="translate(31.253 37.275) scale(.21391)"/><path fill="url(#u)" d="M120.72 121.76c0 2.78-25.235 5.04-56.361 5.04C33.233 126.8 8 124.54 8 121.76c0-2.78 25.233-5.03 56.359-5.03s56.361 2.25 56.361 5.03z" opacity=".4" transform="translate(31.253 37.275) scale(.21391)"/><path fill="url(#v)" d="M120.72 122.77c0 2.22-25.235 4.03-56.361 4.03C33.233 126.8 8 124.99 8 122.77s25.233-4.03 56.359-4.03 56.361 1.81 56.361 4.03z" opacity=".4" transform="translate(31.253 37.275) scale(.21391)"/><g transform="translate(31.253 37.275) scale(.21391)"><rect width="80.513" height="66.259" x="24.103" y="57.359" fill="url(#w)" rx=".5" ry=".5"/><rect width="80.513" height="66.259" x="24.103" y="57.359" fill="url(#x)" opacity=".03" rx=".5" ry=".5"/><rect width="80.513" height="66.259" x="24.103" y="57.359" fill="url(#y)" opacity=".03" rx=".5" ry=".5"/><rect width="80.513" height="66.259" x="24.103" y="57.359" fill="url(#z)" opacity=".03" rx=".5" ry=".5"/><path fill="#fff" d="M26.619 57.359c1.81 2.122 18.145 3.786 38.655 3.786 20.229 0 36.296-1.647 38.486-3.727-.03-.003-.03-.059-.06-.059z" opacity=".5"/><path fill="url(#A)" d="M13.971 30.767c-.439 2.629-.931 19.309.697 22.88 1.592 3.493 1.393-16.667 5.273-19.84 3.921-3.207-5.555-5.52-5.97-3.04z" opacity=".403" transform="matrix(1.7195 0 0 1.9816 4.42 1.488)"/><path fill="url(#B)" d="M13.729 30.942c-.508 3.069-1.075 22.541.803 26.71 1.837 4.078 1.608-19.457 6.085-23.161 4.525-3.744-6.41-6.445-6.888-3.549z" opacity=".3" transform="matrix(1.7195 0 0 1.9816 4.42 1.488)"/><path fill="url(#C)" d="M13.232 31.092c-.631 3.449-1.335 25.325.998 30.009 2.283 4.582 1.998-21.86 7.562-26.022 5.623-4.206-7.966-7.24-8.56-3.987z" opacity=".2" transform="matrix(1.7195 0 0 1.9816 4.42 1.488)"/><path fill="url(#D)" d="M13.971 30.767c-.439 2.629-.931 19.309.697 22.88 1.592 3.493 1.393-16.667 5.273-19.84 3.921-3.207-5.555-5.52-5.97-3.04z" opacity=".403" transform="matrix(-1.7195 0 0 1.9816 124.3 1.488)"/><path fill="url(#E)" d="M13.729 30.942c-.508 3.069-1.075 22.541.803 26.71 1.837 4.078 1.608-19.457 6.085-23.161 4.525-3.744-6.41-6.445-6.888-3.549z" opacity=".3" transform="matrix(-1.7195 0 0 1.9816 124.3 1.488)"/><path fill="url(#F)" d="M13.232 31.092c-.631 3.449-1.335 25.325.998 30.009 2.283 4.582 1.998-21.86 7.562-26.022 5.623-4.206-7.966-7.24-8.56-3.987z" opacity=".2" transform="matrix(-1.7195 0 0 1.9816 124.3 1.488)"/><path fill="url(#G)" d="M103.12 114.72v7.89c0 .56-.44 1.01-.97 1.01H26.572c-.537 0-.969-.45-.969-1.01V94.596c0 29.514 77.517-20.879 77.517 20.124z" opacity=".25"/><path d="M25.647 123.62c1.81-2.12 18.145-3.79 38.655-3.79 20.229 0 36.298 1.65 38.488 3.73-.04 0-.03.06-.06.06z" opacity=".5"/></g></g><g stroke-width=".5" transform="translate(112.819 48.275)"><rect width="33.943" height="33.943" x="-35.87" y="-35.204" fill="url(#H)" stroke="#000" filter="url(#I)" rx="5.8"/><rect width="33.943" height="33.943" x="-35.87" y="-35.204" fill="url(#J)" stroke="url(#K)" rx="5.8"/></g><g stroke="#57705d" stroke-linecap="round" stroke-linejoin="round" stroke-width=".452"><path fill="none" d="M114.58 5.055c-7.89 17.304-21.247 13.233-21.374 13.233v-5.726l-7.699 9.225 7.762 7.76V23.76s18.511 4.326 21.311-18.704z" transform="matrix(-.80495 .20905 -.20252 -.75962 178.477 21.457)"/><path fill="#62b01e" fill-rule="evenodd" d="M114.58 5.055c-7.89 17.304-21.247 13.233-21.374 13.233v-5.726l-7.699 9.225 7.762 7.76V23.76s18.511 4.326 21.311-18.704z" transform="matrix(-.80495 .20905 -.20252 -.75962 178.477 21.457)"/></g><g stroke-width=".5"><g transform="translate(39.265 51.896)"><rect width="33.943" height="33.943" x="-35.87" y="-35.204" fill="url(#L)" stroke="#000" filter="url(#M)" rx="5.8"/><rect width="33.943" height="33.943" x="-35.87" y="-35.204" fill="url(#N)" stroke="url(#O)" rx="5.8"/></g><g fill="#fff9a6"><path stroke="#000" d="M14.331 24.219v8.097H6.064v8.524h27.848v-8.524h-8.268V24.22h-5.656z"/><path fill="#57bd4d" stroke="#000" stroke-width=".427" d="M25.644 24.219v8.097h8.268V24.22h-4.134z"/></g></g><g stroke-width=".5"><g transform="translate(76.036 38.598)"><rect width="33.943" height="33.943" x="-35.87" y="-35.204" fill="url(#P)" stroke="#000" filter="url(#Q)" rx="5.8"/><rect width="33.943" height="33.943" x="-35.87" y="-35.204" fill="url(#R)" stroke="url(#S)" rx="5.8"/></g><g fill="#fff9a6"><g stroke="#000"><path fill="#fc0" stroke-width=".08953" d="M63.267 10.62l-.12.075c-4.965 4.412-9.919 8.753-14.893 13.154l-.09.11.45 1.996 6.691-5.923.028.032 8.788-7.809z"/><path fill="#d4aa00" stroke-width=".08953" d="M63.97 12.03c-5.325 4.42-10.677 9.77-15.41 13.902l1.842 2.083c5.4-4.42 10.698-9.768 15.417-13.904z"/><path fill="#a80" stroke-width=".08953" d="M67.287 15.143l-1.524-1.04c-4.818 4.277-10.537 9.297-15.378 13.58l1.787.807.12-.076a3578.14 3578.14 0 0 0 14.904-13.16z"/><path fill="url(#T)" stroke-linecap="round" stroke-linejoin="round" stroke-width="1.382" d="M-531.13 1058.9s-15.043-10.041-33.857-9.789c-18.814.253-33.971 8.882-33.971 8.882l33.499-92.006z" transform="rotate(-131.501 -15.62 37.77) scale(.08953)"/><path fill="#333" stroke-width=".08953" d="M43.962 31.792l2.226-.878-1.092-1.235-1.134 2.113z"/></g><path fill="#f55" stroke="#000" stroke-width=".402885" d="M67.363 15.08l-1.481-.993-1.7-1.912-.82-1.623 2.04-1.813s.44-.307.684-.368c.304-.076.674.02.915.222.447.373 2.114 2.007 2.69 3.026.157.28.238.6.128.954-.072.232-.416.627-.416.627z"/><path fill="#ff8080" d="M69.46 12.277c-1-.401-2.187-1.497-2.656-2.307-.359-.644-.3-.34-.3-.34s.087.493.784 1.482c.844 1.197 2.189 1.356 2.171 1.165z"/><g stroke="#000"><path fill="#b3b3b3" stroke-width=".24119382" d="M66.032 16.278l-1.533-1.016-1.648-1.854-.804-1.728 1.387-1.3.816 1.661 1.72 1.935L67.53 15z"/><path fill="none" stroke-width=".08953" d="M67.185 15.297l-1.547-1.019-1.732-1.95-.792-1.579M66.535 15.86l-1.559-1.027-1.73-1.948-.77-1.535"/></g></g></g><g><g stroke-width=".5" transform="translate(100.89 78.043)"><rect width="33.943" height="33.943" x="-35.87" y="-35.204" fill="url(#U)" stroke="#000" filter="url(#V)" rx="5.8"/><rect width="33.943" height="33.943" x="-35.87" y="-35.204" fill="url(#W)" stroke="url(#X)" rx="5.8"/></g><path d="M75.024 65.952a.351.367 0 1 1 .002.002"/><path fill="#aeaeae" d="M95.823 59.536a13.844 13.844 0 1 1-27.688 0 13.844 13.844 0 1 1 27.688 0z"/><path fill="#fdfdfd" d="M95.69 59.536a13.71 13.71 0 1 1-27.422 0 13.71 13.71 0 1 1 27.422 0z"/><path fill="url(#Y)" d="M398.32 269.73a104.085 104.085 0 1 1-208.17 0 104.085 104.085 0 1 1 208.17 0z" transform="matrix(.12385 .00706 -.00706 .12385 47.44 23.919)"/><path fill="#fdfdfd" d="M93.143 59.984a11.382 11.382 0 1 1-22.727-1.295 11.382 11.382 0 1 1 22.727 1.295z"/><path fill="none" stroke="#fff" stroke-width="33.489" d="M398.32 269.73a104.08 104.08 0 0 1-99.65 103.99" transform="matrix(.05721 .11786 -.095 .06323 90.06 4.92)"/><path fill="none" stroke="#000" stroke-width=".33171447000000004" d="M71.654 63.566l-1.861 1.041M81.69 46.18l-.028 2.134M70.853 58.565l-2.131-.115M72.236 53.953l-1.817-1.117M76.067 49.913l-1.073-1.845M88.239 47.79l-1.085 1.908M93.647 53.134L91.6 54.161M95.31 60.532l-2.464-.23M93.309 66.535l-2.11-1.378M88.71 70.942l-1.308-2.034"/><text style="line-height:100%" x="1873.716" y="-10.505" stroke-width="3.555" font-family="Bazaronite" font-size="85.326" transform="translate(1.922 64.47) scale(.03741)"><tspan x="1873.716" y="-10.505">0</tspan></text><text style="line-height:100%" x="1857.441" y="-129.935" stroke-width="3.555" font-family="Bazaronite" font-size="85.326" transform="translate(1.922 64.47) scale(.03741)"><tspan x="1857.441" y="-129.935">1</tspan></text><text style="line-height:100%" x="1887.459" y="-242.502" stroke-width="3.555" font-family="Bazaronite" font-size="85.326" transform="translate(1.922 64.47) scale(.03741)"><tspan x="1887.459" y="-242.502">2</tspan></text><text style="line-height:100%" x="1979.014" y="-326.552" stroke-width="3.555" font-family="Bazaronite" font-size="85.326" transform="translate(1.922 64.47) scale(.03741)"><tspan x="1979.014" y="-326.552">3</tspan></text><text style="line-height:100%" x="2109.592" y="-362.574" stroke-width="3.555" font-family="Bazaronite" font-size="85.326" transform="translate(1.922 64.47) scale(.03741)"><tspan x="2109.592" y="-362.574">4</tspan></text><text style="line-height:100%" x="2235.667" y="-326.552" stroke-width="3.555" font-family="Bazaronite" font-size="85.326" transform="translate(1.922 64.47) scale(.03741)"><tspan x="2235.667" y="-326.552">5</tspan></text><text style="line-height:100%" x="2343.732" y="-237.999" stroke-width="3.555" font-family="Bazaronite" font-size="85.326" transform="translate(1.922 64.47) scale(.03741)"><tspan x="2343.732" y="-237.999">6</tspan></text><text style="line-height:100%" x="2382.755" y="-87.91" stroke-width="3.555" font-family="Bazaronite" font-size="85.326" transform="translate(1.922 64.47) scale(.03741)"><tspan x="2382.755" y="-87.91">7</tspan></text><text style="line-height:100%" x="2330.224" y="24.657" stroke-width="3.555" font-family="Bazaronite" font-size="85.326" transform="translate(1.922 64.47) scale(.03741)"><tspan x="2330.224" y="24.657">8</tspan></text><text style="line-height:100%" x="2238.669" y="110.209" stroke-width="3.555" font-family="Bazaronite" font-size="85.326" transform="translate(1.922 64.47) scale(.03741)"><tspan x="2238.669" y="110.209">9</tspan></text><g fill="none" stroke="#000"><path stroke-width=".09204291999999999" d="M85.063 46.688l-.356 1.642M78.378 46.726l.343 1.646M72.413 50.25l1.186 1.19M69.29 55.535l1.594.534M70.539 61.186l-1.667.212"/><path stroke-width=".10255070999999999" d="M91.478 50.298l-1.269 1.372"/><path stroke-width=".09403806999999999" d="M94.867 56.936l-1.895.366"/><path stroke-width=".09310699999999998" d="M94.408 63.557l-1.798-.706"/><path stroke-width=".09217592999999999" d="M89.833 67.38l1.229 1.588"/><path stroke-width=".042829219999999994" d="M90.732 66.402l1.322 1.084"/><path stroke-width=".04509039" d="M88.783 68.315l.945 1.41"/><path stroke-width=".04655349999999999" d="M92.154 64.056l1.533.747"/><path stroke-width=".043893299999999996" d="M92.932 61.646l1.7.31M94.872 58.697l-1.714.097"/><path stroke-width=".042563199999999995" d="M94.12 55.006l-1.543.688"/><path stroke-width=".041499119999999994" d="M92.344 51.7l-1.26 1.076"/><path stroke-width=".039902999999999994" d="M89.774 49.12l-.899 1.319"/><path stroke-width=".03883891999999999" d="M86.484 47.298l-.493 1.466"/><path stroke-width=".03498163" d="M83.364 46.575l-.114 1.479"/><path stroke-width=".03538066" d="M80.054 46.639l.142 1.439"/><path stroke-width=".04003601" d="M76.918 47.528l.441 1.32"/><path stroke-width=".03976999" d="M73.85 49.38l.78 1.1"/><path stroke-width=".04535641" d="M71.693 51.626l.995.872"/><path stroke-width=".041898149999999995" d="M70.128 54.313l1.17.59"/><path stroke-width=".04721854999999999" d="M69.295 57.078l1.289.204"/><path stroke-width=".040967079999999996" d="M69.075 59.98l1.339-.091"/><path stroke-width=".041632129999999996" d="M69.546 62.887l1.29-.448"/></g><g><path d="M253.92 297.74a77.062 55.044 0 1 1 1.56-.04" filter="url(#Z)" opacity=".8" transform="matrix(.00605 0 0 .00846 84.713 57.548)"/><path d="M253.92 297.74a77.062 55.044 0 1 1 1.56-.04" filter="url(#aa)" opacity=".8" transform="matrix(.00605 0 0 .00846 75.263 57.548)"/><path d="M253.92 297.74a77.062 55.044 0 1 1 1.56-.04" filter="url(#ab)" transform="matrix(.00374 0 0 .00523 73.94 64.74)"/></g><g fill="none" stroke="#ff0101" stroke-linecap="square" stroke-width="6"><path stroke-width=".79806" d="M81.02 59.37l10.458-9.072M81.431 59.836l10.115-9.454"/></g><path d="M81.683 61.267a1.664 1.664 0 1 1 .034-.002"/></g><g stroke-width=".5"><g transform="translate(131.786 63.364)"><rect width="33.943" height="33.943" x="-35.87" y="-35.204" fill="url(#ac)" stroke="#000" filter="url(#ad)" rx="5.8"/><rect width="33.943" height="33.943" x="-35.87" y="-35.204" fill="url(#ae)" stroke="url(#af)" rx="5.8"/></g><path fill="#fff9a6" stroke="#000" d="M107.23 34.742v8.097h-8.267v8.525h27.848v-8.525h-8.267v-8.097h-5.657z"/></g></svg>