<svg xmlns="http://www.w3.org/2000/svg" viewBox="0 0 88.953 63.79"><path fill="#eaeaea" stroke="#000" d="M22.559 63.29V44.736H.5V28.862h22.059V9.689h30.51v19.173h22.06v15.874h-22.06V63.29z"/><path fill="none" stroke="#868686" stroke-dasharray="7.938 2.646" stroke-width="1.323" d="M68.532 28.862v15.874M7.097 28.862v15.874M22.559 28.862h30.51M22.559 44.736h30.51"/><path fill="#fffd3d" stroke="#000" stroke-linecap="round" stroke-width="1.065" d="M55.915.533H88.42v12.095H55.915z"/><path fill="none" stroke="#000" stroke-width=".661" d="M48.615 17.933l7.3-5.305"/><g style="line-height:1.25" stroke-width=".265" aria-label="FP1" font-family="sans-serif" font-size="10.583" font-weight="400" letter-spacing="0" word-spacing="0"><g fill="#9c9c9c"><path d="M70.271 3.502h-3.89v2.17h3.343v.91H66.38v3.705h-1.023V2.592h4.914zM76.467 4.918q0 .511-.18.95-.176.435-.497.755-.397.398-.94.6-.543.196-1.37.196h-1.023v2.868h-1.023V2.592h2.088q.692 0 1.173.12.48.113.853.361.439.295.677.734.242.44.242 1.11zm-1.064.026q0-.398-.14-.693-.14-.294-.423-.48-.248-.16-.569-.228-.315-.072-.8-.072h-1.014v3.075h.863q.62 0 1.008-.109.388-.114.63-.356.243-.248.342-.522.103-.274.103-.615zM82.39 10.287h-4.166v-.785h1.602V4.344h-1.602v-.703q.326 0 .698-.051.372-.057.563-.16.238-.13.372-.326.14-.202.16-.537h.802v6.935h1.57z"/></g></g></svg>