<svg xmlns="http://www.w3.org/2000/svg" viewBox="0 0 91.102 86.963"><defs><linearGradient id="a"><stop/><stop offset="1" stop-opacity=".536"/></linearGradient><filter id="b" width="1.191" height="1.202" x="-.096" y="-.101" color-interpolation-filters="sRGB"><feGaussianBlur stdDeviation="3.05"/></filter></defs><path fill="#b21e00" d="M-884.367-22.127c-3.7-3.5-9.661-3.5-13.362 0L-919.822-1.23l-22.092-20.897c-3.7-3.5-9.661-3.5-13.362 0-3.701 3.5-3.701 9.14 0 12.64l22.092 20.896-22.092 20.897c-3.7 3.5-3.7 9.138 0 12.639 3.701 3.5 9.662 3.5 13.363 0l22.092-20.897 22.092 20.897c3.7 3.5 9.662 3.5 13.362 0 3.701-3.5 3.701-9.139 0-12.64l-22.092-20.896 22.093-20.896c3.7-3.501 3.7-9.14 0-12.64z" filter="url(#b)" opacity=".41" transform="translate(965.372 32.072)"/><path style="line-height:1.25;-inkscape-font-specification:GreekC" d="M31.233 28.96l-1.365 7.954H9.782l9.555-12.772-9.504-13.178h20.035l1.365 7.954-1.297.354-2.376-6.96H13.725l7.97 11.038-8.29 11.054h14.542l1.989-5.797z" font-family="GreekC" font-size="34.51" font-weight="400" letter-spacing="0" word-spacing="0"/><g style="line-height:1.25"><path style="-inkscape-font-specification:GreekC" fill="#930000" stroke-width=".863" d="M81.25 35.924h-1.804l-2.763-1.348-1.365-2.595-.489-1.904-.724.927-3.724 3.64-2.663 1.28h-2.763l-3.96-1.28-1.399-2.73v-3.792l1.28-3.673 1.231-2.494 2.662-2.527 3.876-1.247h2.73l2.73 1.33 1.314 2.596 1.011 3.016 1.348-3 1.298-3.909 1.364.489-1.398 3.91-1.955 4.482 1.079 4.448.842 2.174.91.86h1.331zm-6.842-7.515l-.303-1.196-1.197-4.365-1.129-2.426-.91-.91h-1.938l-2.173 1.331-2.292 1.938-1.129 2.19-1.146 3.354v3.235l1.045 2.022 2.056.994h2.072l2.174-1.061 3.522-3.387z" aria-label="a" font-family="GreekC" font-size="34.51" font-weight="400" letter-spacing="0" word-spacing="0"/></g><g style="line-height:1.25"><path style="-inkscape-font-specification:GreekC" fill="#00653b" stroke-width=".863" d="M54.367 31.892l-1.315 2.579-1.432 1.348-3.859 1.263h.657l-.438-.1 2.663 2.527 1.314 2.595v3.842l-1.314 2.578-1.433 1.348-3.858 1.264h-2.73l-2.646-1.28-1.381-1.332-1.332-2.578v-1.753h1.399v1.416l1.112 2.106 1.028 1.011 2.174 1.062h2.039l2.207-1.062 1.045-1.01 1.078-2.107v-3.185l-1.078-2.09-2.208-2.173-3.842-1.213.337-1.214h4.87l2.208-1.078 1.044-1.011 1.096-2.09v-3.083l-2.006-1.938h-1.971v.017l-2.157 1.045-2.241 2.19-2.393 4.533-2.342 6.925-1.213 6.96-1.23 10.868H34.6l-.994-.118 1.264-12.098 1.213-5.932 2.46-7.11 2.46-4.854 2.646-2.51 3.842-1.264h2.763l2.629 1.28 1.483 1.483z" aria-label="b" font-family="GreekC" font-size="34.51" font-weight="400" letter-spacing="0" word-spacing="0"/></g><g style="line-height:1.25"><path style="-inkscape-font-specification:GreekC" fill="#2e45ae" stroke-width=".863" d="M58.718 60.902l-1.399 3.91-1.213 2.443-7.246 9.318-3.707 9.571-1.6.034-.944-.523 4.97-9.588 1.164-4.566v-4.482l-1.045-3.134-2.04-.995H41.16l-2.123 1.045-1.466 1.399-.995-.96 2.798-2.73 2.679-1.264h2.73l2.679 1.263 1.398 1.399 1.281 3.758v4.87l-.152.606 3.69-5.712 1.18-2.258 1.264-3.758h1.584zm-9.167 15.064L48.068 77.4v-1.433z" aria-label="g" font-family="GreekC" font-size="34.51" font-weight="400" letter-spacing="0" word-spacing="0"/></g></svg>