<svg xmlns="http://www.w3.org/2000/svg" xmlns:xlink="http://www.w3.org/1999/xlink" viewBox="0 0 234.334 97.93"><defs><linearGradient id="a"><stop stop-color="#eee"/><stop offset="1" stop-color="#d2d2d2"/></linearGradient><linearGradient id="c" x1="301.8" x2="288.56" y1="267.55" y2="839.03" gradientTransform="translate(0 73.469)" gradientUnits="userSpaceOnUse"><stop offset="0" stop-color="#ffdc10"/><stop offset=".395" stop-color="#f4b908"/><stop offset=".75" stop-color="#eea704"/><stop offset="1" stop-color="#c68000"/></linearGradient><linearGradient id="d" x1="-1108.565" x2="-538.399" y1="82.47" y2="82.47" gradientTransform="matrix(.23765 0 0 .35409 214.682 117.323)" gradientUnits="userSpaceOnUse" xlink:href="#a"/><linearGradient id="e" x1="-753.571" x2="-753.571" y1="721.805" y2="576.091" gradientTransform="matrix(.26458 0 0 .26458 230.5 -25.091)" gradientUnits="userSpaceOnUse" xlink:href="#b"/><linearGradient id="b"><stop offset="0" stop-color="#000500"/><stop offset=".518" stop-color="#4bff67" stop-opacity=".478"/><stop offset="1" stop-color="#264210"/></linearGradient><linearGradient id="f" x1="904.887" x2="937.933" y1="846.003" y2="846.003" gradientUnits="userSpaceOnUse" xlink:href="#c"/><linearGradient id="g" x1="-753.571" x2="-753.571" y1="721.805" y2="576.091" gradientTransform="matrix(.26458 0 0 .26458 257.885 -25.091)" gradientUnits="userSpaceOnUse" xlink:href="#b"/><linearGradient id="h" x1="-753.571" x2="-753.571" y1="721.805" y2="576.091" gradientTransform="matrix(.26458 0 0 .26458 285.27 -25.091)" gradientUnits="userSpaceOnUse" xlink:href="#b"/></defs><g transform="translate(48.841 -98.618)"><rect width="134.825" height="40.177" x="-48.43" y="126.436" fill="url(#d)" stroke="#000" stroke-linecap="round" stroke-width=".823" rx="3.208"/><path fill="url(#e)" d="M-40.564 129.327a4.666 4.666 0 0 0-4.677 4.677v25.646a4.666 4.666 0 0 0 4.677 4.677h15.646a4.667 4.667 0 0 0 4.677-4.677v-25.646a4.667 4.667 0 0 0-4.677-4.677z"/><path fill="url(#f)" stroke="#e0b200" stroke-linecap="round" stroke-linejoin="round" d="M921.201 830.512c-5.281 0-9.794 5.192-10.163 10.89-.363 5.69-.14 7.603-4.071 12.61-1.013.686-1.58 1.452-1.58 2.26 0 2.882 7.184 5.223 16.028 5.223 8.846 0 16.018-2.341 16.018-5.222 0-.806-.563-1.57-1.57-2.25-4.046-6.548-2.87-5.736-4.51-12.836-1.64-7.103-4.933-10.675-10.152-10.675z" transform="translate(-2685.784 -2442.26) scale(3.06128)"/><path fill="#fff" d="M176.788 178.952a42.016 10.533 0 1 1-84.03 0 42.016 10.533 0 1 1 84.03 0z"/><path fill="#be9d00" d="M150.884 177.031a8.53 6.703 0 1 1-17.055 0 8.53 6.703 0 1 1 17.055 0z"/><path fill="#fff" d="M136.876 110.837c3.183 3.73-3.539.301-12.663 9.69-10.357 10.669-7.213 19.627-10.582 16.15-3.378-3.502-1-14.594 4.94-20.88 5.94-6.296 15.137-8.673 18.305-4.96z"/><path fill="url(#g)" d="M-13.179 129.327a4.666 4.666 0 0 0-4.677 4.677v25.646a4.666 4.666 0 0 0 4.677 4.677H2.467a4.667 4.667 0 0 0 4.677-4.677v-25.646a4.667 4.667 0 0 0-4.677-4.677z"/><path fill="url(#h)" d="M14.206 129.327a4.666 4.666 0 0 0-4.677 4.677v25.646a4.666 4.666 0 0 0 4.677 4.677h15.646a4.667 4.667 0 0 0 4.677-4.677v-25.646a4.667 4.667 0 0 0-4.677-4.677z"/></g></svg>