<svg xmlns="http://www.w3.org/2000/svg" xmlns:xlink="http://www.w3.org/1999/xlink" viewBox="0 0 53.429 76.29"><defs><linearGradient id="a"><stop stop-color="#fff" stop-opacity=".679"/><stop offset="1" stop-opacity=".333"/></linearGradient><linearGradient id="b"><stop stop-color="#fff" stop-opacity=".8"/><stop offset="1" stop-color="#fff" stop-opacity="0"/></linearGradient><linearGradient id="c" x2="0" y1="3.1" y2="122.9" gradientUnits="userSpaceOnUse"><stop stop-color="#888a85"/><stop offset="1" stop-color="#babdb6"/></linearGradient><linearGradient id="d"><stop stop-color="#888a85"/><stop offset=".78" stop-color="#555753"/><stop offset="1" stop-color="#2e3436"/></linearGradient><linearGradient id="e"><stop stop-color="#2e3436"/><stop offset="1" stop-color="#2e3436" stop-opacity="0"/></linearGradient><linearGradient id="f"><stop stop-color="#eee"/><stop offset="1" stop-color="#d2d2d2"/></linearGradient><linearGradient id="g"><stop/><stop offset="1" stop-opacity=".536"/></linearGradient><linearGradient id="i"><stop stop-color="#eee"/><stop offset="1" stop-color="#fff"/></linearGradient><linearGradient id="s" x1="126.358" x2="260.23" y1="47.534" y2="47.534" gradientUnits="userSpaceOnUse" xlink:href="#h"/><linearGradient id="h" x2="0" y1="3.1" y2="122.9" gradientUnits="userSpaceOnUse"><stop stop-color="#888a85"/><stop offset="1" stop-color="#babdb6"/></linearGradient><linearGradient id="l" x1="88.071" x2="293.542" y1="360.54" y2="69.707" gradientUnits="userSpaceOnUse" xlink:href="#i"/><linearGradient id="k" x1="91.802" x2="298.191" y1="348.587" y2="58.321" gradientTransform="matrix(.21477 0 0 .21274 83.018 140.78)" gradientUnits="userSpaceOnUse" xlink:href="#j"/><linearGradient id="j"><stop offset="0" stop-color="#e8a6a6"/><stop offset="1" stop-color="#8e5454"/></linearGradient><linearGradient id="m" x1="88.071" x2="293.542" y1="360.54" y2="69.707" gradientUnits="userSpaceOnUse" xlink:href="#i"/><linearGradient id="n" x1="88.071" x2="293.542" y1="360.54" y2="69.707" gradientUnits="userSpaceOnUse" xlink:href="#i"/><linearGradient id="o" x1="88.071" x2="293.542" y1="360.54" y2="69.707" gradientUnits="userSpaceOnUse" xlink:href="#i"/><linearGradient id="p" x1="88.071" x2="293.542" y1="360.54" y2="69.707" gradientUnits="userSpaceOnUse" xlink:href="#i"/><linearGradient id="q" x1="88.071" x2="293.542" y1="360.54" y2="69.707" gradientUnits="userSpaceOnUse" xlink:href="#i"/><linearGradient id="r" x1="88.071" x2="293.542" y1="360.54" y2="69.707" gradientUnits="userSpaceOnUse" xlink:href="#i"/><linearGradient id="t" x1="126.358" x2="260.23" y1="47.534" y2="47.534" gradientUnits="userSpaceOnUse" xlink:href="#h"/><linearGradient id="u" x1="126.358" x2="260.23" y1="47.534" y2="47.534" gradientUnits="userSpaceOnUse" xlink:href="#h"/><linearGradient id="v" x1="126.358" x2="260.23" y1="47.534" y2="47.534" gradientUnits="userSpaceOnUse" xlink:href="#h"/></defs><path fill="url(#k)" stroke="#000" stroke-miterlimit="10" stroke-width=".428" d="M150.167 217.907c0 1.17-1.188 2.119-2.653 2.119h-45.665c-1.465 0-2.653-.949-2.653-2.12v-64.903c0-1.17 1.188-2.119 2.653-2.119h45.665c1.465 0 2.653.95 2.653 2.12z" transform="translate(-97.595 -143.95)"/><g stroke="#000" stroke-miterlimit="10" stroke-width="2"><path fill="#fff" stroke-width=".39608" d="M6.336 8.698l41.455 4.286-6.119 59.172L.217 67.87z"/><path fill="none" stroke-width=".39608" d="M9.882 17.991l4.924.51-.536 5.19-4.925-.509zM18.927 24.173l23.867 2.468M8.724 29.913l4.924.51-.536 5.19-4.925-.509zM17.77 36.095l23.866 2.468M7.354 42.486l4.925.51-.537 5.19-4.924-.509zM16.4 48.668l23.867 2.468M6.196 54.408l4.925.51-.537 5.19L5.66 59.6zM15.242 60.59l23.867 2.468"/></g><g stroke="#000" stroke-miterlimit="10" stroke-width="2"><path fill="#fff" stroke-width=".39608" d="M7.05 9.875l41.668.828-1.182 59.475-41.668-.828z"/><path fill="none" stroke-width=".39608" d="M11.356 18.842l4.95.098-.104 5.218-4.95-.099zM20.883 24.25l23.99.477M11.192 30.819l4.95.098-.104 5.218-4.95-.099zM20.72 36.227l23.99.477M10.872 43.462l4.95.098-.104 5.218-4.95-.098zM20.4 48.87l23.99.478M10.708 55.439l4.95.098-.103 5.218-4.95-.099zM20.236 60.848l23.99.476"/></g><g fill="url(#l)" stroke="#000" stroke-miterlimit="10" stroke-width="2" transform="scale(.19804) rotate(-5.702 3.997 645.971)"><path fill="url(#m)" d="M88.071 60.154h210.445V360.54H88.071z"/><path fill="#59cf84" d="M110.708 104.993h25v26.352h-25z"/><path fill="url(#n)" d="M159.352 131.345h121.162"/><path fill="#d05454" d="M111.083 165.475h25v26.352h-25z"/><path fill="url(#o)" d="M159.727 191.826h121.162"/><path fill="#4550a5" d="M110.736 229.339h25v26.352h-25z"/><path fill="url(#p)" d="M159.38 255.69h121.163"/><path fill="url(#q)" d="M111.111 289.82h25v26.352h-25z"/><path fill="url(#r)" d="M159.755 316.172h121.163"/></g><g fill="url(#s)" transform="matrix(.272 0 0 .272 -25.688 -7.15)"><path fill="url(#t)" d="M232.667 42.367v8.366-.288 4.039h18.999c4.453 0 8.064 3.983 8.064 8.898v4.898H126.858v-4.898c0-4.915 3.61-8.898 8.064-8.898h19V50.54v.288-8.465h30.117c2.829 0 5.553.188 8.45.064a88.843 88.843 0 0 1 6.722-.06c1.235.038 2.252.021 3.486-.002 1.916-.036 3.835 0 5.751 0l15.513.001 8.706.001z"/><path fill="url(#u)" d="M185.541 41.672c1.29 0 3.727.553 3.965-1.125.14-.981-.435-1.236-.682-1.959-.266-.777-.176-2.024-.274-2.852-.216-1.818.869-3.695 2.528-4.5 1.394-.677 3.443-1.688 4.783-.442 1.135 1.053 1.788 2.97 2.239 4.521.681 2.335-.75 5.395-2.634 6.552-.34.208-.69.5-1.074.59-.292.069-.647.005-.944.007-.439.002-.896.001-1.323-.125-.459-.135-.465-.319-.725-.67-.479-.65-1.433-.601-2.108-.746-1.02-.219-2.191.09-3.102.607-.391.222-.977.594-1.147 1.077-.209.594.371.52.774.525 3.108.04 6.216.086 9.324.144 1.25.023 2.5.043 3.749.054.474.004 1.369.205 1.801-.001.364-.173.483-.871.565-1.255.324-1.498.656-2.986.999-4.479.021-.092.04-.186.06-.279.137-.695-.039-1.591-.15-2.283-.238-1.489-.74-2.928-1.557-4.15-.34-.509-.558-1.032-1.02-1.466-.514-.483-1.167-.735-1.699-1.202-.502-.439-.841-.852-1.465-1.13-.454-.203-.996-.375-1.467-.372-.545.003-1.115-.064-1.63.106-.505.168-1.033.333-1.554.435-1.2.234-2.417.201-3.417 1.042a9.439 9.439 0 0 0-1.566 1.668c-.477.645-.755 1.441-1.118 2.196-.456.946-.91 1.904-1.232 2.917-.252.792-.214 1.64-.144 2.468.052.609.333 1.2.454 1.797.228 1.116.607 2.229.982 3.289"/><path fill="url(#v)" stroke="#000" stroke-miterlimit="10" d="M185.528 41.975c-.588-1.418-1.132-3.155-1.132-4.94 0-5.659 3.984-10.246 8.899-10.246 4.915 0 8.995 4.148 8.9 10.246-.025 1.581-.679 3.776-1.503 5.33v0l31.975.002v8.366-.289 4.039h18.999c4.453 0 8.064 3.984 8.064 8.898v4.898H126.858v-4.898c0-4.915 3.61-8.898 8.064-8.898h19v-3.945.289-8.465h30.117l1.656.004a18.39 18.39 0 0 1-.167-.391"/><ellipse cx="193.405" cy="36.258" fill="#262823" stroke="#000" stroke-miterlimit="10" rx="5.174" ry="6.108"/></g></svg>