<svg xmlns="http://www.w3.org/2000/svg" viewBox="0 0 40.626 27.864"><g stroke="#999" stroke-linejoin="bevel" stroke-width=".07" font-family="sans-serif" font-size="10.583" font-weight="400" letter-spacing="0" word-spacing="0"><path d="M.386 7.87c-.165 0-.348.186-.35.35-.005.477.01.962 0 1.4-.004.164.202.276.35.35l3.545 1.746c.591.291 1.398.739 1.398 1.398v9.752c0 .659-.749 1.285-1.398 1.398l-3.545 1.4c-.163.028-.35.184-.35.35v1.396c0 .165.185.35.35.35h15.057c.165 0 .35-.185.35-.35v-1.397c0-.165-.35-.35-.35-.35l-3.627-1.399c-.65-.113-1.399-.74-1.399-1.398v-9.752c0-.659.755-1.258 1.399-1.398l3.627-1.746c.161-.035.35-.185.35-.35v-1.4c0-.164-.185-.349-.35-.349z" style="line-height:1.25" fill="green"/><path d="M13.07.035c-.165 0-.348.185-.35.35-.005.476.01.96 0 1.399-.004.164.202.276.35.35l3.545 1.746c.591.291 1.398.74 1.398 1.398v9.752c0 .66-.748 1.285-1.398 1.398l-3.545 1.4c-.162.028-.35.185-.35.35v1.397c0 .164.185.35.35.35h15.057c.165 0 .35-.186.35-.35v-1.398c0-.164-.35-.35-.35-.35L24.5 16.429c-.65-.113-1.398-.739-1.398-1.398V5.278c0-.659.754-1.258 1.398-1.398l3.627-1.746c.162-.035.35-.185.35-.35V.385c0-.165-.185-.35-.35-.35z" style="line-height:1.25" fill="#00f"/><path d="M25.184 7.94c-.165 0-.348.184-.35.349-.005.477.01.961 0 1.4-.004.164.202.276.35.349l3.545 1.747c.591.29 1.398.739 1.398 1.398v9.751c0 .66-.748 1.286-1.398 1.399l-3.545 1.4c-.162.028-.35.184-.35.349v1.397c0 .165.185.35.35.35H40.24c.165 0 .35-.185.35-.35v-1.397c0-.165-.35-.35-.35-.35l-3.627-1.4c-.65-.112-1.398-.738-1.398-1.398v-9.751c0-.66.754-1.259 1.398-1.398l3.627-1.747c.162-.035.35-.185.35-.35V8.29c0-.164-.185-.35-.35-.35z" style="line-height:1.25" fill="red"/></g></svg>