<svg xmlns="http://www.w3.org/2000/svg" xmlns:xlink="http://www.w3.org/1999/xlink" viewBox="0 0 68.349 55.456"><defs><linearGradient id="k" x1="-108.12" x2="-103.612" y1="457.759" y2="457.759" gradientTransform="matrix(15.23463 0 0 16.68114 947.063 -6731.805)" gradientUnits="userSpaceOnUse" xlink:href="#a"/><linearGradient id="a"><stop stop-color="#eee"/><stop offset="1" stop-color="#d2d2d2"/></linearGradient><linearGradient id="l" x1="-104.335" x2="-104.334" y1="458.468" y2="458.78" gradientTransform="matrix(47.2193 0 0 47.64129 4262.067 -20970.865)" gradientUnits="userSpaceOnUse" xlink:href="#b"/><linearGradient id="b"><stop offset="0" stop-color="#616c82"/><stop offset=".522" stop-color="#7f83a5"/><stop offset="1" stop-color="#667086"/></linearGradient><radialGradient id="m" cx="-107.006" cy="457.498" r=".508" fx="-107.006" fy="457.498" gradientTransform="matrix(11.94548 0 0 12.02838 594.782 -4606.392)" gradientUnits="userSpaceOnUse" xlink:href="#c"/><linearGradient id="c"><stop offset="0" stop-color="#ecc80e"/><stop offset="1" stop-color="#b98915"/></linearGradient><radialGradient id="n" cx="-107.013" cy="458.733" r=".405" fx="-107.013" fy="458.733" gradientTransform="matrix(15.26365 0 0 15.26365 949.761 -6090.56)" gradientUnits="userSpaceOnUse" xlink:href="#d"/><linearGradient id="d"><stop offset="0" stop-color="#e7e7e9"/><stop offset="1" stop-color="#8b8c8d"/></linearGradient><radialGradient id="o" cx="-107.013" cy="458.733" r=".405" fx="-107.013" fy="458.733" gradientTransform="matrix(15.26365 0 0 15.26365 949.81 -6075.854)" gradientUnits="userSpaceOnUse" xlink:href="#d"/><linearGradient id="p" x1="291.58" x2="277.7" y1="331.83" y2="313.13" gradientTransform="matrix(.26458 0 0 .26458 -397.877 510.466)" gradientUnits="userSpaceOnUse" xlink:href="#e"/><linearGradient id="e" x1="291.58" x2="277.7" y1="331.83" y2="313.13" gradientTransform="matrix(.26458 0 0 .26458 -397.877 510.466)" gradientUnits="userSpaceOnUse"><stop offset="0" stop-color="#666"/><stop offset="1" stop-color="#505050"/></linearGradient><linearGradient id="q" x1="211.6" x2="217.35" y1="656.93" y2="660.68" gradientTransform="matrix(.26458 0 0 .26458 -397.877 510.466)" gradientUnits="userSpaceOnUse" xlink:href="#f"/><linearGradient id="f" x1="211.6" x2="217.35" y1="656.93" y2="660.68" gradientTransform="matrix(.26458 0 0 .26458 -397.877 510.466)" gradientUnits="userSpaceOnUse"><stop offset="0" stop-color="#b3b3b3"/><stop offset="1" stop-color="#c3c3c3"/></linearGradient><linearGradient id="r" x1="354.89" x2="342.98" y1="538.12" y2="530.94" gradientTransform="matrix(.26458 0 0 .26458 -397.877 510.466)" gradientUnits="userSpaceOnUse" xlink:href="#g"/><linearGradient id="g" x1="354.89" x2="342.98" y1="538.12" y2="530.94" gradientTransform="matrix(.26458 0 0 .26458 -397.877 510.466)" gradientUnits="userSpaceOnUse"><stop offset="0" stop-color="#b3b3b3"/><stop offset="1" stop-color="#666"/></linearGradient><linearGradient id="s" x1="401.11" x2="404.38" y1="258.05" y2="261.59" gradientTransform="matrix(.26458 0 0 .26458 -397.877 510.466)" gradientUnits="userSpaceOnUse" xlink:href="#h"/><linearGradient id="h" x1="401.11" x2="404.38" y1="258.05" y2="261.59" gradientTransform="matrix(.26458 0 0 .26458 -397.877 510.466)" gradientUnits="userSpaceOnUse"><stop offset="0" stop-color="#ccc"/><stop offset="1" stop-color="#4d4d4d"/></linearGradient><linearGradient id="t" x1="398.43" x2="402.87" y1="683.65" y2="685.39" gradientTransform="matrix(.26458 0 0 .26458 -397.877 510.466)" gradientUnits="userSpaceOnUse" xlink:href="#i"/><linearGradient id="i" x1="398.43" x2="402.87" y1="683.65" y2="685.39" gradientTransform="matrix(.26458 0 0 .26458 -397.877 510.466)" gradientUnits="userSpaceOnUse"><stop offset="0" stop-color="#b3b3b3"/><stop offset="1" stop-color="#4d4d4d"/></linearGradient><linearGradient id="u" x1="342.25" x2="359.239" y1="-112.642" y2="-103.288" gradientTransform="matrix(1.224 0 0 1.224 -316.924 770.628)" gradientUnits="userSpaceOnUse" xlink:href="#j"/><linearGradient id="j"><stop offset="0" stop-color="#fff9a6"/><stop offset="1" stop-color="#b9ad1b"/></linearGradient></defs><g transform="translate(-57.708 -597.952)"><circle cx="90.561" cy="631.024" r="21.186" fill="none" stroke="#267510" stroke-linecap="round" stroke-linejoin="bevel" stroke-width="2.397" paint-order="markers fill stroke"/><path fill="url(#k)" stroke="#292e51" stroke-linecap="round" stroke-width="2.95" d="M-698.695 871.295h65.86v65.675h-65.86z" transform="matrix(.33994 0 0 .33994 295.722 329.404)"/><path fill="url(#l)" stroke="#292e51" stroke-linecap="round" stroke-width="2.825" d="M-698.758 871.233h65.986v14.728h-65.986z" transform="matrix(.33994 0 0 .33994 295.722 329.404)"/><path fill="url(#m)" stroke="#8e8f8f" stroke-linecap="round" stroke-width=".925" d="M-689.078 890.945h11.248v11.248h-11.248z" transform="matrix(.33994 0 0 .33994 295.722 329.404)"/><path fill="url(#n)" stroke="#8e8f8f" stroke-linecap="round" stroke-width="1.13" d="M-689.265 905.756h11.248v11.248h-11.248z" transform="matrix(.33994 0 0 .33994 295.722 329.404)"/><path fill="none" stroke="#8e8f8f" stroke-width=".8994812400000001" d="M67.687 639.197h8.599"/><path fill="none" stroke="#087676" stroke-width=".8994812400000001" d="M67.78 634.325h8.598"/><path fill="url(#o)" stroke="#8e8f8f" stroke-linecap="round" stroke-width="1.13" d="M-689.215 920.462h11.248v11.248h-11.248z" transform="matrix(.33994 0 0 .33994 295.722 329.404)"/><path fill="none" stroke="#8e8f8f" stroke-width=".8994812400000001" d="M67.704 644.196h8.598"/><g><path fill="url(#p)" stroke="#666" stroke-linejoin="bevel" stroke-width=".265" d="M-309.49 591.328l-14.304 3.112c-2.437.53-5.291 2.797-5.291 5.291v6.93l19.595-15.33z" transform="matrix(.17674 0 0 .17674 148.012 500.274)"/><path fill="url(#q)" d="M-339.669 680.882l-5.291 7.485c2.457-.428 5.291-2.797 5.291-5.292v-2.191z" transform="matrix(.17674 0 0 .17674 148.012 500.274)"/><path fill="#b3b3b3" stroke="#b3b3b3" stroke-linejoin="bevel" stroke-width=".046836100000000006" d="M81.546 622.922l11.756-13.598 3.035-.528-9.292 13.137z"/><path fill="#b3b3b3" d="M93.302 597.975l-.132.132v.528l.132.132 3.035.66c.243.053.528.28.528.528v8.314c0 .248-.282.485-.528.527l-3.035.529-.131.131v.528l.131.132h8.182l.132-.132v-.528l-.132-.131-3.035-.529c-.245-.042-.528-.279-.528-.527v-8.314c0-.249.285-.475.528-.528l3.035-.659.132-.132v-.528l-.132-.132z"/><path fill="#666" stroke="#666" stroke-linejoin="bevel" stroke-width=".046836100000000006" d="M89.85 622.223l8.07-12.73v-8.313l-8.07 6.313z"/><path fill="url(#r)" d="M-283.429 611.04l-6.63 10.461-39.026 61.574c0 2.495 2.834 4.864 5.291 5.292l.472.082 38.586-66.947 4.3-7.466a3.676 3.676 0 0 1-1.058-.372 4.382 4.382 0 0 1-.96-.687 3.487 3.487 0 0 1-.702-.9 2.478 2.478 0 0 1-.199-.505 2.054 2.054 0 0 1-.074-.53z" transform="matrix(.17674 0 0 .17674 148.012 500.274)"/><path fill="#ccc" stroke="#ccc" stroke-linejoin="bevel" stroke-width=".046836100000000006" d="M96.164 602.76l5.32-4.785h-8.182l-11.634 4.785z"/><path fill="url(#s)" d="M-293.367 579.882l1.323 1.323 29.525-27.651c.01-.445-.31-.74-.747-.747z" transform="matrix(.17674 0 0 .17674 148.012 500.274)"/><path fill="#4d4d4d" stroke="#4d4d4d" stroke-linejoin="bevel" stroke-width=".046836100000000006" d="M96.332 604.069l5.263-5.412c.012-.02.017-.026.02-.052v-.498l-5.218 4.887z"/><path fill="#b3b3b3" stroke="#b3b3b3" stroke-linejoin="bevel" stroke-width=".046836100000000006" d="M96.164 622.869l5.32-13.545-3.036-.528-7.662 13.137z"/><path fill="url(#t)" d="M-263.27 617.02l-30.097 76.638c.615.107 1.323.7 1.323 1.323l29.525-77.218c.06-.333-.391-.69-.752-.744z" transform="matrix(.17674 0 0 .17674 148.012 500.274)"/><path fill="#4d4d4d" stroke="#4d4d4d" stroke-linejoin="bevel" stroke-width=".046836100000000006" d="M96.383 624.107l5.233-14.123v-.528l-5.218 13.647z"/><path fill="#999" stroke="#999" stroke-linejoin="bevel" stroke-width=".046836100000000006" d="M81.668 602.76c-.11 0-.233.124-.234.234-.004.319.007.643 0 .936-.003.11.126.21.234.234l5.377 1.168c.431.094.935.495.935.936v14.73c0 .44-.5.86-.935.935l-5.377.936c-.109.019-.234.124-.234.234v.934c0 .11.123.234.234.234h14.496c.11 0 .234-.123.234-.234v-.934c0-.11-.126-.215-.234-.234l-5.378-.936c-.434-.076-.935-.495-.935-.935v-14.73c0-.441.504-.842.935-.936l5.378-1.168c.107-.023.234-.123.234-.234v-.935c0-.11-.124-.234-.234-.234z"/></g><path fill="url(#u)" stroke="#000" stroke-width=".612" d="M101.785 626.179v9.912h-10.12v10.433h34.087v-10.433h-10.12v-9.912h-6.923z"/></g></svg>