<svg xmlns="http://www.w3.org/2000/svg" xmlns:xlink="http://www.w3.org/1999/xlink" viewBox="0 0 145.198 149.059"><defs><linearGradient id="e" x1="-108.12" x2="-103.612" y1="457.759" y2="457.759" gradientTransform="matrix(15.23463 0 0 16.68114 947.063 -6731.805)" gradientUnits="userSpaceOnUse" xlink:href="#a"/><linearGradient id="a"><stop stop-color="#eee"/><stop offset="1" stop-color="#d2d2d2"/></linearGradient><linearGradient id="f" x1="-104.335" x2="-104.334" y1="458.468" y2="458.78" gradientTransform="matrix(47.2193 0 0 47.64129 4262.067 -20970.865)" gradientUnits="userSpaceOnUse" xlink:href="#b"/><linearGradient id="b"><stop offset="0" stop-color="#616c82"/><stop offset=".522" stop-color="#7f83a5"/><stop offset="1" stop-color="#667086"/></linearGradient><radialGradient id="g" cx="-107.006" cy="457.498" r=".508" fx="-107.006" fy="457.498" gradientTransform="matrix(11.94548 0 0 12.02838 594.782 -4606.392)" gradientUnits="userSpaceOnUse" xlink:href="#c"/><linearGradient id="c"><stop offset="0" stop-color="#ecc80e"/><stop offset="1" stop-color="#b98915"/></linearGradient><radialGradient id="h" cx="-107.013" cy="458.733" r=".405" fx="-107.013" fy="458.733" gradientTransform="matrix(15.26365 0 0 15.26365 949.761 -6090.56)" gradientUnits="userSpaceOnUse" xlink:href="#d"/><linearGradient id="d"><stop offset="0" stop-color="#e7e7e9"/><stop offset="1" stop-color="#8b8c8d"/></linearGradient><radialGradient id="i" cx="-107.013" cy="458.733" r=".405" fx="-107.013" fy="458.733" gradientTransform="matrix(15.26365 0 0 15.26365 949.81 -6075.854)" gradientUnits="userSpaceOnUse" xlink:href="#d"/></defs><path fill="url(#e)" stroke="#292e51" stroke-linecap="round" stroke-width="2.95" d="M-698.695 871.295h65.86v65.675h-65.86z" transform="translate(776.558 -789.386)"/><path fill="url(#f)" stroke="#292e51" stroke-linecap="round" stroke-width="2.825" d="M-698.758 871.233h65.986v14.728h-65.986z" transform="translate(776.558 -789.386)"/><path fill="url(#g)" stroke="#8e8f8f" stroke-linecap="round" stroke-width=".925" d="M-689.078 890.945h11.248v11.248h-11.248z" transform="translate(776.558 -789.386)"/><path fill="url(#h)" stroke="#8e8f8f" stroke-linecap="round" stroke-width="1.13" d="M-689.265 905.756h11.248v11.248h-11.248z" transform="translate(776.558 -789.386)"/><path fill="none" stroke="#8e8f8f" stroke-width="2.646" d="M105.743 121.94h25.293"/><path fill="none" stroke="#087676" stroke-width="2.646" d="M106.014 107.607h25.293"/><path fill="url(#i)" stroke="#8e8f8f" stroke-linecap="round" stroke-width="1.13" d="M-689.215 920.462h11.248v11.248h-11.248z" transform="translate(776.558 -789.386)"/><path fill="none" stroke="#8e8f8f" stroke-width="2.646" d="M105.793 136.645h25.293"/><g stroke="#4d4d4d" stroke-linecap="round" transform="translate(538.36 -880.642)"><circle cx="-525.719" cy="893.284" r="11.642" fill="#fff" stroke-linejoin="round" stroke-width="2" paint-order="markers fill stroke"/><circle cx="-525.719" cy="921.286" r="11.642" fill="#006fe2" stroke-linejoin="round" stroke-width="2" paint-order="markers fill stroke"/><circle cx="-525.719" cy="949.288" r="11.642" fill="#8a8a21" stroke-linejoin="round" stroke-width="2" paint-order="markers fill stroke"/><path stroke-width="5" d="M-505.939 891.51h43.529M-505.939 920.321h43.529M-505.939 949.133h43.529"/></g><g fill="maroon"><path d="M129.33 45.786c.354.958-.198 3.317-1.503 7.828-5.705 19.732-6.643 19.991-7.67 20.464l-.548.122c-1.182-.085-1.834-.525-8.963-5.07a957.361 957.361 0 0 0-9.217-5.755c-7.66-4.727-7.775-5.09-2.352-7.162 3.21-1.227 3.434-1.347 3.811-2.19.343-.768.257-1.313-.452-3.686-1.937-6.485-6.008-12.657-11.404-17.296-2.253-1.936-3.012-2.507-6.043-4.288-1.452-.854-1.872-1.227-2.257-2.234-.35-.91-.306-1.317.015-1.687 1.662-1.917 7.47-.872 15.633 2.815 8.22 3.713 14.81 9.189 20.205 16.863 2.309 3.283 2.348 3.313 6.461 1.741 2.608-.997 3.93-1.42 4.285-.464z"/></g></svg>